<svg width="529" height="431" viewBox="0 0 529 431" fill="none" xmlns="http://www.w3.org/2000/svg">
<g filter="url(#filter0_d)">
<path d="M26.3399 62.07C23.1299 62.07 20.1899 61.44 17.5099 60.2C14.8299 58.96 12.6899 57.28 11.0899 55.18C9.47993 53.09 8.67993 50.79 8.67993 48.29C8.67993 45.44 9.63993 43.07 11.5599 41.2C13.4799 39.33 16.7499 37.59 21.3899 35.98L41.4599 28.89V21.13C41.4599 18.72 40.7499 16.56 39.3199 14.64C37.8899 12.72 35.9999 11.23 33.6299 10.16C31.2699 9.09 28.5699 8.55 25.5399 8.55C22.9499 8.55 21.2099 9.06 20.3199 10.09C19.4299 11.12 18.8899 13.23 18.7099 16.44L18.5799 20.72C15.9899 21.43 13.7399 21.37 11.8199 20.52C9.89993 19.67 8.93993 18.31 8.93993 16.44C8.93993 15.1 9.49993 13.72 10.6099 12.29C11.7199 10.86 13.2199 9.5 15.0899 8.21C16.9599 6.92 19.0599 5.82 21.3799 4.93C23.6999 4.04 26.1099 3.41 28.5999 3.06C34.4899 3.06 39.2799 4.73 42.9799 8.08C46.6799 11.42 48.5799 15.82 48.6699 21.26L48.3999 45.61C48.3999 46.86 48.4899 48.38 48.6699 50.16C48.8499 51.95 49.0299 53.19 49.2099 53.91L57.6399 55.52V58.86L52.0199 60.73C50.9499 61.09 49.9699 61.4 49.0799 61.67C48.1899 61.94 47.4699 62.07 46.9399 62.07C44.5299 62.07 43.0599 60.64 42.5199 57.79L41.5799 52.97L43.1899 52.57C40.1599 55.87 37.2999 58.28 34.6299 59.79C31.9599 61.3 29.1899 62.07 26.3399 62.07ZM28.3499 56.18C30.8499 56.18 33.1699 55.6 35.3099 54.44C37.4499 53.28 39.4999 51.5 41.4599 49.09V34.51L23.5299 39.73C21.3899 40.36 19.8499 41.27 18.9099 42.47C17.9699 43.67 17.5099 45.21 17.5099 47.09C17.5099 49.41 18.6199 51.51 20.8499 53.38C23.0799 55.25 25.5799 56.18 28.3499 56.18Z" fill="url(#paint0_radial)"/>
<path d="M88.6098 62.07C85.2198 62.07 82.1698 61.4 79.4498 60.06C76.7298 58.72 74.5698 56.98 72.9598 54.84C71.3498 52.7 70.5498 50.42 70.5498 48.02C70.5498 45.08 71.5298 42.65 73.4898 40.73C75.4498 38.81 78.7098 37.1 83.2598 35.58L103.46 28.62V21.26C103.46 18.85 102.77 16.71 101.39 14.84C100.01 12.97 98.1598 11.5 95.8398 10.42C93.5198 9.34998 90.8898 8.80998 87.9498 8.80998C85.5398 8.80998 83.9098 9.29998 83.0698 10.28C82.2198 11.26 81.7098 13.27 81.5298 16.3L81.2598 21.12C78.3998 21.92 75.9798 21.86 73.9698 20.92C71.9598 19.98 70.9598 18.53 70.9598 16.57C70.9598 15.23 71.5598 13.81 72.7698 12.29C73.9698 10.77 75.5598 9.36999 77.5198 8.07999C79.4798 6.78999 81.6398 5.66998 84.0098 4.73998C86.3698 3.79998 88.7998 3.15999 91.2998 2.79999C97.4498 2.79999 102.45 4.49998 106.28 7.87998C110.11 11.27 112.08 15.73 112.17 21.26L111.9 44.81C111.9 46.24 111.97 47.82 112.1 49.56C112.23 51.3 112.43 52.53 112.7 53.24L121.13 54.85V58.46L115.11 60.6C113.95 61.05 112.9 61.4 111.97 61.67C111.04 61.94 110.25 62.07 109.63 62.07C107.04 62.07 105.44 60.6 104.81 57.65L103.61 52.7L105.48 52.43C102.45 55.73 99.5698 58.16 96.8498 59.72C94.1198 61.29 91.3798 62.07 88.6098 62.07ZM91.1598 55.38C93.5698 55.38 95.7798 54.84 97.7798 53.77C99.7798 52.7 101.68 51.05 103.47 48.82V34.37L86.7498 39.19C84.6098 39.73 83.0698 40.59 82.1298 41.8C81.1898 43.01 80.7298 44.54 80.7298 46.42C80.7298 48.65 81.7998 50.7 83.9398 52.57C86.0798 54.44 88.4798 55.38 91.1598 55.38Z" fill="url(#paint1_radial)"/>
<path d="M151.16 62.07C147.59 62.07 144.42 61.36 141.66 59.93C138.89 58.5 136.73 56.68 135.17 54.44C133.61 52.21 132.83 49.89 132.83 47.48C132.83 44.54 133.79 42.08 135.71 40.12C137.63 38.16 140.86 36.42 145.41 34.9L165.75 28.08V21.26C165.75 19.03 165.08 17 163.74 15.17C162.4 13.34 160.62 11.89 158.39 10.82C156.16 9.74999 153.66 9.20999 150.9 9.20999C148.67 9.20999 147.15 9.67999 146.35 10.61C145.55 11.54 145.06 13.4 144.88 16.16L144.61 21.78C141.4 22.49 138.68 22.38 136.45 21.45C134.22 20.51 133.11 18.97 133.11 16.83C133.11 15.31 133.78 13.8 135.12 12.28C136.46 10.76 138.2 9.31999 140.34 7.92999C142.48 6.54999 144.78 5.36999 147.23 4.37999C149.68 3.39999 152.11 2.73 154.52 2.37C161.03 2.37 166.29 4.08999 170.31 7.51999C174.32 10.95 176.37 15.53 176.46 21.23L176.19 43.71C176.19 45.32 176.26 46.94 176.39 48.59C176.52 50.24 176.72 51.47 176.99 52.27L185.55 53.88V58.03L178.99 60.44C177.74 60.98 176.58 61.38 175.51 61.64C174.44 61.9 173.55 62.04 172.83 62.04C170.06 62.04 168.28 60.48 167.48 57.36L166.01 52.14H168.02C165.08 55.44 162.24 57.92 159.52 59.57C156.8 61.24 154.01 62.07 151.16 62.07ZM154.77 54.18C156.82 54.18 158.76 53.71 160.59 52.78C162.42 51.84 164.14 50.39 165.74 48.43V34.38L150.76 38.39C148.62 38.93 147.08 39.77 146.14 40.93C145.2 42.09 144.74 43.56 144.74 45.35C144.74 47.58 145.74 49.61 147.75 51.44C149.75 53.26 152.09 54.18 154.77 54.18Z" fill="url(#paint2_radial)"/>
<path d="M214.37 62.07C210.62 62.07 207.32 61.29 204.47 59.73C201.61 58.17 199.43 56.23 197.91 53.91C196.39 51.59 195.64 49.27 195.64 46.95C195.64 43.92 196.6 41.4 198.52 39.39C200.44 37.38 203.62 35.67 208.09 34.24L228.69 27.55V21.4C228.69 19.35 228.04 17.43 226.75 15.65C225.46 13.87 223.74 12.44 221.6 11.37C219.46 10.3 217.05 9.76 214.38 9.76C212.51 9.76 211.19 10.18 210.43 11.03C209.67 11.88 209.2 13.55 209.03 16.05L208.63 22.47C205.06 23.27 202.05 23.16 199.6 22.14C197.15 21.12 195.92 19.4 195.92 16.99C195.92 15.47 196.66 13.91 198.13 12.31C199.6 10.71 201.47 9.17 203.75 7.69C206.03 6.21 208.45 4.99 211.04 4.01C213.63 3.03 216.08 2.36 218.4 2C225.36 2 230.95 3.76 235.19 7.28C239.43 10.8 241.59 15.46 241.68 21.26L241.28 42.4C241.28 44.36 241.35 46.13 241.48 47.68C241.61 49.24 241.86 50.42 242.22 51.23L250.78 52.84V57.39L243.56 60.33C242.22 60.87 240.97 61.29 239.81 61.6C238.65 61.91 237.62 62.07 236.73 62.07C233.7 62.07 231.69 60.46 230.71 57.25L228.97 51.63L231.24 51.9C228.38 55.2 225.55 57.72 222.74 59.46C219.93 61.2 217.13 62.07 214.37 62.07ZM219.05 52.84C220.83 52.84 222.53 52.44 224.13 51.64C225.73 50.84 227.25 49.63 228.68 48.03V34.25L215.57 37.46C213.43 38 211.89 38.82 210.95 39.94C210.01 41.06 209.55 42.51 209.55 44.29C209.55 46.52 210.49 48.5 212.36 50.24C214.23 51.98 216.47 52.84 219.05 52.84Z" fill="url(#paint3_radial)"/>
<path d="M278.39 62.07C274.38 62.07 270.92 61.22 268.02 59.53C265.12 57.84 262.91 55.78 261.4 53.38C259.88 50.97 259.13 48.65 259.13 46.42C259.13 43.3 260.11 40.69 262.07 38.59C264.03 36.5 267.15 34.78 271.44 33.44L292.31 27.02V21.53C292.31 19.57 291.68 17.74 290.44 16.04C289.19 14.35 287.54 12.96 285.49 11.89C283.44 10.82 281.21 10.28 278.8 10.28C277.1 10.28 275.92 10.66 275.25 11.42C274.58 12.18 274.16 13.67 273.98 15.9L273.44 23.12C269.43 24.01 266.1 23.9 263.47 22.79C260.84 21.68 259.52 19.83 259.52 17.24C259.52 15.63 260.32 13.99 261.93 12.29C263.54 10.6 265.56 8.99002 268.02 7.47002C270.47 5.95002 273.04 4.66001 275.71 3.59001C278.38 2.52001 280.84 1.85002 283.07 1.58002C290.65 1.58002 296.65 3.37002 301.06 6.93002C305.48 10.5 307.73 15.27 307.82 21.25L307.42 40.92C307.42 43.24 307.49 45.13 307.62 46.61C307.75 48.09 308 49.26 308.36 50.16L317.06 51.77V56.85L309.17 60.19C307.65 60.82 306.25 61.28 304.96 61.59C303.67 61.9 302.48 62.06 301.41 62.06C298.2 62.06 295.97 60.37 294.72 56.98L292.71 51.09L295.25 51.63C292.48 54.93 289.67 57.5 286.82 59.32C283.96 61.15 281.15 62.07 278.39 62.07ZM284.14 51.23C285.66 51.23 287.1 50.94 288.49 50.36C289.87 49.78 291.14 48.82 292.3 47.48V34.1L281.33 36.51C279.19 36.96 277.65 37.71 276.71 38.78C275.77 39.85 275.31 41.28 275.31 43.06C275.31 45.2 276.18 47.1 277.92 48.75C279.66 50.41 281.74 51.23 284.14 51.23Z" fill="url(#paint4_radial)"/>
<path d="M344.02 62.07C339.92 62.07 336.37 61.18 333.38 59.39C330.39 57.61 328.12 55.47 326.56 52.97C325 50.47 324.22 48.11 324.22 45.88C324.22 42.58 325.22 39.86 327.23 37.72C329.24 35.58 332.33 33.89 336.53 32.64L357.53 26.49V21.67C357.53 19.8 356.93 18.04 355.72 16.39C354.52 14.74 352.93 13.38 350.97 12.31C349.01 11.24 346.91 10.7 344.68 10.7C343.25 10.7 342.25 11.03 341.67 11.7C341.09 12.37 340.71 13.69 340.53 15.65L339.86 23.81C335.4 24.7 331.77 24.55 328.96 23.34C326.15 22.13 324.75 20.15 324.75 17.39C324.75 15.7 325.64 13.96 327.43 12.17C329.21 10.39 331.42 8.71002 334.05 7.15002C336.68 5.59002 339.38 4.25001 342.14 3.14001C344.9 2.03001 347.36 1.38001 349.5 1.20001C357.35 1.20001 363.61 3.01002 368.3 6.62002C372.99 10.23 375.32 15.07 375.32 21.14L374.92 39.74C374.92 42.24 374.99 44.18 375.12 45.56C375.25 46.94 375.54 48.08 375.99 48.97L384.69 50.58V56.2L375.99 60.08C374.47 60.71 373.02 61.19 371.64 61.55C370.26 61.91 368.94 62.09 367.69 62.09C364.21 62.09 361.76 60.31 360.33 56.74L358.06 50.59L360.87 51.26C358.1 54.65 355.27 57.3 352.37 59.22C349.48 61.11 346.69 62.07 344.02 62.07ZM350.84 50.03C352.09 50.03 353.29 49.79 354.45 49.29C355.61 48.8 356.68 48.06 357.66 47.08V33.97L348.56 35.58C346.42 35.94 344.86 36.65 343.88 37.72C342.9 38.79 342.41 40.17 342.41 41.87C342.41 44.01 343.23 45.91 344.89 47.56C346.54 49.21 348.52 50.03 350.84 50.03Z" fill="url(#paint5_radial)"/>
<path d="M411.25 62.07C406.97 62.07 403.31 61.15 400.28 59.33C397.25 57.5 394.93 55.27 393.32 52.64C391.71 50.01 390.91 47.58 390.91 45.35C390.91 41.96 391.91 39.15 393.92 36.92C395.93 34.69 399.02 33 403.22 31.84L424.36 25.95V21.94C424.36 20.07 423.8 18.33 422.69 16.72C421.57 15.11 420.08 13.78 418.21 12.71C416.34 11.64 414.37 11.1 412.32 11.1C411.07 11.1 410.2 11.41 409.71 12.04C409.22 12.67 408.88 13.78 408.71 15.38L407.91 24.48C403.09 25.37 399.17 25.19 396.14 23.94C393.11 22.69 391.59 20.6 391.59 17.65C391.59 15.78 392.55 13.88 394.47 11.96C396.39 10.04 398.77 8.28003 401.63 6.68003C404.48 5.07003 407.36 3.72003 410.26 2.60003C413.16 1.49003 415.54 0.840034 417.42 0.660034C425.8 0.660034 432.43 2.49003 437.29 6.15003C442.15 9.81003 444.58 14.8 444.58 21.13L444.18 38.39C444.18 41.16 444.27 43.21 444.45 44.54C444.63 45.88 444.9 46.99 445.25 47.88L454.21 49.49V55.64L444.71 59.79C443.01 60.59 441.43 61.17 439.96 61.53C438.49 61.89 437.04 62.07 435.61 62.07C431.86 62.07 429.23 60.2 427.72 56.45L425.04 50.03L428.12 50.7C425.44 54.18 422.63 56.94 419.69 58.99C416.75 61.04 413.93 62.07 411.25 62.07ZM419.15 48.69C420.13 48.69 421.09 48.51 422.03 48.15C422.97 47.79 423.84 47.26 424.64 46.54V33.83L417.55 34.77C415.32 34.95 413.71 35.57 412.73 36.64C411.75 37.71 411.26 39.09 411.26 40.79C411.26 42.75 412.06 44.56 413.67 46.21C415.27 47.87 417.09 48.69 419.15 48.69Z" fill="url(#paint6_radial)"/>
<path d="M480.1 62.07C475.73 62.07 471.98 61.11 468.86 59.19C465.74 57.27 463.37 54.95 461.77 52.23C460.16 49.51 459.36 47.04 459.36 44.8C459.36 41.32 460.36 38.45 462.37 36.17C464.38 33.89 467.43 32.22 471.53 31.15L492.94 25.4V22.06C492.94 20.28 492.38 18.58 491.27 16.98C490.15 15.37 488.7 14.04 486.92 12.97C485.13 11.9 483.31 11.36 481.43 11.36C480.45 11.36 479.73 11.65 479.29 12.23C478.84 12.81 478.53 13.77 478.35 15.11L477.41 25.01C472.24 25.99 468.04 25.81 464.83 24.47C461.62 23.13 460.01 20.9 460.01 17.78C460.01 15.82 461.06 13.83 463.15 11.83C465.24 9.82 467.81 8 470.84 6.34C473.87 4.69 476.86 3.31 479.8 2.19C482.74 1.08 485.11 0.43 486.89 0.25C495.63 0.25 502.54 2.1 507.63 5.8C512.71 9.5 515.21 14.56 515.12 20.99L514.72 37.18C514.72 40.21 514.81 42.35 514.99 43.6C515.17 44.85 515.48 45.92 515.93 46.81L524.89 48.42V55.11L514.72 59.66C513.02 60.46 511.38 61.06 509.77 61.47C508.16 61.88 506.6 62.07 505.09 62.07C501.08 62.07 498.22 60.11 496.53 56.18L493.59 49.49L496.93 50.29C494.25 53.86 491.42 56.71 488.43 58.85C485.47 61 482.68 62.07 480.1 62.07ZM488.93 47.49C489.64 47.49 490.38 47.38 491.14 47.16C491.9 46.94 492.59 46.6 493.21 46.16V33.72L487.86 33.99C485.63 34.08 484.02 34.66 483.04 35.73C482.06 36.8 481.57 38.14 481.57 39.74C481.57 41.7 482.33 43.49 483.84 45.09C485.36 46.68 487.05 47.49 488.93 47.49Z" fill="url(#paint7_radial)"/>
<path d="M24.7098 134.02C21.4898 134.02 18.5898 133.39 16.0098 132.12C13.4298 130.85 11.3798 129.2 9.84982 127.17C8.31982 125.14 7.55981 122.98 7.55981 120.7C7.55981 117.91 8.48982 115.6 10.3498 113.78C12.2098 111.96 15.2998 110.33 19.6198 108.89L38.7898 102.29V95.31C38.7898 93.02 38.1298 90.99 36.8198 89.22C35.5098 87.44 33.7498 86.05 31.5498 85.03C29.3498 84.01 26.8498 83.51 24.0598 83.51C21.7698 83.51 20.2298 83.98 19.4298 84.91C18.6198 85.84 18.1398 87.75 17.9698 90.62L17.7198 95.19C15.0098 95.95 12.7098 95.89 10.7998 95C8.88981 94.11 7.93982 92.74 7.93982 90.87C7.93982 89.6 8.50981 88.25 9.64981 86.81C10.7898 85.37 12.2898 84.04 14.1598 82.81C16.0198 81.58 18.0698 80.52 20.3198 79.64C22.5598 78.75 24.8698 78.14 27.2398 77.8C33.0798 77.8 37.8198 79.41 41.4598 82.62C45.0998 85.84 46.9598 90.07 47.0498 95.32L46.7998 117.66C46.7998 119.01 46.8598 120.52 46.9898 122.17C47.1198 123.82 47.3098 124.98 47.5598 125.66L55.5598 127.18V130.61L49.8498 132.64C48.7498 133.06 47.7598 133.4 46.8698 133.66C45.9798 133.92 45.2398 134.04 44.6498 134.04C42.1898 134.04 40.6698 132.64 40.0798 129.85L38.9398 125.15L40.7198 124.9C37.8398 128.03 35.1098 130.34 32.5298 131.82C29.9298 133.27 27.3298 134.02 24.7098 134.02ZM27.1198 127.67C29.4098 127.67 31.4998 127.16 33.3998 126.15C35.2998 125.14 37.0998 123.57 38.7998 121.45V107.74L22.9298 112.31C20.8998 112.82 19.4398 113.64 18.5498 114.79C17.6598 115.94 17.2198 117.39 17.2198 119.17C17.2198 121.29 18.2398 123.23 20.2698 125.01C22.2998 126.79 24.5798 127.67 27.1198 127.67ZM88.2798 134.02C85.0598 134.02 82.1598 133.39 79.5798 132.12C76.9998 130.85 74.9498 129.2 73.4198 127.17C71.8898 125.14 71.1298 122.98 71.1298 120.7C71.1298 117.91 72.0598 115.6 73.9198 113.78C75.7798 111.96 78.8698 110.33 83.1898 108.89L102.36 102.29V95.31C102.36 93.02 101.7 90.99 100.39 89.22C99.0798 87.44 97.3198 86.05 95.1198 85.03C92.9198 84.01 90.4198 83.51 87.6298 83.51C85.3398 83.51 83.7998 83.98 82.9998 84.91C82.1898 85.84 81.7098 87.75 81.5398 90.62L81.2898 95.19C78.5798 95.95 76.2798 95.89 74.3698 95C72.4598 94.11 71.5098 92.74 71.5098 90.87C71.5098 89.6 72.0798 88.25 73.2198 86.81C74.3598 85.37 75.8598 84.04 77.7298 82.81C79.5898 81.58 81.6398 80.52 83.8898 79.64C86.1298 78.75 88.4398 78.14 90.8098 77.8C96.6498 77.8 101.39 79.41 105.03 82.62C108.67 85.84 110.53 90.07 110.62 95.32L110.37 117.66C110.37 119.01 110.43 120.52 110.56 122.17C110.69 123.82 110.88 124.98 111.13 125.66L119.13 127.18V130.61L113.42 132.64C112.32 133.06 111.33 133.4 110.44 133.66C109.55 133.92 108.81 134.04 108.22 134.04C105.76 134.04 104.24 132.64 103.65 129.85L102.51 125.15L104.29 124.9C101.41 128.03 98.6798 130.34 96.0998 131.82C93.4998 133.27 90.8998 134.02 88.2798 134.02ZM90.6898 127.67C92.9798 127.67 95.0698 127.16 96.9698 126.15C98.8698 125.14 100.67 123.57 102.37 121.45V107.74L86.4998 112.31C84.4698 112.82 83.0098 113.64 82.1198 114.79C81.2298 115.94 80.7898 117.39 80.7898 119.17C80.7898 121.29 81.8098 123.23 83.8398 125.01C85.8698 126.79 88.1498 127.67 90.6898 127.67Z" fill="url(#paint8_radial)"/>
<path d="M151.32 134.02C147.93 134.02 144.93 133.34 142.31 131.99C139.69 130.64 137.63 128.9 136.15 126.78C134.67 124.67 133.93 122.46 133.93 120.18C133.93 117.39 134.84 115.06 136.66 113.2C138.48 111.34 141.55 109.69 145.86 108.25L165.16 101.78V95.31C165.16 93.2 164.53 91.27 163.26 89.53C161.99 87.8 160.3 86.42 158.18 85.4C156.06 84.38 153.69 83.88 151.07 83.88C148.95 83.88 147.52 84.32 146.75 85.21C145.98 86.1 145.52 87.86 145.35 90.48L145.1 95.81C142.05 96.49 139.47 96.38 137.36 95.49C135.24 94.6 134.19 93.14 134.19 91.11C134.19 89.67 134.82 88.23 136.09 86.79C137.36 85.35 139.01 83.98 141.04 82.66C143.07 81.35 145.25 80.23 147.58 79.3C149.91 78.37 152.21 77.73 154.5 77.4C160.68 77.4 165.67 79.03 169.48 82.29C173.29 85.55 175.23 89.89 175.32 95.3L175.07 116.63C175.07 118.15 175.13 119.7 175.26 121.26C175.39 122.83 175.58 123.99 175.83 124.75L183.95 126.27V130.21L177.73 132.5C176.54 133.01 175.44 133.39 174.43 133.64C173.42 133.89 172.57 134.02 171.89 134.02C169.27 134.02 167.57 132.54 166.81 129.58L165.41 124.63H167.31C164.52 127.76 161.83 130.11 159.25 131.68C156.67 133.23 154.03 134.02 151.32 134.02ZM154.75 126.52C156.7 126.52 158.54 126.08 160.27 125.19C162 124.3 163.63 122.93 165.16 121.06V107.73L150.94 111.54C148.91 112.05 147.45 112.85 146.56 113.95C145.67 115.05 145.23 116.45 145.23 118.14C145.23 120.26 146.18 122.18 148.09 123.92C149.99 125.66 152.21 126.52 154.75 126.52Z" fill="url(#paint9_radial)"/>
<path d="M215.03 134.02C211.48 134.02 208.34 133.28 205.64 131.8C202.93 130.32 200.86 128.48 199.42 126.28C197.98 124.08 197.26 121.88 197.26 119.68C197.26 116.8 198.17 114.41 199.99 112.51C201.81 110.61 204.83 108.98 209.07 107.62L228.62 101.27V95.43C228.62 93.48 228.01 91.67 226.78 89.97C225.55 88.28 223.92 86.92 221.89 85.91C219.86 84.9 217.57 84.39 215.03 84.39C213.25 84.39 212 84.79 211.28 85.6C210.56 86.41 210.12 87.99 209.95 90.36L209.57 96.45C206.18 97.21 203.33 97.11 201 96.13C198.67 95.16 197.51 93.53 197.51 91.24C197.51 89.8 198.21 88.32 199.6 86.8C200.99 85.28 202.77 83.82 204.93 82.42C207.09 81.02 209.39 79.86 211.85 78.93C214.3 78 216.63 77.36 218.83 77.03C225.43 77.03 230.74 78.7 234.76 82.04C238.78 85.38 240.83 89.81 240.92 95.31L240.54 115.37C240.54 117.23 240.6 118.9 240.73 120.38C240.86 121.86 241.09 122.98 241.43 123.74L249.55 125.26V129.58L242.69 132.37C241.42 132.88 240.23 133.28 239.14 133.58C238.04 133.88 237.07 134.02 236.22 134.02C233.34 134.02 231.44 132.5 230.51 129.45L228.86 124.12L231.02 124.37C228.31 127.5 225.62 129.89 222.96 131.54C220.3 133.19 217.65 134.02 215.03 134.02ZM219.47 125.26C221.16 125.26 222.77 124.88 224.29 124.12C225.81 123.36 227.25 122.22 228.61 120.69V107.61L216.17 110.66C214.14 111.17 212.68 111.95 211.79 113.01C210.9 114.07 210.46 115.44 210.46 117.14C210.46 119.26 211.35 121.14 213.13 122.79C214.91 124.44 217.02 125.26 219.47 125.26Z" fill="url(#paint10_radial)"/>
<path d="M279.54 134.02C275.73 134.02 272.45 133.21 269.7 131.61C266.95 130 264.85 128.06 263.42 125.77C261.98 123.48 261.26 121.28 261.26 119.17C261.26 116.21 262.19 113.73 264.05 111.74C265.91 109.75 268.87 108.12 272.94 106.85L292.74 100.76V95.55C292.74 93.69 292.15 91.95 290.96 90.34C289.77 88.73 288.21 87.42 286.26 86.4C284.31 85.38 282.2 84.88 279.91 84.88C278.3 84.88 277.18 85.24 276.55 85.96C275.92 86.68 275.51 88.1 275.34 90.21L274.83 97.07C271.02 97.92 267.87 97.81 265.37 96.75C262.87 95.69 261.62 93.94 261.62 91.48C261.62 89.96 262.38 88.39 263.91 86.78C265.43 85.17 267.36 83.65 269.69 82.21C272.02 80.77 274.45 79.54 276.99 78.53C279.53 77.52 281.86 76.88 283.97 76.63C291.16 76.63 296.86 78.32 301.05 81.71C305.24 85.1 307.38 89.62 307.46 95.29L307.08 113.95C307.08 116.15 307.14 117.95 307.27 119.35C307.4 120.75 307.63 121.87 307.97 122.71L316.22 124.23V129.05L308.73 132.22C307.29 132.81 305.96 133.26 304.73 133.55C303.5 133.85 302.38 133.99 301.37 133.99C298.32 133.99 296.21 132.38 295.02 129.17L293.12 123.58L295.53 124.09C292.91 127.22 290.24 129.66 287.53 131.39C284.83 133.15 282.16 134.02 279.54 134.02ZM285 123.73C286.44 123.73 287.81 123.46 289.13 122.9C290.44 122.35 291.65 121.44 292.75 120.17V107.47L282.34 109.76C280.31 110.18 278.85 110.9 277.96 111.92C277.07 112.94 276.63 114.29 276.63 115.98C276.63 118.01 277.46 119.81 279.11 121.38C280.75 122.95 282.71 123.73 285 123.73Z" fill="url(#paint11_radial)"/>
<path d="M345.6 134.02C341.71 134.02 338.34 133.17 335.51 131.48C332.67 129.79 330.52 127.76 329.04 125.39C327.56 123.02 326.82 120.78 326.82 118.66C326.82 115.53 327.77 112.95 329.68 110.92C331.59 108.89 334.52 107.28 338.5 106.1L358.43 100.26V95.69C358.43 93.91 357.86 92.24 356.72 90.68C355.58 89.11 354.07 87.82 352.21 86.81C350.35 85.79 348.36 85.29 346.24 85.29C344.89 85.29 343.93 85.61 343.38 86.24C342.83 86.87 342.47 88.12 342.3 89.99L341.67 97.73C337.44 98.58 333.99 98.43 331.32 97.29C328.65 96.15 327.32 94.26 327.32 91.64C327.32 90.03 328.17 88.38 329.86 86.69C331.55 85 333.65 83.41 336.14 81.93C338.64 80.45 341.2 79.18 343.82 78.12C346.44 77.06 348.77 76.45 350.8 76.28C358.25 76.28 364.19 77.99 368.64 81.42C373.09 84.85 375.31 89.44 375.31 95.19L374.93 112.84C374.93 115.21 374.99 117.05 375.12 118.36C375.25 119.67 375.52 120.75 375.95 121.6L384.2 123.12V128.45L375.95 132.13C374.51 132.72 373.14 133.19 371.82 133.53C370.51 133.87 369.26 134.04 368.07 134.04C364.77 134.04 362.44 132.35 361.09 128.96L358.93 123.12L361.6 123.75C358.98 126.97 356.29 129.48 353.54 131.3C350.78 133.1 348.14 134.02 345.6 134.02ZM352.07 122.59C353.25 122.59 354.4 122.36 355.5 121.89C356.6 121.43 357.61 120.73 358.55 119.8V107.36L349.92 108.88C347.89 109.22 346.41 109.9 345.48 110.91C344.55 111.93 344.08 113.24 344.08 114.85C344.08 116.88 344.86 118.68 346.43 120.25C347.99 121.81 349.87 122.59 352.07 122.59Z" fill="url(#paint12_radial)"/>
<path d="M413.22 134.02C409.16 134.02 405.69 133.15 402.81 131.42C399.93 129.69 397.73 127.57 396.21 125.07C394.69 122.57 393.92 120.27 393.92 118.15C393.92 114.93 394.87 112.27 396.78 110.15C398.68 108.04 401.62 106.43 405.6 105.33L425.66 99.74V95.93C425.66 94.15 425.13 92.5 424.07 90.98C423.01 89.46 421.59 88.19 419.82 87.17C418.05 86.15 416.18 85.65 414.23 85.65C413.04 85.65 412.22 85.95 411.75 86.54C411.28 87.13 410.97 88.19 410.8 89.71L410.04 98.34C405.47 99.19 401.74 99.02 398.87 97.83C395.99 96.65 394.55 94.66 394.55 91.86C394.55 90.08 395.46 88.29 397.28 86.46C399.1 84.64 401.36 82.97 404.07 81.45C406.78 79.93 409.51 78.64 412.26 77.58C415.01 76.52 417.27 75.91 419.05 75.74C427 75.74 433.29 77.48 437.9 80.95C442.51 84.42 444.82 89.16 444.82 95.17L444.44 111.55C444.44 114.17 444.52 116.12 444.69 117.39C444.86 118.66 445.11 119.72 445.45 120.56L453.96 122.08V127.92L444.95 131.86C443.34 132.62 441.84 133.17 440.44 133.51C439.04 133.85 437.67 134.02 436.31 134.02C432.76 134.02 430.26 132.24 428.82 128.69L426.28 122.6L429.2 123.23C426.66 126.53 423.99 129.16 421.2 131.1C418.41 133.04 415.76 134.02 413.22 134.02ZM420.71 121.32C421.64 121.32 422.55 121.15 423.44 120.81C424.33 120.47 425.15 119.96 425.92 119.29V107.23L419.19 108.12C417.07 108.29 415.55 108.88 414.62 109.9C413.69 110.92 413.22 112.23 413.22 113.84C413.22 115.7 413.98 117.42 415.51 118.98C417.03 120.54 418.76 121.32 420.71 121.32Z" fill="url(#paint13_radial)"/>
<path d="M482.39 134.02C478.24 134.02 474.69 133.11 471.73 131.29C468.77 129.47 466.52 127.27 465 124.69C463.48 122.11 462.71 119.76 462.71 117.64C462.71 114.34 463.66 111.61 465.57 109.45C467.48 107.29 470.37 105.7 474.27 104.69L494.58 99.23V96.06C494.58 94.37 494.05 92.76 492.99 91.24C491.93 89.72 490.56 88.45 488.86 87.43C487.17 86.41 485.43 85.91 483.65 85.91C482.72 85.91 482.04 86.19 481.62 86.74C481.2 87.29 480.9 88.2 480.73 89.47L479.84 98.86C474.93 99.79 470.95 99.62 467.91 98.35C464.87 97.08 463.34 94.97 463.34 92C463.34 90.14 464.33 88.25 466.32 86.35C468.31 84.45 470.74 82.71 473.62 81.14C476.5 79.57 479.33 78.26 482.13 77.2C484.92 76.14 487.16 75.53 488.86 75.36C497.15 75.36 503.71 77.12 508.54 80.63C513.36 84.14 515.73 88.95 515.65 95.04L515.27 110.4C515.27 113.28 515.35 115.31 515.52 116.49C515.69 117.68 515.98 118.69 516.41 119.54L524.92 121.06V127.41L515.27 131.73C513.66 132.49 512.1 133.06 510.57 133.44C509.04 133.82 507.56 134.01 506.13 134.01C502.32 134.01 499.61 132.15 498.01 128.42L495.22 122.07L498.39 122.83C495.85 126.22 493.16 128.92 490.33 130.95C487.48 133 484.84 134.02 482.39 134.02ZM490.77 120.18C491.45 120.18 492.14 120.07 492.86 119.86C493.58 119.65 494.23 119.33 494.83 118.91V107.1L489.75 107.35C487.63 107.44 486.11 107.98 485.18 109C484.25 110.02 483.78 111.29 483.78 112.81C483.78 114.67 484.5 116.36 485.94 117.89C487.38 119.42 488.99 120.18 490.77 120.18Z" fill="url(#paint14_radial)"/>
<path d="M24.1998 206.02C20.8098 206.02 17.8098 205.34 15.1898 203.99C12.5698 202.64 10.5098 200.9 9.02982 198.78C7.54982 196.67 6.80981 194.46 6.80981 192.18C6.80981 189.39 7.71982 187.06 9.53982 185.2C11.3598 183.34 14.4298 181.69 18.7398 180.25L38.0398 173.78V167.31C38.0398 165.2 37.4098 163.27 36.1398 161.53C34.8698 159.8 33.1798 158.42 31.0598 157.4C28.9398 156.38 26.5698 155.88 23.9498 155.88C21.8298 155.88 20.3998 156.32 19.6298 157.21C18.8598 158.1 18.3998 159.86 18.2298 162.48L17.9798 167.81C14.9298 168.49 12.3498 168.38 10.2398 167.49C8.11981 166.6 7.06981 165.14 7.06981 163.11C7.06981 161.67 7.69981 160.23 8.96981 158.79C10.2398 157.35 11.8898 155.98 13.9198 154.66C15.9498 153.35 18.1298 152.23 20.4598 151.3C22.7898 150.37 25.0898 149.73 27.3798 149.4C33.5598 149.4 38.5498 151.03 42.3598 154.29C46.1698 157.55 48.1098 161.89 48.1998 167.3L47.9498 188.63C47.9498 190.15 48.0098 191.7 48.1398 193.26C48.2698 194.83 48.4598 195.99 48.7098 196.75L56.8298 198.27V202.21L50.6098 204.5C49.4198 205.01 48.3198 205.39 47.3098 205.64C46.2998 205.89 45.4498 206.02 44.7698 206.02C42.1498 206.02 40.4498 204.54 39.6898 201.58L38.2898 196.63H40.1898C37.3998 199.76 34.7098 202.11 32.1298 203.68C29.5498 205.23 26.9098 206.02 24.1998 206.02ZM27.6298 198.52C29.5798 198.52 31.4198 198.08 33.1498 197.19C34.8798 196.3 36.5098 194.93 38.0398 193.06V179.73L23.8198 183.54C21.7898 184.05 20.3298 184.85 19.4398 185.95C18.5498 187.05 18.1098 188.45 18.1098 190.14C18.1098 192.26 19.0598 194.18 20.9698 195.92C22.8698 197.66 25.0898 198.52 27.6298 198.52ZM88.2198 206.02C84.8298 206.02 81.8298 205.34 79.2098 203.99C76.5898 202.64 74.5298 200.9 73.0498 198.78C71.5698 196.67 70.8298 194.46 70.8298 192.18C70.8298 189.39 71.7398 187.06 73.5598 185.2C75.3798 183.34 78.4498 181.69 82.7598 180.25L102.06 173.78V167.31C102.06 165.2 101.43 163.27 100.16 161.53C98.8898 159.8 97.1998 158.42 95.0798 157.4C92.9598 156.38 90.5898 155.88 87.9698 155.88C85.8498 155.88 84.4198 156.32 83.6498 157.21C82.8798 158.1 82.4198 159.86 82.2498 162.48L81.9998 167.8C78.9498 168.48 76.3698 168.37 74.2598 167.48C72.1398 166.59 71.0898 165.13 71.0898 163.1C71.0898 161.66 71.7198 160.22 72.9898 158.78C74.2598 157.34 75.9098 155.97 77.9398 154.65C79.9698 153.34 82.1498 152.22 84.4798 151.29C86.8098 150.36 89.1098 149.72 91.3998 149.39C97.5798 149.39 102.57 151.02 106.38 154.28C110.19 157.54 112.13 161.88 112.22 167.29L111.97 188.62C111.97 190.14 112.03 191.69 112.16 193.25C112.29 194.82 112.48 195.98 112.73 196.74L120.85 198.26V202.2L114.63 204.49C113.44 205 112.34 205.38 111.33 205.63C110.32 205.88 109.47 206.01 108.79 206.01C106.17 206.01 104.47 204.53 103.71 201.57L102.31 196.62H104.21C101.42 199.75 98.7298 202.1 96.1498 203.67C93.5698 205.23 90.9298 206.02 88.2198 206.02ZM91.6498 198.52C93.5998 198.52 95.4398 198.08 97.1698 197.19C98.8998 196.3 100.53 194.93 102.06 193.06V179.73L87.8398 183.54C85.8098 184.05 84.3498 184.85 83.4598 185.95C82.5698 187.05 82.1298 188.45 82.1298 190.14C82.1298 192.26 83.0798 194.18 84.9898 195.92C86.8898 197.66 89.1098 198.52 91.6498 198.52ZM152.31 206.02C148.92 206.02 145.92 205.34 143.3 203.99C140.68 202.64 138.62 200.9 137.14 198.78C135.66 196.67 134.92 194.46 134.92 192.18C134.92 189.39 135.83 187.06 137.65 185.2C139.47 183.34 142.54 181.69 146.85 180.25L166.15 173.78V167.31C166.15 165.2 165.52 163.27 164.25 161.53C162.98 159.8 161.29 158.42 159.17 157.4C157.05 156.38 154.68 155.88 152.06 155.88C149.94 155.88 148.51 156.32 147.74 157.21C146.97 158.1 146.51 159.86 146.34 162.48L146.09 167.81C143.04 168.49 140.46 168.38 138.35 167.49C136.23 166.6 135.18 165.14 135.18 163.11C135.18 161.67 135.81 160.23 137.08 158.79C138.35 157.35 140 155.98 142.03 154.66C144.06 153.35 146.24 152.23 148.57 151.3C150.9 150.37 153.2 149.73 155.49 149.4C161.67 149.4 166.66 151.03 170.47 154.29C174.28 157.55 176.22 161.89 176.31 167.3L176.06 188.63C176.06 190.15 176.12 191.7 176.25 193.26C176.38 194.83 176.57 195.99 176.82 196.75L184.94 198.27V202.21L178.72 204.5C177.53 205.01 176.43 205.39 175.42 205.64C174.41 205.89 173.56 206.02 172.88 206.02C170.26 206.02 168.56 204.54 167.8 201.58L166.4 196.63H168.3C165.51 199.76 162.82 202.11 160.24 203.68C157.66 205.23 155.02 206.02 152.31 206.02ZM155.74 198.52C157.69 198.52 159.53 198.08 161.26 197.19C162.99 196.3 164.62 194.93 166.15 193.06V179.73L151.93 183.54C149.9 184.05 148.44 184.85 147.55 185.95C146.66 187.05 146.22 188.45 146.22 190.14C146.22 192.26 147.17 194.18 149.08 195.92C150.98 197.66 153.2 198.52 155.74 198.52Z" fill="url(#paint15_radial)"/>
<path d="M215.78 206.02C212.23 206.02 209.09 205.28 206.39 203.8C203.68 202.32 201.61 200.48 200.17 198.28C198.73 196.08 198.01 193.88 198.01 191.68C198.01 188.8 198.92 186.41 200.74 184.51C202.56 182.61 205.58 180.98 209.82 179.62L229.37 173.27V167.43C229.37 165.48 228.76 163.67 227.53 161.97C226.3 160.28 224.67 158.92 222.64 157.91C220.61 156.9 218.32 156.39 215.78 156.39C214 156.39 212.75 156.79 212.03 157.6C211.31 158.41 210.87 159.99 210.7 162.36L210.32 168.45C206.93 169.21 204.08 169.11 201.75 168.13C199.42 167.16 198.26 165.53 198.26 163.24C198.26 161.8 198.96 160.32 200.35 158.8C201.74 157.28 203.52 155.82 205.68 154.42C207.84 153.02 210.14 151.86 212.6 150.93C215.05 150 217.38 149.36 219.58 149.03C226.18 149.03 231.49 150.7 235.51 154.04C239.53 157.38 241.58 161.81 241.67 167.31L241.29 187.37C241.29 189.23 241.35 190.9 241.48 192.38C241.61 193.86 241.84 194.98 242.18 195.74L250.3 197.26V201.58L243.44 204.37C242.17 204.88 240.98 205.28 239.89 205.58C238.79 205.88 237.82 206.02 236.97 206.02C234.09 206.02 232.19 204.5 231.26 201.45L229.61 196.12L231.77 196.37C229.06 199.5 226.37 201.89 223.71 203.54C221.05 205.19 218.41 206.02 215.78 206.02ZM220.23 197.26C221.92 197.26 223.53 196.88 225.05 196.12C226.57 195.36 228.01 194.22 229.37 192.69V179.61L216.93 182.66C214.9 183.17 213.44 183.95 212.55 185.01C211.66 186.07 211.22 187.44 211.22 189.14C211.22 191.26 212.11 193.14 213.89 194.79C215.67 196.44 217.77 197.26 220.23 197.26Z" fill="url(#paint16_radial)"/>
<path d="M280.11 206.02C276.3 206.02 273.02 205.21 270.27 203.61C267.52 202 265.42 200.06 263.99 197.77C262.55 195.48 261.83 193.28 261.83 191.17C261.83 188.21 262.76 185.73 264.62 183.74C266.48 181.75 269.44 180.12 273.51 178.85L293.31 172.76V167.55C293.31 165.69 292.72 163.95 291.53 162.34C290.34 160.73 288.78 159.42 286.83 158.4C284.88 157.38 282.77 156.88 280.48 156.88C278.87 156.88 277.75 157.24 277.12 157.96C276.49 158.68 276.08 160.1 275.91 162.21L275.4 169.07C271.59 169.92 268.44 169.81 265.94 168.75C263.44 167.69 262.19 165.94 262.19 163.48C262.19 161.96 262.95 160.39 264.48 158.78C266 157.17 267.93 155.65 270.26 154.21C272.59 152.77 275.02 151.54 277.56 150.53C280.1 149.52 282.43 148.88 284.54 148.63C291.73 148.63 297.43 150.32 301.62 153.71C305.81 157.1 307.95 161.62 308.03 167.29L307.65 185.95C307.65 188.15 307.71 189.95 307.84 191.35C307.97 192.75 308.2 193.87 308.54 194.71L316.79 196.23V201.05L309.3 204.22C307.86 204.81 306.53 205.26 305.3 205.55C304.07 205.85 302.95 205.99 301.94 205.99C298.89 205.99 296.78 204.38 295.59 201.17L293.69 195.58L296.1 196.09C293.48 199.22 290.81 201.66 288.1 203.39C285.4 205.15 282.73 206.02 280.11 206.02ZM285.57 195.73C287.01 195.73 288.38 195.46 289.7 194.9C291.01 194.35 292.22 193.44 293.32 192.17V179.47L282.91 181.76C280.88 182.18 279.42 182.9 278.53 183.92C277.64 184.94 277.2 186.29 277.2 187.98C277.2 190.01 278.03 191.81 279.68 193.38C281.32 194.95 283.28 195.73 285.57 195.73Z" fill="url(#paint17_radial)"/>
<path d="M345.98 206.02C342.09 206.02 338.72 205.17 335.89 203.48C333.05 201.79 330.9 199.76 329.42 197.39C327.94 195.02 327.2 192.78 327.2 190.66C327.2 187.53 328.15 184.95 330.06 182.92C331.97 180.89 334.9 179.28 338.88 178.1L358.81 172.26V167.69C358.81 165.91 358.24 164.24 357.1 162.68C355.96 161.11 354.45 159.82 352.59 158.81C350.73 157.79 348.74 157.29 346.62 157.29C345.27 157.29 344.31 157.61 343.76 158.24C343.21 158.87 342.85 160.12 342.68 161.99L342.05 169.73C337.82 170.58 334.37 170.43 331.7 169.29C329.03 168.15 327.7 166.26 327.7 163.64C327.7 162.03 328.55 160.38 330.24 158.69C331.93 157 334.03 155.41 336.52 153.93C339.02 152.45 341.58 151.18 344.2 150.12C346.82 149.06 349.15 148.45 351.18 148.28C358.63 148.28 364.57 149.99 369.02 153.42C373.47 156.85 375.69 161.44 375.69 167.19L375.31 184.84C375.31 187.21 375.37 189.05 375.5 190.36C375.63 191.67 375.9 192.75 376.33 193.6L384.58 195.12V200.45L376.33 204.13C374.89 204.72 373.52 205.19 372.2 205.53C370.89 205.87 369.64 206.04 368.45 206.04C365.15 206.04 362.82 204.35 361.47 200.96L359.31 195.12L361.98 195.75C359.36 198.97 356.67 201.48 353.92 203.3C351.16 205.1 348.52 206.02 345.98 206.02ZM352.45 194.59C353.63 194.59 354.78 194.36 355.88 193.89C356.98 193.43 357.99 192.73 358.93 191.8V179.36L350.3 180.88C348.27 181.22 346.79 181.9 345.86 182.91C344.93 183.93 344.46 185.24 344.46 186.85C344.46 188.88 345.24 190.68 346.81 192.25C348.37 193.81 350.25 194.59 352.45 194.59Z" fill="url(#paint18_radial)"/>
<path d="M413.41 206.02C409.35 206.02 405.88 205.15 403 203.42C400.12 201.69 397.92 199.57 396.4 197.07C394.88 194.57 394.11 192.27 394.11 190.15C394.11 186.93 395.06 184.27 396.97 182.15C398.87 180.04 401.81 178.43 405.79 177.33L425.85 171.74V167.93C425.85 166.15 425.32 164.5 424.26 162.98C423.2 161.46 421.78 160.19 420.01 159.17C418.24 158.15 416.37 157.65 414.42 157.65C413.23 157.65 412.41 157.95 411.94 158.54C411.47 159.13 411.16 160.19 410.99 161.71L410.23 170.34C405.66 171.19 401.93 171.02 399.06 169.83C396.18 168.65 394.74 166.66 394.74 163.86C394.74 162.08 395.65 160.29 397.47 158.46C399.29 156.64 401.55 154.97 404.26 153.45C406.97 151.93 409.7 150.64 412.45 149.58C415.2 148.52 417.46 147.91 419.24 147.74C427.19 147.74 433.48 149.48 438.09 152.95C442.7 156.42 445.01 161.16 445.01 167.17L444.63 183.55C444.63 186.17 444.71 188.12 444.88 189.39C445.05 190.66 445.3 191.72 445.64 192.56L454.15 194.08V199.92L445.14 203.86C443.53 204.62 442.03 205.17 440.63 205.51C439.23 205.85 437.86 206.02 436.5 206.02C432.95 206.02 430.45 204.24 429.01 200.69L426.47 194.6L429.39 195.23C426.85 198.53 424.18 201.16 421.39 203.1C418.6 205.04 415.95 206.02 413.41 206.02ZM420.9 193.32C421.83 193.32 422.74 193.15 423.63 192.81C424.52 192.47 425.34 191.96 426.11 191.29V179.23L419.38 180.12C417.26 180.29 415.74 180.88 414.81 181.9C413.88 182.92 413.41 184.23 413.41 185.84C413.41 187.7 414.17 189.42 415.7 190.98C417.22 192.54 418.95 193.32 420.9 193.32Z" fill="url(#paint19_radial)"/>
<path d="M482.39 206.02C478.24 206.02 474.69 205.11 471.73 203.29C468.77 201.47 466.52 199.27 465 196.69C463.48 194.11 462.71 191.76 462.71 189.64C462.71 186.34 463.66 183.61 465.57 181.45C467.48 179.29 470.37 177.7 474.27 176.69L494.58 171.23V168.06C494.58 166.37 494.05 164.76 492.99 163.24C491.93 161.72 490.56 160.45 488.86 159.43C487.17 158.41 485.43 157.91 483.65 157.91C482.72 157.91 482.04 158.19 481.62 158.74C481.2 159.29 480.9 160.2 480.73 161.47L479.84 170.86C474.93 171.79 470.95 171.62 467.91 170.35C464.87 169.08 463.34 166.97 463.34 164C463.34 162.14 464.33 160.25 466.32 158.35C468.31 156.45 470.74 154.71 473.62 153.14C476.5 151.57 479.33 150.26 482.13 149.2C484.92 148.14 487.16 147.53 488.86 147.36C497.15 147.36 503.71 149.12 508.54 152.63C513.36 156.14 515.73 160.95 515.65 167.04L515.27 182.4C515.27 185.28 515.35 187.31 515.52 188.49C515.69 189.68 515.98 190.69 516.41 191.54L524.92 193.06V199.41L515.27 203.73C513.66 204.49 512.1 205.06 510.57 205.44C509.04 205.82 507.56 206.01 506.13 206.01C502.32 206.01 499.61 204.15 498.01 200.42L495.22 194.07L498.39 194.83C495.85 198.22 493.16 200.92 490.33 202.95C487.48 205 484.84 206.02 482.39 206.02ZM490.77 192.18C491.45 192.18 492.14 192.07 492.86 191.86C493.58 191.65 494.23 191.33 494.83 190.91V179.1L489.75 179.35C487.63 179.44 486.11 179.98 485.18 181C484.25 182.02 483.78 183.29 483.78 184.81C483.78 186.67 484.5 188.36 485.94 189.89C487.38 191.42 488.99 192.18 490.77 192.18Z" fill="url(#paint20_radial)"/>
<path d="M23.6899 278.02C20.1399 278.02 16.9999 277.28 14.2999 275.8C11.5899 274.32 9.51992 272.48 8.07992 270.28C6.63992 268.08 5.91992 265.88 5.91992 263.68C5.91992 260.8 6.82992 258.41 8.64992 256.51C10.4699 254.61 13.4899 252.98 17.7299 251.62L37.2799 245.27V239.43C37.2799 237.48 36.6699 235.67 35.4399 233.97C34.2099 232.28 32.5799 230.92 30.5499 229.91C28.5199 228.9 26.2299 228.39 23.6899 228.39C21.9099 228.39 20.6599 228.79 19.9399 229.6C19.2199 230.41 18.7799 231.99 18.6099 234.36L18.2299 240.45C14.8399 241.21 11.9899 241.11 9.65992 240.13C7.32992 239.16 6.16992 237.53 6.16992 235.24C6.16992 233.8 6.86992 232.32 8.25992 230.8C9.64992 229.28 11.4299 227.82 13.5899 226.42C15.7499 225.02 18.0499 223.86 20.5099 222.93C22.9599 222 25.2899 221.36 27.4899 221.03C34.0899 221.03 39.3999 222.7 43.4199 226.04C47.4399 229.38 49.4899 233.81 49.5799 239.31L49.1999 259.37C49.1999 261.23 49.2599 262.9 49.3899 264.38C49.5199 265.86 49.7499 266.98 50.0899 267.74L58.2099 269.26V273.58L51.3499 276.37C50.0799 276.88 48.8899 277.28 47.7999 277.58C46.6999 277.88 45.7299 278.02 44.8799 278.02C41.9999 278.02 40.0999 276.5 39.1699 273.45L37.5199 268.12L39.6799 268.37C36.9699 271.5 34.2799 273.89 31.6199 275.54C28.9599 277.19 26.3099 278.02 23.6899 278.02ZM28.1299 269.26C29.8199 269.26 31.4299 268.88 32.9499 268.12C34.4699 267.36 35.9099 266.22 37.2699 264.69V251.61L24.8299 254.66C22.7999 255.17 21.3399 255.95 20.4499 257.01C19.5599 258.07 19.1199 259.44 19.1199 261.14C19.1199 263.26 20.0099 265.14 21.7899 266.79C23.5699 268.44 25.6799 269.26 28.1299 269.26ZM88.1699 278.02C84.6199 278.02 81.4799 277.28 78.7799 275.8C76.0699 274.32 73.9999 272.48 72.5599 270.28C71.1199 268.08 70.3999 265.88 70.3999 263.68C70.3999 260.8 71.3099 258.41 73.1299 256.51C74.9499 254.61 77.9699 252.98 82.2099 251.62L101.76 245.27V239.43C101.76 237.48 101.15 235.67 99.9199 233.97C98.6899 232.28 97.0599 230.92 95.0299 229.91C92.9999 228.9 90.7099 228.39 88.1699 228.39C86.3899 228.39 85.1399 228.79 84.4199 229.6C83.6999 230.41 83.2599 231.99 83.0899 234.36L82.7099 240.45C79.3199 241.21 76.4699 241.11 74.1399 240.13C71.8099 239.16 70.6499 237.53 70.6499 235.24C70.6499 233.8 71.3499 232.32 72.7399 230.8C74.1299 229.28 75.9099 227.82 78.0699 226.42C80.2299 225.02 82.5299 223.86 84.9899 222.93C87.4399 222 89.7699 221.36 91.9699 221.03C98.5699 221.03 103.88 222.7 107.9 226.04C111.92 229.38 113.97 233.81 114.06 239.31L113.68 259.37C113.68 261.23 113.74 262.9 113.87 264.38C114 265.86 114.23 266.98 114.57 267.74L122.69 269.26V273.58L115.83 276.37C114.56 276.88 113.37 277.28 112.28 277.58C111.18 277.88 110.21 278.02 109.36 278.02C106.48 278.02 104.58 276.5 103.65 273.45L102 268.12L104.16 268.37C101.45 271.5 98.7599 273.89 96.0999 275.54C93.4399 277.19 90.7899 278.02 88.1699 278.02ZM92.6099 269.26C94.2999 269.26 95.9099 268.88 97.4299 268.12C98.9499 267.36 100.39 266.22 101.75 264.69V251.61L89.3099 254.66C87.2799 255.17 85.8199 255.95 84.9299 257.01C84.0399 258.07 83.5999 259.44 83.5999 261.14C83.5999 263.26 84.4899 265.14 86.2699 266.79C88.0499 268.44 90.1599 269.26 92.6099 269.26ZM152.65 278.02C149.1 278.02 145.96 277.28 143.26 275.8C140.55 274.32 138.48 272.48 137.04 270.28C135.6 268.08 134.88 265.88 134.88 263.68C134.88 260.8 135.79 258.41 137.61 256.51C139.43 254.61 142.45 252.98 146.69 251.62L166.24 245.27V239.43C166.24 237.48 165.63 235.67 164.4 233.97C163.17 232.28 161.54 230.92 159.51 229.91C157.48 228.9 155.19 228.39 152.65 228.39C150.87 228.39 149.62 228.79 148.9 229.6C148.18 230.41 147.74 231.99 147.57 234.36L147.19 240.45C143.8 241.21 140.95 241.11 138.62 240.13C136.29 239.16 135.13 237.53 135.13 235.24C135.13 233.8 135.83 232.32 137.22 230.8C138.61 229.28 140.39 227.82 142.55 226.42C144.71 225.02 147.01 223.86 149.47 222.93C151.92 222 154.25 221.36 156.45 221.03C163.05 221.03 168.36 222.7 172.38 226.04C176.4 229.38 178.45 233.81 178.54 239.31L178.16 259.37C178.16 261.23 178.22 262.9 178.35 264.38C178.48 265.86 178.71 266.98 179.05 267.74L187.17 269.26V273.58L180.31 276.37C179.04 276.88 177.85 277.28 176.76 277.58C175.66 277.88 174.69 278.02 173.84 278.02C170.96 278.02 169.06 276.5 168.13 273.45L166.48 268.12L168.64 268.37C165.93 271.5 163.24 273.89 160.58 275.54C157.92 277.19 155.27 278.02 152.65 278.02ZM157.09 269.26C158.78 269.26 160.39 268.88 161.91 268.12C163.43 267.36 164.87 266.22 166.23 264.69V251.61L153.79 254.66C151.76 255.17 150.3 255.95 149.41 257.01C148.52 258.07 148.08 259.44 148.08 261.14C148.08 263.26 148.97 265.14 150.75 266.79C152.53 268.44 154.64 269.26 157.09 269.26ZM217.13 278.02C213.58 278.02 210.44 277.28 207.74 275.8C205.03 274.32 202.96 272.48 201.52 270.28C200.08 268.08 199.36 265.88 199.36 263.68C199.36 260.8 200.27 258.41 202.09 256.51C203.91 254.61 206.93 252.98 211.17 251.62L230.72 245.27V239.43C230.72 237.48 230.11 235.67 228.88 233.97C227.65 232.28 226.02 230.92 223.99 229.91C221.96 228.9 219.67 228.39 217.13 228.39C215.35 228.39 214.1 228.79 213.38 229.6C212.66 230.41 212.22 231.99 212.05 234.36L211.67 240.45C208.28 241.21 205.43 241.11 203.1 240.13C200.77 239.16 199.61 237.53 199.61 235.24C199.61 233.8 200.31 232.32 201.7 230.8C203.09 229.28 204.87 227.82 207.03 226.42C209.19 225.02 211.49 223.86 213.95 222.93C216.4 222 218.73 221.36 220.93 221.03C227.53 221.03 232.84 222.7 236.86 226.04C240.88 229.38 242.93 233.81 243.02 239.31L242.64 259.37C242.64 261.23 242.7 262.9 242.83 264.38C242.96 265.86 243.19 266.98 243.53 267.74L251.65 269.26V273.58L244.79 276.37C243.52 276.88 242.33 277.28 241.24 277.58C240.14 277.88 239.17 278.02 238.32 278.02C235.44 278.02 233.54 276.5 232.61 273.45L230.96 268.12L233.12 268.37C230.41 271.5 227.72 273.89 225.06 275.54C222.4 277.19 219.75 278.02 217.13 278.02ZM221.57 269.26C223.26 269.26 224.87 268.88 226.39 268.12C227.91 267.36 229.35 266.22 230.71 264.69V251.61L218.27 254.66C216.24 255.17 214.78 255.95 213.89 257.01C213 258.07 212.56 259.44 212.56 261.14C212.56 263.26 213.45 265.14 215.23 266.79C217.01 268.44 219.12 269.26 221.57 269.26Z" fill="url(#paint21_radial)"/>
<path d="M281.15 278.02C277.34 278.02 274.06 277.21 271.31 275.61C268.56 274 266.46 272.06 265.03 269.77C263.59 267.48 262.87 265.28 262.87 263.17C262.87 260.21 263.8 257.73 265.66 255.74C267.52 253.75 270.48 252.12 274.55 250.85L294.35 244.76V239.55C294.35 237.69 293.76 235.95 292.57 234.34C291.38 232.73 289.82 231.42 287.87 230.4C285.92 229.38 283.81 228.88 281.52 228.88C279.91 228.88 278.79 229.24 278.16 229.96C277.53 230.68 277.12 232.1 276.95 234.21L276.44 241.07C272.63 241.92 269.48 241.81 266.98 240.75C264.48 239.69 263.23 237.94 263.23 235.48C263.23 233.96 263.99 232.39 265.52 230.78C267.04 229.17 268.97 227.65 271.3 226.21C273.63 224.77 276.06 223.54 278.6 222.53C281.14 221.52 283.47 220.88 285.58 220.63C292.77 220.63 298.47 222.32 302.66 225.71C306.85 229.1 308.99 233.62 309.07 239.29L308.69 257.95C308.69 260.15 308.75 261.95 308.88 263.35C309.01 264.75 309.24 265.87 309.58 266.71L317.83 268.23V273.05L310.34 276.22C308.9 276.81 307.57 277.26 306.34 277.55C305.11 277.85 303.99 277.99 302.98 277.99C299.93 277.99 297.82 276.38 296.63 273.17L294.73 267.58L297.14 268.09C294.52 271.22 291.85 273.66 289.14 275.39C286.44 277.15 283.77 278.02 281.15 278.02ZM286.61 267.73C288.05 267.73 289.42 267.46 290.74 266.9C292.05 266.35 293.26 265.44 294.36 264.17V251.47L283.95 253.76C281.92 254.18 280.46 254.9 279.57 255.92C278.68 256.94 278.24 258.29 278.24 259.98C278.24 262.01 279.07 263.81 280.72 265.38C282.35 266.95 284.32 267.73 286.61 267.73Z" fill="url(#paint22_radial)"/>
<path d="M346.67 278.02C342.78 278.02 339.41 277.17 336.58 275.48C333.74 273.79 331.59 271.76 330.11 269.39C328.63 267.02 327.89 264.78 327.89 262.66C327.89 259.53 328.84 256.95 330.75 254.92C332.66 252.89 335.59 251.28 339.57 250.1L359.5 244.26V239.69C359.5 237.91 358.93 236.24 357.79 234.68C356.65 233.11 355.14 231.82 353.28 230.81C351.42 229.79 349.43 229.29 347.31 229.29C345.96 229.29 345 229.61 344.45 230.24C343.9 230.87 343.54 232.12 343.37 233.99L342.74 241.73C338.51 242.58 335.06 242.43 332.39 241.29C329.72 240.15 328.39 238.26 328.39 235.64C328.39 234.03 329.24 232.38 330.93 230.69C332.62 229 334.72 227.41 337.21 225.93C339.71 224.45 342.27 223.18 344.89 222.12C347.51 221.06 349.84 220.45 351.87 220.28C359.32 220.28 365.26 221.99 369.71 225.42C374.16 228.85 376.38 233.44 376.38 239.19L376 256.81C376 259.18 376.06 261.02 376.19 262.33C376.32 263.64 376.59 264.72 377.02 265.57L385.27 267.09V272.42L377.02 276.1C375.58 276.69 374.21 277.16 372.89 277.5C371.58 277.84 370.33 278.01 369.14 278.01C365.84 278.01 363.51 276.32 362.16 272.93L360 267.1L362.67 267.73C360.05 270.95 357.36 273.46 354.61 275.28C351.86 277.1 349.21 278.02 346.67 278.02ZM353.15 266.59C354.33 266.59 355.48 266.36 356.58 265.89C357.68 265.43 358.69 264.73 359.63 263.8V251.36L351 252.88C348.97 253.22 347.49 253.9 346.56 254.91C345.63 255.93 345.16 257.24 345.16 258.85C345.16 260.88 345.94 262.68 347.51 264.25C349.06 265.81 350.95 266.59 353.15 266.59Z" fill="url(#paint23_radial)"/>
<path d="M413.76 278.02C409.7 278.02 406.23 277.15 403.35 275.42C400.47 273.69 398.27 271.57 396.75 269.07C395.23 266.57 394.46 264.27 394.46 262.15C394.46 258.93 395.41 256.27 397.32 254.15C399.22 252.04 402.16 250.43 406.14 249.33L426.2 243.74V239.93C426.2 238.15 425.67 236.5 424.61 234.98C423.55 233.46 422.13 232.19 420.36 231.17C418.59 230.15 416.72 229.65 414.77 229.65C413.58 229.65 412.76 229.95 412.29 230.54C411.82 231.13 411.51 232.19 411.34 233.71L410.58 242.34C406.01 243.19 402.28 243.02 399.41 241.83C396.53 240.65 395.09 238.66 395.09 235.86C395.09 234.08 396 232.29 397.82 230.46C399.64 228.64 401.9 226.97 404.61 225.45C407.32 223.93 410.05 222.64 412.8 221.58C415.55 220.52 417.81 219.91 419.59 219.74C427.54 219.74 433.83 221.48 438.44 224.95C443.05 228.42 445.36 233.16 445.36 239.17L444.98 255.55C444.98 258.17 445.06 260.12 445.23 261.39C445.4 262.66 445.65 263.72 445.99 264.56L454.5 266.08V271.92L445.49 275.86C443.88 276.62 442.38 277.17 440.98 277.51C439.58 277.85 438.21 278.02 436.85 278.02C433.3 278.02 430.8 276.24 429.36 272.69L426.82 266.6L429.74 267.23C427.2 270.53 424.53 273.16 421.74 275.1C418.95 277.04 416.3 278.02 413.76 278.02ZM421.25 265.32C422.18 265.32 423.09 265.15 423.98 264.81C424.87 264.47 425.69 263.96 426.46 263.29V251.23L419.73 252.12C417.61 252.29 416.09 252.88 415.16 253.9C414.23 254.92 413.76 256.23 413.76 257.84C413.76 259.7 414.52 261.42 416.05 262.98C417.57 264.54 419.3 265.32 421.25 265.32Z" fill="url(#paint24_radial)"/>
<path d="M482.39 278.02C478.24 278.02 474.69 277.11 471.73 275.29C468.77 273.47 466.52 271.27 465 268.69C463.48 266.11 462.71 263.76 462.71 261.64C462.71 258.34 463.66 255.61 465.57 253.45C467.48 251.29 470.37 249.7 474.27 248.69L494.58 243.23V240.06C494.58 238.37 494.05 236.76 492.99 235.24C491.93 233.72 490.56 232.45 488.86 231.43C487.17 230.41 485.43 229.91 483.65 229.91C482.72 229.91 482.04 230.19 481.62 230.74C481.2 231.29 480.9 232.2 480.73 233.47L479.84 242.86C474.93 243.79 470.95 243.62 467.91 242.35C464.87 241.08 463.34 238.97 463.34 236C463.34 234.14 464.33 232.25 466.32 230.35C468.31 228.45 470.74 226.71 473.62 225.14C476.5 223.57 479.33 222.26 482.13 221.2C484.92 220.14 487.16 219.53 488.86 219.36C497.15 219.36 503.71 221.12 508.54 224.63C513.36 228.14 515.73 232.95 515.65 239.04L515.27 254.4C515.27 257.28 515.35 259.31 515.52 260.49C515.69 261.68 515.98 262.69 516.41 263.54L524.92 265.06V271.41L515.27 275.73C513.66 276.49 512.1 277.06 510.57 277.44C509.04 277.82 507.56 278.01 506.13 278.01C502.32 278.01 499.61 276.15 498.01 272.42L495.22 266.07L498.39 266.83C495.85 270.22 493.16 272.92 490.33 274.95C487.48 277 484.84 278.02 482.39 278.02ZM490.77 264.18C491.45 264.18 492.14 264.07 492.86 263.86C493.58 263.65 494.23 263.33 494.83 262.91V251.1L489.75 251.35C487.63 251.44 486.11 251.98 485.18 253C484.25 254.02 483.78 255.29 483.78 256.81C483.78 258.67 484.5 260.36 485.94 261.89C487.38 263.42 488.99 264.18 490.77 264.18Z" fill="url(#paint25_radial)"/>
<path d="M23.1799 350.02C19.3699 350.02 16.0899 349.21 13.3399 347.61C10.5899 346 8.4899 344.06 7.0599 341.77C5.6199 339.48 4.8999 337.28 4.8999 335.17C4.8999 332.21 5.8299 329.73 7.6899 327.74C9.5499 325.75 12.5099 324.12 16.5799 322.85L36.3799 316.76V311.55C36.3799 309.69 35.7899 307.95 34.5999 306.34C33.4099 304.73 31.8499 303.42 29.8999 302.4C27.9499 301.38 25.8399 300.88 23.5499 300.88C21.9399 300.88 20.8199 301.24 20.1899 301.96C19.5599 302.68 19.1499 304.1 18.9799 306.21L18.4699 313.07C14.6599 313.92 11.5099 313.81 9.0099 312.75C6.5099 311.69 5.2599 309.94 5.2599 307.48C5.2599 305.96 6.0199 304.39 7.5499 302.78C9.0699 301.17 10.9999 299.65 13.3299 298.21C15.6599 296.77 18.0899 295.54 20.6299 294.53C23.1699 293.52 25.4999 292.88 27.6099 292.63C34.7999 292.63 40.4999 294.32 44.6899 297.71C48.8799 301.1 51.0199 305.62 51.0999 311.29L50.7199 329.95C50.7199 332.15 50.7799 333.95 50.9099 335.35C51.0399 336.75 51.2699 337.87 51.6099 338.71L59.8599 340.23V345.05L52.3699 348.22C50.9299 348.81 49.5999 349.26 48.3699 349.55C47.1399 349.85 46.0199 349.99 45.0099 349.99C41.9599 349.99 39.8499 348.38 38.6599 345.17L36.7599 339.58L39.1699 340.09C36.5499 343.22 33.8799 345.66 31.1699 347.39C28.4699 349.15 25.7999 350.02 23.1799 350.02ZM28.6399 339.73C30.0799 339.73 31.4499 339.46 32.7699 338.9C34.0799 338.35 35.2899 337.44 36.3899 336.17V323.47L25.9799 325.76C23.9499 326.18 22.4899 326.9 21.5999 327.92C20.7099 328.94 20.2699 330.29 20.2699 331.98C20.2699 334.01 21.0999 335.81 22.7499 337.38C24.3899 338.95 26.3599 339.73 28.6399 339.73ZM88.1199 350.02C84.3099 350.02 81.0299 349.21 78.2799 347.61C75.5299 346 73.4299 344.06 71.9999 341.77C70.5599 339.48 69.8399 337.28 69.8399 335.17C69.8399 332.21 70.7699 329.73 72.6299 327.74C74.4899 325.75 77.4499 324.12 81.5199 322.85L101.32 316.76V311.55C101.32 309.69 100.73 307.95 99.5399 306.34C98.3499 304.73 96.7899 303.42 94.8399 302.4C92.8899 301.38 90.7799 300.88 88.4899 300.88C86.8799 300.88 85.7599 301.24 85.1299 301.96C84.4999 302.68 84.0899 304.1 83.9199 306.21L83.4099 313.07C79.5999 313.92 76.4499 313.81 73.9499 312.75C71.4499 311.69 70.1999 309.94 70.1999 307.48C70.1999 305.96 70.9599 304.39 72.4899 302.78C74.0099 301.17 75.9399 299.65 78.2699 298.21C80.5999 296.77 83.0299 295.54 85.5699 294.53C88.1099 293.52 90.4399 292.88 92.5499 292.63C99.7399 292.63 105.44 294.32 109.63 297.71C113.82 301.1 115.96 305.62 116.04 311.29L115.66 329.95C115.66 332.15 115.72 333.95 115.85 335.35C115.98 336.75 116.21 337.87 116.55 338.71L124.8 340.23V345.05L117.31 348.22C115.87 348.81 114.54 349.26 113.31 349.55C112.08 349.85 110.96 349.99 109.95 349.99C106.9 349.99 104.79 348.38 103.6 345.17L101.7 339.58L104.11 340.09C101.49 343.22 98.8199 345.66 96.1099 347.39C93.4099 349.15 90.7399 350.02 88.1199 350.02ZM93.5799 339.73C95.0199 339.73 96.3899 339.46 97.7099 338.9C99.0199 338.35 100.23 337.44 101.33 336.17V323.47L90.9199 325.76C88.8899 326.18 87.4299 326.9 86.5399 327.92C85.6499 328.94 85.2099 330.29 85.2099 331.98C85.2099 334.01 86.0399 335.81 87.6899 337.38C89.3199 338.95 91.2899 339.73 93.5799 339.73ZM153.05 350.02C149.24 350.02 145.96 349.21 143.21 347.61C140.46 346 138.36 344.06 136.93 341.77C135.49 339.48 134.77 337.28 134.77 335.17C134.77 332.21 135.7 329.73 137.56 327.74C139.42 325.75 142.38 324.12 146.45 322.85L166.25 316.76V311.55C166.25 309.69 165.66 307.95 164.47 306.34C163.28 304.73 161.72 303.42 159.77 302.4C157.82 301.38 155.71 300.88 153.42 300.88C151.81 300.88 150.69 301.24 150.06 301.96C149.43 302.68 149.02 304.1 148.85 306.21L148.34 313.07C144.53 313.92 141.38 313.81 138.88 312.75C136.38 311.69 135.13 309.94 135.13 307.48C135.13 305.96 135.89 304.39 137.42 302.78C138.94 301.17 140.87 299.65 143.2 298.21C145.53 296.77 147.96 295.54 150.5 294.53C153.04 293.52 155.37 292.88 157.48 292.63C164.67 292.63 170.37 294.32 174.56 297.71C178.75 301.1 180.89 305.62 180.97 311.29L180.59 329.95C180.59 332.15 180.65 333.95 180.78 335.35C180.91 336.75 181.14 337.87 181.48 338.71L189.73 340.23V345.05L182.24 348.22C180.8 348.81 179.47 349.26 178.24 349.55C177.01 349.85 175.89 349.99 174.88 349.99C171.83 349.99 169.72 348.38 168.53 345.17L166.63 339.58L169.04 340.09C166.42 343.22 163.75 345.66 161.04 347.39C158.34 349.15 155.68 350.02 153.05 350.02ZM158.51 339.73C159.95 339.73 161.32 339.46 162.64 338.9C163.95 338.35 165.16 337.44 166.26 336.17V323.47L155.85 325.76C153.82 326.18 152.36 326.9 151.47 327.92C150.58 328.94 150.14 330.29 150.14 331.98C150.14 334.01 150.97 335.81 152.62 337.38C154.26 338.95 156.23 339.73 158.51 339.73ZM218.05 350.02C214.24 350.02 210.96 349.21 208.21 347.61C205.46 346 203.36 344.06 201.93 341.77C200.49 339.48 199.77 337.28 199.77 335.17C199.77 332.21 200.7 329.73 202.56 327.74C204.42 325.75 207.38 324.12 211.45 322.85L231.25 316.76V311.55C231.25 309.69 230.66 307.95 229.47 306.34C228.28 304.73 226.72 303.42 224.77 302.4C222.82 301.38 220.71 300.88 218.42 300.88C216.81 300.88 215.69 301.24 215.06 301.96C214.43 302.68 214.02 304.1 213.85 306.21L213.34 313.07C209.53 313.92 206.38 313.81 203.88 312.75C201.38 311.69 200.13 309.94 200.13 307.48C200.13 305.96 200.89 304.39 202.42 302.78C203.94 301.17 205.87 299.65 208.2 298.21C210.53 296.77 212.96 295.54 215.5 294.53C218.04 293.52 220.37 292.88 222.48 292.63C229.67 292.63 235.37 294.32 239.56 297.71C243.75 301.1 245.89 305.62 245.97 311.29L245.59 329.95C245.59 332.15 245.65 333.95 245.78 335.35C245.91 336.75 246.14 337.87 246.48 338.71L254.73 340.23V345.05L247.24 348.22C245.8 348.81 244.47 349.26 243.24 349.55C242.01 349.85 240.89 349.99 239.88 349.99C236.83 349.99 234.72 348.38 233.53 345.17L231.63 339.58L234.04 340.09C231.42 343.22 228.75 345.66 226.04 347.39C223.34 349.15 220.68 350.02 218.05 350.02ZM223.51 339.73C224.95 339.73 226.32 339.46 227.64 338.9C228.95 338.35 230.16 337.44 231.26 336.17V323.47L220.85 325.76C218.82 326.18 217.36 326.9 216.47 327.92C215.58 328.94 215.14 330.29 215.14 331.98C215.14 334.01 215.97 335.81 217.62 337.38C219.26 338.95 221.23 339.73 223.51 339.73ZM282.99 350.02C279.18 350.02 275.9 349.21 273.15 347.61C270.4 346 268.3 344.06 266.87 341.77C265.43 339.48 264.71 337.28 264.71 335.17C264.71 332.21 265.64 329.73 267.5 327.74C269.36 325.75 272.32 324.12 276.39 322.85L296.19 316.76V311.55C296.19 309.69 295.6 307.95 294.41 306.34C293.22 304.73 291.66 303.42 289.71 302.4C287.76 301.38 285.65 300.88 283.36 300.88C281.75 300.88 280.63 301.24 280 301.96C279.37 302.68 278.96 304.1 278.79 306.21L278.28 313.07C274.47 313.92 271.32 313.81 268.82 312.75C266.32 311.69 265.07 309.94 265.07 307.48C265.07 305.96 265.83 304.39 267.36 302.78C268.88 301.17 270.81 299.65 273.14 298.21C275.47 296.77 277.9 295.54 280.44 294.53C282.98 293.52 285.31 292.88 287.42 292.63C294.61 292.63 300.31 294.32 304.5 297.71C308.69 301.1 310.83 305.62 310.91 311.29L310.53 329.95C310.53 332.15 310.59 333.95 310.72 335.35C310.85 336.75 311.08 337.87 311.42 338.71L319.67 340.23V345.05L312.18 348.22C310.74 348.81 309.41 349.26 308.18 349.55C306.95 349.85 305.83 349.99 304.82 349.99C301.77 349.99 299.66 348.38 298.47 345.17L296.57 339.58L298.98 340.09C296.36 343.22 293.69 345.66 290.98 347.39C288.28 349.15 285.61 350.02 282.99 350.02ZM288.45 339.73C289.89 339.73 291.26 339.46 292.58 338.9C293.89 338.35 295.1 337.44 296.2 336.17V323.47L285.79 325.76C283.76 326.18 282.3 326.9 281.41 327.92C280.52 328.94 280.08 330.29 280.08 331.98C280.08 334.01 280.91 335.81 282.56 337.38C284.2 338.95 286.16 339.73 288.45 339.73Z" fill="url(#paint26_radial)"/>
<path d="M347.87 350.02C343.98 350.02 340.61 349.17 337.78 347.48C334.94 345.79 332.79 343.76 331.31 341.39C329.83 339.02 329.09 336.78 329.09 334.66C329.09 331.53 330.04 328.95 331.95 326.92C333.86 324.89 336.79 323.28 340.77 322.1L360.7 316.26V311.69C360.7 309.91 360.13 308.24 358.99 306.68C357.85 305.11 356.34 303.82 354.48 302.81C352.62 301.79 350.63 301.29 348.51 301.29C347.16 301.29 346.2 301.61 345.65 302.24C345.1 302.87 344.74 304.12 344.57 305.99L343.94 313.73C339.71 314.58 336.26 314.43 333.59 313.29C330.92 312.15 329.59 310.26 329.59 307.64C329.59 306.03 330.44 304.38 332.13 302.69C333.82 301 335.92 299.41 338.41 297.93C340.91 296.45 343.47 295.18 346.09 294.12C348.71 293.06 351.04 292.45 353.07 292.28C360.52 292.28 366.46 293.99 370.91 297.42C375.36 300.85 377.58 305.44 377.58 311.19L377.2 328.84C377.2 331.21 377.26 333.05 377.39 334.36C377.52 335.67 377.79 336.75 378.22 337.6L386.47 339.12V344.45L378.22 348.13C376.78 348.72 375.41 349.19 374.09 349.53C372.78 349.87 371.53 350.04 370.34 350.04C367.04 350.04 364.71 348.35 363.36 344.96L361.2 339.12L363.87 339.75C361.25 342.97 358.56 345.48 355.81 347.3C353.05 349.1 350.41 350.02 347.87 350.02ZM354.34 338.59C355.52 338.59 356.67 338.36 357.77 337.89C358.87 337.43 359.88 336.73 360.82 335.8V323.36L352.19 324.88C350.16 325.22 348.68 325.9 347.75 326.91C346.82 327.93 346.35 329.24 346.35 330.85C346.35 332.88 347.13 334.68 348.7 336.25C350.26 337.81 352.14 338.59 354.34 338.59Z" fill="url(#paint27_radial)"/>
<path d="M414.36 350.02C410.3 350.02 406.83 349.15 403.95 347.42C401.07 345.69 398.87 343.57 397.35 341.07C395.83 338.57 395.06 336.27 395.06 334.15C395.06 330.93 396.01 328.27 397.92 326.15C399.82 324.04 402.76 322.43 406.74 321.33L426.8 315.74V311.93C426.8 310.15 426.27 308.5 425.21 306.98C424.15 305.46 422.73 304.19 420.96 303.17C419.19 302.15 417.32 301.65 415.37 301.65C414.18 301.65 413.36 301.95 412.89 302.54C412.42 303.13 412.11 304.19 411.94 305.71L411.18 314.34C406.61 315.19 402.88 315.02 400.01 313.83C397.13 312.65 395.69 310.66 395.69 307.86C395.69 306.08 396.6 304.29 398.42 302.46C400.24 300.64 402.5 298.97 405.21 297.45C407.92 295.93 410.65 294.64 413.4 293.58C416.15 292.52 418.41 291.91 420.19 291.74C428.14 291.74 434.43 293.48 439.04 296.95C443.65 300.42 445.96 305.16 445.96 311.17L445.58 327.55C445.58 330.17 445.66 332.12 445.83 333.39C446 334.66 446.25 335.72 446.59 336.56L455.1 338.08V343.92L446.09 347.86C444.48 348.62 442.98 349.17 441.58 349.51C440.18 349.85 438.81 350.02 437.45 350.02C433.9 350.02 431.4 348.24 429.96 344.69L427.42 338.6L430.34 339.23C427.8 342.53 425.13 345.16 422.34 347.1C419.55 349.04 416.9 350.02 414.36 350.02ZM421.85 337.32C422.78 337.32 423.69 337.15 424.58 336.81C425.47 336.47 426.29 335.96 427.06 335.29V323.23L420.33 324.12C418.21 324.29 416.69 324.88 415.76 325.9C414.83 326.92 414.36 328.23 414.36 329.84C414.36 331.7 415.12 333.42 416.65 334.98C418.17 336.54 419.9 337.32 421.85 337.32Z" fill="url(#paint28_radial)"/>
<path d="M482.39 350.02C478.24 350.02 474.69 349.11 471.73 347.29C468.77 345.47 466.52 343.27 465 340.69C463.48 338.11 462.71 335.76 462.71 333.64C462.71 330.34 463.66 327.61 465.57 325.45C467.48 323.29 470.37 321.7 474.27 320.69L494.58 315.23V312.06C494.58 310.37 494.05 308.76 492.99 307.24C491.93 305.72 490.56 304.45 488.86 303.43C487.17 302.41 485.43 301.91 483.65 301.91C482.72 301.91 482.04 302.19 481.62 302.74C481.2 303.29 480.9 304.2 480.73 305.47L479.84 314.86C474.93 315.79 470.95 315.62 467.91 314.35C464.87 313.08 463.34 310.97 463.34 308C463.34 306.14 464.33 304.25 466.32 302.35C468.31 300.45 470.74 298.71 473.62 297.14C476.5 295.57 479.33 294.26 482.13 293.2C484.92 292.14 487.16 291.53 488.86 291.36C497.15 291.36 503.71 293.12 508.54 296.63C513.36 300.14 515.73 304.95 515.65 311.04L515.27 326.4C515.27 329.28 515.35 331.31 515.52 332.49C515.69 333.68 515.98 334.69 516.41 335.54L524.92 337.06V343.41L515.27 347.73C513.66 348.49 512.1 349.06 510.57 349.44C509.04 349.82 507.56 350.01 506.13 350.01C502.32 350.01 499.61 348.15 498.01 344.42L495.22 338.07L498.39 338.83C495.85 342.22 493.16 344.92 490.33 346.95C487.48 349 484.84 350.02 482.39 350.02ZM490.77 336.18C491.45 336.18 492.14 336.07 492.86 335.86C493.58 335.65 494.23 335.33 494.83 334.91V323.1L489.75 323.35C487.63 323.44 486.11 323.98 485.18 325C484.25 326.02 483.78 327.29 483.78 328.81C483.78 330.67 484.5 332.36 485.94 333.89C487.38 335.42 488.99 336.18 490.77 336.18Z" fill="url(#paint29_radial)"/>
<path d="M23.1799 422.02C19.2899 422.02 15.9199 421.17 13.0899 419.48C10.2499 417.79 8.0999 415.76 6.6199 413.39C5.1399 411.02 4.3999 408.78 4.3999 406.66C4.3999 403.53 5.3499 400.95 7.2599 398.92C9.1699 396.89 12.0999 395.28 16.0799 394.1L35.9999 388.25V383.68C35.9999 381.9 35.4299 380.23 34.2899 378.67C33.1499 377.1 31.6399 375.81 29.7799 374.8C27.9199 373.78 25.9299 373.28 23.8099 373.28C22.4599 373.28 21.4999 373.6 20.9499 374.23C20.3999 374.86 20.0399 376.11 19.8699 377.98L19.2399 385.72C15.0099 386.57 11.5599 386.42 8.8899 385.28C6.2199 384.14 4.8899 382.25 4.8899 379.63C4.8899 378.02 5.7399 376.37 7.4299 374.68C9.1199 372.99 11.2199 371.4 13.7099 369.92C16.2099 368.44 18.7699 367.17 21.3899 366.11C24.0099 365.05 26.3399 364.44 28.3699 364.27C35.8199 364.27 41.7599 365.98 46.2099 369.41C50.6599 372.84 52.8799 377.43 52.8799 383.18L52.4999 400.83C52.4999 403.2 52.5599 405.04 52.6899 406.35C52.8199 407.66 53.0899 408.74 53.5199 409.59L61.7699 411.11V416.44L53.5199 420.12C52.0799 420.71 50.7099 421.18 49.3899 421.52C48.0799 421.86 46.8299 422.03 45.6399 422.03C42.3399 422.03 40.0099 420.34 38.6599 416.95L36.4999 411.11L39.1699 411.74C36.5499 414.96 33.8599 417.47 31.1099 419.29C28.3699 421.1 25.7199 422.02 23.1799 422.02ZM29.6599 410.59C30.8399 410.59 31.9899 410.36 33.0899 409.89C34.1899 409.43 35.1999 408.73 36.1399 407.8V395.36L27.5099 396.88C25.4799 397.22 23.9999 397.9 23.0699 398.91C22.1399 399.93 21.6699 401.24 21.6699 402.85C21.6699 404.88 22.4499 406.68 24.0199 408.25C25.5699 409.81 27.4599 410.59 29.6599 410.59ZM88.5699 422.02C84.6799 422.02 81.3099 421.17 78.4799 419.48C75.6399 417.79 73.4899 415.76 72.0099 413.39C70.5299 411.02 69.7899 408.78 69.7899 406.66C69.7899 403.53 70.7399 400.95 72.6499 398.92C74.5599 396.89 77.4899 395.28 81.4699 394.1L101.4 388.26V383.69C101.4 381.91 100.83 380.24 99.6899 378.68C98.5499 377.11 97.0399 375.82 95.1799 374.81C93.3199 373.79 91.3299 373.29 89.2099 373.29C87.8599 373.29 86.8999 373.61 86.3499 374.24C85.7999 374.87 85.4399 376.12 85.2699 377.99L84.6399 385.73C80.4099 386.58 76.9599 386.43 74.2899 385.29C71.6199 384.15 70.2899 382.26 70.2899 379.64C70.2899 378.03 71.1399 376.38 72.8299 374.69C74.5199 373 76.6199 371.41 79.1099 369.93C81.6099 368.45 84.1699 367.18 86.7899 366.12C89.4099 365.06 91.7399 364.45 93.7699 364.28C101.22 364.28 107.16 365.99 111.61 369.42C116.06 372.85 118.28 377.44 118.28 383.19L117.9 400.84C117.9 403.21 117.96 405.05 118.09 406.36C118.22 407.67 118.49 408.75 118.92 409.6L127.17 411.12V416.45L118.92 420.13C117.48 420.72 116.11 421.19 114.79 421.53C113.48 421.87 112.23 422.04 111.04 422.04C107.74 422.04 105.41 420.35 104.06 416.96L101.9 411.12L104.57 411.75C101.95 414.97 99.2599 417.48 96.5099 419.3C93.7599 421.1 91.1099 422.02 88.5699 422.02ZM95.0499 410.59C96.2299 410.59 97.3799 410.36 98.4799 409.89C99.5799 409.43 100.59 408.73 101.53 407.8V395.36L92.8999 396.88C90.8699 397.22 89.3899 397.9 88.4599 398.91C87.5299 399.93 87.0599 401.24 87.0599 402.85C87.0599 404.88 87.8399 406.68 89.4099 408.25C90.9599 409.81 92.8499 410.59 95.0499 410.59ZM153.96 422.02C150.07 422.02 146.7 421.17 143.87 419.48C141.03 417.79 138.88 415.76 137.4 413.39C135.92 411.02 135.18 408.78 135.18 406.66C135.18 403.53 136.13 400.95 138.04 398.92C139.95 396.89 142.88 395.28 146.86 394.1L166.79 388.26V383.69C166.79 381.91 166.22 380.24 165.08 378.68C163.94 377.11 162.43 375.82 160.57 374.81C158.71 373.79 156.72 373.29 154.6 373.29C153.25 373.29 152.29 373.61 151.74 374.24C151.19 374.87 150.83 376.12 150.66 377.99L150.03 385.73C145.8 386.58 142.35 386.43 139.68 385.29C137.01 384.15 135.68 382.26 135.68 379.64C135.68 378.03 136.53 376.38 138.22 374.69C139.91 373 142.01 371.41 144.5 369.93C147 368.45 149.56 367.18 152.18 366.12C154.8 365.06 157.13 364.45 159.16 364.28C166.61 364.28 172.55 365.99 177 369.42C181.45 372.85 183.67 377.44 183.67 383.19L183.29 400.84C183.29 403.21 183.35 405.05 183.48 406.36C183.61 407.67 183.88 408.75 184.31 409.6L192.56 411.12V416.45L184.31 420.13C182.87 420.72 181.5 421.19 180.18 421.53C178.87 421.87 177.62 422.04 176.43 422.04C173.13 422.04 170.8 420.35 169.45 416.96L167.29 411.12L169.96 411.75C167.34 414.97 164.65 417.48 161.9 419.3C159.15 421.1 156.5 422.02 153.96 422.02ZM160.44 410.59C161.62 410.59 162.77 410.36 163.87 409.89C164.97 409.43 165.98 408.73 166.92 407.8V395.36L158.29 396.88C156.26 397.22 154.78 397.9 153.85 398.91C152.92 399.93 152.45 401.24 152.45 402.85C152.45 404.88 153.23 406.68 154.8 408.25C156.35 409.81 158.24 410.59 160.44 410.59ZM219.36 422.02C215.47 422.02 212.1 421.17 209.27 419.48C206.43 417.79 204.28 415.76 202.8 413.39C201.32 411.02 200.58 408.78 200.58 406.66C200.58 403.53 201.53 400.95 203.44 398.92C205.35 396.89 208.28 395.28 212.26 394.1L232.19 388.26V383.69C232.19 381.91 231.62 380.24 230.48 378.68C229.34 377.11 227.83 375.82 225.97 374.81C224.11 373.79 222.12 373.29 220 373.29C218.65 373.29 217.69 373.61 217.14 374.24C216.59 374.87 216.23 376.12 216.06 377.99L215.43 385.73C211.2 386.58 207.75 386.43 205.08 385.29C202.41 384.15 201.08 382.26 201.08 379.64C201.08 378.03 201.93 376.38 203.62 374.69C205.31 373 207.41 371.41 209.9 369.93C212.4 368.45 214.96 367.18 217.58 366.12C220.2 365.06 222.53 364.45 224.56 364.28C232.01 364.28 237.95 365.99 242.4 369.42C246.85 372.85 249.07 377.44 249.07 383.19L248.69 400.84C248.69 403.21 248.75 405.05 248.88 406.36C249.01 407.67 249.28 408.75 249.71 409.6L257.96 411.12V416.45L249.71 420.13C248.27 420.72 246.9 421.19 245.58 421.53C244.27 421.87 243.02 422.04 241.83 422.04C238.53 422.04 236.2 420.35 234.85 416.96L232.69 411.12L235.36 411.75C232.74 414.97 230.05 417.48 227.3 419.3C224.54 421.1 221.89 422.02 219.36 422.02ZM225.83 410.59C227.01 410.59 228.16 410.36 229.26 409.89C230.36 409.43 231.37 408.73 232.31 407.8V395.36L223.68 396.88C221.65 397.22 220.17 397.9 219.24 398.91C218.31 399.93 217.84 401.24 217.84 402.85C217.84 404.88 218.62 406.68 220.19 408.25C221.75 409.81 223.63 410.59 225.83 410.59ZM284.75 422.02C280.86 422.02 277.49 421.17 274.66 419.48C271.82 417.79 269.67 415.76 268.19 413.39C266.71 411.02 265.97 408.78 265.97 406.66C265.97 403.53 266.92 400.95 268.83 398.92C270.74 396.89 273.67 395.28 277.65 394.1L297.58 388.26V383.69C297.58 381.91 297.01 380.24 295.87 378.68C294.73 377.11 293.22 375.82 291.36 374.81C289.5 373.79 287.51 373.29 285.39 373.29C284.04 373.29 283.08 373.61 282.53 374.24C281.98 374.87 281.62 376.12 281.45 377.99L280.82 385.73C276.59 386.58 273.14 386.43 270.47 385.29C267.8 384.15 266.47 382.26 266.47 379.64C266.47 378.03 267.32 376.38 269.01 374.69C270.7 373 272.8 371.41 275.29 369.93C277.79 368.45 280.35 367.18 282.97 366.12C285.59 365.06 287.92 364.45 289.95 364.28C297.4 364.28 303.34 365.99 307.79 369.42C312.24 372.85 314.46 377.44 314.46 383.19L314.08 400.84C314.08 403.21 314.14 405.05 314.27 406.36C314.4 407.67 314.67 408.75 315.1 409.6L323.35 411.12V416.45L315.1 420.13C313.66 420.72 312.29 421.19 310.97 421.53C309.66 421.87 308.41 422.04 307.22 422.04C303.92 422.04 301.59 420.35 300.24 416.96L298.08 411.12L300.75 411.75C298.13 414.97 295.44 417.48 292.69 419.3C289.93 421.1 287.29 422.02 284.75 422.02ZM291.22 410.59C292.4 410.59 293.55 410.36 294.65 409.89C295.75 409.43 296.76 408.73 297.7 407.8V395.36L289.07 396.88C287.04 397.22 285.56 397.9 284.63 398.91C283.7 399.93 283.23 401.24 283.23 402.85C283.23 404.88 284.01 406.68 285.58 408.25C287.14 409.81 289.02 410.59 291.22 410.59ZM350.14 422.02C346.25 422.02 342.88 421.17 340.05 419.48C337.21 417.79 335.06 415.76 333.58 413.39C332.1 411.02 331.36 408.78 331.36 406.66C331.36 403.53 332.31 400.95 334.22 398.92C336.13 396.89 339.06 395.28 343.04 394.1L362.97 388.26V383.69C362.97 381.91 362.4 380.24 361.26 378.68C360.12 377.11 358.61 375.82 356.75 374.81C354.89 373.79 352.9 373.29 350.78 373.29C349.43 373.29 348.47 373.61 347.92 374.24C347.37 374.87 347.01 376.12 346.84 377.99L346.21 385.73C341.98 386.58 338.53 386.43 335.86 385.29C333.19 384.15 331.86 382.26 331.86 379.64C331.86 378.03 332.71 376.38 334.4 374.69C336.09 373 338.19 371.41 340.68 369.93C343.18 368.45 345.74 367.18 348.36 366.12C350.98 365.06 353.31 364.45 355.34 364.28C362.79 364.28 368.73 365.99 373.18 369.42C377.63 372.85 379.85 377.44 379.85 383.19L379.47 400.84C379.47 403.21 379.53 405.05 379.66 406.36C379.79 407.67 380.06 408.75 380.49 409.6L388.74 411.12V416.45L380.49 420.13C379.05 420.72 377.68 421.19 376.36 421.53C375.05 421.87 373.8 422.04 372.61 422.04C369.31 422.04 366.98 420.35 365.63 416.96L363.47 411.12L366.14 411.75C363.52 414.97 360.83 417.48 358.08 419.3C355.32 421.1 352.68 422.02 350.14 422.02ZM356.61 410.59C357.79 410.59 358.94 410.36 360.04 409.89C361.14 409.43 362.15 408.73 363.09 407.8V395.36L354.46 396.88C352.43 397.22 350.95 397.9 350.02 398.91C349.09 399.93 348.62 401.24 348.62 402.85C348.62 404.88 349.4 406.68 350.97 408.25C352.53 409.81 354.41 410.59 356.61 410.59Z" fill="url(#paint30_radial)"/>
<path d="M415.47 422.02C411.41 422.02 407.94 421.15 405.06 419.42C402.18 417.69 399.98 415.57 398.46 413.07C396.94 410.57 396.17 408.27 396.17 406.15C396.17 402.93 397.12 400.27 399.03 398.15C400.93 396.04 403.87 394.43 407.85 393.33L427.91 387.74V383.93C427.91 382.15 427.38 380.5 426.32 378.98C425.26 377.46 423.84 376.19 422.07 375.17C420.3 374.15 418.43 373.65 416.48 373.65C415.29 373.65 414.47 373.95 414 374.54C413.53 375.13 413.22 376.19 413.05 377.71L412.29 386.34C407.72 387.19 403.99 387.02 401.12 385.83C398.24 384.65 396.8 382.66 396.8 379.86C396.8 378.08 397.71 376.29 399.53 374.46C401.35 372.64 403.61 370.97 406.32 369.45C409.03 367.93 411.76 366.64 414.51 365.58C417.26 364.52 419.52 363.91 421.3 363.74C429.25 363.74 435.54 365.48 440.15 368.95C444.76 372.42 447.07 377.16 447.07 383.17L446.69 399.55C446.69 402.17 446.77 404.12 446.94 405.39C447.11 406.66 447.36 407.72 447.7 408.56L456.21 410.08V415.92L447.2 419.86C445.59 420.62 444.09 421.17 442.69 421.51C441.29 421.85 439.92 422.02 438.56 422.02C435.01 422.02 432.51 420.24 431.07 416.69L428.53 410.6L431.45 411.23C428.91 414.53 426.24 417.16 423.45 419.1C420.66 421.04 418.01 422.02 415.47 422.02ZM422.96 409.32C423.89 409.32 424.8 409.15 425.69 408.81C426.58 408.47 427.4 407.96 428.17 407.29V395.23L421.44 396.12C419.32 396.29 417.8 396.88 416.87 397.9C415.94 398.92 415.47 400.23 415.47 401.84C415.47 403.7 416.23 405.42 417.76 406.98C419.28 408.54 421.01 409.32 422.96 409.32Z" fill="url(#paint31_radial)"/>
<path d="M482.39 422.02C478.24 422.02 474.69 421.11 471.73 419.29C468.77 417.47 466.52 415.27 465 412.69C463.48 410.11 462.71 407.76 462.71 405.64C462.71 402.34 463.66 399.61 465.57 397.45C467.48 395.29 470.37 393.7 474.27 392.69L494.58 387.23V384.06C494.58 382.37 494.05 380.76 492.99 379.24C491.93 377.72 490.56 376.45 488.86 375.43C487.17 374.41 485.43 373.91 483.65 373.91C482.72 373.91 482.04 374.19 481.62 374.74C481.2 375.29 480.9 376.2 480.73 377.47L479.84 386.86C474.93 387.79 470.95 387.62 467.91 386.35C464.87 385.08 463.34 382.97 463.34 380C463.34 378.14 464.33 376.25 466.32 374.35C468.31 372.45 470.74 370.71 473.62 369.14C476.5 367.57 479.33 366.26 482.13 365.2C484.92 364.14 487.16 363.53 488.86 363.36C497.15 363.36 503.71 365.12 508.54 368.63C513.36 372.14 515.73 376.95 515.65 383.04L515.27 398.4C515.27 401.28 515.35 403.31 515.52 404.49C515.69 405.68 515.98 406.69 516.41 407.54L524.92 409.06V415.41L515.27 419.73C513.66 420.49 512.1 421.06 510.57 421.44C509.04 421.82 507.56 422.01 506.13 422.01C502.32 422.01 499.61 420.15 498.01 416.42L495.22 410.07L498.39 410.83C495.85 414.22 493.16 416.92 490.33 418.95C487.48 421 484.84 422.02 482.39 422.02ZM490.77 408.18C491.45 408.18 492.14 408.07 492.86 407.86C493.58 407.65 494.23 407.33 494.83 406.91V395.1L489.75 395.35C487.63 395.44 486.11 395.98 485.18 397C484.25 398.02 483.78 399.29 483.78 400.81C483.78 402.67 484.5 404.36 485.94 405.89C487.38 407.42 488.99 408.18 490.77 408.18Z" fill="url(#paint32_radial)"/>
</g>
<defs>
<filter id="filter0_d" x="0.399902" y="0.25" width="528.52" height="429.79" filterUnits="userSpaceOnUse" color-interpolation-filters="sRGB">
<feFlood flood-opacity="0" result="BackgroundImageFix"/>
<feColorMatrix in="SourceAlpha" type="matrix" values="0 0 0 0 0 0 0 0 0 0 0 0 0 0 0 0 0 0 127 0"/>
<feOffset dy="4"/>
<feGaussianBlur stdDeviation="2"/>
<feColorMatrix type="matrix" values="0 0 0 0 0 0 0 0 0 0 0 0 0 0 0 0 0 0 0.25 0"/>
<feBlend mode="normal" in2="BackgroundImageFix" result="effect1_dropShadow"/>
<feBlend mode="normal" in="SourceGraphic" in2="effect1_dropShadow" result="shape"/>
</filter>
<radialGradient id="paint0_radial" cx="0" cy="0" r="1" gradientUnits="userSpaceOnUse" gradientTransform="translate(0.626674 239.273) scale(457.155)">
<stop stop-color="#DDD9D2"/>
<stop offset="0.8041" stop-color="#DDD9D2"/>
<stop offset="0.8666" stop-color="#F0CBE3"/>
<stop offset="0.9318" stop-color="#FBC2EE"/>
<stop offset="1" stop-color="#FFBFF1"/>
</radialGradient>
<radialGradient id="paint1_radial" cx="0" cy="0" r="1" gradientUnits="userSpaceOnUse" gradientTransform="translate(0.626559 239.273) scale(457.155)">
<stop stop-color="#DDD9D2"/>
<stop offset="0.8041" stop-color="#DDD9D2"/>
<stop offset="0.8666" stop-color="#F0CBE3"/>
<stop offset="0.9318" stop-color="#FBC2EE"/>
<stop offset="1" stop-color="#FFBFF1"/>
</radialGradient>
<radialGradient id="paint2_radial" cx="0" cy="0" r="1" gradientUnits="userSpaceOnUse" gradientTransform="translate(0.62662 239.273) scale(457.155)">
<stop stop-color="#DDD9D2"/>
<stop offset="0.8041" stop-color="#DDD9D2"/>
<stop offset="0.8666" stop-color="#F0CBE3"/>
<stop offset="0.9318" stop-color="#FBC2EE"/>
<stop offset="1" stop-color="#FFBFF1"/>
</radialGradient>
<radialGradient id="paint3_radial" cx="0" cy="0" r="1" gradientUnits="userSpaceOnUse" gradientTransform="translate(0.626687 239.273) scale(457.155)">
<stop stop-color="#DDD9D2"/>
<stop offset="0.8041" stop-color="#DDD9D2"/>
<stop offset="0.8666" stop-color="#F0CBE3"/>
<stop offset="0.9318" stop-color="#FBC2EE"/>
<stop offset="1" stop-color="#FFBFF1"/>
</radialGradient>
<radialGradient id="paint4_radial" cx="0" cy="0" r="1" gradientUnits="userSpaceOnUse" gradientTransform="translate(0.626677 239.273) scale(457.155)">
<stop stop-color="#DDD9D2"/>
<stop offset="0.8041" stop-color="#DDD9D2"/>
<stop offset="0.8666" stop-color="#F0CBE3"/>
<stop offset="0.9318" stop-color="#FBC2EE"/>
<stop offset="1" stop-color="#FFBFF1"/>
</radialGradient>
<radialGradient id="paint5_radial" cx="0" cy="0" r="1" gradientUnits="userSpaceOnUse" gradientTransform="translate(0.626734 239.273) scale(457.155)">
<stop stop-color="#DDD9D2"/>
<stop offset="0.8041" stop-color="#DDD9D2"/>
<stop offset="0.8666" stop-color="#F0CBE3"/>
<stop offset="0.9318" stop-color="#FBC2EE"/>
<stop offset="1" stop-color="#FFBFF1"/>
</radialGradient>
<radialGradient id="paint6_radial" cx="0" cy="0" r="1" gradientUnits="userSpaceOnUse" gradientTransform="translate(0.626785 239.273) scale(457.155 457.155)">
<stop stop-color="#DDD9D2"/>
<stop offset="0.8041" stop-color="#DDD9D2"/>
<stop offset="0.8666" stop-color="#F0CBE3"/>
<stop offset="0.9318" stop-color="#FBC2EE"/>
<stop offset="1" stop-color="#FFBFF1"/>
</radialGradient>
<radialGradient id="paint7_radial" cx="0" cy="0" r="1" gradientUnits="userSpaceOnUse" gradientTransform="translate(0.626402 239.273) scale(457.155 457.155)">
<stop stop-color="#DDD9D2"/>
<stop offset="0.8041" stop-color="#DDD9D2"/>
<stop offset="0.8666" stop-color="#F0CBE3"/>
<stop offset="0.9318" stop-color="#FBC2EE"/>
<stop offset="1" stop-color="#FFBFF1"/>
</radialGradient>
<radialGradient id="paint8_radial" cx="0" cy="0" r="1" gradientUnits="userSpaceOnUse" gradientTransform="translate(0.626581 239.273) scale(457.155)">
<stop stop-color="#DDD9D2"/>
<stop offset="0.8041" stop-color="#DDD9D2"/>
<stop offset="0.8666" stop-color="#F0CBE3"/>
<stop offset="0.9318" stop-color="#FBC2EE"/>
<stop offset="1" stop-color="#FFBFF1"/>
</radialGradient>
<radialGradient id="paint9_radial" cx="0" cy="0" r="1" gradientUnits="userSpaceOnUse" gradientTransform="translate(0.626689 239.273) scale(457.155)">
<stop stop-color="#DDD9D2"/>
<stop offset="0.8041" stop-color="#DDD9D2"/>
<stop offset="0.8666" stop-color="#F0CBE3"/>
<stop offset="0.9318" stop-color="#FBC2EE"/>
<stop offset="1" stop-color="#FFBFF1"/>
</radialGradient>
<radialGradient id="paint10_radial" cx="0" cy="0" r="1" gradientUnits="userSpaceOnUse" gradientTransform="translate(0.626785 239.273) scale(457.155)">
<stop stop-color="#DDD9D2"/>
<stop offset="0.8041" stop-color="#DDD9D2"/>
<stop offset="0.8666" stop-color="#F0CBE3"/>
<stop offset="0.9318" stop-color="#FBC2EE"/>
<stop offset="1" stop-color="#FFBFF1"/>
</radialGradient>
<radialGradient id="paint11_radial" cx="0" cy="0" r="1" gradientUnits="userSpaceOnUse" gradientTransform="translate(0.626802 239.273) scale(457.155)">
<stop stop-color="#DDD9D2"/>
<stop offset="0.8041" stop-color="#DDD9D2"/>
<stop offset="0.8666" stop-color="#F0CBE3"/>
<stop offset="0.9318" stop-color="#FBC2EE"/>
<stop offset="1" stop-color="#FFBFF1"/>
</radialGradient>
<radialGradient id="paint12_radial" cx="0" cy="0" r="1" gradientUnits="userSpaceOnUse" gradientTransform="translate(0.62656 239.273) scale(457.155)">
<stop stop-color="#DDD9D2"/>
<stop offset="0.8041" stop-color="#DDD9D2"/>
<stop offset="0.8666" stop-color="#F0CBE3"/>
<stop offset="0.9318" stop-color="#FBC2EE"/>
<stop offset="1" stop-color="#FFBFF1"/>
</radialGradient>
<radialGradient id="paint13_radial" cx="0" cy="0" r="1" gradientUnits="userSpaceOnUse" gradientTransform="translate(0.626797 239.273) scale(457.155 457.155)">
<stop stop-color="#DDD9D2"/>
<stop offset="0.8041" stop-color="#DDD9D2"/>
<stop offset="0.8666" stop-color="#F0CBE3"/>
<stop offset="0.9318" stop-color="#FBC2EE"/>
<stop offset="1" stop-color="#FFBFF1"/>
</radialGradient>
<radialGradient id="paint14_radial" cx="0" cy="0" r="1" gradientUnits="userSpaceOnUse" gradientTransform="translate(0.626728 239.273) scale(457.155)">
<stop stop-color="#DDD9D2"/>
<stop offset="0.8041" stop-color="#DDD9D2"/>
<stop offset="0.8666" stop-color="#F0CBE3"/>
<stop offset="0.9318" stop-color="#FBC2EE"/>
<stop offset="1" stop-color="#FFBFF1"/>
</radialGradient>
<radialGradient id="paint15_radial" cx="0" cy="0" r="1" gradientUnits="userSpaceOnUse" gradientTransform="translate(0.626571 239.273) scale(457.155)">
<stop stop-color="#DDD9D2"/>
<stop offset="0.8041" stop-color="#DDD9D2"/>
<stop offset="0.8666" stop-color="#F0CBE3"/>
<stop offset="0.9318" stop-color="#FBC2EE"/>
<stop offset="1" stop-color="#FFBFF1"/>
</radialGradient>
<radialGradient id="paint16_radial" cx="0" cy="0" r="1" gradientUnits="userSpaceOnUse" gradientTransform="translate(0.626795 239.273) scale(457.155)">
<stop stop-color="#DDD9D2"/>
<stop offset="0.8041" stop-color="#DDD9D2"/>
<stop offset="0.8666" stop-color="#F0CBE3"/>
<stop offset="0.9318" stop-color="#FBC2EE"/>
<stop offset="1" stop-color="#FFBFF1"/>
</radialGradient>
<radialGradient id="paint17_radial" cx="0" cy="0" r="1" gradientUnits="userSpaceOnUse" gradientTransform="translate(0.626496 239.273) scale(457.155 457.155)">
<stop stop-color="#DDD9D2"/>
<stop offset="0.8041" stop-color="#DDD9D2"/>
<stop offset="0.8666" stop-color="#F0CBE3"/>
<stop offset="0.9318" stop-color="#FBC2EE"/>
<stop offset="1" stop-color="#FFBFF1"/>
</radialGradient>
<radialGradient id="paint18_radial" cx="0" cy="0" r="1" gradientUnits="userSpaceOnUse" gradientTransform="translate(0.626853 239.273) scale(457.155 457.155)">
<stop stop-color="#DDD9D2"/>
<stop offset="0.8041" stop-color="#DDD9D2"/>
<stop offset="0.8666" stop-color="#F0CBE3"/>
<stop offset="0.9318" stop-color="#FBC2EE"/>
<stop offset="1" stop-color="#FFBFF1"/>
</radialGradient>
<radialGradient id="paint19_radial" cx="0" cy="0" r="1" gradientUnits="userSpaceOnUse" gradientTransform="translate(0.626561 239.273) scale(457.155 457.155)">
<stop stop-color="#DDD9D2"/>
<stop offset="0.8041" stop-color="#DDD9D2"/>
<stop offset="0.8666" stop-color="#F0CBE3"/>
<stop offset="0.9318" stop-color="#FBC2EE"/>
<stop offset="1" stop-color="#FFBFF1"/>
</radialGradient>
<radialGradient id="paint20_radial" cx="0" cy="0" r="1" gradientUnits="userSpaceOnUse" gradientTransform="translate(0.626728 239.273) scale(457.155)">
<stop stop-color="#DDD9D2"/>
<stop offset="0.8041" stop-color="#DDD9D2"/>
<stop offset="0.8666" stop-color="#F0CBE3"/>
<stop offset="0.9318" stop-color="#FBC2EE"/>
<stop offset="1" stop-color="#FFBFF1"/>
</radialGradient>
<radialGradient id="paint21_radial" cx="0" cy="0" r="1" gradientUnits="userSpaceOnUse" gradientTransform="translate(0.626671 239.273) scale(457.155)">
<stop stop-color="#DDD9D2"/>
<stop offset="0.8041" stop-color="#DDD9D2"/>
<stop offset="0.8666" stop-color="#F0CBE3"/>
<stop offset="0.9318" stop-color="#FBC2EE"/>
<stop offset="1" stop-color="#FFBFF1"/>
</radialGradient>
<radialGradient id="paint22_radial" cx="0" cy="0" r="1" gradientUnits="userSpaceOnUse" gradientTransform="translate(0.626711 239.273) scale(457.155)">
<stop stop-color="#DDD9D2"/>
<stop offset="0.8041" stop-color="#DDD9D2"/>
<stop offset="0.8666" stop-color="#F0CBE3"/>
<stop offset="0.9318" stop-color="#FBC2EE"/>
<stop offset="1" stop-color="#FFBFF1"/>
</radialGradient>
<radialGradient id="paint23_radial" cx="0" cy="0" r="1" gradientUnits="userSpaceOnUse" gradientTransform="translate(0.626806 239.273) scale(457.155 457.155)">
<stop stop-color="#DDD9D2"/>
<stop offset="0.8041" stop-color="#DDD9D2"/>
<stop offset="0.8666" stop-color="#F0CBE3"/>
<stop offset="0.9318" stop-color="#FBC2EE"/>
<stop offset="1" stop-color="#FFBFF1"/>
</radialGradient>
<radialGradient id="paint24_radial" cx="0" cy="0" r="1" gradientUnits="userSpaceOnUse" gradientTransform="translate(0.626678 239.273) scale(457.155)">
<stop stop-color="#DDD9D2"/>
<stop offset="0.8041" stop-color="#DDD9D2"/>
<stop offset="0.8666" stop-color="#F0CBE3"/>
<stop offset="0.9318" stop-color="#FBC2EE"/>
<stop offset="1" stop-color="#FFBFF1"/>
</radialGradient>
<radialGradient id="paint25_radial" cx="0" cy="0" r="1" gradientUnits="userSpaceOnUse" gradientTransform="translate(0.626728 239.273) scale(457.155)">
<stop stop-color="#DDD9D2"/>
<stop offset="0.8041" stop-color="#DDD9D2"/>
<stop offset="0.8666" stop-color="#F0CBE3"/>
<stop offset="0.9318" stop-color="#FBC2EE"/>
<stop offset="1" stop-color="#FFBFF1"/>
</radialGradient>
<radialGradient id="paint26_radial" cx="0" cy="0" r="1" gradientUnits="userSpaceOnUse" gradientTransform="translate(0.626674 239.273) scale(457.155 457.155)">
<stop stop-color="#DDD9D2"/>
<stop offset="0.8041" stop-color="#DDD9D2"/>
<stop offset="0.8666" stop-color="#F0CBE3"/>
<stop offset="0.9318" stop-color="#FBC2EE"/>
<stop offset="1" stop-color="#FFBFF1"/>
</radialGradient>
<radialGradient id="paint27_radial" cx="0" cy="0" r="1" gradientUnits="userSpaceOnUse" gradientTransform="translate(0.626557 239.273) scale(457.155)">
<stop stop-color="#DDD9D2"/>
<stop offset="0.8041" stop-color="#DDD9D2"/>
<stop offset="0.8666" stop-color="#F0CBE3"/>
<stop offset="0.9318" stop-color="#FBC2EE"/>
<stop offset="1" stop-color="#FFBFF1"/>
</radialGradient>
<radialGradient id="paint28_radial" cx="0" cy="0" r="1" gradientUnits="userSpaceOnUse" gradientTransform="translate(0.626518 239.273) scale(457.155)">
<stop stop-color="#DDD9D2"/>
<stop offset="0.8041" stop-color="#DDD9D2"/>
<stop offset="0.8666" stop-color="#F0CBE3"/>
<stop offset="0.9318" stop-color="#FBC2EE"/>
<stop offset="1" stop-color="#FFBFF1"/>
</radialGradient>
<radialGradient id="paint29_radial" cx="0" cy="0" r="1" gradientUnits="userSpaceOnUse" gradientTransform="translate(0.626728 239.273) scale(457.155)">
<stop stop-color="#DDD9D2"/>
<stop offset="0.8041" stop-color="#DDD9D2"/>
<stop offset="0.8666" stop-color="#F0CBE3"/>
<stop offset="0.9318" stop-color="#FBC2EE"/>
<stop offset="1" stop-color="#FFBFF1"/>
</radialGradient>
<radialGradient id="paint30_radial" cx="0" cy="0" r="1" gradientUnits="userSpaceOnUse" gradientTransform="translate(0.626685 239.273) scale(457.155 457.155)">
<stop stop-color="#DDD9D2"/>
<stop offset="0.8041" stop-color="#DDD9D2"/>
<stop offset="0.8666" stop-color="#F0CBE3"/>
<stop offset="0.9318" stop-color="#FBC2EE"/>
<stop offset="1" stop-color="#FFBFF1"/>
</radialGradient>
<radialGradient id="paint31_radial" cx="0" cy="0" r="1" gradientUnits="userSpaceOnUse" gradientTransform="translate(0.626829 239.273) scale(457.155 457.155)">
<stop stop-color="#DDD9D2"/>
<stop offset="0.8041" stop-color="#DDD9D2"/>
<stop offset="0.8666" stop-color="#F0CBE3"/>
<stop offset="0.9318" stop-color="#FBC2EE"/>
<stop offset="1" stop-color="#FFBFF1"/>
</radialGradient>
<radialGradient id="paint32_radial" cx="0" cy="0" r="1" gradientUnits="userSpaceOnUse" gradientTransform="translate(0.626728 239.273) scale(457.155)">
<stop stop-color="#DDD9D2"/>
<stop offset="0.8041" stop-color="#DDD9D2"/>
<stop offset="0.8666" stop-color="#F0CBE3"/>
<stop offset="0.9318" stop-color="#FBC2EE"/>
<stop offset="1" stop-color="#FFBFF1"/>
</radialGradient>
</defs>
</svg>
