<svg width="458" height="16" viewBox="0 0 458 16" fill="none" xmlns="http://www.w3.org/2000/svg">
<mask id="mask0" mask-type="alpha" maskUnits="userSpaceOnUse" x="0" y="0" width="458" height="16">
<path fill-rule="evenodd" clip-rule="evenodd" d="M0 0H457.003V15.3177H0V0Z" fill="white"/>
</mask>
<g mask="url(#mask0)">
<path fill-rule="evenodd" clip-rule="evenodd" d="M131.376 14.8028C131.806 14.5588 132.264 14.1728 132.751 13.6418L132.494 13.7068L132.644 14.4798C132.73 14.9388 132.966 15.1678 133.353 15.1678C133.439 15.1678 133.553 15.1458 133.697 15.1028C133.84 15.0598 133.998 15.0098 134.169 14.9528L135.072 14.6518V14.1148L133.718 13.8568C133.689 13.7428 133.661 13.5418 133.632 13.2558C133.603 12.9688 133.589 12.7258 133.589 12.5248L133.632 8.61476C133.618 7.74176 133.313 7.03576 132.719 6.49876C132.125 5.96176 131.355 5.69276 130.41 5.69276C130.008 5.75076 129.622 5.85076 129.249 5.99376C128.877 6.13676 128.54 6.31276 128.24 6.51976C127.939 6.72776 127.699 6.94676 127.52 7.17576C127.341 7.40476 127.251 7.62676 127.251 7.84176C127.251 8.14176 127.405 8.36076 127.713 8.49676C128.021 8.63276 128.383 8.64376 128.798 8.52876L128.82 7.84176C128.848 7.32576 128.934 6.98576 129.078 6.82076C129.221 6.65676 129.5 6.57376 129.915 6.57376C130.402 6.57376 130.836 6.65976 131.215 6.83176C131.595 7.00376 131.899 7.24376 132.128 7.55176C132.357 7.85976 132.472 8.20676 132.472 8.59376V9.83976L129.249 10.9778C128.505 11.2358 127.978 11.5158 127.67 11.8158C127.362 12.1168 127.208 12.4968 127.208 12.9548C127.208 13.3558 127.337 13.7248 127.595 14.0608C127.853 14.3978 128.197 14.6668 128.626 14.8668C129.056 15.0678 129.529 15.1678 130.044 15.1678C130.503 15.1678 130.947 15.0458 131.376 14.8028ZM129.164 13.7708C128.805 13.4708 128.626 13.1338 128.626 12.7618C128.626 12.4608 128.702 12.2138 128.852 12.0198C129.002 11.8268 129.249 11.6798 129.593 11.5798L132.472 10.7418V13.0838C132.157 13.4708 131.828 13.7568 131.484 13.9428C131.14 14.1298 130.767 14.2228 130.367 14.2228C129.923 14.2228 129.521 14.0718 129.164 13.7708ZM199.449 12.6538C199.407 12.1528 199.385 11.4008 199.385 10.3978V8.95876V8.01376C199.385 7.74176 199.388 7.45176 199.396 7.14276C199.403 6.83576 199.414 6.45276 199.428 5.99376L199.213 5.73576L196.635 6.42376V7.02476L198.203 7.32576C198.232 7.51176 198.253 7.75576 198.268 8.05676C198.282 8.35676 198.293 8.67276 198.3 9.00176C198.307 9.33176 198.311 9.65376 198.311 9.96876V12.6108C197.967 13.1558 197.57 13.5388 197.118 13.7608C196.667 13.9828 196.227 14.0938 195.797 14.0938C195.095 14.0938 194.519 13.8968 194.068 13.5028C193.616 13.1088 193.391 12.4248 193.391 11.4508V8.85076C193.391 8.33576 193.398 7.85176 193.412 7.40076C193.426 6.94976 193.441 6.49576 193.455 6.03676L193.198 5.73576L190.748 6.42376V7.02476L192.209 7.32576C192.238 7.71276 192.259 8.11776 192.274 8.53976C192.288 8.96276 192.295 9.40276 192.295 9.86076V11.7518C192.295 12.8828 192.621 13.7318 193.273 14.2978C193.924 14.8638 194.708 15.1458 195.625 15.1458C196.126 15.1458 196.585 15.0348 197 14.8128C197.416 14.5908 197.838 14.2008 198.268 13.6418L198.332 13.6638L198.311 14.9528L198.504 15.2108L200.889 14.6738V14.0718L199.535 13.7068C199.521 13.5068 199.492 13.1558 199.449 12.6538ZM263.258 14.6738C263.824 14.3438 264.307 13.8358 264.708 13.1478L264.214 12.7188C263.856 13.1768 263.476 13.5098 263.075 13.7178C262.674 13.9248 262.208 14.0288 261.679 14.0288C260.762 14.0288 260.003 13.6888 259.401 13.0088C258.8 12.3288 258.499 11.3578 258.499 10.0978V9.92576C258.499 9.13776 258.631 8.48576 258.897 7.97076C259.161 7.45476 259.498 7.06776 259.906 6.80976C260.315 6.55276 260.733 6.42376 261.163 6.42376C261.879 6.42376 262.438 6.66376 262.839 7.14276C263.24 7.62376 263.44 8.30676 263.44 9.19476V9.51676L263.634 9.34576H257.94V10.2048H264.708V9.88276C264.708 8.47876 264.404 7.43376 263.795 6.74576C263.186 6.05776 262.366 5.70776 261.335 5.69276C260.59 5.67876 259.896 5.86876 259.251 6.26276C258.607 6.65676 258.087 7.22176 257.693 7.95976C257.299 8.69776 257.103 9.58176 257.103 10.6128C257.103 11.5868 257.296 12.4148 257.683 13.0948C258.069 13.7748 258.585 14.2908 259.23 14.6418C259.874 14.9928 260.583 15.1678 261.357 15.1678C262.058 15.1678 262.692 15.0028 263.258 14.6738ZM328.226 6.83176C327.983 7.20476 327.718 7.51576 327.432 7.76676C327.145 8.01676 326.844 8.20376 326.529 8.32476C326.214 8.44676 325.877 8.50776 325.519 8.50776C324.732 8.50776 324.083 8.25376 323.575 7.74476C323.066 7.23676 322.812 6.58876 322.812 5.80076C322.812 4.96976 323.038 4.29976 323.489 3.79176C323.94 3.28376 324.502 3.02876 325.176 3.02876C325.791 3.02876 326.307 3.18976 326.723 3.51276C327.138 3.83476 327.456 4.28976 327.679 4.87676C327.9 5.46376 328.012 6.17276 328.012 7.00376C328.012 8.27876 327.782 9.42076 327.324 10.4308C326.866 11.4398 326.2 12.2888 325.326 12.9758C324.452 13.6638 323.385 14.1798 322.125 14.5228L322.447 15.3178C323.478 15.0888 324.427 14.7238 325.294 14.2228C326.16 13.7208 326.905 13.0978 327.528 12.3528C328.151 11.6088 328.635 10.7708 328.978 9.83976C329.322 8.90876 329.494 7.89876 329.494 6.80976C329.494 5.83676 329.322 5.00576 328.978 4.31776C328.635 3.63076 328.151 3.10376 327.528 2.73876C326.905 2.37376 326.178 2.19076 325.348 2.19076C324.574 2.19076 323.887 2.38076 323.285 2.76076C322.683 3.13976 322.211 3.63076 321.867 4.23176C321.523 4.83376 321.351 5.46376 321.351 6.12276C321.351 6.79576 321.513 7.39376 321.835 7.91676C322.157 8.43976 322.598 8.85076 323.156 9.15176C323.715 9.45276 324.338 9.60276 325.025 9.60276C325.741 9.60276 326.39 9.41376 326.97 9.03376C327.55 8.65476 327.997 8.12776 328.312 7.45476L328.226 6.83176ZM390.649 14.2658L388.887 14.0288C388.873 13.7568 388.862 13.3378 388.855 12.7718C388.848 12.2068 388.844 11.6368 388.844 11.0638L388.823 6.83176L388.801 5.90776V3.71676C388.801 2.74276 388.963 1.97576 389.285 1.41776C389.607 0.858756 390.055 0.579756 390.628 0.579756L390.327 0.450756L391.186 1.30976C391.458 1.59676 391.766 1.73976 392.11 1.73976C392.267 1.73976 392.396 1.68976 392.497 1.58976C392.597 1.48976 392.647 1.36076 392.647 1.20276C392.647 0.873756 392.468 0.590756 392.11 0.353756C391.752 0.117756 391.322 -0.000244141 390.821 -0.000244141C390.191 -0.000244141 389.639 0.160756 389.167 0.482756C388.694 0.805756 388.332 1.27476 388.082 1.89076C387.831 2.50676 387.706 3.26576 387.706 4.16776V6.83176L387.727 11.2788V12.3428V13.1048C387.727 13.3198 387.724 13.4988 387.716 13.6418C387.709 13.7858 387.706 13.9148 387.706 14.0288L386.374 14.3298L386.417 14.9958H390.606L390.649 14.2658ZM391.251 6.83176V5.90776H389.467H387.706L386.159 6.27276V6.83176H391.251ZM457.003 14.6738V14.0718L455.65 13.7068C455.635 13.5068 455.61 13.1308 455.575 12.5788C455.539 12.0278 455.521 11.3868 455.521 10.6558L455.542 5.71476C455.542 4.78376 455.546 3.88476 455.553 3.01776C455.56 2.15176 455.578 1.27476 455.607 0.386756L455.285 0.128756L452.599 0.923756L452.642 1.52476L454.361 1.84776C454.361 1.96176 454.364 2.21576 454.372 2.60976C454.379 3.00376 454.386 3.45176 454.393 3.95276C454.4 4.45476 454.407 4.93376 454.415 5.39176C454.422 5.85076 454.425 6.20876 454.425 6.46676C454.096 6.17976 453.687 5.97576 453.201 5.85376C452.714 5.73276 452.241 5.67176 451.783 5.67176C451.167 5.67176 450.587 5.79676 450.042 6.04776C449.498 6.29876 449.015 6.64876 448.592 7.09976C448.17 7.55176 447.84 8.08876 447.604 8.71176C447.368 9.33476 447.249 10.0118 447.249 10.7418C447.249 11.5868 447.428 12.3428 447.787 13.0088C448.144 13.6748 448.646 14.1978 449.29 14.5768C449.935 14.9568 450.673 15.1458 451.503 15.1458C452.033 15.1458 452.527 15.0248 452.986 14.7808C453.444 14.5378 453.902 14.1228 454.361 13.5348H454.425L454.404 14.9528L454.597 15.2108L457.003 14.6738ZM449.538 13.0298C448.915 12.3788 448.603 11.4658 448.603 10.2908C448.603 9.18776 448.879 8.27476 449.43 7.55176C449.981 6.82876 450.758 6.46676 451.761 6.46676C452.262 6.46676 452.753 6.59176 453.233 6.84276C453.713 7.09276 454.103 7.51176 454.404 8.09976V12.6328C453.96 13.1628 453.541 13.5238 453.147 13.7178C452.753 13.9108 452.305 14.0078 451.804 14.0078C450.916 14.0078 450.161 13.6818 449.538 13.0298Z" fill="black"/>
</g>
</svg>
