<?xml version="1.0" encoding="utf-8"?>
<!-- Generator: Adobe Illustrator 23.1.1, SVG Export Plug-In . SVG Version: 6.00 Build 0)  -->
<svg version="1.1" id="Layer_1" xmlns="http://www.w3.org/2000/svg" xmlns:xlink="http://www.w3.org/1999/xlink" x="0px" y="0px"
	 viewBox="0 0 41 33" style="enable-background:new 0 0 41 33;" xml:space="preserve">
<style type="text/css">
	.st0{clip-path:url(#SVGID_2_);fill:url(#SVGID_3_);}
	.st1{clip-path:url(#SVGID_5_);fill:none;stroke:#231F20;stroke-width:0.75;stroke-miterlimit:10;}
</style>
<g>
	<defs>
		<path id="SVGID_1_" d="M14.93,24.77C14.93,24.78,14.93,24.78,14.93,24.77c0.04,0,0.07,0,0.1,0C15,24.77,14.96,24.77,14.93,24.77
			 M2.81,20.89c0-0.07,0.01-0.16,0.01-0.28c0-0.19-0.01-0.39-0.02-0.59C2.58,20.26,2.65,20.58,2.81,20.89 M37.94,19.81
			c0.11-0.05,0.21-0.11,0.3-0.17c0.01-0.06,0.02-0.12,0.04-0.18C38.17,19.53,38.06,19.65,37.94,19.81 M2.78,19.42
			c0,0.2,0.01,0.41,0.02,0.61c0.02-0.02,0.04-0.04,0.07-0.06c-0.03,0.2-0.04,0.4-0.05,0.6c0,0.01,0,0.03,0,0.04c0,0.1,0,0.2,0,0.3
			c-0.01-0.01-0.01-0.02-0.02-0.03c0,0.03,0.01,0.06,0.02,0.09c0,0.74,0,1.47,0,2.21c0,0.22,0,0.44,0,0.66
			c0.04,0.33,0.01,0.4,0.13,0.47C2.87,24.31,2.79,24.3,2.7,24.3c-0.46-0.05-1.06-0.09-1.14-0.03c0.29,0.19,0.58,0.19,0.9,0.18
			c0.06,0,0.12,0,0.19,0c0.2,0,0.36-0.01,0.5-0.04c0.02,0.01,0.04,0.02,0.06,0.02c0.01,0,0.01,0,0.02,0c0-0.01,0-0.03,0-0.04
			c0.03-0.01,0.06-0.02,0.09-0.03c-0.03,0-0.06-0.01-0.09-0.01c0,0,0,0-0.01,0c-0.03-0.59-0.07-1.19-0.11-1.79
			c-0.03-0.44-0.06-0.87-0.09-1.3C3,21.22,2.97,21.18,2.95,21.14c0.02,0.02,0.05,0.03,0.08,0.05c-0.04-0.6-0.08-1.2-0.11-1.79
			C2.87,19.41,2.82,19.41,2.78,19.42 M38.36,19.4c0,0.05-0.01,0.11-0.01,0.16c0.07-0.05,0.14-0.11,0.2-0.17
			c-0.02-0.02-0.05-0.03-0.08-0.03C38.43,19.38,38.4,19.39,38.36,19.4 M38.28,19.45c0.03-0.02,0.05-0.04,0.08-0.05
			c0.01-0.2,0.03-0.4,0.03-0.6C38.36,19.01,38.32,19.23,38.28,19.45 M32.85,15.96c-0.56,0.13-1.18,0.13-1.71,0.32
			c-0.01,0.64,0.18,1.23-0.19,1.83c-0.45,0.71-1.66,1.32-2.37,0.57c-0.34-0.36-0.21-0.8-0.48-1.16c-0.53,0.44-1.48,1.31-2.21,1.3
			c-1.03-0.01-0.88-1.4-0.94-2.09c-0.59,0.16-0.95,0.69-1.48,0.95c-0.6,0.29-0.52,0.17-0.91-0.1c-0.49-0.34-0.69-0.61-1.32-0.51
			c-0.66,0.1-1.45,0.24-2.06,0.51c-0.61,0.27-1.09,0.79-1.61,1.2c-0.42,0.32-0.81,0.65-0.85,1.2c0.11,0.54,0.22,1.08,0.33,1.62
			c0.04,0.42,0.08,0.83,0.11,1.25c0.01,0.31,0.07,0.95,0.01,1.56c-0.67,0.14-1.34,0.26-2.02,0.35c-0.04,0-0.08,0.01-0.11,0.01
			c0.7-0.04,1.41-0.09,2.11-0.16c-0.07,0.5-0.22,0.95-0.55,1.13c-0.46,0.25-1.18-0.05-1.43-0.44c-0.11-0.17-0.19-0.34-0.24-0.52
			c-1.48,0.17-2.96,0.25-4.44,0.23c-2.2,0.03-4.2-0.04-6.35-0.45c-0.3-0.11-0.61-0.15-0.91-0.12c0.07,1.35,0.1,2.7,0.1,4.06
			c0-0.05-0.17,2.61,0.02,2.76c0.21,0.17,0.62,0.14,0.9,0.18c0.85,0.11,1.73,0.01,2.59,0.11c0.86,0.09,1.57,0.2,2.43,0.06
			c0.86-0.15,1.73-0.33,2.6-0.41c0.66-0.06,1.32-0.06,1.97-0.06c0.58,0,1.16,0.01,1.74-0.04c1.08-0.08,2.19-0.35,3.24-0.6
			c2.32-0.54,4.67-0.89,7.05-1.01c1.52-0.08,3.03-0.09,4.54-0.12c0.52-0.01,0.99-0.11,1.51-0.13c0.64-0.02,1.28-0.02,1.92,0.01
			c0.49,0.12,0.97,0.28,1.44,0.47c0.32,0.11,0.59,0.28,0.9,0.38c0.33-0.46,0.55-0.99,0.84-1.48c0.18-0.31,0.51-0.67,0.62-1.02
			c0.15-0.46,0.14-1.07,0.23-1.56c0.13-0.67,0.12-1.39,0.18-2.07c0.11-1.1,0.25-2.21,0.25-3.32c0-0.36,0.03-0.72,0.06-1.08
			c-0.03,0.02-0.07,0.05-0.1,0.07c-0.19,0.96-0.48,1.98-0.92,2.79c-0.07-0.21-0.08-0.44-0.08-0.68c0.03-0.02,0.06-0.05,0.09-0.08
			c-0.04-0.07-0.06-0.16-0.06-0.26c0.02-0.15,0.04-0.29,0.07-0.44c0.12-0.39,0.35-0.84,0.6-1.15c-0.12,0.06-0.26,0.11-0.39,0.16
			c0-0.02,0.01-0.04,0.01-0.06c0.18-1.11,0.09-2.1-0.06-3.14c-0.13,0.03-0.28,0.04-0.46,0.03c-0.41-0.91-1.21-1.01-2.14-1.07
			c-0.13-0.01-0.26-0.01-0.38-0.01C33.95,15.72,33.48,15.81,32.85,15.96 M39.43,13.24c-0.19,0.15-0.57,0.19-0.79,0.25
			c-0.72,0.16-1.46,0.26-2.2,0.33c0.19,0.24,0.4,0.46,0.62,0.66c0.2,0.31,0.29,0.65,0.26,1.03c0.06,0.43,0.13,0.85,0.18,1.26
			c0.23-0.06,0.37-0.2,0.41-0.54c0.08-0.63-0.28-1.6,0.32-2.04c0.33-0.25,1.95,0.05,1.55-0.85c-0.07-0.03-0.14-0.03-0.21-0.01
			l-0.14-0.09C39.43,13.23,39.43,13.23,39.43,13.24 M11.54,17.47L11.54,17.47 M23.57,0.79c-0.13,0.07-0.21,0.27-0.31,0.38
			c-0.01,0.01-0.01,0.01-0.02,0.02c-0.46-0.08-0.91-0.15-1.36-0.2c-0.2-0.02-0.24-0.16-0.44,0.01l1.2,0.82
			c-0.2,0.2-0.41,0.4-0.62,0.58c-2.55,2.24-5.29,4.34-7.95,6.46c-1.47,1.17-3.02,2.21-4.46,3.41c-1.71,1.43-3.34,2.95-5.05,4.38
			C3.54,17.5,2.2,18.2,1.28,19.17c-0.16,0.17-0.42,0.42-0.39,0.65c0.3,0.03,0.63-0.14,0.92-0.21c0.32-0.07,0.64-0.14,0.97-0.19
			c-0.01-0.45,0-0.89,0.06-1.32c0.02,0.43,0.04,0.87,0.07,1.3c1.03-0.17,2.07-0.28,3.08-0.46c1.64-0.3,3.28-0.65,4.91-1.01
			c-0.47,0.51-0.94,1.3-1.17,1.57c-0.56,0.66-1.2,1.7-1.9,2.25c-1.95,1.56-1.83-1.64-1.8-2.71c-0.23,1-0.44,1.61-1.51,1.98
			c-0.19,0.06-1.2,0.35-1.46,0.19c-0.01-0.01-0.02-0.01-0.03-0.02c0,0.02,0,0.05,0,0.07c0.12,0.17,0.23,0.33,0.32,0.45
			c0.14,0.2,0.47,0.45,0.57,0.65c0.17,0.36,0.09,0.69,0,1.08c-0.12,0.52-0.28,0.79-0.6,0.91c0.31,0.03,0.61,0.08,0.92,0.14
			c0.41,0.09,0.7,0.21,1.11,0.22c2.37,0.02,4.75,0.1,7.13,0.11c0.82,0,1.64-0.01,2.46-0.05c-0.37-1.26,0.55-2.7,0.43-3.97
			c-0.21,0-0.4,0.03-0.59,0.06c-0.32,0.05-0.62,0.09-0.98,0c-1.01-0.27-2.27-1.89-2.29-3.06c0.95-0.2,1.89-0.4,2.84-0.59
			c2.98-0.59,5.97-1.03,8.97-1.49c1.96-0.3,3.95-0.52,5.89-0.94c1.74-0.38,3.36-0.65,5.14-0.8c0.69-0.06,1.4-0.1,2.09-0.17
			c-0.11-0.14-0.22-0.28-0.31-0.43c-0.58-0.92-0.92-1.92-1.55-2.83c-0.33-0.41-0.64-0.82-0.93-1.25l5.78,3.93
			c0.06-0.58-0.4-1.23-0.64-1.74c-0.4-0.84-0.59-1.71-0.75-2.62c-0.1-0.58-0.38-0.83-0.74-1.29c-0.97-1.22-2.03-2.09-3.37-2.93
			c-2.29-1.44-4.69-2.23-7.27-2.8c-0.59-0.42-1.2-0.78-1.92-0.97c-0.17-0.04-0.56-0.16-0.87-0.16C23.75,0.73,23.65,0.75,23.57,0.79"
			/>
	</defs>
	<clipPath id="SVGID_2_">
		<use xlink:href="#SVGID_1_"  style="overflow:visible;"/>
	</clipPath>
	
		<linearGradient id="SVGID_3_" gradientUnits="userSpaceOnUse" x1="-0.9027" y1="79.9588" x2="0.0973" y2="79.9588" gradientTransform="matrix(0 25.2069 25.2069 0 -1994.9863 27.966)">
		<stop  offset="0" style="stop-color:#FFFFFF"/>
		<stop  offset="0.5792" style="stop-color:#FFFFFF"/>
		<stop  offset="0.6368" style="stop-color:#FFFFFC"/>
		<stop  offset="0.6811" style="stop-color:#FFFFF2"/>
		<stop  offset="0.721" style="stop-color:#FFFFE2"/>
		<stop  offset="0.7582" style="stop-color:#FFFFCB"/>
		<stop  offset="0.7937" style="stop-color:#FFFFAD"/>
		<stop  offset="0.8277" style="stop-color:#FFFF88"/>
		<stop  offset="0.8607" style="stop-color:#FFFF5C"/>
		<stop  offset="0.892" style="stop-color:#FFFF2B"/>
		<stop  offset="0.916" style="stop-color:#FFFF00"/>
		<stop  offset="1" style="stop-color:#FFFF00"/>
	</linearGradient>
	<rect x="0.87" y="0.73" class="st0" width="39.31" height="31.01"/>
</g>
<g>
	<defs>
		<rect id="SVGID_4_" x="0.52" y="0.35" width="39.71" height="31.68"/>
	</defs>
	<clipPath id="SVGID_5_">
		<use xlink:href="#SVGID_4_"  style="overflow:visible;"/>
	</clipPath>
	<path class="st1" d="M21.44,1c0.2-0.17,0.23-0.03,0.44-0.01c1.16,0.13,2.37,0.39,3.51,0.61c3.06,0.58,5.88,1.38,8.53,3.05
		c1.33,0.84,2.4,1.71,3.37,2.93c0.36,0.45,0.64,0.71,0.74,1.29c0.16,0.91,0.35,1.78,0.75,2.62c0.24,0.51,0.71,1.17,0.64,1.75
		c-0.19,0.15-0.57,0.19-0.79,0.25c-1.4,0.32-2.87,0.38-4.29,0.5c-1.78,0.15-3.4,0.42-5.14,0.8c-1.94,0.42-3.92,0.64-5.89,0.94
		c-3,0.46-5.99,0.9-8.97,1.49c-2.79,0.55-5.56,1.21-8.36,1.73c-1.37,0.25-2.82,0.36-4.18,0.67c-0.29,0.07-0.61,0.24-0.92,0.21
		c-0.02-0.23,0.23-0.48,0.39-0.65c0.92-0.96,2.26-1.67,3.28-2.52c1.71-1.43,3.33-2.96,5.05-4.39c1.44-1.2,2.99-2.24,4.46-3.41
		c2.66-2.12,5.39-4.21,7.95-6.45c0.42-0.37,0.87-0.81,1.25-1.23c0.1-0.11,0.17-0.31,0.3-0.38c0.28-0.15,0.93,0.04,1.17,0.1
		c1.41,0.36,2.42,1.43,3.62,2.19c0.82,0.47,1.64,0.91,2.47,1.34c0.52,0.22,0.83,0.61,0.94,1.17c0.37,0.92,0.78,1.82,1.23,2.7
		c0.47,0.79,1,1.54,1.58,2.26c0.63,0.91,0.96,1.91,1.55,2.83c0.27,0.4,0.58,0.77,0.93,1.1c0.2,0.31,0.29,0.65,0.26,1.03
		c0.22,1.54,0.49,2.85,0.24,4.4c-0.11,0.73-0.47,1.78-0.24,2.52c0.57-1.04,0.89-2.45,1.07-3.62c-0.01,0.6-0.1,1.22-0.1,1.84
		c0,1.11-0.14,2.22-0.25,3.32c-0.06,0.68-0.05,1.4-0.18,2.07c-0.1,0.49-0.08,1.1-0.23,1.56c-0.11,0.34-0.45,0.71-0.63,1.02
		c-0.29,0.49-0.5,1.02-0.84,1.48c-0.31-0.1-0.59-0.27-0.9-0.38c-0.47-0.19-0.95-0.35-1.44-0.47c-0.64-0.03-1.28-0.03-1.92-0.01
		c-0.52,0.02-0.99,0.11-1.51,0.13c-1.51,0.03-3.02,0.04-4.54,0.12c-2.39,0.12-4.73,0.47-7.05,1.01c-1.05,0.24-2.16,0.52-3.24,0.6
		c-1.24,0.09-2.48-0.03-3.72,0.09c-0.87,0.08-1.73,0.26-2.6,0.41c-0.86,0.15-1.57,0.04-2.43-0.06c-0.86-0.09-1.74,0-2.59-0.11
		c-0.27-0.03-0.69-0.01-0.9-0.18c-0.18-0.15-0.01-2.8-0.01-2.76c0.01-1.98-0.08-3.95-0.21-5.93c-0.1-1.49-0.2-2.97-0.27-4.46
		c-0.14,0.91-0.02,1.91-0.02,2.83c0,0.75,0,1.51,0,2.26c0,0.22,0,0.44,0,0.66c0.06,0.47-0.03,0.41,0.39,0.58
		c0.32-0.03,0.63,0.01,0.93,0.12c2.15,0.41,4.15,0.48,6.35,0.45c1.56,0.02,3.11-0.07,4.66-0.25c3.14-0.42,6.16-1.48,9.22-2.25
		c1.7-0.39,3.39-0.8,5.08-1.24c1.75-0.4,3.48-0.52,5.26-0.77c1.05-0.15,3.01-0.28,3.85-1.1c-0.35-0.27-1.55,1.64-1.21,2.26
		c-0.21,0.26-0.68,0.13-0.94,0.12c-2.59-0.17-5.18-0.02-7.74,0.44c-1.04,0.16-2.06,0.43-3.04,0.81c-1.67,0.52-3.38,0.83-5.1,1.13
		c-2.68,0.46-5.32,0.69-8.03,0.67c-2.38-0.01-4.76-0.09-7.13-0.11c-0.42,0-0.7-0.12-1.11-0.21c-0.33-0.07-0.67-0.12-1-0.15
		c0.06,0.01-1.52-0.19-1.67-0.08c0.34,0.23,0.69,0.18,1.08,0.18c0.8,0.01,1.08-0.2,1.27-1c0.09-0.39,0.18-0.73,0-1.09
		c-0.1-0.21-0.43-0.45-0.57-0.65c-0.29-0.42-1.05-1.31-0.48-1.74c-0.03,0.2-0.04,0.4-0.05,0.6c-0.02,0.38-0.07,0.45,0.23,0.64
		c0.26,0.16,1.27-0.13,1.46-0.19c1.07-0.36,1.28-0.98,1.51-1.98c-0.03,1.07-0.14,4.26,1.8,2.71c0.69-0.56,1.33-1.59,1.9-2.25
		c0.34-0.4,1.21-1.93,1.81-2.03c-0.27,1.17,1.14,3.09,2.25,3.39c0.57,0.15,1.02-0.06,1.57-0.06c0.13,1.45-1.08,3.12-0.19,4.49
		c0.25,0.39,0.97,0.69,1.43,0.44c0.76-0.41,0.58-2.3,0.56-2.9c-0.04-0.42-0.07-0.83-0.11-1.25c-0.11-0.54-0.22-1.08-0.33-1.62
		c0.04-0.56,0.43-0.88,0.85-1.2c0.52-0.41,1-0.92,1.61-1.2c0.61-0.27,1.4-0.42,2.06-0.51c0.63-0.09,0.83,0.17,1.32,0.51
		c0.4,0.28,0.31,0.39,0.91,0.1c0.53-0.26,0.89-0.78,1.48-0.95c0.05,0.69-0.09,2.08,0.94,2.09c0.74,0.01,1.68-0.86,2.21-1.3
		c0.28,0.35,0.14,0.79,0.48,1.16c0.71,0.75,1.92,0.14,2.37-0.57c0.37-0.59,0.18-1.19,0.19-1.83c0.54-0.19,1.16-0.19,1.71-0.32
		c0.76-0.18,1.28-0.27,2.05-0.23c0.93,0.06,1.73,0.16,2.14,1.07c0.52,0,0.81-0.05,0.88-0.58c0.08-0.63-0.28-1.6,0.32-2.05
		c0.33-0.25,1.95,0.05,1.55-0.85c-0.07-0.03-0.14-0.03-0.22-0.01"/>
</g>
</svg>
