<svg width="489" height="312" viewBox="0 0 489 312" fill="none" xmlns="http://www.w3.org/2000/svg">
<g filter="url(#filter0_d)">
<path d="M475.949 48.5403C474.746 46.6667 473.594 46.8671 472.051 45.8452C466.25 42.0079 459.487 38.952 453.235 35.9563C437.896 28.6124 424.33 21.5489 407.769 17.6315C393.923 14.3653 380.818 8.57425 366.621 7.31184C359.357 6.6606 352.153 5.85908 344.919 4.92731C330.231 3.04372 315.654 4.14582 300.916 3.37435C285.406 2.56281 270.247 0.579034 254.668 1.07999C243.446 1.44067 232.185 2.04182 220.973 2.50269C201.376 3.30422 182.13 7.20163 162.532 7.64247C142.474 8.08331 123.698 11.2594 104.372 16.3791C85.3354 21.4187 64.7763 27.5303 47.2028 36.6477C42.4137 39.1324 38.4462 43.12 33.2763 44.7431C27.5655 46.5365 25.712 46.9873 20.7525 50.0632C8.80979 57.4773 8.04835 62.0159 5.99444 75.4314C4.0307 88.2659 7.15665 99.6776 10.0221 112.302C12.4668 123.092 15.3623 135.085 21.0731 144.693C29.1385 158.269 41.3617 164.932 55.8192 169.981C71.6393 175.502 86.1069 177.956 102.779 179.63C134.038 182.776 165.618 185.381 196.938 187.765C242.244 191.212 286.678 184.359 331.073 176.133C356.982 171.334 383.132 169.21 408.21 160.914C416.435 158.189 427.737 155.734 434.6 150.043C438.016 147.388 440.241 143.962 441.273 139.764C443.677 135.997 446.362 132.45 449.348 129.124C459.117 115.999 464.507 102.733 465.128 86.4825C465.679 72.035 468.835 56.4954 465.168 42.2884C464.647 40.2746 463.946 34.0728 461.15 33.141C457.844 32.0389 458.245 36.7679 458.415 38.2607C459.107 44.3423 466.631 47.7388 468.705 53.139C471.35 60.0221 469.025 71.1032 469.757 78.4372C471.32 93.9567 471.961 107.773 470.849 123.192C469.596 140.475 470.739 158.389 468.284 175.492C465.98 191.532 467.232 207.513 465.378 223.563C464.868 227.962 466.32 234.945 463.795 238.231C461.361 241.397 456.171 242.269 452.674 243.181C441.213 246.206 432.055 252.548 423.88 260.964C410.324 274.911 393.722 289.589 373.955 292.635C363.074 294.308 352.243 296.031 341.312 297.394C321.184 299.909 299.964 303.916 279.585 301.712C269.496 300.62 259.587 297.694 249.608 295.941C237.826 293.877 226.063 293.045 214.12 292.545C199.252 291.923 184.374 293.296 169.646 290.471C156.731 287.996 144.107 279.289 132.685 272.877C125.602 268.9 117.978 267.407 110.012 266.164C101.797 264.882 94.5429 262.467 86.728 259.602C77.25 256.125 66.3894 254.372 57.9533 248.942C54.4266 246.667 51.7816 242.98 47.7539 241.307C46.5215 240.806 44.5278 240.936 43.5459 240.385C42.8846 238.953 41.8426 237.87 40.4099 237.119C37.2639 234.935 34.128 235.266 31.1022 232.25C27.8861 229.054 26.6437 226.268 25.6218 222.181C22.8565 211.21 23.7883 200.179 23.7783 188.947C23.7683 172.666 23.7182 156.385 23.7783 140.104C23.7983 133.522 23.7582 127.07 22.4157 120.668C21.9247 118.323 20.5822 115.017 20.7625 112.592C19.3498 114.115 19.9911 112.672 19.8708 115.878C19.6103 122.972 22.2153 132.901 24.0889 139.694C26.0927 146.978 29.92 154.422 36.252 158.91C43.8865 164.321 50.9099 163.99 49.4772 175.091C46.0607 172.977 41.9829 168.739 37.6547 169.901C37.6747 175.362 30.3808 175.161 29.3789 180.441C27.5454 190.19 38.6766 200.84 45.3694 205.459C52.6131 210.458 61.9709 210.348 70.3469 207.903C74.3846 206.731 82.0692 202.754 82.1393 197.834C79.7648 199.487 81.1675 201.712 82.48 204.808C87.6698 217.091 102.167 221.319 114.491 220.417C123.628 219.746 127.726 215.819 127.546 206.601C127.415 199.898 124.61 192.214 117.577 190.029C113.319 193.216 113.96 201.591 116.264 205.759C119.51 211.621 126.784 213.755 132.816 214.736C135.28 215.027 137.745 215.318 140.21 215.618C145.32 216.78 150.339 218.243 155.258 220.037C160.098 220.087 160.438 218.714 162.522 213.424C166.53 203.235 157.382 192.314 153.034 206.992C150.9 214.185 148.966 222.411 151.652 229.755C155.809 241.147 169.636 238.912 179.595 239.073C184.414 239.153 196.266 240.666 198.38 233.642C199.132 231.138 198.741 223.353 197.359 221.008C194.954 216.921 192.549 215.628 188.542 220.097C181.218 228.262 187.079 247.609 196.016 252.288C199.923 252.528 203.831 252.769 207.738 253.009C218.399 253.59 228.999 253.049 239.529 251.366C246.622 248.471 253.786 239.564 251.231 231.238C250.219 227.942 248.325 225.086 244.508 225.507C236.463 226.389 238.667 244.243 239.298 248.841C247.885 252.649 256.962 254.071 266.54 253.099C274.756 253.44 282.971 253.791 291.187 254.131C302.589 258.049 311.836 255.965 318.93 247.88C315.443 235.726 309.181 211.751 292.57 214.656C288.532 231.639 288.572 253.39 312.287 249.953C329.981 247.389 367.873 218.504 341.934 202.293C336.694 205.659 334.63 210.639 335.722 217.241C336.143 228.893 342.314 235.817 354.217 238.001C368.093 241.758 379.826 238.572 389.424 228.453C394.975 220.698 396.818 203.996 388.723 197.684C384.735 200.279 382.19 203.966 381.088 208.745C377.451 223.163 394.023 222.281 403.771 221.099C415.704 220.978 424.891 216.209 431.334 206.811C433.989 200.75 432.857 190.941 431.544 184.569C428.037 183.307 425.092 184.399 422.707 187.835C419.141 192.133 418.95 196.552 422.136 201.091C434.81 202.623 446.352 199.437 453.105 187.154C456.652 180.702 460.79 163.188 452.434 157.878C446.963 160.032 448.566 168.438 448.677 172.717C460.549 175.923 470.178 160.253 462.884 150.244C464.547 153.27 462.353 155.844 466.711 155.133C469.126 154.742 474.195 149.412 470.709 148.16C470.999 149.873 472.692 149.803 474.826 149.633C481.85 149.082 483.453 141.357 484.044 135.576C486.298 113.464 466.35 130.606 469.116 134.714C475.117 131.428 478.764 120.738 472.602 115.598C470.638 113.965 464.106 112.181 463.866 116.329C464.266 116.429 464.677 116.53 465.078 116.63" stroke="#231F20" stroke-width="1.5" stroke-miterlimit="10"/>
</g>
<defs>
<filter id="filter0_d" x="0.630859" y="0.250244" width="488.341" height="310.85" filterUnits="userSpaceOnUse" color-interpolation-filters="sRGB">
<feFlood flood-opacity="0" result="BackgroundImageFix"/>
<feColorMatrix in="SourceAlpha" type="matrix" values="0 0 0 0 0 0 0 0 0 0 0 0 0 0 0 0 0 0 127 0"/>
<feOffset dy="4"/>
<feGaussianBlur stdDeviation="2"/>
<feColorMatrix type="matrix" values="0 0 0 0 0 0 0 0 0 0 0 0 0 0 0 0 0 0 0.25 0"/>
<feBlend mode="normal" in2="BackgroundImageFix" result="effect1_dropShadow"/>
<feBlend mode="normal" in="SourceGraphic" in2="effect1_dropShadow" result="shape"/>
</filter>
</defs>
</svg>
