<?xml version="1.0" encoding="utf-8"?>
<!-- Generator: Adobe Illustrator 23.1.1, SVG Export Plug-In . SVG Version: 6.00 Build 0)  -->
<svg version="1.1" id="Layer_1" xmlns="http://www.w3.org/2000/svg" xmlns:xlink="http://www.w3.org/1999/xlink" x="0px" y="0px"
	 viewBox="0 0 49 16" style="enable-background:new 0 0 49 16;" xml:space="preserve">
<style type="text/css">
	.st0{clip-path:url(#SVGID_2_);fill:url(#SVGID_3_);}
	.st1{clip-path:url(#SVGID_5_);fill:none;stroke:#231F20;stroke-width:0.259;stroke-miterlimit:10;}
	.st2{clip-path:url(#SVGID_7_);fill:url(#SVGID_8_);}
	.st3{clip-path:url(#SVGID_10_);fill:none;stroke:#231F20;stroke-width:0.259;stroke-miterlimit:10;}
</style>
<g>
	<defs>
		<path id="SVGID_1_" d="M2.75,1.39C2.01,1.69,1.99,1.86,1.74,2.47C0.95,4.33,0.49,6.4,0.71,8.31c0.12,1,0.14,2.08,0.49,3.06
			c0.09,0.24,0.44,2.16-0.59,3.2h6.03c0.61-0.29,3.79-1.77,4.47-2.01c-0.09-0.19,0.2-0.73,0.45-0.83c0.26-0.11,1.52,0.01,1.82,0.01
			c1.16,0,2.13,0,3.22,0.28c0.58,0.15,1.06,0.36,1.66,0.46c0.71,0.12,1.44,0.06,2.16,0.15c0.69,0.09,1.36,0.24,1.79,0.59
			c0.48,0.39,0.3,0.96,0.97,1.28c0.58,0.28,1.96,0.44,2.66,0.52c1.2,0.14,2.69,0.02,3.88,0.02c0.77,0,1.63,0.03,2.54,0.05
			c3.68,0.11,8.16,0.21,10.56-1.44c-0.3-0.02-0.49,0.11-0.74,0.13c-0.62,0.04-1.36-0.12-1.97-0.19c-2.14-0.24-4.27-1.02-5.96-1.88
			c-0.13-0.21-0.36-0.35-0.71-0.41c-0.3-0.08-0.6-0.15-0.9-0.23c-0.97-0.34-1.76-0.95-2.62-1.38c-0.58-0.29-1.01-0.58-1.42-0.97
			c-0.42-0.41-0.55-0.8-0.81-1.25c-0.23-0.41-0.65-0.67-0.93-1.04c-0.47-0.63-1.03-1.57-0.66-2.26c0.39-0.74,1.62-0.93,2.68-0.97
			c-0.6,0.07-0.77,0.46-1.05,0.75c-0.41,0.43-0.69,0.74-0.63,1.29c0.09,0.79,0.59,1.47,1.19,2.14c0.82,0.91,1.31,1.93,2.68,2.59
			c0.94,0.45,2.03,0.75,2.97,1.21c0.87,0.42,1.34,0.65,2.39,0.79c1.58,0.21,2.99,0.35,4.59,0.34c0.69,0,2.29-0.13,2.82,0.3
			c0.32,0.26,0.17,0.77,0.23,1.08c0.86-0.29,1.95-0.69,2.81-1.03c1.35-0.53,0.87-1.81,0.87-2.74c0-1.25,0.24-2.8-0.58-3.94
			c-0.75-1.06-2.17-1.85-3.8-2.35c-1.04-0.32-2.4-0.75-3.54-0.94c-0.64-0.1-1.38-0.07-2.1-0.05c-0.34,0.01-0.68,0.03-0.99,0.03
			c-1.4,0-2.8,0.07-4.19,0.14c-1.38,0.07-2.75,0.14-4.13,0.14c-2.02,0-2.3,0.89-3.25,1.91C24.2,5.8,23.3,6.86,21.81,7.46
			c-1.58,0.64-6.27,1.56-7-0.22c-0.24-0.58,0.15-1.22,0.18-1.8c0.06-0.91,0.13-2.15-0.89-2.87c-0.94-0.65-2.26-0.72-3.5-0.97
			c-1.24-0.25-2.38-0.83-3.7-0.9C6.77,0.7,6.63,0.69,6.49,0.69C5.24,0.69,3.74,0.98,2.75,1.39"/>
	</defs>
	<clipPath id="SVGID_2_">
		<use xlink:href="#SVGID_1_"  style="overflow:visible;"/>
	</clipPath>
	
		<radialGradient id="SVGID_3_" cx="0.9797" cy="82.7335" r="1" gradientTransform="matrix(23.6716 0 0 -23.6716 1 1966.3606)" gradientUnits="userSpaceOnUse">
		<stop  offset="0" style="stop-color:#DDE8F2"/>
		<stop  offset="0.4186" style="stop-color:#DDE8F2"/>
		<stop  offset="0.5194" style="stop-color:#DDE6EF"/>
		<stop  offset="0.5969" style="stop-color:#DDE0E5"/>
		<stop  offset="0.6667" style="stop-color:#DDD5D5"/>
		<stop  offset="0.7319" style="stop-color:#DDC5BE"/>
		<stop  offset="0.794" style="stop-color:#DEB2A0"/>
		<stop  offset="0.8538" style="stop-color:#DE997B"/>
		<stop  offset="0.9116" style="stop-color:#DE7C4F"/>
		<stop  offset="0.9665" style="stop-color:#DF5C1E"/>
		<stop  offset="0.9961" style="stop-color:#DF4800"/>
		<stop  offset="1" style="stop-color:#DF4800"/>
	</radialGradient>
	<rect x="0.49" y="0.69" class="st0" width="47.63" height="14.63"/>
</g>
<g>
	<defs>
		<rect id="SVGID_4_" x="0.52" y="0.56" width="47.34" height="14.73"/>
	</defs>
	<clipPath id="SVGID_5_">
		<use xlink:href="#SVGID_4_"  style="overflow:visible;"/>
	</clipPath>
	<path class="st1" d="M0.61,14.58c1.03-1.04,0.68-2.96,0.59-3.21c-0.35-0.98-0.38-2.06-0.49-3.06C0.49,6.4,0.95,4.33,1.74,2.47
		c0.26-0.61,0.28-0.78,1.02-1.09C3.85,0.93,5.6,0.63,6.91,0.7c1.32,0.08,2.45,0.66,3.7,0.9c1.24,0.25,2.56,0.31,3.5,0.97
		c1.02,0.71,0.95,1.96,0.89,2.87c-0.04,0.58-0.42,1.22-0.18,1.8c0.73,1.78,5.42,0.86,7,0.22c1.49-0.6,2.38-1.67,3.25-2.61
		c0.95-1.02,1.23-1.91,3.25-1.91c2.78,0,5.54-0.28,8.33-0.28c0.96,0,2.15-0.14,3.09,0.02c1.14,0.19,2.5,0.62,3.54,0.94
		c1.63,0.5,3.05,1.3,3.8,2.36c0.81,1.15,0.58,2.7,0.58,3.94c0,0.93,0.47,2.21-0.87,2.74c-0.86,0.34-1.95,0.74-2.81,1.03
		c-0.07-0.31,0.09-0.82-0.23-1.07c-0.53-0.43-2.13-0.31-2.82-0.3c-1.6,0.01-3.01-0.13-4.59-0.34c-1.05-0.14-1.52-0.36-2.39-0.79
		c-0.95-0.46-2.03-0.76-2.97-1.21c-1.37-0.65-1.86-1.67-2.68-2.59c-0.6-0.67-1.1-1.34-1.19-2.14c-0.06-0.55,0.22-0.86,0.63-1.29
		c0.28-0.29,0.45-0.68,1.05-0.75c-1.06,0.03-2.29,0.23-2.68,0.97c-0.37,0.69,0.19,1.63,0.66,2.26c0.28,0.38,0.7,0.64,0.93,1.04
		c0.26,0.45,0.39,0.84,0.81,1.25c0.4,0.39,0.84,0.68,1.41,0.98c0.86,0.44,1.65,1.05,2.62,1.38c0.3,0.08,0.6,0.15,0.9,0.23
		c0.35,0.06,0.59,0.2,0.71,0.41c1.69,0.85,3.82,1.64,5.96,1.88c0.61,0.07,1.35,0.23,1.97,0.19c0.25-0.02,0.44-0.15,0.74-0.13
		c-2.99,2.06-9.22,1.39-13.1,1.39c-1.19,0-2.68,0.12-3.88-0.02c-0.7-0.08-2.08-0.24-2.66-0.52c-0.67-0.32-0.48-0.89-0.97-1.28
		c-0.43-0.35-1.1-0.5-1.79-0.59c-0.72-0.09-1.44-0.03-2.16-0.15c-0.6-0.11-1.09-0.32-1.66-0.47c-1.1-0.28-2.06-0.28-3.22-0.28
		c-0.3,0-1.56-0.12-1.82-0.01c-0.25,0.1-0.54,0.64-0.45,0.83c-0.68,0.24-3.85,1.72-4.47,2.01"/>
</g>
<g>
	<defs>
		<path id="SVGID_6_" d="M37.63,2.67c-0.34,0.01-0.68,0.03-0.99,0.03c-1.41,0-2.81,0.07-4.2,0.14c-1.38,0.07-2.75,0.14-4.13,0.14
			l0.46,0.27c-0.6,0.06-0.78,0.46-1.05,0.75c-0.41,0.43-0.7,0.74-0.63,1.29c0.09,0.79,0.59,1.47,1.19,2.14
			c0.82,0.91,1.31,1.93,2.69,2.59c0.94,0.45,2.03,0.75,2.98,1.21c0.87,0.42,1.34,0.65,2.39,0.79c1.58,0.21,2.99,0.35,4.59,0.34
			c0.69,0,2.29-0.13,2.82,0.3c0.32,0.26,0.17,0.77,0.23,1.07c0.86-0.29,1.95-0.69,2.81-1.03c1.35-0.53,0.88-1.81,0.87-2.74
			c0-1.25,0.24-2.8-0.58-3.95c-0.75-1.06-2.17-1.86-3.8-2.36c-1.04-0.32-2.4-0.75-3.55-0.94c-0.34-0.06-0.7-0.07-1.08-0.07
			C38.31,2.64,37.96,2.65,37.63,2.67"/>
	</defs>
	<clipPath id="SVGID_7_">
		<use xlink:href="#SVGID_6_"  style="overflow:visible;"/>
	</clipPath>
	
		<radialGradient id="SVGID_8_" cx="2.0935" cy="73.8145" r="1" gradientTransform="matrix(-10.1571 -1.7179 -1.7179 10.1571 185.1694 -739.7476)" gradientUnits="userSpaceOnUse">
		<stop  offset="0" style="stop-color:#FF0000"/>
		<stop  offset="0.4186" style="stop-color:#FF0000"/>
		<stop  offset="0.4959" style="stop-color:#FF0204"/>
		<stop  offset="0.5657" style="stop-color:#FF090F"/>
		<stop  offset="0.6328" style="stop-color:#FF1421"/>
		<stop  offset="0.6981" style="stop-color:#FF233B"/>
		<stop  offset="0.7621" style="stop-color:#FF375C"/>
		<stop  offset="0.8253" style="stop-color:#FF4F86"/>
		<stop  offset="0.8876" style="stop-color:#FF6CB6"/>
		<stop  offset="0.9479" style="stop-color:#FF8CED"/>
		<stop  offset="0.9659" style="stop-color:#FF97FF"/>
		<stop  offset="1" style="stop-color:#FF97FF"/>
	</radialGradient>
	<polygon class="st2" points="47.54,17.2 25.19,13.42 27.6,-0.83 49.95,2.95 	"/>
</g>
<g>
	<defs>
		<rect id="SVGID_9_" x="0.52" y="0.56" width="47.34" height="14.73"/>
	</defs>
	<clipPath id="SVGID_10_">
		<use xlink:href="#SVGID_9_"  style="overflow:visible;"/>
	</clipPath>
	<path class="st3" d="M28.31,2.97c2.78,0,5.54-0.28,8.33-0.28c0.97,0,2.15-0.14,3.09,0.02c1.14,0.19,2.5,0.62,3.55,0.94
		c1.63,0.5,3.05,1.3,3.8,2.36c0.81,1.15,0.58,2.7,0.58,3.95c0,0.93,0.47,2.21-0.87,2.74c-0.86,0.34-1.95,0.74-2.81,1.03
		c-0.06-0.3,0.09-0.82-0.23-1.08c-0.53-0.43-2.13-0.31-2.82-0.3c-1.6,0.01-3.02-0.13-4.59-0.34c-1.05-0.14-1.52-0.36-2.39-0.79
		c-0.94-0.46-2.04-0.76-2.98-1.21c-1.37-0.66-1.86-1.68-2.69-2.59c-0.6-0.67-1.1-1.35-1.19-2.14c-0.06-0.55,0.22-0.86,0.63-1.29
		c0.28-0.29,0.45-0.68,1.05-0.75"/>
	<path class="st3" d="M9.96,1.45c-0.53,0-1.05,0.01-1.58,0c-0.32-0.01-0.57,0.05-0.8,0.4C7.34,2.22,7.34,2.94,7.27,3.42
		c-0.12,0.77,0.4,1.36,0.21,2.11C7.38,5.87,7.34,6.27,7.63,6.44c0.18,0.11,0.52,0.03,0.54-0.31C8.2,5.65,7.62,5.52,7.39,5.53
		c-0.01,0.09-0.02,0.29,0,0.37c0.05,0.19,0.19,0.22,0.29,0.36c0.11-0.12,0.05-0.42-0.07-0.47C7.47,5.87,7.45,6.09,7.46,6.27
		c0.17,0.02,0.4-0.23,0.5-0.41C7.89,5.95,7.9,6.11,7.93,6.24c0.15,0.07,0.2-0.57,0.01-0.62c-0.13-0.03-0.18,0.2-0.1,0.13
		C7.79,5.84,7.87,5.79,7.92,5.81"/>
</g>
</svg>
