<svg width="287" height="174" viewBox="0 0 287 174" fill="none" xmlns="http://www.w3.org/2000/svg">
<mask id="mask0" mask-type="alpha" maskUnits="userSpaceOnUse" x="0" y="0" width="287" height="174">
<rect width="287" height="174" transform="matrix(1 0 0 -1 0 174)" fill="#DDD9D6"/>
</mask>
<g mask="url(#mask0)">
<path fill-rule="evenodd" clip-rule="evenodd" d="M12.667 0.947652C12.666 1.40465 12.507 12.1187 1.49999 12.1187H0.666992V12.9507V171.951V172.78L1.49899 172.782C1.95499 172.785 12.667 172.942 12.667 183.951V184.782H13.5H273.54H274.371L274.373 183.953C274.374 183.496 274.533 172.782 285.54 172.782H286.373V171.951V12.9507V12.1207L285.541 12.1187C285.085 12.1167 274.373 11.9587 274.373 0.950652V0.118652H273.54H13.5H12.67L12.667 0.947652Z" stroke="#262626" stroke-width="0.334"/>
<path fill-rule="evenodd" clip-rule="evenodd" d="M14.281 1.78174C14.01 4.55274 12.359 13.3027 2.33398 13.7637V171.172C5.10498 171.44 13.855 173.094 14.315 183.119H272.761C273.031 180.346 274.683 171.596 284.708 171.136V13.7287C281.937 13.4607 273.187 11.8067 272.727 1.78174H14.281Z" stroke="#262626" stroke-width="0.334"/>
</g>
</svg>
