<?xml version="1.0" encoding="utf-8"?>
<!-- Generator: Adobe Illustrator 23.1.1, SVG Export Plug-In . SVG Version: 6.00 Build 0)  -->
<svg version="1.1" id="Layer_1" xmlns="http://www.w3.org/2000/svg" xmlns:xlink="http://www.w3.org/1999/xlink" x="0px" y="0px"
	 viewBox="0 0 97 58" style="enable-background:new 0 0 97 58;" xml:space="preserve">
<style type="text/css">
	.st0{clip-path:url(#SVGID_2_);fill:url(#SVGID_3_);}
	.st1{clip-path:url(#SVGID_5_);fill:none;stroke:#231F20;stroke-miterlimit:10;}
	.st2{clip-path:url(#SVGID_7_);fill:url(#SVGID_8_);}
	.st3{clip-path:url(#SVGID_10_);fill:none;stroke:#231F20;stroke-width:0.5;stroke-miterlimit:10;}
</style>
<g>
	<defs>
		<path id="SVGID_1_" d="M25.64,39.68c0.46,0.42,0.94,0.83,1.44,1.23c-0.66-0.25-1.32-0.51-1.99-0.76
			C25.31,40,25.5,39.85,25.64,39.68 M23.09,36.88c-0.09,0.02-0.18,0.05-0.27,0.08c0.31,0.31,0.63,0.62,0.95,0.93l-1.44,0.24
			c-0.12,0.03-0.24,0.07-0.36,0.1c-0.25-0.31-0.36-0.63-0.35-0.96c-0.31,0.08-0.62,0.15-0.93,0.23c-0.39,0.07-0.8,0.12-1.23,0.16
			c0.44,0.29,0.88,0.58,1.32,0.86c-0.7-0.26-1.41-0.53-2.11-0.79c-1.31,0.11-2.65,0.24-3.64,0.78c-1.34,0.74-1.54,2.88-0.85,3.87
			c1.51,2.19,6.91-0.11,8.53-0.98c0.48-0.26,1.02-0.5,1.51-0.76c3.57,2.12,7.36,4.1,11.61,5.84c1.3,0.95,2.6,1.91,3.89,2.87
			c0.3,0.2,2.67,1.98,3.71,1.97c-0.03-0.28-0.23-0.52-0.58-0.72c-1.51-0.97-2.94-1.98-4.3-3.04c5.71,2.21,11.67,4.16,17.38,6.37
			c1.12,0.43,4.26,1.99,5.85,2.2c-0.22-0.38-0.55-0.56-0.95-0.88l-3.53-2c-3.71-2.25-7.73-4.24-12.07-5.99
			c-4.05-1.55-8.32-2.88-12.5-4.31c-1.58-1.24-3.17-2.48-4.76-3.72c-0.85-0.56-1.72-1.11-2.61-1.64l-0.21,0.04
			c-0.06-0.04-0.12-0.09-0.19-0.13c-0.08-0.09-0.16-0.19-0.23-0.28c-0.26-0.15-0.52-0.3-0.79-0.45
			C23.65,36.82,23.37,36.85,23.09,36.88 M21.98,36.34c-0.22,0.32-0.33,0.63-0.34,0.93c0.4-0.1,0.8-0.21,1.19-0.32
			c-0.29-0.29-0.57-0.58-0.85-0.87C21.97,36.18,21.97,36.26,21.98,36.34 M13.89,35.83c1.03,0.58,2.19,1.05,3.46,1.41
			c0.44,0.17,0.89,0.33,1.33,0.5c0.26-0.02,0.53-0.05,0.79-0.07c-1.1-0.73-2.19-1.47-3.28-2.21C15.56,35.81,14.87,36.03,13.89,35.83
			 M21.97,36.09c0-0.11,0-0.23,0-0.34c-0.21-0.11-0.43-0.22-0.64-0.33C21.54,35.65,21.76,35.87,21.97,36.09 M18.2,33.85
			c0.52,0.28,1.05,0.55,1.58,0.82c0.52,0.25,1.04,0.5,1.55,0.76c-0.76-0.81-1.5-1.63-2.23-2.45C18.81,33.26,18.5,33.56,18.2,33.85
			 M69.33,32.28c3.85,0.93,7.59,2.02,11.48,2.86c3.83,0.82,7.75,0.91,11.56,1.64c0.59,0.11,2.17,0.36,2.56,0.82
			c0.05-0.74-0.57-1.04-1.47-1.4c-1.94-0.79-5.12-1.35-7.25-1.86c-5.15-1.24-10.67-2.06-16.2-2.06
			C69.8,32.27,69.57,32.28,69.33,32.28 M68.71,32.29c0.21,0,0.41-0.01,0.62-0.01c-0.21-0.05-0.42-0.1-0.62-0.15
			C68.7,32.18,68.7,32.24,68.71,32.29 M9.52,30.74c2.24,1.59,4.44,3.17,6.67,4.71c0.35-0.2,0.69-0.45,1.07-0.7
			c0.31-0.3,0.63-0.6,0.94-0.91c-3.09-1.63-6.16-3.31-9.51-4.71c-0.75-0.31-2.96-1.38-3.97-1.47C6.37,28.69,7.98,29.64,9.52,30.74
			 M11.88,24.11c2.37,2.98,4.68,5.96,7.22,8.86c0.16-0.15,0.31-0.3,0.46-0.45c0.33-0.35,0.69-0.67,1.08-0.96
			c-2.48-2.7-5.53-5.25-8.27-7.75c-0.69-0.63-1.45-1.31-2.19-2.02C10.73,22.59,11.29,23.37,11.88,24.11 M10.19,21.8
			c-1.08-1.56-2.14-3.15-3.41-4.59C7.27,18.77,8.68,20.35,10.19,21.8 M47.47,3.37c0.1,2.29,1.03,4.53,1.04,6.83
			c0.01,1.53-0.15,3.11-0.27,4.64c-1.22-0.15-2.42-0.09-3.6,0.18c-2.75,1.01-5.31,2.19-7.65,3.56c-1.71,1.07-3.41,2.14-5.12,3.2
			c-3.39,2.46-6.17,5.17-8.35,8.12c-0.04,0.09-0.09,0.17-0.13,0.25c-1.04,0.35-1.95,0.82-2.74,1.41c0.56,0.61,1.1,1.23,1.59,1.86
			c-0.16,0.77-0.25,1.54-0.27,2.32c0.66,0.34,1.32,0.69,1.96,1.05c0.15-0.01,0.31-0.02,0.46-0.02c0.1,0.16,0.21,0.32,0.33,0.47
			c0.21,0.12,0.43,0.25,0.64,0.37l4.71-0.8c0.77-0.05,1.5,0.03,2.2,0.24c1.93,0.56,3.27,1.82,5.27,2.36
			c0.7,0.15,1.41,0.29,2.12,0.41c4.99,0.87,10.68,0.85,14.76-1.3c2.5-1.32,5.15-1.45,6.85-3.41c0.96-1.11,1.56-2.5,1.91-3.92
			l0.36-0.06c1.08-0.03,2.47,0.39,3.4,0.59c0.59,0.13,1.18,0.26,1.76,0.4c0.04-0.22,0.31-0.4,0.79-0.54c1.58-1.7,3.1-3.42,4.54-5.16
			c2.01-2.27,4.04-4.54,6.1-6.79c0.32-0.49,0.65-0.99,0.97-1.49c1.04-2.55-1.04-2.8-4.33-3.65c-3.97-1.02-9.88-1.7-13.83-0.19
			c-1.41,0.96-2.76,1.95-4.04,2.98c-0.45-0.23-0.94-0.42-1.48-0.56c-2.11-0.58-4.71-1.2-7.11-1.59c-0.07-0.58-0.14-1.16-0.23-1.74
			c-0.5-3.09-1.06-6.18-1.69-9.26c0.41-0.9,0.2-1.63-0.63-2.19C47.41,2.37,47.45,2.9,47.47,3.37"/>
	</defs>
	<clipPath id="SVGID_2_">
		<use xlink:href="#SVGID_1_"  style="overflow:visible;"/>
	</clipPath>
	
		<radialGradient id="SVGID_3_" cx="1.2175" cy="80.5594" r="1" gradientTransform="matrix(37.0731 -11.4052 -11.4052 -37.0731 888.6332 3040.8843)" gradientUnits="userSpaceOnUse">
		<stop  offset="0" style="stop-color:#FF8DFF"/>
		<stop  offset="0.189" style="stop-color:#FF8DFF"/>
		<stop  offset="0.399" style="stop-color:#FFBFF1"/>
		<stop  offset="0.4372" style="stop-color:#FFC2F2"/>
		<stop  offset="0.4688" style="stop-color:#FFCDF4"/>
		<stop  offset="0.498" style="stop-color:#FFDEF8"/>
		<stop  offset="0.5256" style="stop-color:#FFF6FD"/>
		<stop  offset="0.5342" style="stop-color:#FFFFFF"/>
		<stop  offset="0.5536" style="stop-color:#FEFDFD"/>
		<stop  offset="0.5607" style="stop-color:#F8F8F6"/>
		<stop  offset="0.5657" style="stop-color:#EFEEEA"/>
		<stop  offset="0.5697" style="stop-color:#E3E0DA"/>
		<stop  offset="0.5711" style="stop-color:#DDD9D2"/>
		<stop  offset="1" style="stop-color:#DDD9D2"/>
	</radialGradient>
	<polygon class="st0" points="-10.5,6.63 87.19,-23.42 110.23,51.46 12.54,81.52 	"/>
</g>
<g>
	<defs>
		<rect id="SVGID_4_" x="2.68" y="1.28" width="92.76" height="55.5"/>
	</defs>
	<clipPath id="SVGID_5_">
		<use xlink:href="#SVGID_4_"  style="overflow:visible;"/>
	</clipPath>
	<path class="st1" d="M22.34,38.14c-0.12,0.03-0.24,0.07-0.36,0.1c-0.47-0.58-0.47-1.21-0.01-1.9c-0.06-2.2,0.46-4.35,1.54-6.44
		c2.18-2.95,4.96-5.66,8.35-8.12c1.71-1.07,3.41-2.14,5.12-3.21c2.35-1.37,4.9-2.55,7.65-3.56c1.31-0.29,2.65-0.33,4.01-0.12
		c2.82,0.33,6.16,1.1,8.78,1.82c5.6,1.54,6.11,7.51,6.17,10.79c0.04,2.36-0.5,5.51-2.32,7.62c-1.7,1.97-4.35,2.1-6.85,3.41
		c-4.08,2.15-9.77,2.17-14.76,1.29c-0.72-0.12-1.43-0.25-2.13-0.41c-2-0.54-3.34-1.8-5.27-2.36c-0.78-0.24-1.6-0.31-2.47-0.22
		c-2.14,0-4.6-0.22-6.71,0.04c-0.78,0.22-1.58,0.43-2.39,0.62c-1.8,0.34-4.14,0.19-5.66,1.02c-1.34,0.74-1.54,2.88-0.85,3.87
		c1.51,2.19,6.91-0.11,8.53-0.99c1.65-0.89,4.05-1.63,2.93-3.21c-0.15-0.26-0.38-0.48-0.69-0.67c-0.68-0.76-0.97-1.56-1.48-2.36
		c-2.6-4.08-7.17-7.77-11.1-11.35c-2.09-1.91-4.87-4.28-5.6-6.6c1.92,2.17,3.34,4.68,5.11,6.9c3.83,4.81,7.49,9.61,12.23,14.1
		c1.83,1.87,3.95,3.6,6.35,5.19c1.57,0.87,3.15,1.74,4.71,2.61c1.52,1.11,3.04,2.23,4.55,3.35c0.3,0.2,2.67,1.99,3.7,1.97
		c-0.03-0.28-0.22-0.52-0.58-0.72c-1.95-1.26-3.78-2.58-5.48-3.98c-3.11-2.47-6.24-4.93-9.39-7.37c-2.53-1.68-5.26-3.21-8.2-4.6
		c-3.63-1.87-7.16-3.89-11.08-5.53c-0.75-0.31-2.96-1.38-3.97-1.47c1.64,1.02,3.24,1.97,4.79,3.07
		c8.19,5.82,15.92,11.48,26.34,15.77c6.5,2.67,13.45,4.88,20.06,7.44c1.12,0.44,4.26,1.99,5.85,2.2c-0.22-0.38-0.55-0.56-0.95-0.88
		l-3.53-2c-3.71-2.25-7.73-4.24-12.07-5.99c-5.41-2.06-11.2-3.74-16.63-5.79c-3.73-1.44-7.48-2.86-11.24-4.26
		c-1.27-0.37-2.43-0.84-3.46-1.41c1.52,0.31,2.33-0.37,3.37-1.07c0.77-0.74,1.54-1.48,2.31-2.22c1.73-1.85,4.35-2.89,7.84-3.11
		c2.16-0.33,4.33-0.65,6.49-0.98c2.43-0.09,3.77-0.81,4.02-2.17c0.43-0.53,0.85-1.07,1.28-1.61c1.47-1.08,3.18-1.97,5.13-2.68
		c2.83-1.73,3.71-4.57,3.88-6.94c0.12-1.59,0.29-3.24,0.28-4.84c-0.01-2.3-0.94-4.55-1.03-6.83c-0.02-0.47-0.06-1,0.29-1.42
		c0.83,0.56,1.03,1.29,0.63,2.19c0.63,3.08,1.2,6.17,1.69,9.26c0.46,3,0.5,6.12,1.62,9.06c0.63-0.4,1.35-0.74,2.01-1.13
		c0.99-0.72,1.98-1.44,2.98-2.16c1.92-1.7,4.01-3.32,6.26-4.85c3.95-1.51,9.87-0.83,13.83,0.19c3.29,0.85,5.37,1.1,4.33,3.65
		c-0.32,0.49-0.65,0.99-0.97,1.49c-2.05,2.26-4.08,4.52-6.1,6.79c-1.44,1.74-2.96,3.47-4.54,5.16c-0.6,0.18-0.86,0.41-0.79,0.7
		c5.97-0.14,11.96,0.71,17.51,2.05c2.13,0.51,5.31,1.07,7.25,1.86c0.9,0.36,1.52,0.66,1.47,1.41c-0.39-0.46-1.97-0.71-2.56-0.82
		c-3.82-0.73-7.74-0.81-11.57-1.64c-4.69-1.01-9.17-2.4-13.87-3.41c-0.93-0.2-2.32-0.62-3.4-0.59"/>
</g>
<g>
	<defs>
		<path id="SVGID_6_" d="M52.62,27.58c-0.05,0.11-0.09,0.22-0.11,0.31c-0.02,0.05-0.04,0.1-0.06,0.14l-0.05-0.15
			c-0.53-0.2-0.74,0.33-0.63,0.8c0.19,0.41,0.52,0.64,0.97,0.69c0.82,0.32,1.6,0.29,1.97-0.81c0.21-0.61-0.07-1.78-0.63-2.12
			c-0.1-0.06-0.2-0.09-0.3-0.09C53.25,26.34,52.81,27.16,52.62,27.58"/>
	</defs>
	<clipPath id="SVGID_7_">
		<use xlink:href="#SVGID_6_"  style="overflow:visible;"/>
	</clipPath>
	
		<radialGradient id="SVGID_8_" cx="1.2098" cy="80.5344" r="1" gradientTransform="matrix(37.0731 -11.9271 -11.4052 -38.7698 888.6332 3177.1455)" gradientUnits="userSpaceOnUse">
		<stop  offset="0" style="stop-color:#FF8DFF"/>
		<stop  offset="0.189" style="stop-color:#FF8DFF"/>
		<stop  offset="0.399" style="stop-color:#FFBFF1"/>
		<stop  offset="0.4372" style="stop-color:#FFC2F2"/>
		<stop  offset="0.4688" style="stop-color:#FFCDF4"/>
		<stop  offset="0.498" style="stop-color:#FFDEF8"/>
		<stop  offset="0.5256" style="stop-color:#FFF6FD"/>
		<stop  offset="0.5342" style="stop-color:#FFFFFF"/>
		<stop  offset="0.5536" style="stop-color:#FEFDFD"/>
		<stop  offset="0.5607" style="stop-color:#F8F8F6"/>
		<stop  offset="0.5657" style="stop-color:#EFEEEA"/>
		<stop  offset="0.5697" style="stop-color:#E3E0DA"/>
		<stop  offset="0.5711" style="stop-color:#DDD9D2"/>
		<stop  offset="1" style="stop-color:#DDD9D2"/>
	</radialGradient>
	<polygon class="st2" points="50.76,26.63 54.63,25.38 55.81,29.39 51.94,30.64 	"/>
</g>
<g>
	<defs>
		<rect id="SVGID_9_" x="2.68" y="1.28" width="92.76" height="55.5"/>
	</defs>
	<clipPath id="SVGID_10_">
		<use xlink:href="#SVGID_9_"  style="overflow:visible;"/>
	</clipPath>
	<path class="st3" d="M52.4,27.88c-0.53-0.2-0.73,0.33-0.63,0.8c0.19,0.41,0.52,0.64,0.97,0.69c0.82,0.32,1.6,0.29,1.97-0.81
		c0.21-0.61-0.07-1.78-0.63-2.12c-0.66-0.4-1.24,0.65-1.46,1.16c-0.74,1.66,1.37,0.87,1.43,0.03c0.05-0.75-0.67-0.7-1.13-0.37
		c-0.35,0.25-1.04,1.88-0.15,1.68"/>
</g>
</svg>
