<svg width="94" height="56" viewBox="0 0 94 56" fill="none" xmlns="http://www.w3.org/2000/svg">
<path d="M20.62 37.22C20.5 37.25 20.38 37.29 20.26 37.32C19.79 36.74 19.79 36.11 20.25 35.42C20.19 33.22 20.71 31.07 21.79 28.98C23.97 26.02 26.75 23.32 30.14 20.86C31.85 19.79 33.55 18.72 35.26 17.65C37.61 16.28 40.16 15.1 42.91 14.09C44.22 13.8 45.56 13.76 46.92 13.97C49.74 14.3 53.08 15.07 55.7 15.79C61.3 17.33 61.81 23.3 61.87 26.58C61.91 28.94 61.37 32.09 59.55 34.2C57.85 36.17 55.19 36.3 52.7 37.61C48.62 39.76 42.93 39.78 37.94 38.9C37.22 38.78 36.51 38.65 35.81 38.49C33.81 37.95 32.47 36.69 30.54 36.13C29.76 35.89 28.94 35.82 28.07 35.91C25.93 35.91 23.47 35.69 21.36 35.95C20.58 36.17 19.78 36.38 18.97 36.57C17.17 36.91 14.83 36.76 13.31 37.59C11.97 38.33 11.77 40.47 12.46 41.46C13.97 43.65 19.37 41.35 20.99 40.47C22.64 39.58 25.04 38.84 23.92 37.26C23.77 37 23.54 36.78 23.23 36.59C22.55 35.83 22.26 35.03 21.75 34.23C19.15 30.15 14.58 26.46 10.65 22.88C8.56 20.97 5.78 18.6 5.05 16.28C6.97 18.45 8.39 20.96 10.16 23.18C13.99 27.99 17.65 32.79 22.39 37.28C24.22 39.15 26.34 40.88 28.74 42.47C30.31 43.34 31.89 44.21 33.45 45.08C34.97 46.19 36.49 47.31 38 48.43C38.3 48.64 40.67 50.42 41.7 50.4C41.67 50.12 41.48 49.88 41.12 49.68C39.17 48.42 37.34 47.1 35.64 45.7C32.53 43.23 29.4 40.77 26.25 38.33C23.72 36.65 20.99 35.12 18.05 33.73C14.42 31.86 10.89 29.84 6.97 28.2C6.22 27.89 4.01 26.82 3 26.73C4.64 27.75 6.24 28.7 7.79 29.8C15.98 35.62 23.71 41.28 34.13 45.57C40.63 48.24 47.58 50.45 54.19 53.01C55.31 53.44 58.45 55 60.04 55.21C59.82 54.83 59.49 54.65 59.09 54.33L55.56 52.33C51.85 50.08 47.83 48.09 43.49 46.34C38.08 44.28 32.29 42.6 26.86 40.55C23.13 39.11 19.38 37.69 15.62 36.29C14.35 35.92 13.19 35.45 12.16 34.88C13.68 35.19 14.49 34.51 15.53 33.81C16.3 33.07 17.07 32.33 17.84 31.58C19.57 29.73 22.19 28.69 25.68 28.47C27.84 28.14 30.01 27.82 32.17 27.49C34.6 27.4 35.94 26.68 36.19 25.32C36.62 24.79 37.04 24.25 37.47 23.71C38.94 22.63 40.65 21.74 42.6 21.03C45.43 19.3 46.31 16.46 46.48 14.09C46.6 12.5 46.77 10.85 46.76 9.25C46.75 6.95 45.82 4.7 45.73 2.42C45.71 1.95 45.67 1.42 46.02 1C46.85 1.56 47.05 2.29 46.65 3.19C47.28 6.27 47.85 9.36 48.34 12.45C48.8 15.45 48.84 18.57 49.96 21.51C50.59 21.11 51.31 20.77 51.97 20.38C52.96 19.66 53.95 18.94 54.95 18.22C56.87 16.52 58.96 14.9 61.21 13.37C65.16 11.86 71.08 12.54 75.04 13.56C78.33 14.41 80.41 14.66 79.37 17.21C79.05 17.7 78.72 18.2 78.4 18.7C76.35 20.96 74.32 23.22 72.3 25.49C70.86 27.23 69.34 28.96 67.76 30.65C67.16 30.83 66.9 31.06 66.97 31.35C72.94 31.21 78.93 32.06 84.48 33.4C86.61 33.91 89.79 34.47 91.73 35.26C92.63 35.62 93.25 35.92 93.2 36.67C92.81 36.21 91.23 35.96 90.64 35.85C86.82 35.12 82.9 35.04 79.07 34.21C74.38 33.2 69.9 31.81 65.2 30.8C64.27 30.6 62.88 30.18 61.8 30.21" stroke="#231F20" stroke-miterlimit="10"/>
<path d="M50.6798 26.9598C50.1498 26.7598 49.9498 27.2898 50.0498 27.7498C50.2398 28.1598 50.5698 28.3898 51.0198 28.4398C51.8398 28.7598 52.6198 28.7298 52.9898 27.6198C53.1998 27.0098 52.9198 25.8398 52.3598 25.4998C51.6998 25.0998 51.1198 26.1498 50.8998 26.6598C50.1598 28.3198 52.2698 27.5298 52.3298 26.6898C52.3798 25.9398 51.6598 25.9898 51.1998 26.3198C50.8498 26.5698 50.1598 28.1998 51.0498 27.9998" stroke="#231F20" stroke-width="0.5" stroke-miterlimit="10"/>
</svg>
