<svg width="1205" height="822" viewBox="0 0 1205 822" fill="none" xmlns="http://www.w3.org/2000/svg">
<path d="M1165.36 805.478L31.6478 765.705C25.1607 765.481 20.0371 760.158 20.2714 753.877L47.7004 3.06388C47.7004 3.02129 47.7323 3 47.7749 3L1204.94 43.6041C1204.98 43.6041 1205 43.636 1205 43.6786L1177.57 794.492C1177.35 800.762 1171.85 805.713 1165.36 805.478Z" fill="#DDD9D6"/>
<g filter="url(#filter0_d)">
<path d="M1166.08 806H27.845C21.3367 806 16 800.677 16 794.183V16.3715C16 16.3289 16.032 16.2969 16.0746 16.2969H1177.85C1177.89 16.2969 1177.92 16.3289 1177.92 16.3715V794.172C1177.91 800.677 1172.59 806 1166.08 806Z" fill="#DDD9D6"/>
</g>
<defs>
<filter id="filter0_d" x="0" y="0.296936" width="1193.92" height="821.703" filterUnits="userSpaceOnUse" color-interpolation-filters="sRGB">
<feFlood flood-opacity="0" result="BackgroundImageFix"/>
<feColorMatrix in="SourceAlpha" type="matrix" values="0 0 0 0 0 0 0 0 0 0 0 0 0 0 0 0 0 0 127 0"/>
<feOffset/>
<feGaussianBlur stdDeviation="8"/>
<feColorMatrix type="matrix" values="0 0 0 0 0 0 0 0 0 0 0 0 0 0 0 0 0 0 0.8 0"/>
<feBlend mode="multiply" in2="BackgroundImageFix" result="effect1_dropShadow"/>
<feBlend mode="normal" in="SourceGraphic" in2="effect1_dropShadow" result="shape"/>
</filter>
</defs>
</svg>
