<?xml version="1.0" encoding="utf-8"?>
<!-- Generator: Adobe Illustrator 23.1.1, SVG Export Plug-In . SVG Version: 6.00 Build 0)  -->
<svg version="1.1" xmlns="http://www.w3.org/2000/svg" xmlns:xlink="http://www.w3.org/1999/xlink" x="0px" y="0px"
	 viewBox="0 0 634 428.42" style="enable-background:new 0 0 634 428.42;" xml:space="preserve">
<style type="text/css">
	.st0{fill:#FFFFFF;}
	.st1{fill:none;stroke:#231F20;stroke-width:3;stroke-miterlimit:10;}
	.st2{clip-path:url(#SVGID_2_);fill:none;stroke:#70CCF7;stroke-width:3;stroke-miterlimit:10;}
	.st3{clip-path:url(#SVGID_2_);fill:none;stroke:#70CCF7;stroke-width:3;stroke-miterlimit:10;stroke-dasharray:12.223,12.223;}
	.st4{clip-path:url(#SVGID_4_);fill:#231F20;}
</style>
<g id="Layer_2">
	<rect x="-10.05" y="-7.29" class="st0" width="650.25" height="809.84"/>
</g>
<g id="Layer_1">
	<line class="st1" x1="223.52" y1="90.7" x2="223.52" y2="89.26"/>
	<g>
		<defs>
			<rect id="SVGID_1_" x="0.32" y="0.1" width="597.6" height="417.23"/>
		</defs>
		<clipPath id="SVGID_2_">
			<use xlink:href="#SVGID_1_"  style="overflow:visible;"/>
		</clipPath>
		<line class="st2" x1="72.32" y1="303.6" x2="597.92" y2="303.6"/>
		<line class="st3" x1="72.32" y1="94.1" x2="597.92" y2="94.1"/>
		<line class="st2" x1="72.32" y1="16.6" x2="597.92" y2="16.6"/>
	</g>
	<g>
		<defs>
			<rect id="SVGID_3_" x="0.32" y="0.1" width="597.6" height="417.23"/>
		</defs>
		<clipPath id="SVGID_4_">
			<use xlink:href="#SVGID_3_"  style="overflow:visible;"/>
		</clipPath>
		<path class="st4" d="M590.6,93.92l-77.78,7.88l19.2,19.69l58.58,3.94V93.92z M440.71,207.88c-9.03-10.99-13.54-25.02-13.54-42.09
			c0-17.06,4.26-30.76,12.8-41.1c8.53-10.34,19.52-15.51,32.98-15.51c14.11,0,25.51,5.5,34.21,16.49
			c8.69,11,13.04,25.84,13.04,44.55c0,16.41-3.94,29.53-11.81,39.38c-7.88,9.85-18.54,14.77-32,14.77
			C461.63,224.37,449.73,218.88,440.71,207.88 M517.99,233.72c13.29-6.89,23.79-16.16,31.5-27.81
			c7.71-11.64,11.57-24.69,11.57-39.13c0-14.77-3.86-27.97-11.57-39.63c-7.72-11.64-18.14-20.75-31.26-27.32
			c-13.13-6.56-28.06-9.85-44.79-9.85c-16.74,0-31.83,3.53-45.29,10.58c-13.46,7.06-24.12,16.66-32,28.8
			c-7.88,12.14-11.81,26.09-11.81,41.84c0,13.78,3.77,26.26,11.32,37.41c7.55,11.16,18.13,19.86,31.75,26.09
			c13.61,6.24,29.12,9.35,46.52,9.35C490.01,244.06,504.7,240.61,517.99,233.72 M526.61,406.75c16.74-7.06,30.03-16.66,39.87-28.8
			c9.84-12.14,14.77-25.77,14.77-40.86c0-17.07-5.91-30.2-17.72-39.38c-11.81-9.18-29.04-14.93-51.69-17.23l-63.5-6.4
			c-7.55-0.99-13.38-3.03-17.47-6.15c-4.11-3.11-6.15-6.97-6.15-11.57c0-3.28,1.48-6.65,4.43-10.09c2.95-3.45,7.55-7.3,13.78-11.57
			l-6.4-9.85c-15.1,6.57-26.91,14.11-35.44,22.64c-8.54,8.54-12.8,17.23-12.8,26.09c0,9.19,4.26,16.98,12.8,23.38
			c8.53,6.4,18.7,9.6,30.52,9.6l7.38,1.97l52.67,4.43c18.7,1.31,32,4.68,39.87,10.09c7.88,5.41,11.81,13.7,11.81,24.86
			c0,14.44-6.65,26.25-19.94,35.44c-13.29,9.18-30.44,13.78-51.44,13.78c-18.71,0-33.31-3.61-43.81-10.83
			c-10.51-7.22-15.75-17.4-15.75-30.52c0-9.52,2.95-18.38,8.86-26.58c5.91-8.21,14.28-15.59,25.1-22.15l-18.7-3.94
			c-19.69,9.85-33.96,19.52-42.83,29.04c-8.86,9.51-13.29,19.85-13.29,31.01c0,16.41,8.86,29.54,26.58,39.38
			s41.67,14.77,71.87,14.77C491,417.33,509.87,413.8,526.61,406.75 M176.37,213.29c10.66-0.16,20.92-0.25,30.77-0.25
			c10.17,0,20.75,0.09,31.75,0.25c10.99,0.17,22.07,0.42,33.23,0.74v-26.09c-5.91,0.33-14.36,0.66-25.35,0.98
			c-11,0.33-24.21,0.49-39.63,0.49c-15.75,0-29.04-0.16-39.87-0.49c-10.83-0.32-19.37-0.65-25.6-0.98v26.09
			C154.14,213.71,165.71,213.46,176.37,213.29 M155.45,305.1l0.98-18.7l-30.03-6.89l26.09-73.34l5.41-14.77L209.11,51.1l-11.32,6.4
			l53.65,133.89l5.42,15.26l29.04,72.85l-30.03,6.89l0.99,18.7h99.43l1.48-18.7l-24.61-6.89L225.85,7.29L197.3,24.52L95.89,279.5
			l-24.12,6.89l0.99,18.7H155.45z"/>
	</g>
</g>
</svg>
