<?xml version="1.0" encoding="utf-8"?>
<!-- Generator: Adobe Illustrator 23.1.1, SVG Export Plug-In . SVG Version: 6.00 Build 0)  -->
<svg version="1.1" xmlns="http://www.w3.org/2000/svg" xmlns:xlink="http://www.w3.org/1999/xlink" x="0px" y="0px"
	 viewBox="0 0 634 792" style="enable-background:new 0 0 634 792;" xml:space="preserve">
<style type="text/css">
	.st0{fill:#FFFFFF;}
	.st1{clip-path:url(#SVGID_2_);fill:#231F20;}
	.st2{clip-path:url(#SVGID_2_);fill:#FFFFFF;}
	.st3{clip-path:url(#SVGID_2_);fill:none;stroke:#EB0000;stroke-width:3;stroke-miterlimit:10;}
	.st4{clip-path:url(#SVGID_2_);fill:none;stroke:#3EB549;stroke-width:3;stroke-miterlimit:10;}
	.st5{clip-path:url(#SVGID_2_);fill:#241F21;}
</style>
<g id="Layer_2">
	<rect x="-10.05" y="-7.29" class="st0" width="650.25" height="809.84"/>
</g>
<g id="Layer_1">
	<g>
		<defs>
			<rect id="SVGID_1_" x="36.49" y="26.45" width="527.8" height="731.88"/>
		</defs>
		<clipPath id="SVGID_2_">
			<use xlink:href="#SVGID_1_"  style="overflow:visible;"/>
		</clipPath>
		<path class="st1" d="M560.06,580.75l-5.62-0.66l-3.94,10.59c-0.81,0.19-1.56,0.31-2.25,0.38c-0.69,0.06-1.59,0.09-2.72,0.09H528
			V595l29.06-48.28v-4.88c-1.19,0.06-2.41,0.11-3.66,0.14c-1.25,0.03-2.47,0.05-3.66,0.05h-26.81c-1.19,0-2.64-0.02-4.36-0.05
			c-1.72-0.03-3.33-0.08-4.83-0.14l0.19,15.84h5.81l1.78-9.66c0.94-0.12,1.97-0.25,3.09-0.38c1.12-0.12,2.66-0.19,4.59-0.19h15.84
			v-3.94l-29.62,48.94v4.88c1.19-0.13,2.41-0.2,3.66-0.23c1.25-0.03,2.5-0.05,3.75-0.05h21.84c1.12,0,2.5,0.03,4.12,0.09
			c1.62,0.06,3.22,0.12,4.78,0.19c1.56,0.06,2.78,0.12,3.66,0.19L560.06,580.75z M432.15,547.89c1-0.09,1.94-0.14,2.81-0.14
			c2.56,0,4.97,0.44,7.22,1.31c2.25,0.88,4.25,2.25,6,4.12c1.75,1.88,3.12,4.34,4.12,7.41c1,3.06,1.5,6.78,1.5,11.16
			c0,6.63-1.36,11.47-4.08,14.53c-2.72,3.06-6.73,4.59-12.05,4.59c-1.25,0-2.58-0.08-3.98-0.23c-1.41-0.16-2.83-0.36-4.27-0.61
			c-0.06-0.88-0.14-2.06-0.23-3.56s-0.16-3.14-0.19-4.92c-0.03-1.78-0.05-3.48-0.05-5.11v-13.69c0-2.87,0.01-5.3,0.05-7.27
			c0.03-1.97,0.06-3.56,0.09-4.78c0.03-1.22,0.05-2.02,0.05-2.39C430.15,548.12,431.15,547.98,432.15,547.89 M409.65,546.72l6,1.5
			c0.19,0.31,0.34,1.83,0.47,4.55c0.12,2.72,0.19,6.05,0.19,9.98v13.69c0,3.75-0.06,6.98-0.19,9.7c-0.13,2.72-0.28,4.3-0.47,4.73
			l-6,1.5l0.28,4.69h26.81c6.06,0,11.45-1.2,16.17-3.61c4.72-2.41,8.42-5.75,11.11-10.03c2.69-4.28,4.03-9.14,4.03-14.58
			c0-8.44-2.84-15.02-8.53-19.73c-5.69-4.72-13.59-7.08-23.72-7.08h-25.88L409.65,546.72z M329.17,587.92
			c-2.31-1.97-4.14-4.7-5.48-8.2c-1.35-3.5-2.02-7.56-2.02-12.19c0-6.31,1.22-11.25,3.66-14.81c2.44-3.56,5.81-5.34,10.12-5.34
			c3,0,5.59,0.98,7.78,2.95c2.19,1.97,3.9,4.73,5.16,8.3c1.25,3.56,1.88,7.75,1.88,12.56c0,4.31-0.5,7.92-1.5,10.83
			c-1,2.91-2.47,5.11-4.41,6.61c-1.94,1.5-4.31,2.25-7.12,2.25C334.17,590.87,331.49,589.89,329.17,587.92 M366.77,531.39
			c-1-0.91-2.31-1.47-3.94-1.69s-3.37-0.2-5.25,0.05l-0.19,5.62c-0.06,2.13-0.72,3.88-1.97,5.25c-1.25,1.38-2.97,2.06-5.16,2.06
			c-1.44,0-3.27-0.25-5.48-0.75c-2.22-0.5-4.74-0.75-7.55-0.75c-6,0-11.28,1.25-15.84,3.75c-4.56,2.5-8.13,5.94-10.69,10.31
			c-2.56,4.38-3.84,9.38-3.84,15c0,5.38,1.26,10.14,3.8,14.3c2.53,4.16,6.03,7.42,10.5,9.8c4.47,2.38,9.58,3.56,15.33,3.56
			c3.12,0,6.34-0.61,9.66-1.83c3.31-1.22,6.39-3.05,9.23-5.48c2.84-2.44,5.16-5.47,6.94-9.09c1.78-3.62,2.67-7.84,2.67-12.66
			c0-5.12-1.08-9.67-3.24-13.64c-2.16-3.97-5.08-7.11-8.76-9.42l-6.19,1.5c4.25,1,8,1,11.25,0c3.25-1,5.77-2.58,7.55-4.73
			c1.78-2.16,2.67-4.42,2.67-6.8C368.27,533.75,367.77,532.3,366.77,531.39"/>
		<path class="st2" d="M225.54,587.92c-2.31-1.97-4.14-4.7-5.48-8.2c-1.35-3.5-2.02-7.56-2.02-12.19c0-6.31,1.22-11.25,3.66-14.81
			c2.44-3.56,5.81-5.34,10.12-5.34c3,0,5.59,0.98,7.78,2.95c2.19,1.97,3.9,4.73,5.16,8.3c1.25,3.56,1.88,7.75,1.88,12.56
			c0,4.19-0.49,7.75-1.45,10.69c-0.97,2.94-2.42,5.17-4.36,6.7c-1.94,1.53-4.35,2.3-7.22,2.3
			C230.54,590.88,227.86,589.89,225.54,587.92 M242.51,596.08c3.31-1.22,6.39-3.05,9.23-5.48c2.84-2.44,5.16-5.47,6.94-9.09
			c1.78-3.62,2.67-7.84,2.67-12.66c0-5.5-1.22-10.31-3.66-14.44c-2.44-4.12-5.78-7.36-10.03-9.7c-4.25-2.34-9.16-3.52-14.72-3.52
			c-5.75,0-10.88,1.25-15.38,3.75c-4.5,2.5-8.01,5.94-10.55,10.31c-2.53,4.38-3.8,9.38-3.8,15c0,5.38,1.26,10.14,3.8,14.3
			c2.53,4.16,6.03,7.42,10.5,9.8c4.47,2.38,9.58,3.56,15.33,3.56C235.98,597.91,239.2,597.3,242.51,596.08"/>
		<path class="st1" d="M159.08,598.05c0.97-0.09,1.95-0.23,2.95-0.42l0.09-4.31c-1.56-0.44-3.03-1.05-4.41-1.83
			c-1.38-0.78-2.69-1.8-3.94-3.05c-1.25-1.25-2.53-2.78-3.84-4.59l-11.16-15.56l-10.41,2.44l5.34,11.53c1.69,3.63,3.61,6.63,5.77,9
			c2.16,2.38,4.59,4.12,7.31,5.25c2.72,1.12,5.83,1.69,9.33,1.69C157.13,598.19,158.12,598.14,159.08,598.05 M131.1,597.06
			l0.28-4.69l-5.25-1.59c-0.06-0.75-0.13-1.95-0.19-3.61c-0.06-1.65-0.11-3.45-0.14-5.39c-0.03-1.94-0.05-3.72-0.05-5.34V562v-5.3
			v-4.5c0-1.34,0.01-2.45,0.05-3.33c0.03-0.87,0.08-1.41,0.14-1.59h3.56c3.06,0,5.39,0.77,6.99,2.3c1.59,1.53,2.39,3.77,2.39,6.7
			c0,3.19-0.95,5.74-2.86,7.64c-1.91,1.91-4.42,2.86-7.55,2.86h-4.22v5.44h6.09c4.25,0,8.02-0.69,11.3-2.06
			c3.28-1.37,5.86-3.26,7.73-5.67c1.88-2.4,2.81-5.14,2.81-8.2c0-4.94-1.72-8.55-5.16-10.83c-3.44-2.28-8.75-3.42-15.94-3.42h-24.28
			l-0.28,4.69l6,1.5c0.12,0.25,0.23,1.03,0.33,2.34c0.09,1.31,0.17,3.02,0.23,5.11c0.06,2.1,0.09,4.45,0.09,7.08v13.69
			c0,1.19-0.02,2.53-0.05,4.03c-0.03,1.5-0.06,2.97-0.09,4.41c-0.03,1.44-0.06,2.69-0.09,3.75c-0.03,1.06-0.05,1.78-0.05,2.16
			l-6,1.59l0.28,4.69H131.1z"/>
		<path class="st1" d="M536.7,666.35c-1.45-1.23-2.59-2.94-3.43-5.13c-0.84-2.19-1.26-4.73-1.26-7.62c0-3.95,0.76-7.03,2.28-9.26
			c1.52-2.23,3.63-3.34,6.33-3.34c1.88,0,3.5,0.61,4.86,1.85c1.37,1.23,2.44,2.96,3.22,5.18c0.78,2.23,1.17,4.84,1.17,7.85
			c0,2.7-0.31,4.95-0.94,6.77c-0.62,1.82-1.54,3.19-2.75,4.13c-1.21,0.94-2.7,1.41-4.45,1.41
			C539.82,668.2,538.14,667.58,536.7,666.35 M560.6,680.03c1.44-0.43,2.67-0.98,3.69-1.64l-0.82-3.16c-0.7,0.2-1.38,0.33-2.02,0.41
			c-0.64,0.08-1.22,0.12-1.73,0.12c-1.05,0-2.04-0.16-2.96-0.47c-0.92-0.31-2.04-0.84-3.37-1.58c-1.33-0.78-2.79-1.36-4.4-1.73
			c-1.6-0.37-3.15-0.56-4.63-0.56h-8.79c0.55,0.23,1.08,0.5,1.61,0.79c0.53,0.29,1.05,0.61,1.58,0.97c0.53,0.35,1.08,0.76,1.67,1.23
			c0.59,0.47,1.23,1,1.93,1.58c1.09,0.86,2.26,1.65,3.52,2.37c1.25,0.72,2.7,1.29,4.34,1.7c1.64,0.41,3.53,0.61,5.68,0.61
			C557.59,680.68,559.16,680.46,560.6,680.03 M542.09,672.3c1.84,0,3.75-0.37,5.74-1.11c1.99-0.74,3.83-1.85,5.51-3.34
			c1.68-1.48,3.06-3.35,4.13-5.6c1.07-2.25,1.61-4.85,1.61-7.82c0-3.44-0.76-6.44-2.29-9.02c-1.52-2.58-3.61-4.6-6.27-6.06
			c-2.66-1.47-5.72-2.2-9.2-2.2c-3.59,0-6.8,0.78-9.61,2.34c-2.81,1.56-5.01,3.71-6.59,6.45c-1.58,2.73-2.37,5.86-2.37,9.38
			c0,3.36,0.79,6.33,2.37,8.91c1.58,2.58,3.77,4.6,6.56,6.07c2.79,1.46,5.99,2.2,9.58,2.2L542.09,672.3z"/>
		<path class="st2" d="M452.58,666.47c-1.15-1.23-2.05-2.95-2.7-5.16c-0.64-2.21-0.97-4.77-0.97-7.7c0-4.18,0.6-7.34,1.79-9.49
			c1.19-2.15,2.73-3.22,4.6-3.22c2.03,0,3.69,1.36,4.98,4.07c1.29,2.72,1.93,6.36,1.93,10.93c0,2.89-0.23,5.25-0.67,7.09
			c-0.45,1.84-1.1,3.18-1.96,4.04c-0.86,0.86-1.93,1.29-3.22,1.29C454.99,668.31,453.73,667.7,452.58,666.47 M463.33,670.19
			c2.26-1.6,4.07-3.78,5.42-6.53c1.35-2.75,2.02-5.83,2.02-9.23c0-3.52-0.63-6.57-1.9-9.17c-1.27-2.6-3.02-4.6-5.24-6.01
			c-2.23-1.41-4.81-2.11-7.73-2.11c-3.01,0-5.7,0.76-8.09,2.29c-2.38,1.52-4.25,3.63-5.6,6.33c-1.35,2.7-2.02,5.88-2.02,9.55
			c0,3.44,0.67,6.46,2.02,9.05c1.35,2.6,3.2,4.62,5.57,6.06c2.36,1.45,5.05,2.17,8.06,2.17
			C458.57,672.59,461.07,671.79,463.33,670.19"/>
		<path class="st1" d="M372.74,652.9h-21.8v3.87h21.8V652.9z M365.48,641.33c0.62-0.06,1.21-0.09,1.76-0.09
			c1.6,0,3.11,0.27,4.51,0.82c1.41,0.55,2.66,1.41,3.75,2.58c1.09,1.17,1.95,2.72,2.58,4.63c0.62,1.91,0.94,4.24,0.94,6.97
			c0,4.14-0.85,7.17-2.55,9.08c-1.7,1.91-4.21,2.87-7.53,2.87c-0.78,0-1.61-0.05-2.49-0.15c-0.88-0.1-1.77-0.22-2.67-0.38
			c-0.04-0.55-0.09-1.29-0.15-2.23c-0.06-0.94-0.1-1.96-0.12-3.08c-0.02-1.11-0.03-2.18-0.03-3.19v-8.55c0-1.8,0.01-3.31,0.03-4.54
			c0.02-1.23,0.04-2.23,0.06-2.99c0.02-0.76,0.03-1.26,0.03-1.49C364.23,641.48,364.85,641.39,365.48,641.33 M351.41,640.6
			l3.75,0.94c0.12,0.2,0.21,1.14,0.29,2.84c0.08,1.7,0.12,3.78,0.12,6.24v8.55c0,2.34-0.04,4.37-0.12,6.07
			c-0.08,1.7-0.18,2.69-0.29,2.96l-3.75,0.94l0.18,2.93h16.76c3.79,0,7.16-0.75,10.11-2.26c2.95-1.5,5.26-3.59,6.94-6.27
			c1.68-2.68,2.52-5.71,2.52-9.11c0-5.27-1.78-9.38-5.33-12.33c-3.55-2.95-8.5-4.42-14.82-4.42h-16.17L351.41,640.6z M292.61,671.3
			c2.17-0.86,3.87-2.07,5.1-3.63c1.23-1.56,1.85-3.4,1.85-5.51c0-1.84-0.46-3.37-1.38-4.6c-0.92-1.23-2.1-2.24-3.54-3.02
			c-1.45-0.78-2.99-1.46-4.63-2.05c-1.64-0.59-3.18-1.19-4.63-1.82c-1.45-0.62-2.63-1.38-3.55-2.26c-0.92-0.88-1.38-2-1.38-3.37
			c0-1.33,0.46-2.36,1.38-3.11c0.92-0.74,2.12-1.11,3.6-1.11c1.64,0,2.94,0.51,3.9,1.52c0.96,1.02,1.44,2.46,1.44,4.34
			c0,1.41-0.2,2.67-0.61,3.78c-0.41,1.11-1.1,2.33-2.08,3.66l0.7,0.7c3.01-0.59,5.32-1.63,6.94-3.13c1.62-1.5,2.43-3.35,2.43-5.54
			c0-1.76-0.46-3.32-1.38-4.69c-0.92-1.37-2.28-2.43-4.07-3.19c-1.8-0.76-3.98-1.14-6.56-1.14c-2.73,0-5.12,0.43-7.15,1.29
			c-2.03,0.86-3.6,2.03-4.72,3.52c-1.11,1.48-1.67,3.2-1.67,5.16c0,2.03,0.45,3.69,1.35,4.98c0.9,1.29,2.08,2.34,3.54,3.16
			c1.47,0.82,3,1.53,4.6,2.14c1.6,0.61,3.12,1.21,4.57,1.82c1.45,0.61,2.63,1.3,3.55,2.08c0.92,0.78,1.38,1.84,1.38,3.16
			c0,1.21-0.51,2.19-1.52,2.93c-1.02,0.74-2.4,1.11-4.16,1.11c-1.99,0-3.61-0.5-4.86-1.49s-1.88-2.39-1.88-4.19
			c0-1.13,0.24-2.25,0.73-3.34c0.49-1.09,1.3-2.26,2.43-3.51l-0.88-1.29c-3.16,0.59-5.66,1.62-7.5,3.1
			c-1.84,1.48-2.75,3.36-2.75,5.62c0,1.76,0.56,3.33,1.7,4.72c1.13,1.39,2.73,2.48,4.8,3.28c2.07,0.8,4.49,1.2,7.27,1.2
			C287.89,672.59,290.44,672.16,292.61,671.3 M200.29,672.06l0.18-2.93l-3.05-0.94c-0.04-0.27-0.09-1.23-0.15-2.87
			c-0.06-1.64-0.09-3.69-0.09-6.15v-8.55c0-1.6,0.01-3.05,0.03-4.34c0.02-1.29,0.06-2.35,0.12-3.19c0.06-0.84,0.13-1.36,0.21-1.55
			l3.75-0.94l-0.18-2.93h-15.76l-0.18,2.93l3.69,0.94c0.08,0.16,0.15,0.64,0.2,1.46c0.06,0.82,0.11,1.89,0.15,3.19
			c0.04,1.31,0.06,2.78,0.06,4.42v8.55c0,2.46-0.02,4.51-0.06,6.15c-0.04,1.64-0.1,2.6-0.18,2.87l-3.75,0.94l0.18,2.93H200.29z
			 M222.21,672.06v-2.99l-2.99-0.47c-0.2-0.2-0.45-0.46-0.76-0.79c-0.31-0.33-0.74-0.82-1.29-1.47c-0.55-0.64-1.29-1.49-2.23-2.55
			l-11.31-13.54l0.18,2.58l12.89-11.54l3.87-0.59l-0.18-3.05h-13.3l-0.18,2.93l3.75,0.64l-12.07,12.42l-2.46,0.47v2.81h2.29
			l7.27,8.79c0.55,0.7,0.95,1.24,1.2,1.61c0.25,0.37,0.5,0.77,0.73,1.2l-3.05,0.59l0.24,2.93H222.21z M122.36,672.06l0.18-3.05
			l-4.75-0.88c-0.04-0.16-0.09-0.62-0.15-1.38c-0.06-0.76-0.12-1.78-0.18-3.05c-0.06-1.27-0.09-2.68-0.09-4.25l-0.06-9.43
			c0-1.8,0.01-3.31,0.03-4.54c0.02-1.23,0.04-2.22,0.06-2.96c0.02-0.74,0.03-1.27,0.03-1.58h1.64c2.23,0,3.98,0.61,5.27,1.82
			c1.29,1.21,1.93,3.13,1.93,5.74c0,2.23-0.51,3.93-1.52,5.1c-1.02,1.17-2.46,1.76-4.34,1.76c-0.82,0-1.56-0.07-2.23-0.21
			c-0.67-0.14-1.21-0.3-1.64-0.5v4.04c0.59,0.12,1.21,0.22,1.88,0.29s1.33,0.12,1.99,0.12c3.01,0,5.58-0.5,7.71-1.49
			s3.76-2.35,4.89-4.07c1.13-1.72,1.7-3.65,1.7-5.8c0-3.24-1.18-5.73-3.54-7.47c-2.36-1.74-5.95-2.61-10.75-2.61h-14.88l-0.18,2.93
			l3.69,0.76c0.12,0.16,0.19,0.64,0.24,1.47c0.04,0.82,0.08,1.85,0.12,3.1c0.04,1.25,0.06,2.62,0.06,4.1l-0.06,9.43
			c0,1.56-0.02,2.98-0.06,4.25c-0.04,1.27-0.08,2.3-0.12,3.08c-0.04,0.78-0.12,1.25-0.23,1.41l-3.46,0.94l0.17,2.93H122.36z"/>
		<path class="st1" d="M556.79,718.08c1.25-0.51,2.22-1.21,2.91-2.11c0.68-0.9,1.03-1.91,1.03-3.04c0-1.06-0.23-1.94-0.7-2.62
			c-0.47-0.69-1.06-1.26-1.79-1.71c-0.73-0.45-1.51-0.85-2.34-1.18c-0.83-0.33-1.62-0.67-2.36-1.01c-0.74-0.34-1.34-0.75-1.81-1.23
			c-0.47-0.48-0.7-1.08-0.7-1.81c0-0.82,0.29-1.45,0.88-1.91c0.59-0.45,1.33-0.68,2.24-0.68c0.89,0,1.67,0.18,2.36,0.53l1.06,3.25
			l2.12-0.13l-0.4-4.85c-0.4-0.18-0.88-0.34-1.43-0.48c-0.55-0.14-1.13-0.25-1.73-0.32c-0.6-0.07-1.15-0.1-1.66-0.1
			c-1.62,0-3.04,0.25-4.27,0.75c-1.23,0.5-2.18,1.2-2.86,2.09c-0.68,0.9-1.01,1.94-1.01,3.14c0,1.13,0.23,2.05,0.68,2.76
			c0.45,0.71,1.04,1.29,1.78,1.74c0.73,0.45,1.51,0.84,2.32,1.16c0.82,0.32,1.59,0.65,2.32,0.98c0.73,0.33,1.32,0.73,1.78,1.2
			c0.45,0.46,0.68,1.08,0.68,1.86c0,0.71-0.26,1.27-0.78,1.69c-0.52,0.42-1.28,0.63-2.27,0.63c-0.55,0-1.13-0.08-1.73-0.25
			c-0.6-0.17-1.13-0.39-1.59-0.68l-1.13-3.42l-2.12,0.13l0.17,4.91c0.8,0.44,1.76,0.8,2.87,1.06c1.12,0.27,2.15,0.4,3.1,0.4
			C554.09,718.84,555.54,718.59,556.79,718.08 M478.03,715.37c-0.65-0.7-1.16-1.67-1.53-2.92c-0.37-1.25-0.55-2.71-0.55-4.37
			c0-2.37,0.34-4.16,1.01-5.38c0.67-1.22,1.54-1.83,2.61-1.83c1.15,0,2.09,0.77,2.82,2.31c0.73,1.54,1.1,3.6,1.1,6.19
			c0,1.64-0.13,2.98-0.38,4.02c-0.26,1.04-0.63,1.8-1.11,2.29c-0.49,0.49-1.1,0.73-1.83,0.73
			C479.4,716.42,478.69,716.07,478.03,715.37 M484.13,717.48c1.28-0.91,2.31-2.14,3.07-3.7c0.76-1.56,1.15-3.3,1.15-5.23
			c0-1.99-0.36-3.72-1.08-5.2s-1.71-2.61-2.97-3.4c-1.26-0.8-2.72-1.2-4.38-1.2c-1.7,0-3.23,0.43-4.58,1.29
			c-1.35,0.86-2.41,2.06-3.17,3.59c-0.76,1.53-1.15,3.33-1.15,5.41c0,1.95,0.38,3.66,1.15,5.13c0.76,1.47,1.82,2.62,3.15,3.44
			c1.34,0.82,2.86,1.23,4.57,1.23C481.43,718.84,482.84,718.39,484.13,717.48 M407.06,694.04c-0.73,0.35-1.62,0.53-2.66,0.53
			c-1.06,0-1.96-0.18-2.71-0.53c-0.74-0.35-1.24-0.81-1.51-1.36l-2.12,0.66c0.27,1.2,0.97,2.14,2.12,2.82
			c1.15,0.69,2.51,1.03,4.08,1.03c1.57,0,2.92-0.34,4.05-1.03c1.13-0.68,1.83-1.63,2.09-2.82l-1.93-0.66
			C408.27,693.23,407.79,693.69,407.06,694.04 M401.15,712.83c0.58-0.02,1.32-0.03,2.23-0.03c0.86,0,1.59,0.01,2.19,0.03
			c0.6,0.02,1.11,0.03,1.53,0.03v-2.22c-0.42,0.02-0.92,0.05-1.51,0.08c-0.59,0.03-1.32,0.05-2.21,0.05c-0.93,0-1.67-0.02-2.23-0.05
			c-0.55-0.03-1.05-0.06-1.49-0.08v2.26C400.08,712.88,400.58,712.85,401.15,712.83 M400.89,718.54l0.1-1.66l-2.12-0.53l1.59-4.52
			l0.3-1l2.76-7.47l-0.96-0.26l3.32,7.84l0.36,1.13l1.79,4.28l-2.12,0.53l0.1,1.66h8.9l0.1-1.66l-1.73-0.53l-7.64-17.9l-2.79,1.56
			l-6.74,16.34l-1.73,0.53l0.1,1.66H400.89z M327.18,711.44c0.2-0.29,0.48-0.58,0.85-0.86c0.36-0.29,0.77-0.53,1.23-0.71
			c0.45-0.19,0.92-0.28,1.41-0.28c0.91,0,1.63,0.35,2.16,1.05c0.53,0.7,0.8,1.63,0.8,2.81c0,0.95-0.24,1.75-0.71,2.39
			c-0.48,0.64-1.09,0.96-1.84,0.96c-0.6,0-1.13-0.24-1.59-0.71c-0.46-0.48-0.84-1.12-1.11-1.94c-0.28-0.82-0.42-1.73-0.42-2.72
			c0-2.06,0.31-3.81,0.93-5.26c0.62-1.45,1.59-2.63,2.9-3.55c1.32-0.92,2.99-1.62,5.03-2.11l-0.56-2.03
			c-2.06,0.2-3.89,0.67-5.49,1.41c-1.61,0.74-2.96,1.69-4.07,2.84c-1.11,1.15-1.95,2.43-2.54,3.84c-0.59,1.41-0.88,2.87-0.88,4.4
			c0,1.46,0.32,2.79,0.95,3.98c0.63,1.2,1.51,2.15,2.64,2.86c1.13,0.71,2.42,1.06,3.89,1.06c1.39,0,2.64-0.3,3.75-0.9
			c1.11-0.6,1.98-1.41,2.61-2.42c0.63-1.02,0.95-2.16,0.95-3.42c0-1.06-0.25-2.03-0.75-2.89c-0.5-0.86-1.17-1.55-2.01-2.06
			c-0.84-0.51-1.78-0.76-2.82-0.76c-0.91,0-1.83,0.33-2.77,0.98c-0.94,0.65-1.78,1.48-2.51,2.47V711.44z M254.63,704.93
			c0-1,0.01-1.86,0.02-2.61c0.01-0.74,0.03-1.21,0.05-1.41h1.23c1.22,0,2.12,0.29,2.71,0.88c0.59,0.59,0.88,1.38,0.88,2.37
			c0,1.11-0.3,1.95-0.9,2.54c-0.6,0.59-1.49,0.88-2.69,0.88c-0.31,0-0.59-0.01-0.85-0.02c-0.25-0.01-0.55-0.03-0.88-0.05v2.19
			c0.31-0.04,0.61-0.07,0.9-0.07h1c1.53,0,2.64,0.29,3.35,0.88c0.71,0.59,1.06,1.51,1.06,2.77c0,1.04-0.33,1.85-0.98,2.44
			c-0.65,0.59-1.58,0.88-2.77,0.88c-0.33,0-0.7-0.03-1.1-0.08c-0.4-0.05-0.71-0.13-0.93-0.22c-0.02-0.24-0.04-0.69-0.07-1.34
			c-0.02-0.65-0.03-1.42-0.03-2.31V704.93z M247.82,716.88l0.1,1.66h8.73c2.72,0,4.84-0.5,6.36-1.51c1.52-1.01,2.27-2.41,2.27-4.2
			c0-1.46-0.56-2.62-1.69-3.49c-1.13-0.86-2.74-1.34-4.85-1.43l-0.2,0.27c1.73-0.11,3.11-0.58,4.17-1.39
			c1.05-0.82,1.58-1.84,1.58-3.05c0-1.57-0.57-2.74-1.71-3.52c-1.14-0.77-2.88-1.16-5.23-1.16h-9.43l-0.1,1.63l2.12,0.56
			c0.07,0.11,0.12,0.65,0.17,1.61c0.04,0.96,0.07,2.14,0.07,3.54v4.85c0,1.33-0.02,2.47-0.07,3.44c-0.04,0.96-0.1,1.52-0.17,1.68
			L247.82,716.88z M190.88,704.5H176.1v2.09h14.77V704.5z M179.49,718.54l4.08-19.49h-2.22l-4.08,19.49H179.49z M190.28,711.01
			h-14.77v2.09h14.77V711.01z M185.1,718.54l4.05-19.49h-2.26l-4.08,19.49H185.1z M118.7,700.68l-0.13-1.66
			c-0.42,0-0.84,0.01-1.26,0.02c-0.42,0.01-0.82,0.02-1.19,0.02h-6.28c-0.35,0-0.81-0.01-1.36-0.02c-0.55-0.01-1.11-0.02-1.68-0.03
			c-0.57-0.01-1.07-0.03-1.51-0.05l-0.66,6.08l1.99,0.17l0.63-2.26c0.27-0.04,0.57-0.07,0.91-0.08c0.34-0.01,0.62-0.02,0.85-0.02
			h7.17v-1.36l-8.27,15.77v1.29h3.62L118.7,700.68z"/>
		<path class="st1" d="M553.22,745.75c0.21-0.02,0.4-0.03,0.58-0.03c0.53,0,1.04,0.09,1.5,0.27c0.47,0.18,0.89,0.47,1.25,0.86
			c0.36,0.39,0.65,0.9,0.86,1.54c0.21,0.64,0.31,1.41,0.31,2.32c0,1.38-0.28,2.39-0.85,3.03c-0.57,0.64-1.4,0.96-2.51,0.96
			c-0.26,0-0.54-0.02-0.83-0.05c-0.29-0.03-0.59-0.07-0.89-0.13c-0.01-0.18-0.03-0.43-0.05-0.74c-0.02-0.31-0.03-0.65-0.04-1.03
			c-0.01-0.37-0.01-0.73-0.01-1.07v-2.85c0-0.6,0-1.1,0.01-1.51c0.01-0.41,0.01-0.74,0.02-1c0.01-0.25,0.01-0.42,0.01-0.5
			C552.8,745.8,553.01,745.77,553.22,745.75 M548.53,745.5l1.25,0.31c0.04,0.07,0.07,0.38,0.1,0.95c0.03,0.57,0.04,1.26,0.04,2.08
			v2.85c0,0.78-0.01,1.46-0.04,2.02c-0.03,0.57-0.06,0.89-0.1,0.99l-1.25,0.31l0.06,0.98h5.59c1.26,0,2.39-0.25,3.37-0.75
			c0.98-0.5,1.75-1.2,2.31-2.09c0.56-0.89,0.84-1.9,0.84-3.04c0-1.76-0.59-3.13-1.78-4.11c-1.18-0.98-2.83-1.47-4.94-1.47h-5.39
			L548.53,745.5z M493.29,752.3v-4.04h-1.13l-0.2,1.29c-0.08,0-0.22,0.01-0.42,0.02c-0.2,0.01-0.43,0.02-0.69,0.02h-1.11
			c-0.22,0-0.43-0.01-0.64-0.02c-0.2-0.01-0.37-0.03-0.52-0.04v1.39c0.16-0.01,0.33-0.03,0.52-0.05c0.19-0.02,0.4-0.03,0.64-0.03
			h1.11c0.2,0,0.39,0.01,0.59,0.02c0.2,0.01,0.37,0.03,0.53,0.06l0.2,1.39H493.29z M490.97,755.99l0.06-1.01l-1.58-0.27
			c-0.01-0.05-0.03-0.19-0.05-0.43c-0.02-0.24-0.04-0.5-0.05-0.8c-0.01-0.3-0.02-0.57-0.02-0.82l-0.02-4.51v-1.13v-0.66
			c0-0.16,0-0.28,0.01-0.36c0.01-0.09,0.01-0.16,0.01-0.22c0.14-0.03,0.32-0.05,0.54-0.07c0.21-0.02,0.43-0.03,0.65-0.03h1.46
			c0.16,0,0.3,0.01,0.44,0.02c0.14,0.01,0.28,0.04,0.44,0.08l0.76,1.72l1.13-0.16l-0.55-2.89c-0.22,0.01-0.52,0.03-0.88,0.05
			c-0.37,0.02-0.74,0.03-1.11,0.04c-0.38,0.01-0.7,0.01-0.98,0.01h-5.82l-0.06,0.98l1.23,0.33c0.03,0.04,0.05,0.19,0.06,0.46
			c0.01,0.27,0.03,0.62,0.04,1.05c0.01,0.44,0.02,0.93,0.02,1.47l-0.02,2.87c0,0.53-0.01,1.02-0.02,1.46
			c-0.01,0.44-0.03,0.79-0.04,1.07s-0.03,0.44-0.06,0.49l-1.17,0.31l0.06,0.98H490.97z M428.56,748.69
			c-0.12,0.17-0.28,0.34-0.5,0.52c-0.21,0.18-0.45,0.32-0.72,0.43c-0.27,0.11-0.55,0.17-0.85,0.17c-0.52,0-0.94-0.21-1.25-0.61
			c-0.31-0.41-0.47-0.96-0.47-1.65c0-0.56,0.14-1.03,0.42-1.41c0.28-0.38,0.64-0.57,1.08-0.57c0.35,0,0.66,0.14,0.94,0.42
			c0.27,0.28,0.49,0.66,0.65,1.13c0.16,0.48,0.24,1.01,0.24,1.61c0,1.21-0.18,2.24-0.55,3.09c-0.36,0.85-0.93,1.55-1.71,2.09
			c-0.77,0.54-1.77,0.95-2.98,1.22l0.33,1.21c1.21-0.12,2.29-0.39,3.23-0.83c0.94-0.44,1.74-0.99,2.39-1.67s1.15-1.43,1.49-2.26
			c0.35-0.83,0.52-1.69,0.52-2.59c0-0.86-0.19-1.64-0.56-2.34s-0.89-1.26-1.54-1.68c-0.66-0.42-1.42-0.62-2.3-0.62
			c-0.81,0-1.54,0.17-2.2,0.53c-0.66,0.35-1.18,0.82-1.55,1.42c-0.38,0.59-0.57,1.27-0.57,2.02c0,0.62,0.15,1.19,0.44,1.7
			s0.69,0.91,1.19,1.21c0.5,0.3,1.06,0.45,1.67,0.45c0.55,0,1.1-0.19,1.65-0.58c0.55-0.38,1.04-0.87,1.45-1.46L428.56,748.69z
			 M365.74,752.09v-3.94h-1.07l-0.2,1.31c-0.09,0-0.23,0-0.43,0.01c-0.2,0.01-0.42,0.01-0.68,0.01h-1.03
			c-0.22,0-0.43-0.01-0.64-0.02s-0.35-0.03-0.46-0.04v1.39c0.1-0.01,0.26-0.03,0.46-0.04s0.41-0.02,0.64-0.02h1.03
			c0.26,0,0.49,0,0.68,0.01c0.2,0.01,0.34,0.02,0.43,0.03l0.2,1.31H365.74z M368.03,752.95l-1.11-0.21l-1.07,1.95
			c-0.09,0.01-0.18,0.03-0.26,0.04s-0.21,0.02-0.37,0.03c-0.16,0.01-0.41,0.01-0.75,0.01h-1.04c-0.39,0-0.72-0.01-0.98-0.02
			c-0.26-0.01-0.51-0.04-0.74-0.08c0-0.12,0-0.28-0.01-0.5c-0.01-0.21-0.01-0.48-0.02-0.81c-0.01-0.33-0.01-0.7-0.01-1.11v-4.1
			c0-0.44,0-0.83,0.01-1.15c0.01-0.33,0.01-0.59,0.02-0.8c0.01-0.21,0.01-0.37,0.01-0.47c0.14-0.03,0.33-0.04,0.56-0.05
			c0.23-0.01,0.47-0.01,0.71-0.01h1.48c0.16,0,0.3,0.01,0.44,0.02c0.14,0.01,0.29,0.04,0.46,0.08l0.72,1.72l1.13-0.16l-0.53-2.89
			c-0.25,0.01-0.55,0.03-0.91,0.05c-0.36,0.02-0.72,0.03-1.09,0.04c-0.37,0.01-0.69,0.01-0.95,0.01h-6.02l-0.06,0.98l1.25,0.31
			c0.03,0.05,0.05,0.21,0.07,0.49c0.02,0.27,0.04,0.63,0.05,1.06c0.01,0.44,0.02,0.93,0.02,1.48v2.85c0,0.52-0.01,1-0.02,1.44
			c-0.01,0.44-0.03,0.79-0.05,1.06c-0.02,0.27-0.04,0.44-0.07,0.51l-1.25,0.31l0.06,0.98h6.72c0.42,0,0.88,0.01,1.4,0.04
			s0.95,0.05,1.32,0.08L368.03,752.95z M291.24,745.5l1.25,0.33c0.01,0.04,0.03,0.19,0.04,0.46c0.01,0.27,0.03,0.62,0.04,1.06
			c0.01,0.44,0.02,0.94,0.02,1.49v2.34c0,1.59,0.44,2.82,1.32,3.68c0.88,0.87,2.13,1.3,3.76,1.3c0.95,0,1.77-0.2,2.47-0.6
			c0.7-0.4,1.23-0.98,1.61-1.73c0.38-0.75,0.57-1.64,0.57-2.67v-1.97c0-0.6,0.01-1.14,0.02-1.64s0.03-0.9,0.05-1.2
			c0.02-0.31,0.04-0.48,0.05-0.52l1.25-0.33l-0.06-0.98h-4.36l-0.06,0.98l1.37,0.33c0.03,0.04,0.05,0.21,0.07,0.52
			c0.02,0.31,0.04,0.71,0.05,1.2s0.02,1.04,0.02,1.64v1.64c0,0.78-0.1,1.43-0.29,1.95c-0.2,0.52-0.49,0.91-0.89,1.16
			c-0.4,0.25-0.89,0.38-1.49,0.38c-0.6,0-1.11-0.13-1.52-0.39c-0.42-0.26-0.73-0.65-0.95-1.17c-0.21-0.52-0.32-1.16-0.32-1.91v-2.01
			c0-0.52,0.01-0.98,0.02-1.38c0.01-0.4,0.03-0.74,0.04-1.02c0.01-0.28,0.03-0.49,0.04-0.62l1.25-0.33l-0.06-0.98h-5.23
			L291.24,745.5z M229.93,752.63c0.34-0.01,0.77-0.02,1.31-0.02c0.51,0,0.94,0.01,1.29,0.02c0.35,0.01,0.65,0.02,0.9,0.02v-1.31
			c-0.25,0.01-0.54,0.03-0.89,0.05c-0.35,0.02-0.78,0.03-1.3,0.03c-0.55,0-0.98-0.01-1.31-0.03c-0.33-0.02-0.62-0.04-0.88-0.05v1.33
			C229.3,752.66,229.59,752.65,229.93,752.63 M229.77,755.99l0.06-0.98l-1.25-0.31l0.94-2.66l0.18-0.59l1.62-4.39l-0.57-0.16
			l1.95,4.61l0.22,0.66l1.05,2.52l-1.25,0.31l0.06,0.98h5.24l0.06-0.98l-1.01-0.31l-4.49-10.53l-1.64,0.92l-3.97,9.61l-1.02,0.31
			l0.06,0.98H229.77z M104.14,745.5l1.23,0.31c0,0.17,0,0.45,0.01,0.85c0.01,0.4,0,0.94-0.01,1.63l-0.06,3.65
			c0,0.42-0.01,0.82-0.02,1.21c-0.01,0.39-0.02,0.72-0.03,1c-0.01,0.27-0.02,0.46-0.03,0.55l-1.37,0.31l0.06,0.98h4.28l0.06-0.98
			l-1.35-0.31c-0.01-0.08-0.03-0.33-0.04-0.75c-0.01-0.42-0.02-1.14-0.02-2.14l-0.02-6.72h-1.23l5.21,10.96h1.23l4.65-10.96h-0.9
			l0.06,6.6c0.01,0.59,0.02,1.09,0.02,1.52c0,0.43,0,0.77-0.01,1.01c-0.01,0.25-0.02,0.4-0.03,0.47l-1.25,0.31l0.06,0.98h5.31
			l0.06-0.98l-1.25-0.31c-0.01-0.07-0.03-0.23-0.05-0.51c-0.02-0.27-0.04-0.62-0.07-1.05c-0.03-0.43-0.05-0.92-0.08-1.47l-0.12-3.42
			c-0.01-0.64-0.03-1.16-0.04-1.57c-0.01-0.41-0.01-0.71,0-0.89l1.25-0.29l-0.06-0.98h-4.12l-3.67,8.65h0.57l-4.08-8.65h-4.1
			L104.14,745.5z"/>
		<path class="st1" d="M75.31,82.06l-0.67,0.66l-2,2.62l-0.73,0.22l0.03,0.51h2.2l0.05-0.51l-0.74-0.22l1.56-2.19l0.67-0.66
			l1.84-2.34l0.72-0.23l-0.03-0.52h-2.14l-0.03,0.52l0.66,0.23L75.31,82.06z M78.53,85.56l-0.74-0.22l-2.11-2.84l-0.38-0.44
			l-1.39-1.91l0.66-0.23l-0.03-0.52h-2.55l-0.03,0.52l0.73,0.23l1.94,2.56l0.38,0.44l1.61,2.19l-0.73,0.22l0.03,0.51h2.58
			L78.53,85.56z M66.64,85.37c-0.3-0.09-0.56-0.22-0.77-0.38v-3.84c0.25-0.33,0.53-0.58,0.83-0.75c0.3-0.17,0.63-0.25,0.99-0.25
			c0.43,0,0.8,0.12,1.12,0.38s0.57,0.58,0.75,0.98s0.26,0.85,0.25,1.34c-0.01,0.55-0.11,1.03-0.31,1.43s-0.46,0.71-0.79,0.92
			c-0.33,0.21-0.72,0.32-1.17,0.32C67.24,85.51,66.94,85.46,66.64,85.37 M67.18,89.51l0.03-0.56l-1.28-0.17
			c-0.01-0.16-0.02-0.37-0.04-0.63c-0.02-0.27-0.02-0.61-0.02-1.02v-1.23c0.23,0.09,0.49,0.17,0.77,0.22
			c0.29,0.05,0.57,0.08,0.84,0.08c0.65,0,1.23-0.15,1.76-0.46c0.53-0.31,0.95-0.73,1.26-1.27c0.31-0.54,0.47-1.16,0.47-1.84
			c0-0.64-0.12-1.2-0.38-1.7s-0.6-0.89-1.05-1.19c-0.45-0.29-0.97-0.44-1.56-0.44c-0.41,0-0.78,0.09-1.12,0.27
			c-0.34,0.18-0.66,0.46-0.98,0.84l-0.05-0.02l0.08-0.83l-0.22-0.23l-1.91,0.53v0.47l1,0.22c0.03,0.17,0.06,0.43,0.08,0.77
			c0.02,0.35,0.03,0.68,0.03,1.01l-0.03,4.06c0,0.38,0,0.7-0.01,0.98c-0.01,0.28-0.01,0.51-0.01,0.71c-0.01,0.2-0.01,0.35-0.02,0.47
			c-0.01,0.12-0.01,0.2-0.01,0.25l-0.97,0.22l0.03,0.52H67.18z M54.82,85.01c-0.36-0.35-0.65-0.85-0.84-1.5
			c-0.2-0.65-0.3-1.4-0.3-2.25c0-1.21,0.2-2.15,0.6-2.82c0.4-0.67,0.96-1.01,1.66-1.01c0.71,0,1.27,0.39,1.7,1.17
			c0.42,0.78,0.63,1.85,0.63,3.2c0,0.74-0.09,1.39-0.27,1.96c-0.18,0.57-0.44,1.01-0.77,1.31c-0.33,0.31-0.71,0.46-1.15,0.46
			C55.61,85.54,55.19,85.36,54.82,85.01 M57.81,85.58c0.53-0.42,0.95-0.99,1.25-1.72c0.3-0.72,0.45-1.53,0.45-2.43
			c0-0.93-0.15-1.74-0.44-2.45c-0.29-0.7-0.7-1.25-1.22-1.64c-0.52-0.39-1.12-0.59-1.8-0.59c-0.7,0-1.32,0.2-1.88,0.62
			c-0.55,0.41-0.99,0.97-1.31,1.68c-0.32,0.71-0.48,1.53-0.48,2.45c0,0.94,0.15,1.76,0.44,2.46c0.3,0.7,0.72,1.25,1.27,1.65
			c0.55,0.4,1.19,0.59,1.91,0.59C56.68,86.21,57.28,86,57.81,85.58 M45.67,82.82c0.17-0.26,0.35-0.48,0.55-0.65
			c0.2-0.17,0.41-0.3,0.65-0.39c0.23-0.09,0.48-0.13,0.73-0.13c0.55,0,1,0.18,1.34,0.55c0.34,0.37,0.51,0.83,0.51,1.41
			c0,0.58-0.15,1.05-0.46,1.41c-0.31,0.35-0.7,0.53-1.18,0.53c-0.42,0-0.77-0.12-1.07-0.34c-0.3-0.23-0.52-0.56-0.68-0.98
			c-0.16-0.43-0.23-0.93-0.23-1.5c0-0.95,0.16-1.79,0.49-2.52c0.33-0.73,0.81-1.35,1.45-1.84c0.64-0.49,1.41-0.86,2.32-1.1
			l-0.2-0.62c-0.79,0.16-1.51,0.42-2.16,0.78c-0.65,0.37-1.2,0.82-1.66,1.36c-0.46,0.54-0.82,1.15-1.08,1.84
			c-0.26,0.68-0.38,1.42-0.38,2.21c0,0.71,0.13,1.32,0.38,1.82c0.25,0.5,0.62,0.9,1.09,1.17s1.01,0.41,1.62,0.41
			c0.53,0,1.02-0.13,1.48-0.4c0.45-0.26,0.81-0.62,1.08-1.06c0.26-0.44,0.4-0.92,0.4-1.45c0-0.5-0.12-0.94-0.35-1.33
			c-0.23-0.39-0.55-0.68-0.95-0.9c-0.4-0.21-0.85-0.32-1.36-0.32c-0.49,0-0.95,0.14-1.38,0.41c-0.43,0.28-0.76,0.66-1,1.15
			L45.67,82.82z M37.42,86.08c0.19,0,0.39-0.01,0.59-0.01h3.12c0.24,0,0.44,0,0.59,0.01c0.16,0.01,0.3,0.01,0.44,0.02
			c0.13,0.01,0.28,0.02,0.44,0.04l0.3-2.45l-0.53-0.06l-0.53,1.36c-0.03,0.02-0.1,0.04-0.2,0.05c-0.1,0.01-0.18,0.02-0.26,0.02
			h-3.45l-0.08,0.25c1.43-1.08,2.49-2.12,3.2-3.11c0.71-0.99,1.06-1.91,1.06-2.77c0-0.53-0.12-1-0.36-1.39
			c-0.24-0.39-0.57-0.7-0.99-0.93c-0.42-0.22-0.91-0.34-1.46-0.34c-0.64,0-1.2,0.17-1.7,0.52c-0.49,0.35-0.87,0.83-1.12,1.43
			l0.36,0.26c0.55-0.84,1.28-1.26,2.17-1.26c0.6,0,1.07,0.18,1.39,0.55c0.32,0.36,0.49,0.84,0.49,1.44c0,0.56-0.13,1.12-0.39,1.69
			c-0.26,0.56-0.69,1.18-1.28,1.86c-0.59,0.68-1.4,1.47-2.42,2.38l0.05,0.48C37.04,86.09,37.23,86.08,37.42,86.08"/>
		<path class="st1" d="M74.79,258.36l-0.67,0.66l-2,2.62l-0.73,0.22l0.03,0.51h2.2l0.05-0.51l-0.73-0.22l1.56-2.19l0.67-0.66
			l1.84-2.34l0.72-0.23l-0.03-0.52h-2.14l-0.03,0.52l0.66,0.23L74.79,258.36z M78.01,261.86l-0.73-0.22l-2.11-2.84l-0.38-0.44
			l-1.39-1.91l0.66-0.23l-0.03-0.52h-2.55l-0.03,0.52l0.74,0.23l1.94,2.56l0.38,0.44l1.61,2.19l-0.74,0.22l0.03,0.51h2.58
			L78.01,261.86z M66.13,261.67c-0.3-0.09-0.56-0.22-0.77-0.38v-3.84c0.25-0.33,0.53-0.58,0.83-0.75c0.3-0.17,0.63-0.25,0.98-0.25
			c0.43,0,0.8,0.12,1.12,0.38s0.57,0.58,0.75,0.98c0.18,0.4,0.26,0.85,0.25,1.34c-0.01,0.55-0.11,1.03-0.31,1.43
			c-0.19,0.4-0.46,0.71-0.79,0.92c-0.33,0.21-0.72,0.32-1.17,0.32C66.72,261.81,66.42,261.77,66.13,261.67 M66.67,265.81l0.03-0.56
			l-1.28-0.17c-0.01-0.16-0.02-0.37-0.04-0.63c-0.02-0.27-0.02-0.61-0.02-1.02v-1.23c0.23,0.09,0.49,0.17,0.77,0.22
			c0.29,0.05,0.57,0.08,0.84,0.08c0.65,0,1.23-0.15,1.76-0.46c0.53-0.31,0.94-0.73,1.26-1.27c0.31-0.54,0.47-1.16,0.47-1.84
			c0-0.64-0.12-1.2-0.38-1.7s-0.6-0.89-1.05-1.19c-0.45-0.29-0.97-0.44-1.56-0.44c-0.41,0-0.78,0.09-1.12,0.27
			c-0.34,0.18-0.66,0.46-0.98,0.84l-0.05-0.02l0.08-0.83l-0.22-0.23l-1.91,0.53v0.47l1,0.22c0.03,0.17,0.06,0.43,0.08,0.77
			c0.02,0.35,0.03,0.68,0.03,1.01l-0.03,4.06c0,0.38,0,0.7-0.01,0.98c-0.01,0.28-0.01,0.51-0.02,0.71c-0.01,0.2-0.01,0.35-0.01,0.47
			c-0.01,0.12-0.01,0.2-0.01,0.25l-0.97,0.22l0.03,0.52H66.67z M54.31,261.31c-0.37-0.35-0.65-0.85-0.84-1.5
			c-0.2-0.65-0.3-1.4-0.3-2.25c0-1.21,0.2-2.15,0.6-2.82c0.4-0.67,0.96-1.01,1.66-1.01c0.71,0,1.27,0.39,1.69,1.17
			c0.42,0.78,0.63,1.85,0.63,3.2c0,0.74-0.09,1.39-0.27,1.96c-0.18,0.57-0.44,1.01-0.76,1.31c-0.33,0.31-0.71,0.46-1.15,0.46
			C55.09,261.84,54.67,261.67,54.31,261.31 M57.29,261.88c0.53-0.42,0.95-0.99,1.25-1.72c0.3-0.72,0.45-1.53,0.45-2.43
			c0-0.93-0.15-1.74-0.44-2.45c-0.29-0.7-0.7-1.25-1.22-1.64c-0.52-0.39-1.12-0.59-1.8-0.59c-0.7,0-1.32,0.2-1.88,0.62
			c-0.55,0.41-0.99,0.97-1.3,1.68c-0.32,0.71-0.48,1.53-0.48,2.45c0,0.94,0.15,1.76,0.44,2.46c0.3,0.7,0.72,1.25,1.27,1.65
			c0.55,0.4,1.19,0.59,1.91,0.59C56.17,262.52,56.76,262.31,57.29,261.88 M44.88,262.38c0.19,0,0.39-0.01,0.59-0.01h3.12
			c0.24,0,0.44,0,0.59,0.01c0.16,0.01,0.3,0.01,0.44,0.02c0.14,0.01,0.28,0.02,0.44,0.04l0.3-2.45l-0.53-0.06l-0.53,1.36
			c-0.03,0.02-0.1,0.04-0.19,0.05c-0.1,0.01-0.19,0.02-0.26,0.02h-3.45l-0.08,0.25c1.43-1.08,2.49-2.12,3.2-3.11
			c0.71-0.99,1.06-1.91,1.06-2.77c0-0.53-0.12-1-0.36-1.39c-0.24-0.39-0.57-0.7-0.99-0.93c-0.42-0.22-0.91-0.34-1.46-0.34
			c-0.64,0-1.2,0.17-1.69,0.52c-0.49,0.35-0.87,0.83-1.12,1.43l0.36,0.26c0.55-0.84,1.28-1.26,2.17-1.26c0.6,0,1.07,0.18,1.39,0.55
			c0.32,0.36,0.49,0.84,0.49,1.44c0,0.56-0.13,1.12-0.39,1.69c-0.26,0.56-0.69,1.18-1.28,1.86c-0.59,0.68-1.4,1.47-2.42,2.38
			l0.05,0.48C44.49,262.4,44.68,262.39,44.88,262.38 M37.42,262.38c0.19,0,0.39-0.01,0.59-0.01h3.12c0.24,0,0.44,0,0.59,0.01
			c0.16,0.01,0.3,0.01,0.44,0.02c0.13,0.01,0.28,0.02,0.44,0.04l0.3-2.45l-0.53-0.06l-0.53,1.36c-0.03,0.02-0.1,0.04-0.2,0.05
			c-0.1,0.01-0.18,0.02-0.26,0.02h-3.45l-0.08,0.25c1.43-1.08,2.49-2.12,3.2-3.11c0.71-0.99,1.06-1.91,1.06-2.77
			c0-0.53-0.12-1-0.36-1.39c-0.24-0.39-0.57-0.7-0.99-0.93c-0.42-0.22-0.91-0.34-1.46-0.34c-0.64,0-1.2,0.17-1.7,0.52
			c-0.49,0.35-0.87,0.83-1.12,1.43l0.36,0.26c0.55-0.84,1.28-1.26,2.17-1.26c0.6,0,1.07,0.18,1.39,0.55
			c0.32,0.36,0.49,0.84,0.49,1.44c0,0.56-0.13,1.12-0.39,1.69c-0.26,0.56-0.69,1.18-1.28,1.86c-0.59,0.68-1.4,1.47-2.42,2.38
			l0.05,0.48C37.04,262.4,37.23,262.39,37.42,262.38"/>
		<path class="st1" d="M73.04,434.99l-0.67,0.66l-2,2.62l-0.73,0.22l0.03,0.51h2.2l0.05-0.51l-0.73-0.22l1.56-2.19l0.67-0.66
			l1.84-2.34l0.72-0.24l-0.03-0.51h-2.14l-0.03,0.51l0.66,0.24L73.04,434.99z M76.26,438.49l-0.73-0.22l-2.11-2.84l-0.38-0.44
			l-1.39-1.91l0.66-0.24l-0.03-0.51h-2.55l-0.03,0.51l0.74,0.24l1.94,2.56l0.38,0.44l1.61,2.19l-0.74,0.22l0.03,0.51h2.58
			L76.26,438.49z M64.38,438.3c-0.3-0.09-0.56-0.22-0.77-0.38v-3.84c0.25-0.33,0.53-0.58,0.83-0.75c0.3-0.17,0.63-0.25,0.98-0.25
			c0.43,0,0.8,0.12,1.12,0.38c0.32,0.25,0.57,0.57,0.75,0.98c0.18,0.4,0.26,0.85,0.25,1.34c-0.01,0.55-0.11,1.03-0.3,1.43
			c-0.19,0.4-0.46,0.71-0.79,0.92c-0.33,0.21-0.72,0.32-1.17,0.32C64.97,438.45,64.67,438.4,64.38,438.3 M64.92,442.45l0.03-0.56
			l-1.28-0.17c-0.01-0.16-0.02-0.37-0.04-0.63c-0.02-0.27-0.02-0.61-0.02-1.02v-1.23c0.23,0.09,0.49,0.17,0.77,0.22
			c0.29,0.05,0.56,0.08,0.84,0.08c0.65,0,1.23-0.15,1.76-0.46c0.53-0.31,0.94-0.73,1.26-1.27c0.31-0.54,0.47-1.16,0.47-1.84
			c0-0.64-0.12-1.2-0.38-1.7s-0.6-0.9-1.05-1.19c-0.45-0.29-0.97-0.44-1.56-0.44c-0.41,0-0.78,0.09-1.12,0.27
			c-0.34,0.18-0.66,0.46-0.98,0.84l-0.05-0.02l0.08-0.83l-0.22-0.23l-1.91,0.53v0.47l1,0.22c0.03,0.17,0.06,0.42,0.08,0.77
			s0.03,0.69,0.03,1.01l-0.03,4.06c0,0.38,0,0.7-0.01,0.98s-0.01,0.51-0.02,0.71s-0.01,0.35-0.01,0.47
			c-0.01,0.11-0.01,0.2-0.01,0.25l-0.97,0.22l0.03,0.52H64.92z M52.56,437.95c-0.37-0.35-0.65-0.85-0.84-1.5
			c-0.2-0.65-0.3-1.4-0.3-2.25c0-1.21,0.2-2.15,0.6-2.82s0.96-1.01,1.66-1.01c0.71,0,1.27,0.39,1.69,1.17
			c0.42,0.78,0.63,1.85,0.63,3.2c0,0.74-0.09,1.39-0.27,1.96c-0.18,0.57-0.44,1-0.77,1.31c-0.33,0.31-0.71,0.46-1.15,0.46
			C53.34,438.48,52.92,438.3,52.56,437.95 M55.54,438.52c0.53-0.42,0.95-0.99,1.25-1.72c0.3-0.72,0.45-1.53,0.45-2.43
			c0-0.93-0.15-1.74-0.44-2.45c-0.29-0.7-0.7-1.25-1.22-1.64c-0.52-0.39-1.12-0.59-1.8-0.59c-0.7,0-1.32,0.21-1.88,0.62
			c-0.55,0.41-0.99,0.97-1.3,1.68c-0.32,0.71-0.48,1.53-0.48,2.45c0,0.94,0.15,1.76,0.44,2.46c0.3,0.7,0.72,1.25,1.27,1.65
			c0.55,0.4,1.19,0.59,1.91,0.59C54.42,439.15,55.01,438.94,55.54,438.52 M47.03,431.99c0-0.38,0.01-0.75,0.01-1.11
			c0.01-0.36,0.02-0.74,0.03-1.11h-0.42l-4.78,6.11l0.09,0.47h6.49v-0.89h-5.64l-0.02,0.33l3.62-4.75l-0.38-0.02v5.33v1.4
			c0,0.26,0,0.43-0.01,0.54l-1.24,0.2l0.03,0.51h3.14l0.03-0.51l-0.92-0.2c-0.01-0.1-0.02-0.28-0.02-0.54
			c-0.01-0.26-0.01-0.72-0.01-1.4L47.03,431.99z M39.26,432.45c0-0.73,0-1.3,0.01-1.73c0.01-0.42,0.01-0.77,0.02-1.04l-2.44,1.11
			l0.05,0.59l1.27-0.3c0.02,0.26,0.04,0.53,0.05,0.8c0.02,0.27,0.02,0.54,0.02,0.8v3.36c0,0.42-0.01,0.78-0.01,1.09
			c-0.01,0.31-0.02,0.57-0.02,0.77s-0.01,0.33-0.02,0.39l-1.2,0.2l0.03,0.51h3.52l0.03-0.51l-1.24-0.2
			c-0.01-0.04-0.02-0.14-0.03-0.29c-0.01-0.15-0.02-0.39-0.02-0.7c-0.01-0.32-0.01-0.74-0.01-1.26V432.45z"/>
		<path class="st1" d="M66.92,547.5l-0.67,0.66l-2,2.62L63.51,551l0.03,0.52h2.2l0.05-0.52l-0.74-0.22l1.56-2.19l0.67-0.66
			l1.84-2.34l0.72-0.23l-0.03-0.52h-2.14l-0.03,0.52l0.66,0.23L66.92,547.5z M70.13,551l-0.73-0.22l-2.11-2.84l-0.38-0.44
			l-1.39-1.91l0.66-0.23l-0.03-0.52H63.6l-0.03,0.52l0.73,0.23l1.94,2.56l0.38,0.44l1.61,2.19L67.49,551l0.03,0.52h2.58L70.13,551z
			 M58.25,550.81c-0.3-0.09-0.56-0.22-0.77-0.38v-3.84c0.25-0.33,0.53-0.58,0.83-0.75c0.3-0.17,0.63-0.25,0.99-0.25
			c0.43,0,0.8,0.12,1.12,0.38c0.32,0.25,0.57,0.58,0.75,0.98c0.18,0.4,0.26,0.85,0.25,1.34c-0.01,0.55-0.11,1.03-0.31,1.43
			s-0.46,0.71-0.79,0.92c-0.33,0.21-0.72,0.32-1.17,0.32C58.85,550.95,58.55,550.91,58.25,550.81 M58.79,554.95l0.03-0.56
			l-1.28-0.17c-0.01-0.16-0.02-0.37-0.04-0.63c-0.02-0.27-0.02-0.61-0.02-1.02v-1.23c0.23,0.09,0.49,0.17,0.77,0.22
			c0.29,0.05,0.57,0.08,0.84,0.08c0.64,0,1.23-0.15,1.76-0.46c0.53-0.31,0.95-0.73,1.26-1.27c0.31-0.54,0.47-1.16,0.47-1.84
			c0-0.64-0.12-1.2-0.38-1.7s-0.6-0.9-1.05-1.19c-0.45-0.29-0.97-0.44-1.56-0.44c-0.41,0-0.78,0.09-1.12,0.27
			c-0.34,0.18-0.66,0.46-0.98,0.84l-0.05-0.02l0.08-0.83l-0.22-0.23l-1.91,0.53v0.47l1,0.22c0.03,0.17,0.06,0.42,0.08,0.77
			c0.02,0.35,0.03,0.68,0.03,1.01l-0.03,4.06c0,0.38,0,0.7-0.01,0.98c0,0.28-0.01,0.51-0.01,0.71c-0.01,0.2-0.01,0.35-0.02,0.47
			s-0.01,0.2-0.01,0.25l-0.97,0.22l0.03,0.52H58.79z M46.15,548.27c0.17-0.26,0.35-0.48,0.55-0.65c0.2-0.17,0.41-0.3,0.65-0.39
			c0.24-0.09,0.48-0.13,0.73-0.13c0.55,0,1,0.18,1.34,0.55c0.34,0.36,0.51,0.83,0.51,1.41c0,0.58-0.15,1.05-0.46,1.41
			c-0.31,0.35-0.7,0.53-1.18,0.53c-0.42,0-0.77-0.11-1.07-0.34s-0.52-0.56-0.68-0.98c-0.16-0.43-0.23-0.93-0.23-1.5
			c0-0.95,0.16-1.79,0.49-2.52c0.33-0.73,0.81-1.35,1.45-1.84c0.64-0.49,1.41-0.86,2.32-1.1l-0.2-0.62
			c-0.79,0.16-1.51,0.42-2.16,0.78s-1.2,0.82-1.66,1.36c-0.46,0.54-0.82,1.15-1.08,1.84c-0.26,0.68-0.38,1.42-0.38,2.21
			c0,0.71,0.13,1.32,0.38,1.82c0.26,0.51,0.62,0.9,1.09,1.17c0.47,0.28,1.01,0.41,1.62,0.41c0.53,0,1.02-0.13,1.48-0.4
			s0.81-0.62,1.08-1.06c0.27-0.44,0.4-0.92,0.4-1.45c0-0.5-0.12-0.94-0.35-1.33c-0.23-0.39-0.55-0.68-0.94-0.9
			c-0.4-0.21-0.85-0.32-1.36-0.32c-0.49,0-0.95,0.14-1.38,0.41c-0.43,0.28-0.76,0.66-1,1.15L46.15,548.27z M41.95,545.59
			c-0.17,0.25-0.35,0.46-0.56,0.64s-0.42,0.31-0.64,0.4c-0.22,0.09-0.47,0.13-0.73,0.13c-0.55,0-1-0.18-1.36-0.55
			s-0.53-0.83-0.53-1.41c0-0.58,0.16-1.05,0.47-1.41c0.31-0.36,0.71-0.54,1.19-0.54c0.42,0,0.77,0.12,1.06,0.35
			c0.29,0.23,0.52,0.56,0.67,0.98c0.16,0.42,0.24,0.92,0.24,1.51c0,0.94-0.17,1.77-0.49,2.49s-0.81,1.33-1.44,1.82
			c-0.63,0.49-1.41,0.86-2.34,1.11l0.23,0.62c0.78-0.16,1.5-0.41,2.15-0.77c0.65-0.36,1.21-0.81,1.66-1.35
			c0.46-0.54,0.81-1.15,1.07-1.83c0.25-0.68,0.38-1.41,0.38-2.19c0-0.71-0.13-1.32-0.38-1.82c-0.26-0.51-0.62-0.9-1.08-1.17
			c-0.46-0.28-1-0.41-1.62-0.41c-0.57,0-1.09,0.14-1.54,0.41c-0.45,0.28-0.81,0.64-1.06,1.08c-0.26,0.44-0.38,0.91-0.38,1.41
			c0,0.49,0.12,0.93,0.35,1.31c0.23,0.39,0.55,0.69,0.96,0.91c0.41,0.22,0.85,0.33,1.34,0.33c0.51,0,0.98-0.14,1.41-0.42
			c0.43-0.28,0.76-0.66,1-1.14L41.95,545.59z"/>
		<path class="st1" d="M67.82,643l-0.67,0.66l-2,2.62l-0.74,0.22l0.03,0.52h2.2l0.05-0.52l-0.74-0.22l1.56-2.19l0.67-0.66l1.84-2.34
			l0.72-0.23l-0.03-0.52h-2.14l-0.03,0.52l0.66,0.23L67.82,643z M71.04,646.5l-0.73-0.22l-2.11-2.84L67.82,643l-1.39-1.91l0.66-0.23
			l-0.03-0.52h-2.55l-0.03,0.52l0.73,0.23l1.94,2.56l0.38,0.44l1.61,2.19l-0.73,0.22l0.03,0.52h2.58L71.04,646.5z M59.16,646.31
			c-0.3-0.09-0.55-0.22-0.77-0.38v-3.84c0.25-0.33,0.53-0.58,0.83-0.75c0.3-0.17,0.63-0.25,0.99-0.25c0.43,0,0.8,0.12,1.12,0.38
			c0.32,0.25,0.57,0.58,0.75,0.98c0.18,0.4,0.26,0.85,0.25,1.34c-0.01,0.55-0.11,1.03-0.31,1.43s-0.46,0.71-0.79,0.92
			c-0.33,0.21-0.72,0.32-1.17,0.32C59.75,646.45,59.45,646.41,59.16,646.31 M59.7,650.45l0.03-0.56l-1.28-0.17
			c-0.01-0.16-0.02-0.37-0.04-0.63c-0.02-0.27-0.02-0.61-0.02-1.02v-1.23c0.23,0.09,0.49,0.17,0.77,0.22
			c0.29,0.05,0.57,0.08,0.84,0.08c0.65,0,1.23-0.15,1.76-0.46c0.53-0.31,0.95-0.73,1.26-1.27c0.31-0.54,0.47-1.16,0.47-1.84
			c0-0.64-0.12-1.2-0.38-1.7s-0.6-0.9-1.05-1.19c-0.45-0.29-0.97-0.44-1.56-0.44c-0.41,0-0.78,0.09-1.12,0.27
			c-0.34,0.18-0.66,0.46-0.98,0.84l-0.05-0.02l0.08-0.83l-0.22-0.23l-1.91,0.53v0.47l1,0.22c0.03,0.17,0.06,0.42,0.08,0.77
			s0.03,0.68,0.03,1.01l-0.03,4.06c0,0.38,0,0.7-0.01,0.98s-0.01,0.51-0.01,0.71c-0.01,0.2-0.01,0.35-0.02,0.47
			c0,0.11-0.01,0.2-0.01,0.25l-0.97,0.22l0.03,0.52H59.7z M47.34,645.95c-0.36-0.35-0.65-0.85-0.84-1.5c-0.2-0.65-0.3-1.4-0.3-2.25
			c0-1.21,0.2-2.15,0.6-2.82c0.4-0.67,0.96-1.01,1.66-1.01c0.71,0,1.27,0.39,1.7,1.17c0.42,0.78,0.63,1.85,0.63,3.2
			c0,0.74-0.09,1.39-0.27,1.96c-0.18,0.57-0.44,1.01-0.77,1.31c-0.33,0.31-0.71,0.46-1.15,0.46
			C48.12,646.48,47.7,646.31,47.34,645.95 M50.32,646.52c0.53-0.42,0.95-0.99,1.25-1.72c0.3-0.72,0.45-1.53,0.45-2.43
			c0-0.93-0.15-1.74-0.44-2.45c-0.29-0.7-0.7-1.25-1.22-1.64c-0.52-0.39-1.12-0.59-1.8-0.59c-0.7,0-1.32,0.21-1.88,0.62
			c-0.55,0.41-0.99,0.97-1.31,1.68c-0.32,0.71-0.48,1.53-0.48,2.45c0,0.94,0.15,1.76,0.45,2.46c0.3,0.7,0.72,1.25,1.27,1.65
			c0.55,0.4,1.19,0.59,1.91,0.59C49.2,647.16,49.79,646.95,50.32,646.52 M38.18,643.77c0.17-0.26,0.35-0.48,0.55-0.65
			c0.2-0.17,0.41-0.3,0.65-0.39c0.24-0.09,0.48-0.13,0.73-0.13c0.55,0,1,0.18,1.34,0.55c0.34,0.36,0.51,0.83,0.51,1.41
			c0,0.58-0.15,1.05-0.46,1.41c-0.31,0.35-0.7,0.53-1.18,0.53c-0.42,0-0.77-0.11-1.07-0.34c-0.3-0.23-0.52-0.56-0.68-0.98
			c-0.16-0.43-0.23-0.93-0.23-1.5c0-0.95,0.16-1.79,0.49-2.52c0.33-0.73,0.81-1.35,1.45-1.84c0.64-0.49,1.41-0.86,2.32-1.1
			l-0.2-0.62c-0.79,0.16-1.51,0.42-2.16,0.78c-0.65,0.36-1.2,0.82-1.66,1.36c-0.46,0.54-0.82,1.15-1.08,1.84
			c-0.26,0.68-0.38,1.42-0.38,2.21c0,0.71,0.13,1.32,0.38,1.82c0.25,0.51,0.62,0.9,1.09,1.17c0.47,0.28,1.01,0.41,1.62,0.41
			c0.53,0,1.02-0.13,1.48-0.4c0.45-0.27,0.81-0.62,1.08-1.06c0.27-0.44,0.4-0.92,0.4-1.45c0-0.5-0.12-0.94-0.35-1.33
			c-0.23-0.39-0.55-0.68-0.95-0.9c-0.4-0.21-0.85-0.32-1.36-0.32c-0.49,0-0.95,0.14-1.38,0.41c-0.43,0.28-0.76,0.66-1,1.15
			L38.18,643.77z"/>
		<path class="st1" d="M66.57,702.98l-0.67,0.66l-2,2.62l-0.74,0.22L63.2,707h2.2l0.05-0.52l-0.74-0.22l1.56-2.19l0.67-0.66
			l1.84-2.34l0.72-0.23l-0.03-0.52h-2.14l-0.03,0.52l0.66,0.23L66.57,702.98z M69.79,706.48l-0.73-0.22l-2.11-2.84l-0.38-0.44
			l-1.39-1.91l0.66-0.23l-0.03-0.52h-2.55l-0.03,0.52l0.73,0.23l1.94,2.56l0.38,0.44l1.61,2.19l-0.73,0.22l0.03,0.52h2.58
			L69.79,706.48z M57.91,706.3c-0.3-0.09-0.56-0.22-0.77-0.38v-3.84c0.25-0.33,0.53-0.58,0.83-0.75c0.3-0.17,0.63-0.25,0.99-0.25
			c0.43,0,0.8,0.12,1.12,0.38c0.32,0.25,0.57,0.58,0.75,0.98c0.18,0.4,0.26,0.85,0.25,1.34c-0.01,0.55-0.11,1.03-0.31,1.43
			s-0.46,0.71-0.79,0.92c-0.33,0.21-0.72,0.32-1.17,0.32C58.5,706.44,58.21,706.39,57.91,706.3 M58.45,710.44l0.03-0.56l-1.28-0.17
			c-0.01-0.16-0.02-0.37-0.04-0.63c-0.02-0.27-0.02-0.61-0.02-1.02v-1.23c0.23,0.09,0.49,0.17,0.77,0.22
			c0.29,0.05,0.57,0.08,0.84,0.08c0.64,0,1.23-0.15,1.76-0.46c0.53-0.31,0.95-0.73,1.26-1.27c0.31-0.54,0.47-1.16,0.47-1.84
			c0-0.64-0.12-1.2-0.38-1.7s-0.6-0.9-1.05-1.19c-0.45-0.29-0.97-0.44-1.56-0.44c-0.41,0-0.78,0.09-1.12,0.27
			c-0.34,0.18-0.66,0.46-0.98,0.84l-0.05-0.02l0.08-0.83l-0.22-0.23l-1.91,0.53v0.47l1,0.22c0.03,0.17,0.06,0.42,0.08,0.77
			s0.03,0.68,0.03,1.01l-0.03,4.06c0,0.38,0,0.7-0.01,0.98c0,0.28-0.01,0.51-0.01,0.71c-0.01,0.2-0.01,0.35-0.02,0.47
			c-0.01,0.11-0.01,0.2-0.01,0.25l-0.97,0.22l0.03,0.52H58.45z M49.43,699.98c0-0.38,0.01-0.74,0.02-1.11
			c0.01-0.36,0.02-0.73,0.03-1.11h-0.42l-4.78,6.11l0.09,0.47h6.48v-0.89h-5.64l-0.01,0.33l3.62-4.75l-0.38-0.02v5.33v1.4
			c0,0.26-0.01,0.43-0.02,0.54l-1.23,0.2l0.03,0.52h3.14l0.03-0.52l-0.92-0.2c-0.01-0.1-0.02-0.28-0.02-0.54
			c-0.01-0.26-0.01-0.72-0.01-1.4L49.43,699.98z M41.48,701.12c0.37-0.41,0.55-0.88,0.55-1.4c0-0.6-0.22-1.09-0.66-1.47
			c-0.44-0.38-1.02-0.56-1.73-0.56c-0.59,0-1.13,0.15-1.62,0.45c-0.48,0.3-0.85,0.7-1.09,1.2l0.38,0.27
			c0.26-0.33,0.56-0.58,0.89-0.73c0.33-0.16,0.68-0.23,1.05-0.23c0.52,0,0.93,0.12,1.23,0.38c0.3,0.25,0.45,0.6,0.45,1.06
			c0,0.55-0.2,0.99-0.6,1.31c-0.4,0.32-1.01,0.53-1.84,0.62l0.06,0.62c0.17-0.02,0.33-0.04,0.48-0.05s0.3-0.02,0.46-0.02
			c0.64,0,1.14,0.17,1.52,0.52s0.56,0.8,0.56,1.38c0,0.47-0.13,0.87-0.39,1.2c-0.26,0.33-0.61,0.57-1.06,0.71
			c-0.45,0.15-0.96,0.18-1.53,0.11l0.81,0.22l-0.92-0.78c-0.2-0.17-0.36-0.28-0.48-0.33c-0.12-0.05-0.26-0.08-0.43-0.08
			c-0.15,0-0.27,0.05-0.38,0.16s-0.16,0.23-0.16,0.38c0,0.22,0.09,0.41,0.26,0.58c0.18,0.17,0.42,0.3,0.74,0.39s0.69,0.14,1.12,0.14
			c0.63,0,1.2-0.13,1.74-0.4c0.53-0.27,0.96-0.62,1.29-1.05c0.33-0.44,0.49-0.92,0.49-1.45c0-0.7-0.24-1.25-0.73-1.66
			c-0.49-0.41-1.15-0.63-1.99-0.67l0.05,0.17C40.62,701.85,41.11,701.53,41.48,701.12"/>
		<path class="st1" d="M67.34,750.87l-0.67,0.66l-2,2.62l-0.73,0.22l0.03,0.52h2.2l0.05-0.52l-0.73-0.22l1.56-2.19l0.67-0.66
			l1.84-2.34l0.72-0.23l-0.03-0.52H68.1l-0.03,0.52l0.66,0.23L67.34,750.87z M70.56,754.37l-0.74-0.22l-2.11-2.84l-0.38-0.44
			l-1.39-1.91l0.66-0.23l-0.03-0.52h-2.55l-0.03,0.52l0.73,0.23l1.94,2.56l0.38,0.44l1.61,2.19l-0.73,0.22l0.03,0.52h2.58
			L70.56,754.37z M58.67,754.19c-0.3-0.09-0.56-0.22-0.77-0.38v-3.84c0.25-0.33,0.53-0.58,0.83-0.75c0.3-0.17,0.63-0.25,0.98-0.25
			c0.43,0,0.8,0.12,1.12,0.38c0.32,0.25,0.57,0.58,0.75,0.98c0.18,0.4,0.26,0.85,0.25,1.34c-0.01,0.55-0.11,1.03-0.31,1.43
			c-0.19,0.4-0.45,0.71-0.79,0.92c-0.33,0.21-0.72,0.32-1.17,0.32C59.27,754.33,58.97,754.28,58.67,754.19 M59.21,758.33l0.03-0.56
			l-1.28-0.17c-0.01-0.16-0.02-0.37-0.04-0.63c-0.02-0.27-0.02-0.61-0.02-1.02v-1.23c0.23,0.09,0.49,0.17,0.77,0.22
			c0.29,0.05,0.56,0.08,0.84,0.08c0.65,0,1.23-0.15,1.76-0.46c0.53-0.31,0.94-0.73,1.26-1.27c0.31-0.54,0.47-1.16,0.47-1.84
			c0-0.64-0.12-1.2-0.38-1.7s-0.6-0.9-1.05-1.19c-0.45-0.29-0.97-0.44-1.56-0.44c-0.41,0-0.78,0.09-1.12,0.27
			c-0.34,0.18-0.66,0.46-0.98,0.84l-0.05-0.02l0.08-0.83l-0.22-0.23l-1.91,0.53v0.47l1,0.22c0.03,0.17,0.06,0.42,0.08,0.77
			c0.02,0.35,0.03,0.68,0.03,1.01l-0.03,4.06c0,0.38,0,0.7-0.01,0.98c-0.01,0.28-0.01,0.51-0.02,0.71c-0.01,0.2-0.01,0.35-0.02,0.47
			c-0.01,0.11-0.01,0.2-0.01,0.25l-0.97,0.22l0.03,0.52H59.21z M46.85,753.83c-0.37-0.35-0.65-0.85-0.84-1.5
			c-0.2-0.65-0.3-1.4-0.3-2.25c0-1.21,0.2-2.15,0.6-2.82s0.96-1.01,1.66-1.01c0.71,0,1.27,0.39,1.69,1.17
			c0.42,0.78,0.63,1.85,0.63,3.2c0,0.74-0.09,1.39-0.27,1.96c-0.18,0.57-0.44,1.01-0.77,1.31c-0.33,0.31-0.71,0.46-1.15,0.46
			C47.64,754.36,47.22,754.18,46.85,753.83 M49.84,754.4c0.53-0.42,0.95-0.99,1.25-1.72c0.3-0.72,0.45-1.53,0.45-2.43
			c0-0.93-0.15-1.74-0.44-2.45c-0.29-0.7-0.7-1.25-1.22-1.64c-0.52-0.39-1.12-0.59-1.8-0.59c-0.7,0-1.32,0.21-1.88,0.62
			c-0.55,0.41-0.99,0.97-1.3,1.68c-0.32,0.71-0.48,1.53-0.48,2.45c0,0.94,0.15,1.76,0.44,2.46c0.3,0.7,0.72,1.25,1.27,1.65
			c0.55,0.4,1.19,0.59,1.91,0.59C48.71,755.03,49.31,754.82,49.84,754.4 M37.42,754.9c0.19-0.01,0.39-0.01,0.59-0.01h3.12
			c0.24,0,0.44,0,0.59,0.01c0.16,0.01,0.3,0.01,0.44,0.02c0.13,0.01,0.28,0.02,0.44,0.04l0.3-2.45l-0.53-0.06l-0.53,1.36
			c-0.03,0.02-0.1,0.04-0.2,0.05c-0.1,0.01-0.18,0.02-0.26,0.02h-3.45l-0.08,0.25c1.43-1.08,2.49-2.12,3.2-3.11
			c0.71-0.99,1.06-1.91,1.06-2.77c0-0.53-0.12-0.99-0.36-1.39c-0.24-0.4-0.57-0.71-0.99-0.93c-0.42-0.22-0.91-0.34-1.46-0.34
			c-0.64,0-1.2,0.17-1.7,0.52c-0.49,0.35-0.87,0.83-1.12,1.43l0.36,0.27c0.55-0.84,1.28-1.27,2.17-1.27c0.6,0,1.07,0.18,1.39,0.55
			c0.32,0.36,0.49,0.84,0.49,1.44c0,0.56-0.13,1.12-0.39,1.69c-0.26,0.56-0.69,1.18-1.28,1.86c-0.59,0.68-1.4,1.47-2.42,2.38
			l0.05,0.48C37.04,754.91,37.23,754.9,37.42,754.9"/>
		<path class="st1" d="M495.48,308.81h-79.92v14.18h79.92V308.81z M468.84,266.38c2.29-0.21,4.44-0.32,6.45-0.32
			c5.87,0,11.39,1,16.54,3.01c5.16,2.01,9.74,5.16,13.75,9.45c4.01,4.3,7.16,9.96,9.45,16.97c2.29,7.02,3.44,15.54,3.44,25.57
			c0,15.18-3.12,26.29-9.35,33.3c-6.23,7.02-15.43,10.53-27.61,10.53c-2.87,0-5.91-0.18-9.13-0.54c-3.22-0.36-6.48-0.82-9.78-1.4
			c-0.14-2-0.32-4.73-0.54-8.16c-0.22-3.44-0.36-7.2-0.43-11.28c-0.07-4.08-0.11-7.98-0.11-11.71v-31.37
			c0-6.59,0.03-12.14,0.11-16.65c0.07-4.51,0.14-8.16,0.21-10.96c0.07-2.79,0.11-4.62,0.11-5.48
			C464.26,266.91,466.55,266.59,468.84,266.38 M417.28,263.69l13.75,3.44c0.43,0.72,0.79,4.19,1.07,10.42
			c0.29,6.23,0.43,13.86,0.43,22.88v31.37c0,8.59-0.14,16.01-0.43,22.24c-0.29,6.23-0.64,9.85-1.07,10.85l-13.75,3.44l0.64,10.74
			h61.45c13.89,0,26.24-2.76,37.06-8.27c10.81-5.51,19.3-13.18,25.46-22.99c6.16-9.81,9.24-20.95,9.24-33.41
			c0-19.34-6.52-34.41-19.55-45.22c-13.03-10.81-31.15-16.22-54.36-16.22h-59.3L417.28,263.69z M154.6,290.98
			c0-6.45,0.03-12.07,0.11-16.86c0.07-4.8,0.18-7.84,0.32-9.13h7.95c7.88,0,13.71,1.9,17.51,5.69c3.79,3.8,5.69,8.92,5.69,15.36
			c0,7.16-1.93,12.64-5.8,16.44c-3.87,3.8-9.67,5.69-17.4,5.69c-2.01,0-3.83-0.03-5.48-0.11c-1.65-0.07-3.55-0.18-5.69-0.32v14.18
			c2-0.29,3.94-0.43,5.8-0.43h6.45c9.88,0,17.11,1.9,21.7,5.69c4.58,3.8,6.88,9.78,6.88,17.94c0,6.73-2.11,12-6.34,15.79
			c-4.23,3.8-10.21,5.69-17.94,5.69c-2.15,0-4.51-0.18-7.09-0.54c-2.58-0.36-4.59-0.82-6.01-1.4c-0.15-1.58-0.29-4.48-0.43-8.7
			c-0.14-4.22-0.21-9.2-0.21-14.93V290.98z M110.56,368.32l0.64,10.74h56.5c17.62,0,31.33-3.26,41.14-9.77
			c9.81-6.52,14.72-15.58,14.72-27.18c0-9.45-3.65-16.97-10.96-22.56c-7.3-5.58-17.76-8.66-31.37-9.24l-1.29,1.72
			c11.17-0.71,20.16-3.72,26.96-9.02c6.8-5.3,10.21-11.89,10.21-19.77c0-10.17-3.69-17.76-11.07-22.77
			c-7.38-5.01-18.66-7.52-33.84-7.52h-61.01l-0.64,10.53l13.75,3.65c0.43,0.72,0.79,4.19,1.07,10.42
			c0.29,6.23,0.43,13.86,0.43,22.88v31.37c0,8.59-0.14,16.01-0.43,22.24c-0.29,6.23-0.64,9.85-1.07,10.85L110.56,368.32z"/>
		<path class="st1" d="M200.17,184.93c3.81-0.17,9.86-0.25,18.15-0.25c7.95,0,13.96,0.09,18.03,0.25c4.06,0.17,6.77,0.25,8.12,0.25
			v-19.55c-3.39,0.17-7.03,0.43-10.92,0.76c-3.9,0.34-8.97,0.51-15.23,0.51c-6.44,0-11.47-0.17-15.11-0.51
			c-3.64-0.34-7.24-0.59-10.79-0.76v19.8C193.78,185.27,196.36,185.1,200.17,184.93 M204.62,226.06l0.76-14.47l-16.76-4.82
			l11.17-32.25l2.29-7.62l17.77-47.48l-8.63-5.59l24.12,54.34l2.79,9.4l12.44,29.2l-16.76,4.82l1.27,14.47h78.46l0.76-14.47
			l-13.46-4.82L240.42,72.45l-25.14,13.97l-51.29,120.35l-13.46,4.82l0.76,14.47H204.62z"/>
		<path class="st1" d="M503.41,496.73c-3.37-2.87-6.04-6.86-8-11.96c-1.96-5.1-2.94-11.03-2.94-17.77c0-9.2,1.78-16.41,5.33-21.6
			c3.56-5.2,8.48-7.79,14.77-7.79c4.38,0,8.16,1.43,11.35,4.31c3.19,2.87,5.7,6.9,7.52,12.1c1.82,5.2,2.73,11.3,2.73,18.32
			c0,6.11-0.71,11.3-2.12,15.59c-1.41,4.29-3.53,7.54-6.36,9.78c-2.83,2.23-6.34,3.35-10.53,3.35
			C510.71,501.04,506.79,499.6,503.41,496.73 M528.16,508.63c4.83-1.78,9.32-4.44,13.47-8c4.15-3.55,7.52-7.97,10.12-13.26
			c2.6-5.29,3.9-11.44,3.9-18.46c0-8.02-1.78-15.04-5.33-21.05c-3.55-6.02-8.43-10.73-14.63-14.15c-6.2-3.42-13.35-5.13-21.46-5.13
			c-8.39,0-15.86,1.83-22.42,5.47c-6.56,3.65-11.69,8.66-15.38,15.04c-3.69,6.38-5.54,13.67-5.54,21.88
			c0,7.84,1.85,14.79,5.54,20.85c3.69,6.06,8.8,10.82,15.31,14.29c6.52,3.46,13.97,5.2,22.35,5.2
			C518.63,511.29,523.33,510.4,528.16,508.63 M412.68,452.23c0-4.1,0.07-8.14,0.2-12.1c0.14-3.96,0.3-7.59,0.48-10.87h-10.53
			l-44.43,54l1.23,6.43h64.8v-11.62h-52.5l0.68,2.87l24.2-32.54l-2.05-0.82v42.11v7.66c0,1.46-0.05,2.69-0.14,3.69l-11.76,2.19
			l0.41,6.84h38.28l0.41-6.84l-8.75-2.19c-0.09-1-0.18-2.23-0.27-3.69c-0.09-1.46-0.14-4.01-0.14-7.66L412.68,452.23z
			 M300.08,484.77l-49.49-54.96h-21.6l-0.41,6.84l8.61,2.19c0.09,0.55,0.21,1.73,0.34,3.55c0.14,1.82,0.27,3.97,0.41,6.43
			c0.14,2.46,0.21,4.92,0.21,7.38v18.18c0,4.56-0.05,8.77-0.14,12.65c-0.09,3.88-0.21,7.02-0.34,9.43c-0.14,2.42-0.3,3.94-0.48,4.58
			l-8.61,2.19l0.41,6.84h29.53l0.41-6.84l-9.43-2.19c-0.27-0.64-0.48-2.12-0.62-4.44c-0.14-2.32-0.25-5.38-0.34-9.16
			c-0.09-3.78-0.14-8.13-0.14-13.06v-27.21h-7.25l54.96,63.57h8.34v-9.64v-11.28v-25.98c0-4.46,0.05-8.52,0.14-12.17
			c0.09-3.65,0.21-6.58,0.34-8.82c0.14-2.23,0.25-3.58,0.34-4.03l8.75-2.19l-0.41-6.84h-29.12l-0.41,6.84l9.57,2.19
			c0.18,0.46,0.34,1.83,0.48,4.1c0.14,2.28,0.23,5.22,0.27,8.82c0.05,3.6,0.07,7.64,0.07,12.1v20.92H300.08z M169.63,509.17
			c4.88-1.41,8.73-3.03,11.55-4.85l3.96-18.18l-9.16-0.96l-4.92,12.58c-1.64,1.37-3.67,2.39-6.08,3.08
			c-2.42,0.68-4.9,1.03-7.45,1.03c-4.83,0-9.21-1.37-13.12-4.1c-3.92-2.73-7.04-6.63-9.36-11.69c-2.32-5.06-3.49-11.1-3.49-18.12
			c0-6.2,0.96-11.57,2.87-16.13c1.91-4.56,4.69-8.07,8.34-10.53c3.64-2.46,8.11-3.69,13.4-3.69c2.19,0,4.33,0.23,6.43,0.68
			c2.1,0.46,4.01,1.14,5.74,2.05l4.79,14.36l8.48-0.55l-0.96-20.92c-2.92-1.37-6.47-2.48-10.66-3.35c-4.19-0.87-8.39-1.3-12.58-1.3
			c-6.93,0-13.31,0.98-19.14,2.94c-5.83,1.96-10.92,4.79-15.24,8.48c-4.33,3.69-7.66,8.18-9.98,13.47
			c-2.32,5.29-3.49,11.21-3.49,17.77c0,8.48,1.89,15.7,5.67,21.67c3.78,5.97,9.04,10.53,15.79,13.67
			c6.74,3.15,14.54,4.72,23.38,4.72C159.67,511.29,164.76,510.59,169.63,509.17"/>
		<path class="st1" d="M518.63,141.22c-6.6-39.2-42.47-69.16-85.75-69.16s-79.15,29.96-85.75,69.16
			c-1.11,6.59,2.91,12.78,8.19,12.78l55.31-13.19l-5.16,59.85c0,15.07,12.33,27.4,27.4,27.4c15.07,0,27.4-12.33,27.4-27.4
			l-5.16-59.85L510.44,154C515.72,154,519.74,147.81,518.63,141.22"/>
		<path class="st1" d="M255.56,543.53c-6.56,0-11.88,5.32-11.88,11.88c0,1.47,0.27,2.88,0.76,4.18c-1.27-0.8-2.66-1.45-4.13-1.89
			c1.56-2.01,2.49-4.53,2.49-7.27c0-6.56-5.32-11.88-11.88-11.88s-11.88,5.32-11.88,11.88c0,2.42,0.73,4.67,1.97,6.54l-17.7,0
			c-0.1,0-0.2-0.01-0.3-0.01c-1.32,0-2.56,0.35-3.63,0.95c-0.83-0.61-2.17-1-3.7-1c-2.52,0-4.56,1.08-4.56,2.41
			c0,1.33,2.04,2.41,4.56,2.41c0.14,0,0.28-0.01,0.42-0.01c-0.31,0.82-0.48,1.7-0.48,2.62c0,2.76,1.52,5.17,3.76,6.43l0,0
			l26.19,16.83c2.78,1.99,6.18,3.17,9.85,3.17c9.34,0,16.91-7.57,16.91-16.91c0-2.8-0.68-5.43-1.89-7.76
			c1.55,0.74,3.29,1.16,5.12,1.16c6.56,0,11.88-5.32,11.88-11.88C267.44,548.85,262.12,543.53,255.56,543.53"/>
		<path class="st1" d="M486.63,647.22c0-0.72-0.22-1.39-0.6-1.95c0.45-0.59,0.71-1.32,0.71-2.11c0-1.93-1.56-3.49-3.49-3.49
			c-0.98,0-1.86,0.4-2.5,1.05c-0.6-0.48-1.36-0.78-2.19-0.78c-0.5,0-0.98,0.11-1.41,0.3c-0.6-1.05-1.73-1.75-3.02-1.75
			c-1.1,0-2.08,0.51-2.71,1.3c-0.55-0.36-1.2-0.57-1.9-0.57c-0.68,0-1.32,0.2-1.86,0.54c-0.6-0.47-1.35-0.76-2.17-0.76
			c-1.32,0-2.46,0.73-3.06,1.8c-0.63-0.62-1.49-1-2.44-1c-1.93,0-3.49,1.56-3.49,3.49c0,0.22,0.02,0.43,0.06,0.63
			c-0.89,0.09-1.67,0.51-2.24,1.14c-0.49-0.27-1.06-0.42-1.66-0.42c-1.91,0-3.46,1.54-3.49,3.44c-0.47-0.18-0.99-0.27-1.52-0.23
			c-1.92,0.15-3.36,1.82-3.22,3.74c0.01,0.06,0.01,0.11,0.02,0.17c-0.41,0.17-0.8,0.42-1.14,0.76c-1.36,1.36-1.36,3.57,0,4.94
			c0.42,0.42,0.91,0.7,1.43,0.86v13.27c0,0.56,0.46,1.01,1.01,1.01l38.76-8.37c0.51-0.11,1.01-0.46,1.01-1.01v-8.9
			c0.73-0.64,1.19-1.58,1.19-2.62c0-0.89-0.33-1.7-0.88-2.31C486.34,648.81,486.63,648.05,486.63,647.22"/>
		<path class="st1" d="M185.82,744.07c-1.48,0-2.84,0.54-3.89,1.43c-0.72,0.53-2.45,1.67-4.14,1.67c-1.85,0-2.7-0.85-2.93-1.13
			c-0.02-0.02-0.07-0.08-0.07-0.08c-0.96-1.16-2.42-1.9-4.04-1.9c-2.9,0-5.25,2.35-5.25,5.25c0,0.03,0,0.07,0,0.1v6.65l2.63-1.53
			c0.52,0.91,1.5,1.53,2.62,1.53c3.29,0,4.89-1.58,7.07-1.58c2.36,0,4.9,1.58,8,1.58c3.31,0,6-2.68,6-6S189.13,744.07,185.82,744.07
			"/>
		<line class="st3" x1="103.26" y1="405.06" x2="561.66" y2="405.06"/>
		<line class="st4" x1="103.26" y1="617.06" x2="561.66" y2="617.06"/>
		<path class="st5" d="M384.43,315.43c0-30.48-21.64-55.9-50.4-61.74v26.1c14.68,5.19,25.2,19.18,25.2,35.64
			c0,20.88-16.92,37.8-37.8,37.8c-20.88,0-37.8-16.92-37.8-37.8c0-16.45,10.52-30.45,25.19-35.64v-26.1
			c-28.75,5.84-50.39,31.26-50.39,61.74c0,34.79,28.21,63,63,63S384.43,350.23,384.43,315.43"/>
		<path class="st1" d="M65.87,34.44c0.42-0.2,0.76-0.46,1-0.79c0.24-0.33,0.36-0.71,0.36-1.13c0-0.41-0.1-0.75-0.29-1.03
			c-0.2-0.27-0.45-0.51-0.75-0.7s-0.63-0.37-0.97-0.53c-0.34-0.16-0.67-0.32-0.97-0.49c-0.31-0.17-0.56-0.37-0.75-0.6
			c-0.2-0.23-0.29-0.52-0.29-0.85c0-0.37,0.14-0.68,0.44-0.92c0.29-0.24,0.68-0.36,1.16-0.36c0.49,0,0.88,0.1,1.16,0.29l0.37,1.09
			l0.51-0.05l-0.1-1.61c-0.15-0.07-0.31-0.13-0.5-0.18c-0.19-0.05-0.39-0.08-0.6-0.1c-0.21-0.02-0.44-0.03-0.69-0.03
			c-0.54,0-1.02,0.09-1.44,0.28c-0.42,0.19-0.75,0.44-0.99,0.77c-0.24,0.33-0.36,0.71-0.36,1.13c0,0.43,0.1,0.78,0.29,1.07
			c0.2,0.28,0.45,0.52,0.75,0.72c0.3,0.2,0.63,0.38,0.97,0.53c0.34,0.15,0.67,0.31,0.97,0.48s0.56,0.35,0.75,0.57
			c0.2,0.21,0.29,0.49,0.29,0.81c0,0.4-0.15,0.72-0.44,0.94c-0.29,0.23-0.67,0.34-1.12,0.34c-0.32,0-0.61-0.04-0.88-0.12
			c-0.27-0.08-0.52-0.2-0.76-0.34l-0.36-1.16l-0.51,0.05l0.07,1.7c0.26,0.15,0.59,0.27,1,0.36c0.41,0.1,0.81,0.14,1.22,0.14
			C64.96,34.74,65.44,34.64,65.87,34.44 M59.45,31.8v-2.64h-0.53l-0.16,0.97c-0.05,0.02-0.13,0.03-0.23,0.03
			c-0.1,0-0.22,0.01-0.37,0.01h-1.12c-0.11,0-0.24,0-0.38-0.01c-0.14-0.01-0.29-0.01-0.46-0.02v0.7c0.16-0.01,0.32-0.02,0.46-0.03
			c0.14-0.01,0.27-0.01,0.38-0.01h1.12c0.15,0,0.27,0.01,0.37,0.01c0.1,0.01,0.18,0.02,0.23,0.04l0.16,0.94H59.45z M60.9,32.74
			l-0.55-0.11l-0.71,1.29c-0.04,0.01-0.1,0.02-0.18,0.03c-0.08,0.01-0.19,0.02-0.31,0.02c-0.13,0-0.29,0.01-0.48,0.01h-1.49
			c-0.15,0-0.28,0-0.41-0.01c-0.13-0.01-0.25-0.02-0.37-0.04c0-0.05,0-0.14-0.01-0.28c-0.01-0.14-0.01-0.3-0.01-0.47
			c0-0.17-0.01-0.34-0.01-0.49v-3.92c0-0.19,0-0.4,0.01-0.62c0.01-0.22,0.01-0.41,0.01-0.58c0.01-0.17,0.01-0.27,0.01-0.31
			c0.13-0.02,0.25-0.03,0.38-0.03c0.12-0.01,0.27-0.01,0.44-0.01h1.69c0.1,0,0.2,0,0.29,0.01c0.09,0,0.16,0.01,0.22,0.02l0.45,1.14
			l0.56-0.08l-0.25-1.75c-0.19,0.02-0.35,0.03-0.48,0.04c-0.13,0.01-0.25,0.01-0.36,0.01h-0.33h-4.44l-0.03,0.46l0.82,0.19
			c0.02,0.04,0.03,0.13,0.03,0.29c0,0.15,0.01,0.38,0.01,0.66c0,0.29,0.01,0.64,0.01,1.05v2.73c0,0.4,0,0.74-0.01,1.03
			c0,0.28-0.01,0.5-0.01,0.66c0,0.15-0.02,0.26-0.03,0.3l-0.82,0.19l0.03,0.46h4.69c0.16,0,0.31,0,0.47,0.01
			c0.16,0,0.37,0.02,0.64,0.06L60.9,32.74z M53.49,32.47L53,32.43l-0.59,1.49c-0.06,0.02-0.14,0.03-0.22,0.04
			c-0.08,0.01-0.17,0.01-0.26,0.01h-3.34v0.44l4.53-7.42v-0.42c-0.17,0.01-0.34,0.02-0.51,0.02c-0.17,0-0.34,0.01-0.51,0.01h-3.71
			h-0.52c-0.17,0-0.36-0.01-0.56-0.01l0.01,2.05h0.51l0.16-1.38c0.12-0.02,0.24-0.03,0.38-0.03c0.13-0.01,0.28-0.01,0.46-0.01h3.28
			l-0.04-0.41l-4.53,7.41v0.44c0.17-0.01,0.32-0.02,0.47-0.02c0.15-0.01,0.31-0.01,0.48-0.01H52c0.14,0,0.27,0,0.39,0.01
			c0.12,0,0.25,0.01,0.38,0.01c0.13,0.01,0.27,0.02,0.42,0.03L53.49,32.47z M45.91,34.61l0.03-0.46l-0.83-0.19
			c-0.01-0.04-0.02-0.12-0.03-0.25c-0.01-0.13-0.02-0.34-0.03-0.62c0-0.28-0.01-0.65-0.01-1.11v-2.73c0-0.47,0-0.85,0.01-1.13
			c0-0.28,0.01-0.48,0.03-0.62c0.01-0.14,0.02-0.22,0.03-0.25l0.83-0.19l-0.03-0.46h-2.69l-0.03,0.46l0.83,0.19
			c0.01,0.04,0.02,0.13,0.02,0.29c0.01,0.15,0.01,0.37,0.01,0.66c0,0.28,0.01,0.63,0.01,1.05v2.73c0,0.41,0,0.75-0.01,1.03
			c-0.01,0.28-0.01,0.49-0.01,0.65c0,0.15-0.01,0.26-0.02,0.3l-0.83,0.19l0.03,0.46H45.91z M40.56,34.44c0.42-0.2,0.76-0.46,1-0.79
			c0.24-0.33,0.36-0.71,0.36-1.13c0-0.41-0.1-0.75-0.29-1.03c-0.2-0.27-0.45-0.51-0.75-0.7c-0.31-0.2-0.63-0.37-0.97-0.53
			c-0.34-0.16-0.67-0.32-0.97-0.49s-0.56-0.37-0.75-0.6c-0.2-0.23-0.29-0.52-0.29-0.85c0-0.37,0.15-0.68,0.44-0.92
			c0.29-0.24,0.68-0.36,1.16-0.36c0.49,0,0.88,0.1,1.16,0.29l0.37,1.09l0.51-0.05l-0.1-1.61c-0.15-0.07-0.31-0.13-0.5-0.18
			c-0.19-0.05-0.39-0.08-0.6-0.1c-0.22-0.02-0.44-0.03-0.69-0.03c-0.54,0-1.02,0.09-1.43,0.28c-0.42,0.19-0.75,0.44-0.99,0.77
			c-0.24,0.33-0.36,0.71-0.36,1.13c0,0.43,0.1,0.78,0.29,1.07c0.2,0.28,0.45,0.52,0.75,0.72c0.31,0.2,0.63,0.38,0.97,0.53
			c0.34,0.15,0.67,0.31,0.97,0.48c0.31,0.16,0.56,0.35,0.75,0.57c0.2,0.21,0.29,0.49,0.29,0.81c0,0.4-0.15,0.72-0.44,0.94
			c-0.29,0.23-0.67,0.34-1.12,0.34c-0.32,0-0.61-0.04-0.88-0.12c-0.27-0.08-0.52-0.2-0.76-0.34l-0.35-1.16l-0.51,0.05l0.07,1.7
			c0.25,0.15,0.59,0.27,1,0.36c0.41,0.1,0.82,0.14,1.22,0.14C39.65,34.74,40.14,34.64,40.56,34.44"/>
	</g>
</g>
</svg>
