<svg width="404" height="567" viewBox="0 0 404 567" fill="none" xmlns="http://www.w3.org/2000/svg">
<path d="M5.7852 567L2.8926 531.261L58.8162 517.738C59.459 514.518 60.1018 503.571 60.7446 484.896C62.0302 466.221 62.673 431.77 62.673 381.542L63.6372 181.595C63.6372 133.298 62.9944 100.135 61.7088 82.1039C61.066 64.0733 60.1018 53.448 58.8162 50.2283L0 35.7394L2.8926 0H204.411C267.405 0 316.258 14.167 350.969 42.5009C386.323 70.8348 404 111.082 404 163.242C404 199.303 394.679 230.535 376.038 256.937C358.04 282.695 333.613 302.98 302.759 317.79C272.547 331.957 238.8 339.041 201.518 339.041C189.947 339.041 179.02 338.719 168.735 338.075C159.093 336.787 149.772 335.499 140.773 334.211L141.737 381.542C141.737 415.027 141.737 441.107 141.737 459.782C142.38 478.457 143.023 491.98 143.666 500.351C144.309 508.722 144.951 514.196 145.594 516.772L225.623 529.329L222.73 567H5.7852ZM140.773 181.595V284.949C151.701 287.525 161.664 289.457 170.663 290.744C180.305 292.032 189.626 292.676 198.625 292.676C237.193 292.676 267.405 283.339 289.26 264.664C311.115 245.346 322.043 215.402 322.043 174.833C322.043 129.112 309.83 95.6269 285.403 74.3765C261.62 52.4821 231.408 41.5349 194.768 41.5349H142.702C142.059 47.3305 141.416 64.0733 140.773 91.7632C140.773 119.453 140.773 149.397 140.773 181.595Z" fill="black"/>
</svg>
