<svg width="536" height="695" viewBox="0 0 536 695" fill="none" xmlns="http://www.w3.org/2000/svg">
<g filter="url(#filter0_d)">
<path fill-rule="evenodd" clip-rule="evenodd" d="M334.275 459.328C333.275 458.423 331.962 457.86 330.337 457.641C328.712 457.422 326.963 457.438 325.087 457.687L324.9 463.312C324.837 465.438 324.181 467.188 322.931 468.562C321.68 469.938 319.962 470.625 317.775 470.625C316.336 470.625 314.508 470.376 312.291 469.875C310.071 469.375 307.556 469.125 304.744 469.125C298.744 469.125 293.461 470.376 288.9 472.875C284.337 475.375 280.774 478.813 278.212 483.187C275.649 487.563 274.369 492.562 274.369 498.187C274.369 503.563 275.634 508.328 278.166 512.484C280.697 516.641 284.196 519.907 288.666 522.281C293.133 524.657 298.243 525.844 303.994 525.844C307.118 525.844 310.336 525.234 313.65 524.016C316.962 522.797 320.04 520.969 322.884 518.531C325.728 516.094 328.041 513.063 329.822 509.437C331.603 505.813 332.494 501.595 332.494 496.781C332.494 491.657 331.416 487.11 329.259 483.14C327.103 479.172 324.181 476.032 320.494 473.719L314.306 475.219C318.556 476.219 322.306 476.219 325.556 475.219C328.805 474.22 331.322 472.641 333.103 470.484C334.884 468.328 335.775 466.063 335.775 463.687C335.775 461.688 335.274 460.235 334.275 459.328ZM296.681 515.859C294.368 513.891 292.54 511.157 291.197 507.656C289.852 504.157 289.181 500.095 289.181 495.469C289.181 489.157 290.4 484.219 292.837 480.656C295.275 477.094 298.65 475.312 302.962 475.312C305.962 475.312 308.555 476.297 310.744 478.265C312.931 480.234 314.649 483 315.9 486.562C317.149 490.125 317.775 494.313 317.775 499.125C317.775 503.437 317.274 507.047 316.275 509.953C315.274 512.859 313.805 515.062 311.869 516.562C309.931 518.062 307.556 518.812 304.744 518.812C301.681 518.812 298.993 517.828 296.681 515.859ZM377.156 474.656L383.156 476.156C383.344 476.47 383.499 477.984 383.625 480.703C383.749 483.422 383.812 486.75 383.812 490.687V504.375C383.812 508.125 383.749 511.359 383.625 514.078C383.499 516.797 383.344 518.376 383.156 518.812L377.156 520.312L377.437 525H404.25C410.311 525 415.702 523.797 420.422 521.391C425.14 518.985 428.843 515.641 431.531 511.359C434.218 507.079 435.562 502.219 435.562 496.781C435.562 488.344 432.718 481.766 427.031 477.047C421.343 472.328 413.437 469.969 403.312 469.969H377.437L377.156 474.656ZM399.656 475.828C400.655 475.734 401.593 475.687 402.469 475.687C405.031 475.687 407.437 476.125 409.687 477C411.937 477.876 413.937 479.25 415.687 481.125C417.436 483 418.812 485.47 419.812 488.531C420.811 491.594 421.312 495.313 421.312 499.687C421.312 506.313 419.953 511.157 417.234 514.219C414.516 517.282 410.499 518.812 405.187 518.812C403.936 518.812 402.609 518.735 401.203 518.578C399.797 518.423 398.374 518.219 396.937 517.969C396.874 517.094 396.797 515.906 396.703 514.406C396.609 512.906 396.546 511.266 396.516 509.484C396.483 507.703 396.469 506.001 396.469 504.375V490.687C396.469 487.813 396.483 485.39 396.516 483.422C396.546 481.453 396.577 479.859 396.609 478.64C396.64 477.422 396.656 476.625 396.656 476.25C397.655 476.062 398.656 475.922 399.656 475.828ZM527.569 508.687L521.944 508.031L518.006 518.625C517.193 518.812 516.443 518.938 515.756 519C515.068 519.063 514.162 519.094 513.037 519.094H495.506V522.937L524.569 474.656V469.781C523.381 469.844 522.162 469.891 520.912 469.922C519.661 469.954 518.443 469.969 517.256 469.969H490.444C489.256 469.969 487.803 469.954 486.084 469.922C484.365 469.891 482.756 469.844 481.256 469.781L481.444 485.625H487.256L489.037 475.969C489.975 475.844 491.006 475.72 492.131 475.594C493.256 475.469 494.787 475.406 496.725 475.406H512.569V471.469L482.944 520.406V525.281C484.13 525.155 485.349 525.078 486.6 525.047C487.849 525.015 489.099 525 490.35 525H512.194C513.319 525 514.693 525.031 516.319 525.094C517.943 525.155 519.537 525.218 521.1 525.281C522.661 525.343 523.88 525.406 524.756 525.469L527.569 508.687Z" fill="#231F20"/>
<path fill-rule="evenodd" clip-rule="evenodd" d="M210.019 524.016C213.331 522.797 216.409 520.969 219.253 518.532C222.097 516.094 224.41 513.063 226.191 509.438C227.972 505.814 228.863 501.595 228.863 496.782C228.863 491.283 227.644 486.469 225.207 482.344C222.769 478.219 219.425 474.985 215.175 472.641C210.924 470.297 206.019 469.125 200.456 469.125C194.706 469.125 189.581 470.376 185.081 472.875C180.581 475.376 177.066 478.814 174.535 483.188C172.003 487.563 170.738 492.563 170.738 498.188C170.738 503.564 172.003 508.329 174.535 512.485C177.066 516.642 180.565 519.907 185.035 522.282C189.502 524.658 194.612 525.844 200.363 525.844C203.487 525.844 206.706 525.235 210.019 524.016ZM193.05 515.86C190.737 513.891 188.909 511.158 187.566 507.657C186.221 504.157 185.55 500.095 185.55 495.469C185.55 489.157 186.769 484.219 189.206 480.657C191.644 477.094 195.019 475.313 199.331 475.313C202.332 475.313 204.924 476.297 207.113 478.266C209.3 480.235 211.018 483 212.269 486.563C213.519 490.125 214.144 494.313 214.144 499.125C214.144 503.313 213.659 506.876 212.691 509.813C211.721 512.751 210.268 514.985 208.332 516.516C206.394 518.048 203.987 518.813 201.113 518.813C198.05 518.813 195.362 517.829 193.05 515.86Z" fill="#FEFEFE"/>
<path fill-rule="evenodd" clip-rule="evenodd" d="M98.6062 525L98.8872 520.313L93.6372 518.719C93.5742 517.969 93.5112 516.766 93.4502 515.109C93.3872 513.454 93.3402 511.657 93.3092 509.719C93.2772 507.782 93.2622 506.001 93.2622 504.375V489.937V484.641V480.141C93.2622 478.797 93.2772 477.688 93.3092 476.812C93.3402 475.938 93.3872 475.406 93.4502 475.219H97.0122C100.074 475.219 102.403 475.985 103.997 477.516C105.59 479.048 106.387 481.282 106.387 484.219C106.387 487.406 105.434 489.954 103.528 491.859C101.621 493.767 99.1062 494.719 95.9812 494.719H91.7622V500.156H97.8562C102.106 500.156 105.872 499.469 109.153 498.094C112.434 496.72 115.012 494.829 116.887 492.422C118.762 490.017 119.7 487.282 119.7 484.219C119.7 479.282 117.98 475.673 114.544 473.391C111.106 471.11 105.793 469.969 98.6062 469.969H74.3252L74.0442 474.656L80.0442 476.156C80.1682 476.407 80.2782 477.187 80.3722 478.5C80.4652 479.812 80.5432 481.516 80.6062 483.609C80.6682 485.704 80.7002 488.062 80.7002 490.687V504.375C80.7002 505.563 80.6842 506.906 80.6532 508.406C80.6212 509.906 80.5902 511.375 80.5592 512.812C80.5272 514.251 80.4962 515.5 80.4652 516.562C80.4332 517.626 80.4192 518.344 80.4192 518.719L74.4192 520.313L74.7002 525H98.6062ZM126.59 525.984C127.559 525.891 128.543 525.75 129.543 525.562L129.637 521.25C128.074 520.813 126.605 520.204 125.231 519.422C123.856 518.641 122.543 517.626 121.293 516.375C120.043 515.125 118.762 513.595 117.45 511.781L106.293 496.219L95.8872 498.656L101.231 510.187C102.918 513.813 104.84 516.813 106.997 519.188C109.153 521.563 111.59 523.313 114.309 524.438C117.028 525.562 120.136 526.125 123.637 526.125C124.636 526.125 125.621 526.078 126.59 525.984Z" fill="#231F20"/>
<mask id="mask0" mask-type="alpha" maskUnits="userSpaceOnUse" x="490" y="565" width="42" height="44">
<path fill-rule="evenodd" clip-rule="evenodd" d="M490.256 565.079H531.799V608.614H490.256V565.079Z" fill="white"/>
</mask>
<g mask="url(#mask0)">
<path fill-rule="evenodd" clip-rule="evenodd" d="M509.592 600.235C511.428 600.235 513.342 599.864 515.334 599.122C517.326 598.38 519.162 597.267 520.842 595.782C522.521 594.298 523.898 592.433 524.973 590.186C526.047 587.94 526.584 585.333 526.584 582.364C526.584 578.927 525.822 575.919 524.299 573.34C522.776 570.762 520.685 568.741 518.03 567.276C515.373 565.811 512.307 565.079 508.83 565.079C505.236 565.079 502.033 565.861 499.221 567.422C496.408 568.985 494.211 571.134 492.629 573.868C491.047 576.602 490.256 579.727 490.256 583.243C490.256 586.603 491.047 589.571 492.629 592.149C494.211 594.727 496.398 596.749 499.192 598.214C501.984 599.678 505.177 600.411 508.772 600.411L509.592 600.235ZM528.108 607.969C529.552 607.539 530.783 606.993 531.799 606.329L530.979 603.165C530.276 603.36 529.602 603.496 528.957 603.575C528.313 603.653 527.736 603.692 527.229 603.692C526.174 603.692 525.187 603.535 524.27 603.223C523.351 602.91 522.228 602.383 520.901 601.641C519.572 600.859 518.107 600.284 516.506 599.913C514.904 599.542 513.361 599.356 511.877 599.356H503.088C503.635 599.59 504.172 599.854 504.699 600.147C505.227 600.44 505.754 600.762 506.281 601.114C506.809 601.465 507.365 601.876 507.951 602.344C508.537 602.813 509.182 603.34 509.885 603.926C510.978 604.785 512.15 605.576 513.401 606.299C514.65 607.022 516.096 607.589 517.737 607.999C519.377 608.409 521.271 608.614 523.42 608.614C525.099 608.614 526.662 608.399 528.108 607.969ZM504.201 594.288C502.756 593.057 501.613 591.349 500.774 589.161C499.933 586.974 499.514 584.435 499.514 581.544C499.514 577.599 500.276 574.512 501.799 572.286C503.322 570.059 505.432 568.946 508.127 568.946C510.002 568.946 511.623 569.561 512.99 570.792C514.357 572.022 515.431 573.751 516.213 575.977C516.994 578.204 517.385 580.821 517.385 583.829C517.385 586.524 517.072 588.78 516.447 590.596C515.822 592.413 514.904 593.79 513.694 594.727C512.482 595.665 510.998 596.133 509.24 596.133C507.326 596.133 505.646 595.518 504.201 594.288Z" fill="#231F20"/>
</g>
<path fill-rule="evenodd" clip-rule="evenodd" d="M430.838 598.125C433.103 596.524 434.91 594.346 436.258 591.592C437.606 588.838 438.279 585.762 438.279 582.363C438.279 578.848 437.644 575.792 436.375 573.193C435.105 570.596 433.358 568.594 431.131 567.188C428.904 565.781 426.326 565.078 423.397 565.078C420.388 565.078 417.693 565.84 415.311 567.363C412.928 568.887 411.063 570.996 409.715 573.691C408.367 576.387 407.693 579.571 407.693 583.242C407.693 586.68 408.367 589.698 409.715 592.295C411.063 594.893 412.917 596.915 415.281 598.359C417.644 599.805 420.33 600.527 423.338 600.527C426.072 600.527 428.572 599.727 430.838 598.125ZM420.086 594.404C418.933 593.174 418.035 591.455 417.391 589.248C416.746 587.042 416.424 584.473 416.424 581.543C416.424 577.364 417.019 574.2 418.211 572.051C419.402 569.903 420.936 568.828 422.811 568.828C424.841 568.828 426.502 570.186 427.791 572.9C429.08 575.616 429.725 579.258 429.725 583.828C429.725 586.719 429.499 589.082 429.051 590.918C428.601 592.755 427.947 594.102 427.088 594.961C426.228 595.821 425.154 596.25 423.865 596.25C422.498 596.25 421.238 595.635 420.086 594.404Z" fill="#FEFEFE"/>
<path fill-rule="evenodd" clip-rule="evenodd" d="M89.8641 600L90.0401 596.953L85.2941 596.074C85.2541 595.919 85.2061 595.459 85.1471 594.697C85.0891 593.936 85.0301 592.92 84.9711 591.65C84.9131 590.381 84.8841 588.965 84.8841 587.402L84.8251 577.969C84.8251 576.172 84.8341 574.658 84.8541 573.428C84.8731 572.197 84.8931 571.211 84.9131 570.469C84.9321 569.727 84.9421 569.2 84.9421 568.887H86.5831C88.8091 568.887 90.5671 569.493 91.8561 570.703C93.1451 571.914 93.7901 573.829 93.7901 576.445C93.7901 578.672 93.2821 580.371 92.2661 581.543C91.2501 582.715 89.8051 583.301 87.9301 583.301C87.1101 583.301 86.3681 583.233 85.7041 583.096C85.0391 582.959 84.4931 582.794 84.0631 582.598V586.641C84.6491 586.758 85.2741 586.856 85.9381 586.934C86.6021 587.012 87.2661 587.051 87.9301 587.051C90.9381 587.051 93.5061 586.553 95.6351 585.557C97.7641 584.561 99.3951 583.204 100.528 581.484C101.661 579.766 102.227 577.832 102.227 575.684C102.227 572.442 101.045 569.951 98.6821 568.213C96.3181 566.475 92.7351 565.605 87.9301 565.605H73.0481L72.8721 568.535L76.5631 569.297C76.6801 569.453 76.7581 569.941 76.7981 570.762C76.8361 571.582 76.8751 572.617 76.9151 573.867C76.9531 575.118 76.9731 576.485 76.9731 577.969L76.9151 587.402C76.9151 588.965 76.8951 590.381 76.8561 591.65C76.8171 592.92 76.7771 593.946 76.7391 594.727C76.7001 595.508 76.6221 595.977 76.5051 596.133L73.0481 597.07L73.2231 600H89.8641ZM189.712 600V597.012L186.724 596.543C186.528 596.348 186.274 596.084 185.962 595.752C185.649 595.421 185.219 594.932 184.673 594.287C184.125 593.643 183.384 592.793 182.446 591.738L171.138 578.203L171.314 580.781L184.204 569.238L188.071 568.652L187.896 565.605H174.595L174.419 568.535L178.169 569.18L166.099 581.602L163.638 582.07V584.883H165.923L173.189 593.672C173.735 594.375 174.135 594.912 174.39 595.283C174.643 595.655 174.888 596.055 175.122 596.484L172.075 597.07L172.31 600H189.712ZM167.798 600L167.974 597.07L164.927 596.133C164.887 595.86 164.839 594.902 164.78 593.262C164.722 591.621 164.692 589.57 164.692 587.109V578.555C164.692 576.953 164.702 575.508 164.722 574.219C164.741 572.93 164.78 571.866 164.839 571.025C164.898 570.186 164.965 569.669 165.044 569.473L168.794 568.535L168.618 565.605H152.857L152.681 568.535L156.372 569.473C156.45 569.629 156.519 570.117 156.577 570.938C156.636 571.758 156.684 572.823 156.724 574.131C156.762 575.44 156.782 576.914 156.782 578.555V587.109C156.782 589.57 156.762 591.621 156.724 593.262C156.684 594.902 156.626 595.86 156.548 596.133L152.798 597.07L152.974 600H167.798ZM260.117 599.238C262.285 598.38 263.984 597.168 265.214 595.605C266.445 594.044 267.06 592.207 267.06 590.098C267.06 588.262 266.6 586.729 265.683 585.498C264.765 584.268 263.583 583.262 262.138 582.48C260.692 581.7 259.15 581.016 257.509 580.43C255.869 579.844 254.325 579.239 252.88 578.613C251.435 577.989 250.253 577.236 249.335 576.357C248.417 575.479 247.958 574.356 247.958 572.988C247.958 571.661 248.417 570.625 249.335 569.883C250.253 569.141 251.454 568.77 252.939 568.77C254.579 568.77 255.878 569.278 256.835 570.293C257.792 571.309 258.271 572.754 258.271 574.629C258.271 576.035 258.066 577.295 257.656 578.408C257.245 579.521 256.552 580.743 255.576 582.07L256.279 582.773C259.286 582.188 261.601 581.143 263.222 579.639C264.843 578.135 265.654 576.29 265.654 574.102C265.654 572.344 265.194 570.782 264.277 569.414C263.358 568.047 262.001 566.982 260.204 566.221C258.407 565.459 256.22 565.078 253.642 565.078C250.907 565.078 248.524 565.508 246.494 566.367C244.462 567.227 242.89 568.399 241.777 569.883C240.663 571.368 240.107 573.086 240.107 575.039C240.107 577.071 240.555 578.73 241.454 580.02C242.353 581.309 243.535 582.363 244.999 583.184C246.464 584.004 247.997 584.717 249.599 585.322C251.2 585.928 252.724 586.534 254.169 587.139C255.614 587.745 256.796 588.438 257.714 589.219C258.632 590.001 259.091 591.055 259.091 592.383C259.091 593.594 258.583 594.571 257.568 595.313C256.552 596.055 255.165 596.426 253.408 596.426C251.415 596.426 249.794 595.928 248.544 594.932C247.294 593.936 246.669 592.539 246.669 590.742C246.669 589.61 246.913 588.496 247.402 587.402C247.89 586.309 248.7 585.137 249.833 583.887L248.954 582.598C245.79 583.184 243.29 584.219 241.454 585.703C239.618 587.188 238.701 589.063 238.701 591.328C238.701 593.086 239.266 594.659 240.4 596.045C241.532 597.432 243.134 598.526 245.204 599.326C247.274 600.126 249.696 600.527 252.47 600.527C255.4 600.527 257.949 600.097 260.117 599.238ZM318.92 568.535L322.67 569.473C322.787 569.669 322.884 570.615 322.963 572.314C323.04 574.014 323.08 576.094 323.08 578.555V587.109C323.08 589.453 323.04 591.475 322.963 593.174C322.884 594.873 322.787 595.86 322.67 596.133L318.92 597.07L319.095 600H335.853C339.642 600 343.011 599.248 345.961 597.744C348.91 596.241 351.224 594.151 352.904 591.475C354.583 588.799 355.424 585.762 355.424 582.363C355.424 577.09 353.646 572.979 350.091 570.029C346.536 567.08 341.595 565.605 335.267 565.605H319.095L318.92 568.535ZM332.982 569.268C333.607 569.209 334.192 569.18 334.74 569.18C336.341 569.18 337.845 569.453 339.252 570C340.658 570.547 341.908 571.406 343.002 572.578C344.095 573.75 344.954 575.294 345.58 577.207C346.204 579.121 346.517 581.446 346.517 584.18C346.517 588.321 345.668 591.348 343.968 593.262C342.269 595.176 339.759 596.133 336.439 596.133C335.657 596.133 334.828 596.084 333.949 595.986C333.07 595.889 332.181 595.762 331.283 595.605C331.244 595.059 331.195 594.316 331.136 593.379C331.078 592.441 331.038 591.416 331.019 590.303C330.999 589.189 330.99 588.126 330.99 587.109V578.555C330.99 576.758 330.999 575.244 331.019 574.014C331.038 572.783 331.058 571.787 331.078 571.025C331.097 570.264 331.107 569.766 331.107 569.531C331.732 569.414 332.357 569.326 332.982 569.268ZM318.451 584.707H340.248V580.84H318.451V584.707Z" fill="#231F20"/>
<path fill-rule="evenodd" clip-rule="evenodd" d="M86.202 628.618L86.069 626.958C85.648 626.958 85.228 626.964 84.807 626.974C84.387 626.986 83.988 626.991 83.612 626.991H77.337C76.982 626.991 76.528 626.986 75.975 626.974C75.422 626.964 74.863 626.953 74.299 626.941C73.734 626.93 73.23 626.914 72.788 626.891L72.124 632.968L74.116 633.134L74.747 630.876C75.013 630.832 75.317 630.804 75.66 630.793C76.003 630.782 76.285 630.776 76.507 630.776H83.679V629.415L75.411 645.186V646.481H79.03L86.202 628.618ZM152.608 646.481L156.659 626.991H154.401L150.317 646.481H152.608ZM143.013 641.036H157.788V638.944H143.013V641.036ZM146.997 646.481L151.081 626.991H148.856L144.772 646.481H146.997ZM143.61 634.528H158.385V632.436H143.61V634.528ZM215.328 644.821L215.428 646.481H224.16C226.883 646.481 229.002 645.978 230.519 644.971C232.035 643.964 232.793 642.563 232.793 640.77C232.793 639.309 232.229 638.147 231.1 637.284C229.971 636.421 228.355 635.945 226.252 635.856L226.053 636.122C227.779 636.011 229.168 635.547 230.22 634.727C231.271 633.909 231.797 632.89 231.797 631.673C231.797 630.101 231.227 628.928 230.087 628.153C228.947 627.379 227.203 626.991 224.857 626.991H215.428L215.328 628.618L217.453 629.182C217.52 629.293 217.575 629.83 217.619 630.793C217.663 631.756 217.686 632.934 217.686 634.329V639.177C217.686 640.505 217.663 641.65 217.619 642.613C217.575 643.576 217.52 644.135 217.453 644.29L215.328 644.821ZM222.135 632.868C222.135 631.872 222.14 631.003 222.151 630.262C222.162 629.52 222.179 629.05 222.201 628.85H223.43C224.647 628.85 225.549 629.144 226.136 629.73C226.722 630.317 227.016 631.108 227.016 632.104C227.016 633.211 226.717 634.058 226.119 634.644C225.522 635.231 224.625 635.524 223.43 635.524C223.119 635.524 222.837 635.519 222.583 635.508C222.328 635.497 222.035 635.48 221.703 635.458V637.649C222.013 637.605 222.312 637.583 222.6 637.583H223.596C225.123 637.583 226.241 637.876 226.949 638.463C227.657 639.049 228.012 639.973 228.012 641.235C228.012 642.276 227.685 643.089 227.032 643.676C226.379 644.262 225.455 644.556 224.26 644.556C223.928 644.556 223.563 644.528 223.164 644.472C222.766 644.417 222.455 644.345 222.234 644.257C222.212 644.013 222.19 643.565 222.168 642.912C222.146 642.259 222.135 641.49 222.135 640.604V632.868ZM294.683 639.376C294.882 639.088 295.165 638.8 295.53 638.513C295.895 638.225 296.304 637.987 296.758 637.799C297.212 637.611 297.682 637.516 298.17 637.516C299.077 637.516 299.797 637.865 300.328 638.562C300.859 639.26 301.125 640.195 301.125 641.368C301.125 642.32 300.887 643.117 300.411 643.759C299.935 644.401 299.32 644.722 298.568 644.722C297.97 644.722 297.439 644.484 296.974 644.008C296.509 643.532 296.138 642.884 295.862 642.065C295.585 641.247 295.447 640.339 295.447 639.343C295.447 637.284 295.757 635.53 296.377 634.08C296.996 632.63 297.965 631.446 299.282 630.527C300.599 629.609 302.275 628.906 304.312 628.419L303.748 626.393C301.689 626.593 299.857 627.063 298.253 627.805C296.647 628.546 295.292 629.493 294.185 630.643C293.078 631.795 292.231 633.073 291.645 634.478C291.058 635.884 290.765 637.35 290.765 638.878C290.765 640.339 291.081 641.667 291.712 642.862C292.342 644.057 293.222 645.009 294.351 645.718C295.48 646.426 296.775 646.78 298.236 646.78C299.631 646.78 300.881 646.481 301.988 645.884C303.095 645.286 303.964 644.478 304.594 643.46C305.225 642.442 305.541 641.302 305.541 640.04C305.541 638.977 305.292 638.014 304.794 637.151C304.296 636.288 303.626 635.602 302.785 635.093C301.943 634.584 301.003 634.329 299.963 634.329C299.055 634.329 298.131 634.656 297.19 635.308C296.249 635.962 295.414 636.786 294.683 637.782V639.376ZM368.394 646.481L368.493 644.821L366.368 644.29L367.962 639.774L368.261 638.778L371.017 631.307L370.054 631.042L373.374 638.878L373.739 640.007L375.532 644.29L373.407 644.821L373.507 646.481H382.405L382.505 644.821L380.779 644.29L373.142 626.393L370.353 627.954L363.613 644.29L361.886 644.821L361.986 646.481H368.394ZM368.659 640.77C369.235 640.749 369.976 640.737 370.884 640.737C371.747 640.737 372.478 640.749 373.075 640.77C373.673 640.793 374.182 640.804 374.603 640.804V638.579C374.182 638.601 373.678 638.629 373.092 638.662C372.505 638.695 371.769 638.712 370.884 638.712C369.954 638.712 369.212 638.695 368.659 638.662C368.106 638.629 367.608 638.601 367.165 638.579V640.837C367.585 640.815 368.084 640.793 368.659 640.77ZM374.57 621.977C373.839 622.332 372.954 622.509 371.913 622.509C370.851 622.509 369.949 622.332 369.207 621.977C368.465 621.624 367.962 621.17 367.697 620.616L365.572 621.28C365.837 622.475 366.545 623.417 367.697 624.102C368.847 624.789 370.209 625.132 371.78 625.132C373.352 625.132 374.702 624.789 375.831 624.102C376.96 623.417 377.657 622.475 377.923 621.28L375.997 620.616C375.776 621.17 375.3 621.624 374.57 621.977ZM451.634 645.419C452.917 644.511 453.941 643.277 454.705 641.717C455.469 640.156 455.85 638.413 455.85 636.487C455.85 634.495 455.49 632.763 454.771 631.291C454.052 629.819 453.061 628.684 451.8 627.888C450.538 627.091 449.077 626.692 447.417 626.692C445.712 626.692 444.185 627.124 442.835 627.987C441.484 628.85 440.428 630.046 439.664 631.573C438.9 633.1 438.518 634.905 438.518 636.985C438.518 638.933 438.9 640.643 439.664 642.115C440.428 643.587 441.479 644.733 442.818 645.552C444.157 646.371 445.679 646.78 447.384 646.78C448.933 646.78 450.35 646.327 451.634 645.419ZM445.541 643.31C444.888 642.613 444.379 641.639 444.014 640.389C443.648 639.138 443.466 637.682 443.466 636.022C443.466 633.654 443.803 631.861 444.478 630.643C445.153 629.426 446.022 628.817 447.085 628.817C448.236 628.817 449.177 629.587 449.907 631.125C450.638 632.664 451.003 634.727 451.003 637.317C451.003 638.956 450.875 640.295 450.621 641.335C450.366 642.376 449.995 643.139 449.509 643.626C449.021 644.113 448.413 644.356 447.682 644.356C446.907 644.356 446.194 644.008 445.541 643.31ZM524.298 646.016C525.549 645.507 526.517 644.805 527.204 643.908C527.889 643.012 528.233 641.999 528.233 640.87C528.233 639.807 528 638.933 527.536 638.247C527.071 637.561 526.473 636.991 525.743 636.537C525.012 636.084 524.232 635.69 523.402 635.358C522.572 635.026 521.786 634.689 521.044 634.346C520.302 634.003 519.7 633.593 519.235 633.117C518.77 632.641 518.538 632.038 518.538 631.307C518.538 630.489 518.831 629.852 519.417 629.398C520.004 628.945 520.751 628.718 521.659 628.718C522.544 628.718 523.33 628.895 524.016 629.249L525.079 632.503L527.204 632.37L526.805 627.522C526.407 627.345 525.93 627.185 525.377 627.041C524.824 626.897 524.248 626.792 523.651 626.725C523.053 626.659 522.5 626.626 521.991 626.626C520.375 626.626 518.953 626.875 517.724 627.373C516.496 627.871 515.544 628.568 514.869 629.465C514.193 630.361 513.856 631.407 513.856 632.602C513.856 633.731 514.083 634.65 514.537 635.358C514.99 636.067 515.582 636.648 516.313 637.101C517.043 637.555 517.818 637.943 518.637 638.264C519.456 638.585 520.231 638.911 520.961 639.243C521.692 639.575 522.284 639.973 522.738 640.438C523.191 640.903 523.418 641.523 523.418 642.298C523.418 643.006 523.158 643.571 522.638 643.991C522.118 644.412 521.36 644.622 520.364 644.622C519.81 644.622 519.235 644.539 518.637 644.373C518.039 644.207 517.508 643.98 517.043 643.692L515.914 640.272L513.789 640.405L513.955 645.319C514.752 645.762 515.71 646.116 516.828 646.382C517.945 646.647 518.98 646.78 519.932 646.78C521.592 646.78 523.047 646.525 524.298 646.016Z" fill="#231F20"/>
<path fill-rule="evenodd" clip-rule="evenodd" d="M71.6414 673.442L72.8714 673.754C72.8714 673.924 72.8754 674.207 72.8814 674.604C72.8884 675.001 72.8844 675.545 72.8714 676.235L72.8134 679.887C72.8134 680.304 72.8064 680.708 72.7934 681.098C72.7804 681.489 72.7704 681.821 72.7644 682.094C72.7574 682.368 72.7484 682.55 72.7354 682.641L71.3684 682.954L71.4264 683.93H75.7034L75.7624 682.954L74.4144 682.641C74.4014 682.563 74.3884 682.313 74.3754 681.889C74.3624 681.466 74.3564 680.753 74.3564 679.751L74.3364 673.032H73.1064L78.3214 683.989H79.5514L84.2004 673.032H83.3014L83.3604 679.633C83.3734 680.219 83.3794 680.727 83.3794 681.157C83.3794 681.587 83.3764 681.925 83.3704 682.172C83.3634 682.42 83.3534 682.576 83.3404 682.641L82.0904 682.954L82.1494 683.93H87.4614L87.5204 682.954L86.2704 682.641C86.2574 682.576 86.2414 682.407 86.2214 682.133C86.2024 681.86 86.1794 681.508 86.1534 681.079C86.1264 680.649 86.1014 680.161 86.0754 679.614L85.9574 676.196C85.9444 675.558 85.9314 675.034 85.9184 674.624C85.9054 674.213 85.9054 673.917 85.9184 673.735L87.1684 673.442L87.1104 672.465H82.9894L79.3174 681.118H79.8834L75.8014 672.465H71.7004L71.6414 673.442ZM197.278 683.93L197.336 682.954L196.086 682.641L197.024 679.985L197.199 679.399L198.821 675.004L198.254 674.848L200.207 679.458L200.422 680.122L201.477 682.641L200.227 682.954L200.285 683.93H205.52L205.578 682.954L204.563 682.641L200.071 672.114L198.43 673.032L194.465 682.641L193.449 682.954L193.508 683.93H197.278ZM197.434 680.571C197.772 680.558 198.208 680.551 198.742 680.551C199.25 680.551 199.68 680.558 200.032 680.571C200.383 680.584 200.682 680.59 200.93 680.59V679.282C200.682 679.295 200.386 679.311 200.041 679.331C199.696 679.35 199.263 679.36 198.742 679.36C198.196 679.36 197.759 679.35 197.434 679.331C197.108 679.311 196.815 679.295 196.555 679.282V680.61C196.802 680.597 197.095 680.584 197.434 680.571ZM258.748 673.442L259.998 673.774C260.011 673.813 260.024 673.966 260.037 674.233C260.05 674.5 260.063 674.855 260.076 675.297C260.089 675.74 260.096 676.235 260.096 676.782V679.126C260.096 680.714 260.535 681.941 261.414 682.807C262.293 683.673 263.546 684.106 265.174 684.106C266.124 684.106 266.948 683.904 267.645 683.501C268.341 683.097 268.878 682.521 269.256 681.772C269.634 681.023 269.822 680.135 269.822 679.106V677.133C269.822 676.535 269.829 675.988 269.842 675.493C269.855 674.998 269.871 674.598 269.891 674.292C269.91 673.986 269.927 673.813 269.94 673.774L271.19 673.442L271.131 672.465H266.776L266.717 673.442L268.084 673.774C268.11 673.813 268.133 673.986 268.153 674.292C268.172 674.598 268.188 674.998 268.201 675.493C268.214 675.988 268.221 676.535 268.221 677.133V678.774C268.221 679.555 268.123 680.207 267.928 680.727C267.733 681.248 267.436 681.635 267.039 681.889C266.642 682.143 266.144 682.27 265.545 682.27C264.946 682.27 264.438 682.14 264.022 681.88C263.605 681.619 263.289 681.229 263.074 680.708C262.86 680.187 262.752 679.549 262.752 678.794V676.782C262.752 676.261 262.759 675.802 262.772 675.405C262.785 675.008 262.798 674.669 262.811 674.389C262.824 674.109 262.837 673.904 262.85 673.774L264.1 673.442L264.041 672.465H258.807L258.748 673.442ZM335.531 680.883L334.418 680.669L333.344 682.622C333.253 682.635 333.165 682.648 333.08 682.661C332.995 682.674 332.872 682.684 332.709 682.69C332.546 682.697 332.296 682.7 331.957 682.7H330.922C330.531 682.7 330.206 682.693 329.945 682.68C329.685 682.667 329.438 682.641 329.203 682.602C329.203 682.485 329.2 682.319 329.193 682.104C329.187 681.889 329.18 681.619 329.174 681.294C329.167 680.968 329.164 680.597 329.164 680.18V676.079C329.164 675.636 329.167 675.252 329.174 674.926C329.18 674.601 329.187 674.334 329.193 674.126C329.2 673.917 329.203 673.761 329.203 673.657C329.346 673.631 329.532 673.615 329.76 673.608C329.988 673.602 330.225 673.598 330.473 673.598H331.957C332.113 673.598 332.26 673.605 332.397 673.618C332.533 673.631 332.686 673.657 332.856 673.696L333.578 675.415L334.711 675.258L334.184 672.368C333.936 672.381 333.633 672.397 333.276 672.417C332.917 672.436 332.553 672.449 332.182 672.456C331.811 672.462 331.495 672.465 331.235 672.465H325.219L325.16 673.442L326.41 673.754C326.436 673.807 326.459 673.969 326.479 674.243C326.498 674.516 326.514 674.871 326.527 675.307C326.54 675.744 326.547 676.235 326.547 676.782V679.633C326.547 680.154 326.54 680.633 326.527 681.069C326.514 681.505 326.498 681.86 326.479 682.133C326.459 682.407 326.436 682.576 326.41 682.641L325.16 682.954L325.219 683.93H331.938C332.354 683.93 332.82 683.943 333.334 683.969C333.848 683.995 334.288 684.021 334.652 684.047L335.531 680.883ZM333.246 680.024V676.079H332.172L331.977 677.387C331.885 677.387 331.742 677.391 331.547 677.397C331.352 677.404 331.124 677.407 330.863 677.407H329.828C329.607 677.407 329.395 677.4 329.193 677.387C328.991 677.374 328.839 677.361 328.735 677.348V678.735C328.839 678.722 328.991 678.709 329.193 678.696C329.395 678.683 329.607 678.676 329.828 678.676H330.863C331.124 678.676 331.352 678.68 331.547 678.686C331.742 678.693 331.885 678.703 331.977 678.715L332.172 680.024H333.246ZM396.065 676.626C395.947 676.795 395.781 676.967 395.566 677.143C395.352 677.319 395.111 677.462 394.844 677.573C394.577 677.684 394.294 677.739 393.994 677.739C393.473 677.739 393.057 677.534 392.744 677.124C392.432 676.713 392.275 676.164 392.275 675.473C392.275 674.914 392.415 674.445 392.695 674.067C392.975 673.689 393.337 673.501 393.779 673.501C394.131 673.501 394.443 673.641 394.717 673.921C394.99 674.201 395.208 674.578 395.371 675.053C395.534 675.529 395.615 676.066 395.615 676.665C395.615 677.876 395.433 678.908 395.068 679.76C394.704 680.613 394.134 681.31 393.359 681.85C392.585 682.391 391.592 682.797 390.381 683.071L390.713 684.282C391.924 684.165 393.001 683.888 393.945 683.452C394.889 683.016 395.687 682.459 396.338 681.782C396.989 681.105 397.487 680.353 397.832 679.526C398.177 678.699 398.35 677.837 398.35 676.938C398.35 676.079 398.164 675.297 397.793 674.594C397.422 673.891 396.907 673.332 396.25 672.915C395.592 672.498 394.827 672.29 393.955 672.29C393.148 672.29 392.415 672.465 391.758 672.817C391.1 673.169 390.583 673.641 390.205 674.233C389.827 674.826 389.639 675.499 389.639 676.255C389.639 676.88 389.785 677.446 390.078 677.954C390.371 678.462 390.768 678.865 391.27 679.165C391.771 679.464 392.327 679.614 392.94 679.614C393.486 679.614 394.036 679.422 394.59 679.038C395.143 678.654 395.628 678.169 396.045 677.583L396.065 676.626ZM458.473 683.93L458.531 682.915L456.949 682.641C456.936 682.589 456.92 682.446 456.9 682.212C456.881 681.977 456.864 681.71 456.852 681.411C456.838 681.111 456.832 680.838 456.832 680.59L456.813 676.079V674.946V674.282C456.813 674.126 456.816 674.005 456.822 673.921C456.829 673.836 456.832 673.761 456.832 673.696C456.975 673.67 457.154 673.647 457.369 673.628C457.584 673.608 457.802 673.598 458.023 673.598H459.488C459.645 673.598 459.791 673.605 459.928 673.618C460.064 673.631 460.211 673.657 460.367 673.696L461.129 675.415L462.262 675.258L461.715 672.368C461.493 672.381 461.2 672.397 460.836 672.417C460.471 672.436 460.1 672.449 459.723 672.456C459.345 672.462 459.02 672.465 458.746 672.465H452.926L452.867 673.442L454.098 673.774C454.124 673.813 454.143 673.966 454.156 674.233C454.169 674.5 454.182 674.852 454.195 675.288C454.208 675.724 454.215 676.215 454.215 676.762L454.195 679.633C454.195 680.167 454.189 680.652 454.176 681.088C454.163 681.525 454.15 681.88 454.137 682.153C454.124 682.426 454.104 682.589 454.078 682.641L452.906 682.954L452.965 683.93H458.473ZM460.797 680.239V676.196H459.664L459.469 677.485C459.391 677.485 459.251 677.492 459.049 677.504C458.847 677.518 458.616 677.524 458.355 677.524H457.242C457.021 677.524 456.809 677.518 456.607 677.504C456.405 677.492 456.233 677.479 456.09 677.465V678.852C456.246 678.839 456.419 678.823 456.607 678.803C456.796 678.784 457.008 678.774 457.242 678.774H458.355C458.551 678.774 458.746 678.781 458.941 678.794C459.137 678.807 459.313 678.826 459.469 678.852L459.664 680.239H460.797ZM516.037 673.442L517.287 673.754C517.326 673.82 517.358 674.135 517.385 674.702C517.411 675.268 517.424 675.962 517.424 676.782V679.633C517.424 680.415 517.411 681.088 517.385 681.655C517.358 682.221 517.326 682.55 517.287 682.641L516.037 682.954L516.096 683.93H521.682C522.944 683.93 524.067 683.68 525.051 683.178C526.034 682.677 526.805 681.981 527.365 681.088C527.925 680.197 528.205 679.184 528.205 678.051C528.205 676.294 527.612 674.923 526.428 673.94C525.243 672.957 523.596 672.465 521.486 672.465H516.096L516.037 673.442ZM520.725 673.686C520.933 673.667 521.128 673.657 521.31 673.657C521.844 673.657 522.346 673.748 522.814 673.93C523.283 674.113 523.7 674.399 524.064 674.79C524.429 675.18 524.715 675.695 524.924 676.333C525.132 676.971 525.236 677.746 525.236 678.657C525.236 680.037 524.953 681.046 524.387 681.684C523.82 682.322 522.983 682.641 521.877 682.641C521.616 682.641 521.34 682.625 521.047 682.592C520.754 682.56 520.458 682.518 520.158 682.465C520.145 682.283 520.129 682.036 520.109 681.723C520.09 681.411 520.077 681.069 520.07 680.698C520.064 680.327 520.06 679.972 520.06 679.633V676.782C520.06 676.183 520.064 675.678 520.07 675.268C520.077 674.858 520.083 674.526 520.09 674.272C520.096 674.018 520.1 673.852 520.1 673.774C520.308 673.735 520.516 673.706 520.725 673.686Z" fill="#231F20"/>
<mask id="mask1" mask-type="alpha" maskUnits="userSpaceOnUse" x="4" y="4" width="43" height="14">
<path fill-rule="evenodd" clip-rule="evenodd" d="M4 4.55487H46.0317V17.4459H4V4.55487Z" fill="white"/>
</mask>
<g mask="url(#mask1)">
<path fill-rule="evenodd" clip-rule="evenodd" d="M4.9297 14.0159C5.1227 14.0109 5.3177 14.0079 5.5157 14.0079H8.6407C8.8797 14.0079 9.0777 14.0109 9.2347 14.0159C9.3907 14.0209 9.5367 14.0259 9.6717 14.0319C9.8067 14.0369 9.9527 14.0499 10.1097 14.0709L10.4067 11.6179L9.8747 11.5549L9.3437 12.9139C9.3127 12.9349 9.2477 12.9509 9.1487 12.9609C9.0497 12.9719 8.9637 12.9769 8.8907 12.9769H5.4377L5.3597 13.2269C6.7867 12.1439 7.8537 11.1069 8.5627 10.1179C9.2707 9.12787 9.6247 8.20587 9.6247 7.35187C9.6247 6.82087 9.5047 6.35687 9.2657 5.96087C9.0257 5.56587 8.6957 5.25587 8.2737 5.03187C7.8517 4.80787 7.3647 4.69587 6.8127 4.69587C6.1767 4.69587 5.6117 4.86987 5.1167 5.21887C4.6227 5.56787 4.2497 6.04487 3.9997 6.64887L4.3597 6.91387C4.9117 6.07087 5.6357 5.64887 6.5317 5.64887C7.1357 5.64887 7.5987 5.83087 7.9217 6.19587C8.2447 6.55987 8.4067 7.03887 8.4067 7.63287C8.4067 8.19587 8.2757 8.75787 8.0157 9.32087C7.7547 9.88287 7.3277 10.5029 6.7347 11.1799C6.1407 11.8569 5.3337 12.6489 4.3127 13.5549L4.3597 14.0389C4.5467 14.0289 4.7367 14.0209 4.9297 14.0159ZM13.1717 10.7579C13.3387 10.4979 13.5207 10.2819 13.7187 10.1099C13.9167 9.93787 14.1327 9.80787 14.3677 9.71887C14.6017 9.63087 14.8437 9.58587 15.0937 9.58587C15.6457 9.58587 16.0907 9.76887 16.4297 10.1329C16.7677 10.4979 16.9377 10.9669 16.9377 11.5389C16.9377 12.1229 16.7837 12.5919 16.4767 12.9459C16.1697 13.2999 15.7757 13.4769 15.2967 13.4769C14.8797 13.4769 14.5237 13.3619 14.2267 13.1329C13.9297 12.9039 13.7027 12.5759 13.5467 12.1489C13.3907 11.7219 13.3127 11.2219 13.3127 10.6489C13.3127 9.70087 13.4767 8.85987 13.8047 8.12487C14.1327 7.39087 14.6177 6.77587 15.2577 6.28187C15.8987 5.78687 16.6717 5.41987 17.5777 5.17987L17.3747 4.55487C16.5837 4.71087 15.8647 4.97187 15.2187 5.33587C14.5727 5.70087 14.0177 6.15387 13.5547 6.69587C13.0907 7.23687 12.7317 7.84887 12.4767 8.53187C12.2217 9.21387 12.0937 9.95087 12.0937 10.7429C12.0937 11.4509 12.2217 12.0579 12.4767 12.5629C12.7317 13.0679 13.0937 13.4589 13.5627 13.7349C14.0317 14.0109 14.5727 14.1489 15.1877 14.1489C15.7187 14.1489 16.2107 14.0159 16.6637 13.7499C17.1177 13.4849 17.4767 13.1309 17.7427 12.6879C18.0077 12.2449 18.1407 11.7639 18.1407 11.2429C18.1407 10.7429 18.0237 10.2999 17.7887 9.91387C17.5547 9.52887 17.2397 9.22987 16.8437 9.01587C16.4477 8.80287 15.9947 8.69587 15.4847 8.69587C14.9947 8.69587 14.5367 8.83387 14.1097 9.10987C13.6817 9.38587 13.3487 9.76887 13.1097 10.2579L13.1717 10.7579ZM25.3127 13.5159C25.8437 13.0939 26.2607 12.5209 26.5627 11.7969C26.8647 11.0729 27.0157 10.2639 27.0157 9.36787C27.0157 8.44087 26.8697 7.62487 26.5777 6.92187C26.2867 6.21887 25.8797 5.67187 25.3597 5.28187C24.8387 4.89087 24.2397 4.69587 23.5627 4.69587C22.8647 4.69587 22.2397 4.90087 21.6877 5.31287C21.1357 5.72387 20.7007 6.28387 20.3827 6.99287C20.0647 7.70087 19.9067 8.51887 19.9067 9.44587C19.9067 10.3829 20.0547 11.2029 20.3517 11.9069C20.6487 12.6099 21.0727 13.1589 21.6247 13.5549C22.1767 13.9509 22.8127 14.1489 23.5317 14.1489C24.1877 14.1489 24.7817 13.9379 25.3127 13.5159ZM22.3277 12.9459C21.9637 12.5919 21.6817 12.0919 21.4847 11.4459C21.2867 10.7999 21.1877 10.0499 21.1877 9.19587C21.1877 7.98687 21.3877 7.04687 21.7887 6.37487C22.1897 5.70287 22.7447 5.36787 23.4527 5.36787C24.1617 5.36787 24.7267 5.75787 25.1487 6.53887C25.5707 7.32087 25.7817 8.38887 25.7817 9.74287C25.7817 10.4819 25.6897 11.1359 25.5077 11.7029C25.3257 12.2709 25.0707 12.7089 24.7417 13.0159C24.4137 13.3229 24.0317 13.4769 23.5937 13.4769C23.1147 13.4769 22.6927 13.2999 22.3277 12.9459ZM34.6877 17.4459L34.7187 16.8829L33.4377 16.7109C33.4267 16.5549 33.4137 16.3439 33.3987 16.0789C33.3827 15.8129 33.3747 15.4719 33.3747 15.0549V13.8209C33.6037 13.9139 33.8617 13.9869 34.1487 14.0389C34.4347 14.0909 34.7137 14.1179 34.9847 14.1179C35.6297 14.1179 36.2157 13.9639 36.7417 13.6569C37.2677 13.3489 37.6877 12.9249 37.9997 12.3829C38.3127 11.8419 38.4687 11.2269 38.4687 10.5389C38.4687 9.90387 38.3437 9.33587 38.0937 8.83587C37.8437 8.33587 37.4947 7.94087 37.0467 7.64887C36.5987 7.35687 36.0777 7.21087 35.4847 7.21087C35.0777 7.21087 34.7057 7.30287 34.3667 7.48487C34.0287 7.66687 33.7027 7.94587 33.3907 8.32087L33.3437 8.30487L33.4217 7.47687L33.2027 7.24287L31.2967 7.77387V8.24287L32.2967 8.46087C32.3277 8.62787 32.3537 8.88587 32.3747 9.23487C32.3957 9.58387 32.4067 9.91987 32.4067 10.2429L32.3747 14.3049C32.3747 14.6799 32.3727 15.0059 32.3667 15.2819C32.3617 15.5579 32.3567 15.7949 32.3517 15.9929C32.3467 16.1899 32.3407 16.3469 32.3357 16.4609C32.3307 16.5759 32.3277 16.6589 32.3277 16.7109L31.3597 16.9299L31.3907 17.4459H34.6877ZM34.1487 13.3049C33.8517 13.2109 33.5937 13.0859 33.3747 12.9299V9.08587C33.6247 8.75287 33.9007 8.50287 34.2027 8.33587C34.5047 8.16987 34.8337 8.08587 35.1877 8.08587C35.6147 8.08587 35.9897 8.21087 36.3127 8.46087C36.6357 8.71087 36.8857 9.03687 37.0627 9.43787C37.2397 9.83887 37.3227 10.2839 37.3127 10.7739C37.3017 11.3259 37.2007 11.8029 37.0077 12.2039C36.8147 12.6049 36.5517 12.9119 36.2187 13.1249C35.8857 13.3389 35.4947 13.4459 35.0467 13.4459C34.7447 13.4459 34.4457 13.3989 34.1487 13.3049ZM46.0317 13.4929L45.2967 13.2739L43.1877 10.4299L42.8127 9.99287L41.4217 8.08587L42.0777 7.85187L42.0467 7.33587H39.4997L39.4687 7.85187L40.2027 8.08587L42.1407 10.6489L42.5157 11.0859L44.1247 13.2739L43.3907 13.4929L43.4217 14.0079H45.9997L46.0317 13.4929ZM42.8127 9.99287L42.1407 10.6489L40.1407 13.2739L39.4067 13.4929L39.4377 14.0079H41.6407L41.6877 13.4929L40.9527 13.2739L42.5157 11.0859L43.1877 10.4299L45.0317 8.08587L45.7497 7.85187L45.7187 7.33587H43.5777L43.5467 7.85187L44.2027 8.08587L42.8127 9.99287Z" fill="#231F20"/>
</g>
<mask id="mask2" mask-type="alpha" maskUnits="userSpaceOnUse" x="4" y="181" width="42" height="13">
<path fill-rule="evenodd" clip-rule="evenodd" d="M4 181.001H45.5157V193.751H4V181.001Z" fill="white"/>
</mask>
<g mask="url(#mask2)">
<path fill-rule="evenodd" clip-rule="evenodd" d="M4.9297 190.321C5.1227 190.316 5.3177 190.313 5.5157 190.313H8.6407C8.8797 190.313 9.0777 190.316 9.2347 190.321C9.3907 190.326 9.5367 190.331 9.6717 190.337C9.8067 190.342 9.9527 190.355 10.1097 190.376L10.4067 187.923L9.8747 187.86L9.3437 189.219C9.3127 189.24 9.2477 189.256 9.1487 189.266C9.0497 189.277 8.9637 189.282 8.8907 189.282H5.4377L5.3597 189.532C6.7867 188.449 7.8537 187.412 8.5627 186.423C9.2707 185.433 9.6247 184.511 9.6247 183.657C9.6247 183.126 9.5047 182.662 9.2657 182.266C9.0257 181.871 8.6957 181.561 8.2737 181.337C7.8517 181.113 7.3647 181.001 6.8127 181.001C6.1767 181.001 5.6117 181.175 5.1167 181.524C4.6227 181.873 4.2497 182.35 3.9997 182.954L4.3597 183.219C4.9117 182.376 5.6357 181.954 6.5317 181.954C7.1357 181.954 7.5987 182.136 7.9217 182.501C8.2447 182.865 8.4067 183.344 8.4067 183.938C8.4067 184.501 8.2757 185.063 8.0157 185.626C7.7547 186.188 7.3277 186.808 6.7347 187.485C6.1407 188.162 5.3337 188.954 4.3127 189.86L4.3597 190.344C4.5467 190.334 4.7367 190.326 4.9297 190.321ZM12.3827 190.321C12.5757 190.316 12.7707 190.313 12.9687 190.313H16.0937C16.3337 190.313 16.5317 190.316 16.6877 190.321C16.8437 190.326 16.9897 190.331 17.1247 190.337C17.2607 190.342 17.4067 190.355 17.5627 190.376L17.8597 187.923L17.3277 187.86L16.7967 189.219C16.7657 189.24 16.7007 189.256 16.6017 189.266C16.5027 189.277 16.4167 189.282 16.3437 189.282H12.8907L12.8127 189.532C14.2397 188.449 15.3067 187.412 16.0157 186.423C16.7237 185.433 17.0777 184.511 17.0777 183.657C17.0777 183.126 16.9587 182.662 16.7187 182.266C16.4787 181.871 16.1487 181.561 15.7267 181.337C15.3047 181.113 14.8177 181.001 14.2657 181.001C13.6297 181.001 13.0647 181.175 12.5707 181.524C12.0757 181.873 11.7027 182.35 11.4527 182.954L11.8127 183.219C12.3647 182.376 13.0887 181.954 13.9847 181.954C14.5887 181.954 15.0517 182.136 15.3747 182.501C15.6977 182.865 15.8597 183.344 15.8597 183.938C15.8597 184.501 15.7287 185.063 15.4687 185.626C15.2087 186.188 14.7817 186.808 14.1877 187.485C13.5937 188.162 12.7867 188.954 11.7657 189.86L11.8127 190.344C11.9997 190.334 12.1897 190.326 12.3827 190.321ZM24.7967 189.821C25.3277 189.399 25.7447 188.826 26.0467 188.102C26.3487 187.378 26.4997 186.569 26.4997 185.673C26.4997 184.746 26.3537 183.93 26.0627 183.227C25.7707 182.524 25.3647 181.977 24.8437 181.587C24.3227 181.196 23.7237 181.001 23.0467 181.001C22.3487 181.001 21.7237 181.206 21.1717 181.618C20.6197 182.029 20.1847 182.589 19.8677 183.298C19.5497 184.006 19.3907 184.824 19.3907 185.751C19.3907 186.688 19.5387 187.508 19.8357 188.212C20.1327 188.915 20.5567 189.464 21.1097 189.86C21.6617 190.256 22.2967 190.454 23.0157 190.454C23.6717 190.454 24.2657 190.243 24.7967 189.821ZM21.8127 189.251C21.4477 188.897 21.1667 188.397 20.9687 187.751C20.7707 187.105 20.6717 186.355 20.6717 185.501C20.6717 184.292 20.8727 183.352 21.2737 182.68C21.6747 182.008 22.2287 181.673 22.9377 181.673C23.6457 181.673 24.2107 182.063 24.6327 182.844C25.0547 183.626 25.2657 184.694 25.2657 186.048C25.2657 186.787 25.1747 187.441 24.9917 188.008C24.8097 188.576 24.5547 189.014 24.2267 189.321C23.8987 189.628 23.5157 189.782 23.0777 189.782C22.5987 189.782 22.1767 189.605 21.8127 189.251ZM34.1717 193.751L34.2027 193.188L32.9217 193.016C32.9117 192.86 32.8987 192.649 32.8827 192.384C32.8667 192.118 32.8597 191.777 32.8597 191.36V190.126C33.0887 190.219 33.3467 190.292 33.6327 190.344C33.9197 190.396 34.1977 190.423 34.4687 190.423C35.1147 190.423 35.7007 190.269 36.2267 189.962C36.7527 189.654 37.1717 189.23 37.4847 188.688C37.7967 188.147 37.9527 187.532 37.9527 186.844C37.9527 186.209 37.8277 185.641 37.5777 185.141C37.3277 184.641 36.9787 184.246 36.5317 183.954C36.0837 183.662 35.5627 183.516 34.9687 183.516C34.5627 183.516 34.1897 183.608 33.8517 183.79C33.5127 183.972 33.1877 184.251 32.8747 184.626L32.8277 184.61L32.9067 183.782L32.6877 183.548L30.7817 184.079V184.548L31.7817 184.766C31.8127 184.933 31.8387 185.191 31.8597 185.54C31.8797 185.889 31.8907 186.225 31.8907 186.548L31.8597 190.61C31.8597 190.985 31.8567 191.311 31.8517 191.587C31.8467 191.863 31.8407 192.1 31.8357 192.298C31.8307 192.495 31.8257 192.652 31.8207 192.766C31.8147 192.881 31.8127 192.964 31.8127 193.016L30.8437 193.235L30.8747 193.751H34.1717ZM33.6327 189.61C33.3357 189.516 33.0777 189.391 32.8597 189.235V185.391C33.1097 185.058 33.3857 184.808 33.6877 184.641C33.9897 184.475 34.3177 184.391 34.6717 184.391C35.0987 184.391 35.4737 184.516 35.7967 184.766C36.1197 185.016 36.3697 185.342 36.5467 185.743C36.7237 186.144 36.8067 186.589 36.7967 187.079C36.7867 187.631 36.6847 188.108 36.4917 188.509C36.2997 188.91 36.0367 189.217 35.7027 189.43C35.3697 189.644 34.9787 189.751 34.5317 189.751C34.2287 189.751 33.9297 189.704 33.6327 189.61ZM45.5157 189.798L44.7817 189.579L42.6717 186.735L42.2967 186.298L40.9067 184.391L41.5627 184.157L41.5317 183.641H38.9847L38.9527 184.157L39.6877 184.391L41.6247 186.954L41.9997 187.391L43.6097 189.579L42.8747 189.798L42.9067 190.313H45.4847L45.5157 189.798ZM42.2967 186.298L41.6247 186.954L39.6247 189.579L38.8907 189.798L38.9217 190.313H41.1247L41.1717 189.798L40.4377 189.579L41.9997 187.391L42.6717 186.735L44.5157 184.391L45.2347 184.157L45.2027 183.641H43.0627L43.0317 184.157L43.6877 184.391L42.2967 186.298Z" fill="#231F20"/>
</g>
<path fill-rule="evenodd" clip-rule="evenodd" d="M6.7656 360.383C6.7656 359.654 6.7676 359.078 6.7736 358.656C6.7786 358.235 6.7866 357.888 6.7966 357.617L4.3596 358.727L4.4066 359.321L5.6716 359.024C5.6926 359.284 5.7106 359.55 5.7266 359.821C5.7426 360.091 5.7496 360.357 5.7496 360.617V363.977C5.7496 364.393 5.7446 364.758 5.7346 365.07C5.7236 365.383 5.7156 365.638 5.7106 365.836C5.7056 366.034 5.6976 366.164 5.6876 366.227L4.4846 366.43L4.5156 366.945H8.0316L8.0626 366.43L6.8276 366.227C6.8176 366.185 6.8076 366.089 6.7966 365.938C6.7866 365.787 6.7786 365.552 6.7736 365.235C6.7676 364.917 6.7656 364.498 6.7656 363.977V360.383ZM14.5316 359.93C14.5316 359.555 14.5366 359.185 14.5466 358.821C14.5576 358.456 14.5676 358.086 14.5776 357.711H14.1566L9.3746 363.821L9.4686 364.289H15.9536V363.399H10.3126L10.2966 363.727L13.9216 358.977L13.5466 358.961V364.289V365.688C13.5466 365.943 13.5416 366.123 13.5316 366.227L12.2966 366.43L12.3276 366.945H15.4686L15.4996 366.43L14.5776 366.227C14.5676 366.123 14.5596 365.943 14.5546 365.688C14.5496 365.433 14.5466 364.966 14.5466 364.289L14.5316 359.93ZM23.0466 366.453C23.5776 366.031 23.9946 365.459 24.2966 364.735C24.5986 364.011 24.7496 363.201 24.7496 362.305C24.7496 361.378 24.6036 360.563 24.3126 359.86C24.0206 359.156 23.6146 358.61 23.0936 358.219C22.5726 357.828 21.9736 357.633 21.2966 357.633C20.5986 357.633 19.9736 357.839 19.4216 358.25C18.8696 358.662 18.4346 359.222 18.1176 359.93C17.7996 360.638 17.6406 361.456 17.6406 362.383C17.6406 363.321 17.7886 364.141 18.0856 364.844C18.3826 365.547 18.8076 366.097 19.3596 366.492C19.9116 366.888 20.5466 367.086 21.2656 367.086C21.9216 367.086 22.5156 366.875 23.0466 366.453ZM20.0626 365.883C19.6976 365.529 19.4166 365.029 19.2186 364.383C19.0206 363.737 18.9216 362.987 18.9216 362.133C18.9216 360.925 19.1226 359.985 19.5236 359.313C19.9246 358.641 20.4786 358.305 21.1876 358.305C21.8956 358.305 22.4606 358.696 22.8826 359.477C23.3046 360.258 23.5156 361.326 23.5156 362.68C23.5156 363.42 23.4246 364.073 23.2426 364.641C23.0596 365.209 22.8046 365.646 22.4766 365.953C22.1486 366.261 21.7656 366.414 21.3286 366.414C20.8486 366.414 20.4266 366.237 20.0626 365.883ZM32.4216 370.383L32.4526 369.821L31.1716 369.649C31.1616 369.492 31.1486 369.281 31.1326 369.016C31.1176 368.75 31.1096 368.409 31.1096 367.992V366.758C31.3386 366.852 31.5966 366.925 31.8826 366.977C32.1696 367.029 32.4476 367.055 32.7186 367.055C33.3646 367.055 33.9506 366.901 34.4766 366.594C35.0026 366.287 35.4216 365.862 35.7346 365.32C36.0466 364.779 36.2026 364.164 36.2026 363.477C36.2026 362.841 36.0776 362.274 35.8276 361.774C35.5776 361.274 35.2286 360.878 34.7816 360.586C34.3336 360.295 33.8126 360.149 33.2186 360.149C32.8126 360.149 32.4396 360.24 32.1016 360.422C31.7626 360.604 31.4376 360.883 31.1246 361.258L31.0776 361.242L31.1566 360.414L30.9376 360.18L29.0316 360.711V361.18L30.0316 361.399C30.0626 361.565 30.0886 361.823 30.1096 362.172C30.1306 362.521 30.1406 362.857 30.1406 363.18L30.1096 367.242C30.1096 367.617 30.1066 367.943 30.1016 368.219C30.0966 368.495 30.0906 368.732 30.0856 368.93C30.0806 369.128 30.0756 369.284 30.0706 369.399C30.0646 369.513 30.0626 369.596 30.0626 369.649L29.0936 369.867L29.1246 370.383H32.4216ZM31.8826 366.242C31.5856 366.149 31.3276 366.024 31.1096 365.867V362.024C31.3596 361.69 31.6356 361.44 31.9376 361.274C32.2396 361.107 32.5676 361.024 32.9216 361.024C33.3486 361.024 33.7236 361.149 34.0466 361.399C34.3696 361.649 34.6196 361.974 34.7966 362.375C34.9736 362.776 35.0576 363.222 35.0466 363.711C35.0366 364.263 34.9346 364.74 34.7426 365.141C34.5496 365.542 34.2866 365.849 33.9526 366.063C33.6196 366.276 33.2286 366.383 32.7816 366.383C32.4786 366.383 32.1796 366.336 31.8826 366.242ZM43.7656 366.43L43.0316 366.211L40.9216 363.367L40.5466 362.93L39.1566 361.024L39.8126 360.789L39.7816 360.274H37.2346L37.2026 360.789L37.9376 361.024L39.8746 363.586L40.2496 364.024L41.8596 366.211L41.1246 366.43L41.1566 366.945H43.7346L43.7656 366.43ZM40.5466 362.93L39.8746 363.586L37.8746 366.211L37.1406 366.43L37.1716 366.945H39.3746L39.4216 366.43L38.6876 366.211L40.2496 364.024L40.9216 363.367L42.7656 361.024L43.4846 360.789L43.4536 360.274H41.3126L41.2816 360.789L41.9376 361.024L40.5466 362.93Z" fill="#231F20"/>
<path fill-rule="evenodd" clip-rule="evenodd" d="M9.4531 473.531C9.2861 473.781 9.1011 473.995 8.8981 474.172C8.6951 474.349 8.4821 474.482 8.2581 474.57C8.0341 474.659 7.7911 474.703 7.5311 474.703C6.9791 474.703 6.5261 474.521 6.1721 474.156C5.8181 473.791 5.6401 473.323 5.6401 472.75C5.6401 472.166 5.7971 471.695 6.1091 471.336C6.4221 470.976 6.8181 470.797 7.2971 470.797C7.7131 470.797 8.0681 470.914 8.3591 471.148C8.6511 471.383 8.8751 471.711 9.0311 472.133C9.1871 472.554 9.2661 473.057 9.2661 473.64C9.2661 474.578 9.1011 475.409 8.7731 476.133C8.4451 476.857 7.9661 477.463 7.3361 477.953C6.7051 478.443 5.9271 478.812 5.0001 479.062L5.2341 479.687C6.0151 479.531 6.7321 479.273 7.3831 478.914C8.0341 478.554 8.5881 478.104 9.0471 477.562C9.5051 477.021 9.8621 476.411 10.1171 475.734C10.3721 475.057 10.5001 474.328 10.5001 473.547C10.5001 472.838 10.3721 472.232 10.1171 471.726C9.8621 471.221 9.5021 470.831 9.0391 470.554C8.5751 470.279 8.0361 470.14 7.4221 470.14C6.8491 470.14 6.3361 470.279 5.8831 470.554C5.4301 470.831 5.0751 471.19 4.8201 471.633C4.5651 472.075 4.4371 472.547 4.4371 473.047C4.4371 473.536 4.5551 473.974 4.7891 474.359C5.0231 474.745 5.3441 475.047 5.7501 475.265C6.1561 475.484 6.6041 475.594 7.0941 475.594C7.6041 475.594 8.0731 475.453 8.5001 475.172C8.9271 474.89 9.2601 474.51 9.5001 474.031L9.4531 473.531ZM13.6561 476.203C13.8231 475.943 14.0051 475.726 14.2031 475.554C14.4011 475.383 14.6171 475.252 14.8511 475.164C15.0861 475.075 15.3281 475.031 15.5781 475.031C16.1301 475.031 16.5751 475.213 16.9141 475.578C17.2521 475.943 17.4221 476.411 17.4221 476.984C17.4221 477.568 17.2681 478.036 16.9611 478.39C16.6531 478.745 16.2601 478.922 15.7811 478.922C15.3641 478.922 15.0081 478.807 14.7111 478.578C14.4141 478.349 14.1871 478.021 14.0311 477.593C13.8751 477.166 13.7971 476.666 13.7971 476.094C13.7971 475.146 13.9611 474.304 14.2891 473.57C14.6171 472.836 15.1011 472.221 15.7421 471.726C16.3831 471.232 17.1561 470.864 18.0621 470.625L17.8591 470C17.0681 470.156 16.3491 470.416 15.7031 470.781C15.0571 471.146 14.5021 471.599 14.0391 472.14C13.5751 472.682 13.2161 473.294 12.9611 473.976C12.7051 474.659 12.5781 475.396 12.5781 476.187C12.5781 476.896 12.7051 477.502 12.9611 478.008C13.2161 478.513 13.5781 478.904 14.0471 479.179C14.5151 479.455 15.0571 479.593 15.6721 479.593C16.2031 479.593 16.6951 479.461 17.1481 479.195C17.6011 478.929 17.9611 478.575 18.2261 478.133C18.4921 477.69 18.6251 477.208 18.6251 476.687C18.6251 476.187 18.5081 475.745 18.2731 475.359C18.0391 474.974 17.7241 474.674 17.3281 474.461C16.9321 474.247 16.4791 474.14 15.9691 474.14C15.4791 474.14 15.0211 474.279 14.5941 474.554C14.1661 474.831 13.8331 475.213 13.5941 475.703L13.6561 476.203ZM26.2971 482.89L26.3281 482.328L25.0471 482.156C25.0361 482 25.0231 481.789 25.0081 481.523C24.9921 481.258 24.9841 480.916 24.9841 480.5V479.265C25.2131 479.359 25.4711 479.432 25.7581 479.484C26.0441 479.536 26.3231 479.562 26.5941 479.562C27.2391 479.562 27.8251 479.409 28.3511 479.101C28.8771 478.794 29.2971 478.37 29.6091 477.828C29.9221 477.286 30.0781 476.672 30.0781 475.984C30.0781 475.349 29.9531 474.781 29.7031 474.281C29.4531 473.781 29.1041 473.385 28.6561 473.094C28.2081 472.802 27.6871 472.656 27.0941 472.656C26.6871 472.656 26.3151 472.747 25.9761 472.929C25.6381 473.112 25.3121 473.39 25.0001 473.765L24.9531 473.75L25.0311 472.922L24.8121 472.687L22.9061 473.219V473.687L23.9061 473.906C23.9371 474.073 23.9631 474.331 23.9841 474.679C24.0051 475.029 24.0161 475.364 24.0161 475.687L23.9841 479.75C23.9841 480.125 23.9821 480.45 23.9761 480.726C23.9711 481.002 23.9661 481.239 23.9611 481.437C23.9551 481.635 23.9501 481.791 23.9451 481.906C23.9401 482.021 23.9371 482.104 23.9371 482.156L22.9691 482.375L23.0001 482.89H26.2971ZM25.7581 478.75C25.4611 478.656 25.2031 478.531 24.9841 478.375V474.531C25.2341 474.198 25.5101 473.948 25.8121 473.781C26.1141 473.614 26.4431 473.531 26.7971 473.531C27.2241 473.531 27.5991 473.656 27.9221 473.906C28.2451 474.156 28.4951 474.482 28.6721 474.883C28.8491 475.284 28.9321 475.729 28.9221 476.219C28.9111 476.771 28.8101 477.247 28.6171 477.648C28.4241 478.049 28.1611 478.357 27.8281 478.57C27.4951 478.784 27.1041 478.89 26.6561 478.89C26.3541 478.89 26.0551 478.843 25.7581 478.75ZM37.6401 478.937L36.9061 478.718L34.7971 475.875L34.4221 475.437L33.0311 473.531L33.6871 473.297L33.6561 472.781H31.1091L31.0781 473.297L31.8121 473.531L33.7501 476.094L34.1251 476.531L35.7341 478.718L35.0001 478.937L35.0311 479.453H37.6091L37.6401 478.937ZM34.4221 475.437L33.7501 476.094L31.7501 478.718L31.0151 478.937L31.0471 479.453H33.2501L33.2971 478.937L32.5621 478.718L34.1251 476.531L34.7971 475.875L36.6401 473.531L37.3591 473.297L37.3281 472.781H35.1871L35.1561 473.297L35.8121 473.531L34.4221 475.437Z" fill="#231F20"/>
<path fill-rule="evenodd" clip-rule="evenodd" d="M5.6875 571.704C5.8545 571.444 6.0365 571.227 6.2345 571.056C6.4325 570.884 6.6485 570.754 6.8825 570.665C7.1175 570.577 7.3595 570.532 7.6095 570.532C8.1615 570.532 8.6065 570.714 8.9455 571.079C9.2835 571.444 9.4535 571.912 9.4535 572.485C9.4535 573.069 9.2995 573.537 8.9925 573.892C8.6845 574.246 8.2915 574.423 7.8125 574.423C7.3955 574.423 7.0395 574.308 6.7425 574.079C6.4455 573.85 6.2185 573.522 6.0625 573.095C5.9065 572.668 5.8285 572.168 5.8285 571.595C5.8285 570.647 5.9925 569.806 6.3205 569.071C6.6485 568.337 7.1325 567.722 7.7735 567.227C8.4145 566.733 9.1875 566.366 10.0935 566.126L9.8905 565.501C9.0985 565.657 8.3805 565.918 7.7345 566.282C7.0885 566.647 6.5335 567.1 6.0705 567.642C5.6065 568.183 5.2475 568.795 4.9925 569.477C4.7365 570.16 4.6095 570.897 4.6095 571.688C4.6095 572.397 4.7365 573.004 4.9925 573.509C5.2475 574.014 5.6095 574.405 6.0785 574.681C6.5465 574.956 7.0885 575.095 7.7035 575.095C8.2345 575.095 8.7265 574.962 9.1795 574.696C9.6325 574.431 9.9925 574.077 10.2575 573.634C10.5235 573.191 10.6565 572.709 10.6565 572.188C10.6565 571.688 10.5395 571.246 10.3045 570.86C10.0705 570.475 9.7555 570.175 9.3595 569.962C8.9635 569.748 8.5105 569.641 8.0005 569.641C7.5105 569.641 7.0525 569.78 6.6245 570.056C6.1975 570.332 5.8645 570.714 5.6255 571.204L5.6875 571.704ZM17.8285 574.462C18.3595 574.04 18.7755 573.467 19.0785 572.743C19.3805 572.019 19.5315 571.209 19.5315 570.313C19.5315 569.386 19.3855 568.571 19.0935 567.868C18.8025 567.165 18.3955 566.618 17.8755 566.227C17.3545 565.837 16.7555 565.642 16.0785 565.642C15.3805 565.642 14.7555 565.847 14.2035 566.259C13.6505 566.67 13.2165 567.23 12.8985 567.938C12.5805 568.647 12.4215 569.464 12.4215 570.392C12.4215 571.329 12.5705 572.149 12.8675 572.852C13.1645 573.556 13.5885 574.105 14.1405 574.501C14.6925 574.897 15.3285 575.095 16.0465 575.095C16.7035 575.095 17.2965 574.884 17.8285 574.462ZM14.8435 573.892C14.4795 573.537 14.1975 573.037 14.0005 572.391C13.8025 571.746 13.7035 570.996 13.7035 570.142C13.7035 568.933 13.9035 567.993 14.3045 567.321C14.7055 566.649 15.2605 566.313 15.9685 566.313C16.6775 566.313 17.2425 566.704 17.6645 567.485C18.0855 568.266 18.2965 569.334 18.2965 570.688C18.2965 571.428 18.2055 572.082 18.0235 572.649C17.8415 573.217 17.5855 573.655 17.2575 573.962C16.9295 574.269 16.5465 574.423 16.1095 574.423C15.6305 574.423 15.2085 574.246 14.8435 573.892ZM27.2035 578.391L27.2345 577.829L25.9535 577.657C25.9425 577.501 25.9295 577.29 25.9145 577.024C25.8985 576.759 25.8905 576.417 25.8905 576.001V574.767C26.1195 574.86 26.3775 574.933 26.6645 574.985C26.9505 575.037 27.2295 575.063 27.4995 575.063C28.1455 575.063 28.7315 574.91 29.2575 574.602C29.7835 574.295 30.2035 573.871 30.5155 573.329C30.8285 572.787 30.9845 572.173 30.9845 571.485C30.9845 570.85 30.8595 570.282 30.6095 569.782C30.3595 569.282 30.0105 568.886 29.5625 568.595C29.1145 568.303 28.5935 568.157 27.9995 568.157C27.5935 568.157 27.2215 568.248 26.8825 568.431C26.5445 568.613 26.2185 568.891 25.9065 569.266L25.8595 569.251L25.9375 568.423L25.7185 568.188L23.8125 568.72V569.188L24.8125 569.407C24.8435 569.574 24.8695 569.832 24.8905 570.181C24.9115 570.53 24.9215 570.866 24.9215 571.188L24.8905 575.251C24.8905 575.626 24.8875 575.951 24.8825 576.227C24.8775 576.503 24.8725 576.74 24.8675 576.938C24.8615 577.136 24.8565 577.292 24.8515 577.407C24.8465 577.522 24.8435 577.605 24.8435 577.657L23.8745 577.876L23.9065 578.391H27.2035ZM26.6645 574.251C26.3675 574.157 26.1095 574.032 25.8905 573.876V570.032C26.1405 569.699 26.4165 569.449 26.7185 569.282C27.0205 569.116 27.3485 569.032 27.7035 569.032C28.1305 569.032 28.5055 569.157 28.8285 569.407C29.1505 569.657 29.4005 569.983 29.5785 570.384C29.7555 570.785 29.8385 571.23 29.8285 571.72C29.8175 572.272 29.7165 572.748 29.5235 573.149C29.3305 573.55 29.0675 573.858 28.7345 574.071C28.4005 574.285 28.0105 574.392 27.5625 574.392C27.2605 574.392 26.9605 574.345 26.6645 574.251ZM38.5465 574.438L37.8125 574.22L35.7035 571.376L35.3285 570.938L33.9375 569.032L34.5935 568.798L34.5625 568.282H32.0155L31.9845 568.798L32.7185 569.032L34.6565 571.595L35.0315 572.032L36.6405 574.22L35.9065 574.438L35.9375 574.954H38.5155L38.5465 574.438ZM35.3285 570.938L34.6565 571.595L32.6565 574.22L31.9215 574.438L31.9535 574.954H34.1565L34.2035 574.438L33.4685 574.22L35.0315 572.032L35.7035 571.376L37.5465 569.032L38.2655 568.798L38.2345 568.282H36.0935L36.0625 568.798L36.7185 569.032L35.3285 570.938Z" fill="#231F20"/>
<path fill-rule="evenodd" clip-rule="evenodd" d="M8.9844 629.055C9.3494 628.644 9.5314 628.178 9.5314 627.657C9.5314 627.053 9.3124 626.563 8.8754 626.188C8.4374 625.813 7.8594 625.625 7.1404 625.625C6.5464 625.625 6.0074 625.774 5.5234 626.071C5.0394 626.367 4.6774 626.766 4.4374 627.266L4.8124 627.532C5.0724 627.198 5.3694 626.953 5.7034 626.797C6.0364 626.641 6.3854 626.563 6.7504 626.563C7.2704 626.563 7.6824 626.688 7.9844 626.938C8.2864 627.188 8.4374 627.542 8.4374 628C8.4374 628.553 8.2364 628.99 7.8364 629.313C7.4344 629.636 6.8224 629.844 6.0004 629.938L6.0624 630.563C6.2294 630.542 6.3884 630.526 6.5394 630.516C6.6904 630.506 6.8434 630.5 7.0004 630.5C7.6354 630.5 8.1404 630.672 8.5154 631.016C8.8904 631.36 9.0784 631.818 9.0784 632.391C9.0784 632.86 8.9474 633.258 8.6874 633.586C8.4274 633.914 8.0724 634.151 7.6254 634.297C7.1774 634.443 6.6664 634.48 6.0934 634.407L6.9064 634.625L5.9844 633.844C5.7864 633.678 5.6274 633.568 5.5074 633.516C5.3884 633.464 5.2444 633.438 5.0784 633.438C4.9324 633.438 4.8074 633.49 4.7034 633.594C4.5994 633.698 4.5474 633.823 4.5474 633.969C4.5474 634.188 4.6354 634.381 4.8124 634.547C4.9894 634.714 5.2364 634.844 5.5544 634.938C5.8724 635.032 6.2444 635.078 6.6714 635.078C7.2974 635.078 7.8754 634.946 8.4064 634.68C8.9374 634.414 9.3674 634.063 9.6954 633.625C10.0234 633.188 10.1874 632.703 10.1874 632.172C10.1874 631.474 9.9424 630.922 9.4534 630.516C8.9634 630.11 8.3024 629.886 7.4684 629.844L7.5154 630.016C8.1304 629.787 8.6194 629.467 8.9844 629.055ZM16.9374 627.922C16.9374 627.547 16.9424 627.178 16.9534 626.813C16.9634 626.448 16.9744 626.078 16.9844 625.703H16.5624L11.7814 631.813L11.8754 632.282H18.3594V631.391H12.7184L12.7034 631.719L16.3284 626.969L15.9534 626.953V632.282V633.68C15.9534 633.935 15.9474 634.115 15.9374 634.219L14.7034 634.422L14.7344 634.938H17.8754L17.9064 634.422L16.9844 634.219C16.9744 634.115 16.9664 633.935 16.9614 633.68C16.9554 633.425 16.9534 632.959 16.9534 632.282L16.9374 627.922ZM25.9534 638.375L25.9844 637.813L24.7034 637.641C24.6924 637.485 24.6794 637.274 24.6644 637.008C24.6484 636.742 24.6404 636.401 24.6404 635.985V634.75C24.8694 634.844 25.1274 634.917 25.4144 634.969C25.7004 635.021 25.9794 635.047 26.2504 635.047C26.8954 635.047 27.4814 634.894 28.0074 634.586C28.5334 634.279 28.9534 633.855 29.2654 633.313C29.5784 632.771 29.7344 632.157 29.7344 631.469C29.7344 630.834 29.6094 630.266 29.3594 629.766C29.1094 629.266 28.7604 628.87 28.3124 628.578C27.8644 628.287 27.3434 628.141 26.7504 628.141C26.3434 628.141 25.9714 628.232 25.6324 628.414C25.2944 628.597 24.9684 628.875 24.6564 629.25L24.6094 629.235L24.6874 628.407L24.4684 628.172L22.5624 628.703V629.172L23.5624 629.391C23.5934 629.558 23.6194 629.815 23.6404 630.164C23.6614 630.513 23.6724 630.849 23.6724 631.172L23.6404 635.235C23.6404 635.61 23.6384 635.935 23.6324 636.211C23.6274 636.487 23.6224 636.724 23.6174 636.922C23.6114 637.12 23.6064 637.276 23.6014 637.391C23.5964 637.505 23.5934 637.589 23.5934 637.641L22.6254 637.86L22.6564 638.375H25.9534ZM25.4144 634.235C25.1174 634.141 24.8594 634.016 24.6404 633.86V630.016C24.8904 629.683 25.1664 629.433 25.4684 629.266C25.7704 629.099 26.0994 629.016 26.4534 629.016C26.8804 629.016 27.2554 629.141 27.5784 629.391C27.9014 629.641 28.1514 629.967 28.3284 630.367C28.5054 630.769 28.5884 631.214 28.5784 631.703C28.5674 632.256 28.4664 632.732 28.2734 633.133C28.0804 633.534 27.8174 633.842 27.4844 634.055C27.1514 634.269 26.7604 634.375 26.3124 634.375C26.0104 634.375 25.7114 634.328 25.4144 634.235ZM37.2964 634.422L36.5624 634.203L34.4534 631.36L34.0784 630.922L32.6874 629.016L33.3434 628.782L33.3124 628.266H30.7654L30.7344 628.782L31.4684 629.016L33.4064 631.578L33.7814 632.016L35.3904 634.203L34.6564 634.422L34.6874 634.938H37.2654L37.2964 634.422ZM34.0784 630.922L33.4064 631.578L31.4064 634.203L30.6714 634.422L30.7034 634.938H32.9064L32.9534 634.422L32.2184 634.203L33.7814 632.016L34.4534 631.36L36.2964 629.016L37.0154 628.782L36.9844 628.266H34.8434L34.8124 628.782L35.4684 629.016L34.0784 630.922Z" fill="#231F20"/>
<mask id="mask3" mask-type="alpha" maskUnits="userSpaceOnUse" x="4" y="673" width="35" height="14">
<path fill-rule="evenodd" clip-rule="evenodd" d="M4 673.516H38.0627V686.265H4V673.516Z" fill="white"/>
</mask>
<g mask="url(#mask3)">
<path fill-rule="evenodd" clip-rule="evenodd" d="M4.9297 682.836C5.1227 682.831 5.3177 682.828 5.5157 682.828H8.6407C8.8797 682.828 9.0777 682.831 9.2347 682.836C9.3907 682.841 9.5367 682.846 9.6717 682.852C9.8067 682.857 9.9527 682.87 10.1097 682.891L10.4067 680.438L9.8747 680.375L9.3437 681.734C9.3127 681.755 9.2477 681.771 9.1487 681.781C9.0497 681.792 8.9637 681.797 8.8907 681.797H5.4377L5.3597 682.047C6.7867 680.964 7.8537 679.927 8.5627 678.938C9.2707 677.948 9.6247 677.026 9.6247 676.172C9.6247 675.641 9.5047 675.177 9.2657 674.781C9.0257 674.386 8.6957 674.076 8.2737 673.852C7.8517 673.628 7.3647 673.516 6.8127 673.516C6.1767 673.516 5.6117 673.69 5.1167 674.039C4.6227 674.388 4.2497 674.865 3.9997 675.469L4.3597 675.734C4.9117 674.891 5.6357 674.469 6.5317 674.469C7.1357 674.469 7.5987 674.651 7.9217 675.016C8.2447 675.38 8.4067 675.859 8.4067 676.453C8.4067 677.016 8.2757 677.578 8.0157 678.141C7.7547 678.703 7.3277 679.323 6.7347 680C6.1407 680.677 5.3337 681.469 4.3127 682.375L4.3597 682.859C4.5467 682.849 4.7367 682.841 4.9297 682.836ZM17.3437 682.336C17.8747 681.914 18.2917 681.341 18.5937 680.617C18.8957 679.893 19.0467 679.084 19.0467 678.188C19.0467 677.261 18.9007 676.445 18.6097 675.742C18.3177 675.039 17.9117 674.492 17.3907 674.102C16.8697 673.711 16.2707 673.516 15.5937 673.516C14.8957 673.516 14.2707 673.721 13.7187 674.133C13.1667 674.544 12.7317 675.104 12.4137 675.813C12.0967 676.521 11.9377 677.339 11.9377 678.266C11.9377 679.203 12.0857 680.023 12.3827 680.727C12.6797 681.43 13.1037 681.979 13.6567 682.375C14.2087 682.771 14.8437 682.969 15.5627 682.969C16.2187 682.969 16.8127 682.758 17.3437 682.336ZM14.3597 681.766C13.9947 681.412 13.7137 680.912 13.5157 680.266C13.3177 679.62 13.2187 678.87 13.2187 678.016C13.2187 676.807 13.4197 675.867 13.8207 675.195C14.2217 674.523 14.7757 674.188 15.4847 674.188C16.1927 674.188 16.7577 674.578 17.1797 675.359C17.6017 676.141 17.8127 677.209 17.8127 678.563C17.8127 679.302 17.7217 679.956 17.5387 680.523C17.3567 681.091 17.1017 681.529 16.7737 681.836C16.4457 682.143 16.0627 682.297 15.6247 682.297C15.1457 682.297 14.7237 682.12 14.3597 681.766ZM26.7187 686.266L26.7497 685.703L25.4687 685.531C25.4587 685.375 25.4457 685.164 25.4297 684.899C25.4137 684.633 25.4067 684.292 25.4067 683.875V682.641C25.6357 682.734 25.8927 682.807 26.1797 682.859C26.4657 682.911 26.7447 682.938 27.0157 682.938C27.6617 682.938 28.2477 682.784 28.7737 682.477C29.2997 682.169 29.7187 681.745 30.0317 681.203C30.3437 680.662 30.4997 680.047 30.4997 679.359C30.4997 678.724 30.3747 678.156 30.1247 677.656C29.8747 677.156 29.5257 676.761 29.0777 676.469C28.6297 676.177 28.1097 676.031 27.5157 676.031C27.1097 676.031 26.7367 676.123 26.3987 676.305C26.0597 676.487 25.7347 676.766 25.4217 677.141L25.3747 677.125L25.4527 676.297L25.2347 676.063L23.3277 676.594V677.063L24.3277 677.281C24.3597 677.448 24.3857 677.706 24.4067 678.055C24.4267 678.404 24.4377 678.74 24.4377 679.063L24.4067 683.125C24.4067 683.5 24.4037 683.826 24.3987 684.102C24.3927 684.378 24.3877 684.615 24.3827 684.813C24.3777 685.01 24.3727 685.167 24.3667 685.281C24.3617 685.396 24.3597 685.479 24.3597 685.531L23.3907 685.75L23.4217 686.266H26.7187ZM26.1797 682.125C25.8827 682.031 25.6247 681.906 25.4067 681.75V677.906C25.6567 677.573 25.9317 677.323 26.2347 677.156C26.5367 676.99 26.8647 676.906 27.2187 676.906C27.6457 676.906 28.0207 677.031 28.3437 677.281C28.6667 677.531 28.9167 677.857 29.0937 678.258C29.2707 678.659 29.3537 679.104 29.3437 679.594C29.3337 680.146 29.2317 680.623 29.0387 681.024C28.8467 681.425 28.5837 681.732 28.2497 681.945C27.9167 682.159 27.5257 682.266 27.0777 682.266C26.7757 682.266 26.4767 682.219 26.1797 682.125ZM38.0627 682.313L37.3277 682.094L35.2187 679.25L34.8437 678.813L33.4527 676.906L34.1097 676.672L34.0777 676.156H31.5317L31.4997 676.672L32.2347 676.906L34.1717 679.469L34.5467 679.906L36.1567 682.094L35.4217 682.313L35.4527 682.828H38.0317L38.0627 682.313ZM34.8437 678.813L34.1717 679.469L32.1717 682.094L31.4377 682.313L31.4687 682.828H33.6717L33.7187 682.313L32.9847 682.094L34.5467 679.906L35.2187 679.25L37.0627 676.906L37.7817 676.672L37.7497 676.156H35.6097L35.5777 676.672L36.2347 676.906L34.8437 678.813Z" fill="#231F20"/>
</g>
<path fill-rule="evenodd" clip-rule="evenodd" d="M78.0672 296.258L78.7122 307H135.215C152.833 307 166.546 303.744 176.358 297.225C186.167 290.709 191.075 281.649 191.075 270.047C191.075 260.594 187.422 253.074 180.118 247.488C172.813 241.903 162.356 238.824 148.751 238.25L147.462 239.969C158.633 239.254 167.62 236.246 174.424 230.945C181.226 225.648 184.63 219.059 184.63 211.18C184.63 201.012 180.94 193.422 173.565 188.406C166.187 183.395 154.907 180.887 139.727 180.887H78.7122L78.0672 191.414L91.8172 195.067C92.2472 195.785 92.6032 199.256 92.8912 205.487C93.1772 211.717 93.3212 219.344 93.3212 228.367V259.735C93.3212 268.328 93.1772 275.74 92.8912 281.971C92.6032 288.201 92.2472 291.82 91.8172 292.82L78.0672 296.258ZM122.11 218.914C122.11 212.469 122.144 206.849 122.217 202.049C122.288 197.252 122.395 194.207 122.54 192.918H130.489C138.364 192.918 144.202 194.818 147.999 198.612C151.792 202.408 153.692 207.528 153.692 213.973C153.692 221.137 151.758 226.615 147.891 230.408C144.024 234.205 138.223 236.102 130.489 236.102C128.481 236.102 126.655 236.068 125.01 235.994C123.362 235.924 121.465 235.816 119.317 235.672V249.852C121.321 249.566 123.255 249.422 125.118 249.422H131.563C141.446 249.422 148.677 251.322 153.262 255.115C157.845 258.912 160.137 264.891 160.137 273.055C160.137 279.789 158.022 285.053 153.799 288.846C149.573 292.643 143.594 294.539 135.86 294.539C133.712 294.539 131.348 294.361 128.77 294.002C126.192 293.646 124.185 293.18 122.755 292.606C122.61 291.031 122.466 288.131 122.325 283.904C122.18 279.681 122.11 274.703 122.11 268.973V218.914ZM384.787 191.629L398.537 195.067C398.967 195.785 399.323 199.256 399.611 205.487C399.897 211.717 400.041 219.344 400.041 228.367V259.735C400.041 268.328 399.897 275.74 399.611 281.971C399.323 288.201 398.967 291.82 398.537 292.82L384.787 296.258L385.432 307H446.877C460.768 307 473.122 304.244 483.938 298.729C494.75 293.217 503.237 285.553 509.397 275.74C515.553 265.931 518.635 254.793 518.635 242.332C518.635 222.996 512.116 207.924 499.084 197.108C486.049 186.295 467.932 180.887 444.729 180.887H385.432L384.787 191.629ZM436.35 194.315C438.639 194.1 440.788 193.992 442.795 193.992C448.666 193.992 454.182 194.996 459.338 197C464.494 199.008 469.077 202.156 473.088 206.453C477.096 210.75 480.248 216.41 482.541 223.426C484.831 230.445 485.979 238.969 485.979 248.992C485.979 264.176 482.863 275.277 476.633 282.293C470.403 289.313 461.198 292.82 449.026 292.82C446.159 292.82 443.117 292.643 439.895 292.283C436.672 291.928 433.412 291.461 430.119 290.887C429.975 288.883 429.797 286.16 429.582 282.723C429.367 279.285 429.223 275.526 429.153 271.444C429.079 267.362 429.045 263.461 429.045 259.735V228.367C429.045 221.781 429.079 216.229 429.153 211.717C429.223 207.205 429.294 203.553 429.367 200.76C429.438 197.967 429.475 196.141 429.475 195.281C431.764 194.852 434.057 194.529 436.35 194.315ZM383.068 250.926H462.99V236.746H383.068V250.926Z" fill="#231F20"/>
<path fill-rule="evenodd" clip-rule="evenodd" d="M172.121 154L172.883 139.527L156.125 134.703L167.297 102.457L169.582 94.8403L187.355 47.3593L178.723 41.7733L202.844 96.1093L205.637 105.504L218.078 134.703L201.32 139.527L202.59 154H281.047L281.808 139.527L268.351 134.703L207.922 0.387268L182.785 14.3523L131.496 134.703L118.039 139.527L118.801 154H172.121ZM167.678 112.867C171.486 112.701 177.536 112.613 185.832 112.613C193.786 112.613 199.797 112.701 203.859 112.867C207.922 113.038 210.627 113.121 211.984 113.121V93.5703C208.596 93.7413 204.958 93.9953 201.066 94.3323C197.17 94.6733 192.092 94.8403 185.832 94.8403C179.397 94.8403 174.363 94.6733 170.725 94.3323C167.083 93.9953 163.488 93.7413 159.933 93.5703V113.375C161.286 113.208 163.869 113.038 167.678 112.867Z" fill="#231F20"/>
<path fill-rule="evenodd" clip-rule="evenodd" d="M137.139 437.112C142.014 435.7 145.867 434.083 148.692 432.258L152.658 414.075L143.496 413.118L138.575 425.696C136.934 427.063 134.905 428.089 132.491 428.772C130.074 429.456 127.59 429.798 125.039 429.798C120.207 429.798 115.832 428.43 111.914 425.696C107.994 422.962 104.873 419.065 102.549 414.007C100.225 408.948 99.0635 402.911 99.0635 395.891C99.0635 389.694 100.02 384.317 101.934 379.758C103.848 375.202 106.627 371.692 110.274 369.231C113.918 366.77 118.385 365.54 123.672 365.54C125.86 365.54 128 365.768 130.098 366.223C132.194 366.68 134.109 367.364 135.84 368.274L140.625 382.63L149.103 382.083L148.146 361.165C145.228 359.798 141.673 358.682 137.481 357.815C133.287 356.95 129.094 356.516 124.903 356.516C117.975 356.516 111.594 357.497 105.762 359.456C99.9285 361.417 94.8465 364.241 90.5185 367.932C86.1885 371.624 82.8625 376.114 80.5375 381.399C78.2135 386.686 77.0515 392.61 77.0515 399.173C77.0515 407.649 78.9425 414.874 82.7255 420.842C86.5065 426.813 91.7705 431.37 98.5165 434.514C105.26 437.659 113.054 439.231 121.896 439.231C127.181 439.231 132.263 438.524 137.139 437.112ZM267.585 412.708L218.093 357.747H196.493L196.082 364.583L204.695 366.77C204.785 367.317 204.9 368.503 205.037 370.325C205.173 372.149 205.311 374.29 205.447 376.751C205.585 379.212 205.652 381.673 205.652 384.133V402.317C205.652 406.876 205.605 411.091 205.516 414.964C205.423 418.839 205.311 421.983 205.173 424.397C205.037 426.813 204.876 428.341 204.695 428.977L196.082 431.165L196.493 438.001H226.023L226.434 431.165L217.001 428.977C216.727 428.341 216.521 426.858 216.384 424.534C216.248 422.21 216.132 419.157 216.044 415.374C215.951 411.593 215.906 407.239 215.906 402.317V375.11H208.66L263.622 438.684H271.96V429.046V417.766V391.79C271.96 387.325 272.005 383.268 272.097 379.622C272.188 375.977 272.303 373.038 272.439 370.803C272.576 368.571 272.689 367.227 272.781 366.77L281.531 364.583L281.122 357.747H252.001L251.589 364.583L261.161 366.77C261.342 367.227 261.503 368.595 261.639 370.872C261.775 373.151 261.865 376.091 261.912 379.69C261.958 383.292 261.98 387.325 261.98 391.79V412.708H267.585ZM380.191 380.169C380.191 376.067 380.26 372.034 380.395 368.069C380.532 364.104 380.691 360.481 380.874 357.2H370.346L325.913 411.204L327.143 417.63H391.949V406.008H339.449L340.132 408.88L364.331 376.341L362.281 375.52V417.63V425.286C362.281 426.745 362.234 427.975 362.144 428.977L350.385 431.165L350.796 438.001H389.077L389.488 431.165L380.738 428.977C380.645 427.975 380.553 426.745 380.464 425.286C380.372 423.829 380.327 421.276 380.327 417.63L380.191 380.169ZM495.666 436.565C500.496 434.788 504.984 432.122 509.133 428.567C513.279 425.012 516.652 420.593 519.25 415.305C521.848 410.02 523.146 403.868 523.146 396.848C523.146 388.829 521.369 381.809 517.814 375.794C514.26 369.778 509.383 365.061 503.185 361.643C496.986 358.225 489.832 356.516 481.721 356.516C473.334 356.516 465.861 358.341 459.299 361.985C452.736 365.632 447.609 370.645 443.918 377.024C440.226 383.405 438.381 390.696 438.381 398.899C438.381 406.739 440.226 413.688 443.918 419.749C447.609 425.811 452.713 430.573 459.23 434.036C465.746 437.501 473.197 439.231 481.584 439.231C486.14 439.231 490.834 438.342 495.666 436.565ZM470.92 424.671C467.548 421.799 464.881 417.813 462.923 412.708C460.962 407.604 459.982 401.68 459.982 394.934C459.982 385.729 461.76 378.528 465.314 373.333C468.869 368.137 473.791 365.54 480.08 365.54C484.455 365.54 488.236 366.975 491.429 369.846C494.618 372.717 497.123 376.751 498.947 381.946C500.769 387.141 501.683 393.249 501.683 400.266C501.683 406.374 500.975 411.569 499.562 415.852C498.149 420.138 496.029 423.395 493.205 425.628C490.38 427.862 486.869 428.977 482.679 428.977C478.212 428.977 474.291 427.542 470.92 424.671Z" fill="#231F20"/>
<path fill-rule="evenodd" clip-rule="evenodd" d="M486.138 69.1622C479.541 29.9612 443.664 0.000183105 400.392 0.000183105C357.12 0.000183105 321.243 29.9612 314.646 69.1622C313.537 75.7512 317.559 81.9402 322.839 81.9402L378.147 68.7462L372.989 128.597C372.989 143.669 385.32 156 400.392 156C415.463 156 427.795 143.669 427.795 128.597L422.637 68.7462L477.945 81.9402C483.225 81.9402 487.247 75.7512 486.138 69.1622Z" fill="#231F20"/>
<path fill-rule="evenodd" clip-rule="evenodd" d="M223.064 471.467C216.501 471.467 211.181 476.787 211.181 483.35C211.181 484.823 211.451 486.233 211.941 487.535C210.669 486.73 209.283 486.09 207.812 485.645C209.369 483.635 210.299 481.114 210.299 478.375C210.299 471.812 204.979 466.492 198.416 466.492C191.853 466.492 186.533 471.812 186.533 478.375C186.533 480.794 187.258 483.043 188.499 484.92L170.798 484.923C170.7 484.92 170.601 484.916 170.502 484.916C169.181 484.916 167.943 485.264 166.87 485.871C166.042 485.264 164.696 484.867 163.173 484.867C160.654 484.867 158.612 485.947 158.612 487.279C158.612 488.611 160.654 489.691 163.173 489.691C163.315 489.691 163.456 489.686 163.596 489.68C163.286 490.495 163.115 491.379 163.115 492.303C163.115 495.064 164.631 497.47 166.875 498.737L166.874 498.739L193.06 515.572C195.835 517.566 199.236 518.743 202.913 518.743C212.254 518.743 219.825 511.172 219.825 501.832C219.825 499.034 219.142 496.397 217.939 494.073C219.491 494.816 221.229 495.233 223.064 495.233C229.627 495.233 234.947 489.912 234.947 483.35C234.947 476.787 229.627 471.467 223.064 471.467Z" fill="#231F20"/>
<path fill-rule="evenodd" clip-rule="evenodd" d="M454.135 575.156C454.135 574.433 453.915 573.762 453.539 573.205C453.985 572.618 454.253 571.889 454.253 571.096C454.253 569.168 452.69 567.605 450.762 567.605C449.783 567.605 448.9 568.009 448.266 568.658C447.667 568.174 446.905 567.883 446.074 567.883C445.57 567.883 445.093 567.992 444.66 568.184C444.057 567.138 442.931 566.433 441.637 566.433C440.54 566.433 439.562 566.94 438.922 567.732C438.375 567.375 437.722 567.166 437.02 567.166C436.335 567.166 435.699 567.366 435.16 567.706C434.564 567.231 433.81 566.946 432.989 566.946C431.673 566.946 430.528 567.675 429.933 568.75C429.304 568.133 428.443 567.752 427.492 567.752C425.564 567.752 424.001 569.315 424.001 571.242C424.001 571.458 424.024 571.669 424.061 571.874C423.176 571.963 422.391 572.385 421.826 573.01C421.331 572.742 420.765 572.589 420.163 572.589C418.25 572.589 416.699 574.127 416.674 576.034C416.204 575.851 415.689 575.765 415.153 575.806C413.23 575.952 411.79 577.628 411.936 579.551C411.941 579.609 411.951 579.666 411.958 579.724C411.545 579.895 411.158 580.147 410.822 580.483C409.459 581.846 409.459 584.056 410.822 585.419C411.237 585.834 411.731 586.121 412.256 586.284V599.556C412.256 600.113 412.712 600.568 413.269 600.568L452.031 592.199C452.542 592.089 453.043 591.744 453.043 591.187V582.288C453.774 581.648 454.237 580.711 454.237 579.663C454.237 578.775 453.903 577.967 453.357 577.351C453.843 576.751 454.135 575.988 454.135 575.156Z" fill="#231F20"/>
<path fill-rule="evenodd" clip-rule="evenodd" d="M153.325 672.007C151.842 672.007 150.486 672.547 149.439 673.439C148.721 673.972 146.987 675.114 145.296 675.114C143.449 675.114 142.592 674.262 142.361 673.985C142.344 673.963 142.295 673.901 142.295 673.901C141.332 672.74 139.879 672 138.253 672C135.354 672 133.003 674.351 133.003 677.25C133.003 677.282 133.004 677.315 133.005 677.347V684L135.632 682.472C136.149 683.384 137.129 684 138.253 684C141.547 684 143.142 682.417 145.323 682.417C147.684 682.417 150.219 684 153.325 684C156.637 684 159.322 681.316 159.322 678.004C159.322 674.692 156.637 672.007 153.325 672.007Z" fill="#231F20"/>
<path d="M70.7625 333H529.162" stroke="#EB0000" stroke-width="3"/>
<path d="M70.7625 545.001H529.162" stroke="#3EB449" stroke-width="3"/>
<path fill-rule="evenodd" clip-rule="evenodd" d="M351.931 243.369C351.931 212.892 330.289 187.471 301.536 181.631V207.73C316.213 212.921 326.731 226.914 326.731 243.369C326.731 264.245 309.807 281.169 288.931 281.169C268.055 281.169 251.131 264.245 251.131 243.369C251.131 226.914 261.649 212.921 276.326 207.73V181.631C247.573 187.471 225.931 212.892 225.931 243.369C225.931 278.163 254.137 306.369 288.931 306.369C323.725 306.369 351.931 278.163 351.931 243.369Z" fill="#241F21"/>
</g>
<defs>
<filter id="filter0_d" x="0" y="0.000183105" width="535.799" height="694.265" filterUnits="userSpaceOnUse" color-interpolation-filters="sRGB">
<feFlood flood-opacity="0" result="BackgroundImageFix"/>
<feColorMatrix in="SourceAlpha" type="matrix" values="0 0 0 0 0 0 0 0 0 0 0 0 0 0 0 0 0 0 127 0"/>
<feOffset dy="4"/>
<feGaussianBlur stdDeviation="2"/>
<feColorMatrix type="matrix" values="0 0 0 0 0 0 0 0 0 0 0 0 0 0 0 0 0 0 0.25 0"/>
<feBlend mode="normal" in2="BackgroundImageFix" result="effect1_dropShadow"/>
<feBlend mode="normal" in="SourceGraphic" in2="effect1_dropShadow" result="shape"/>
</filter>
</defs>
</svg>
