<?xml version="1.0" encoding="utf-8"?>
<!-- Generator: Adobe Illustrator 23.1.1, SVG Export Plug-In . SVG Version: 6.00 Build 0)  -->
<svg version="1.1" id="Layer_1" xmlns="http://www.w3.org/2000/svg" xmlns:xlink="http://www.w3.org/1999/xlink" x="0px" y="0px"
	 viewBox="0 0 587.14 736.49" style="enable-background:new 0 0 587.14 736.49;" xml:space="preserve">
<style type="text/css">
	.st0{enable-background:new    ;}
</style>
<g class="st0">
	<path d="M2.87,736.45l-2.84-47.27l49.16-15.12l191.9-465.09l79.41-44.43l217.42,509.52l49.16,15.12l-2.84,47.27H330.89l-2.84-47.27
		l60.5-15.12l-51.05-121.95l-10.4-32.14l-94.53-223.09l27.41,7.56l-78.46,212.7l-8.51,28.36l-45.37,128.56l60.5,15.12l-2.84,47.27
		H2.87z M401.79,0.05l54.83,18.91c-7.56,34.03-27.41,60.83-59.55,80.35c-32.14,19.54-70.59,29.3-115.33,29.3
		c-44.75,0-83.51-9.76-116.27-29.3c-32.78-19.53-52.94-46.32-60.5-80.35l60.5-18.91c7.56,15.76,21.89,28.68,43.01,38.76
		c21.11,10.09,46.79,15.12,77.04,15.12c29.61,0,54.83-5.04,75.62-15.12C381.94,28.73,395.49,15.81,401.79,0.05z M150.34,575.74
		v-64.28c12.6,0.63,26.78,1.42,42.54,2.36c15.75,0.95,36.87,1.42,63.34,1.42c25.2,0,46.16-0.47,62.86-1.42
		c16.69-0.95,31.03-1.73,43.01-2.36v63.34c-11.98,0-26.47-0.31-43.48-0.95c-17.02-0.62-37.81-0.95-62.39-0.95
		c-25.85,0-46.96,0.33-63.34,0.95C176.48,574.49,162.3,575.12,150.34,575.74z"/>
</g>
</svg>
