<?xml version="1.0" encoding="utf-8"?>
<!-- Generator: Adobe Illustrator 23.1.1, SVG Export Plug-In . SVG Version: 6.00 Build 0)  -->
<svg version="1.1" id="Layer_1" xmlns="http://www.w3.org/2000/svg" xmlns:xlink="http://www.w3.org/1999/xlink" x="0px" y="0px"
	 viewBox="0 0 1024.97 1007.97" style="enable-background:new 0 0 1024.97 1007.97;" xml:space="preserve">
<style type="text/css">
	.st0{clip-path:url(#SVGID_2_);fill:#231F20;}
	.st1{clip-path:url(#SVGID_4_);fill:url(#SVGID_5_);}
	.st2{clip-path:url(#SVGID_7_);fill:none;stroke:#231F20;stroke-width:5;stroke-miterlimit:10;}
</style>
<g>
	<defs>
		<rect id="SVGID_1_" x="-569.83" y="221.69" width="401.46" height="554.48"/>
	</defs>
	<clipPath id="SVGID_2_">
		<use xlink:href="#SVGID_1_"  style="overflow:visible;"/>
	</clipPath>
	<path class="st0" d="M-347.85,776.17l2.83-37.78l-78.4-12.28c0-3.14-0.47-8.81-1.42-17c-0.95-8.18-1.58-21.56-1.89-40.15
		c-0.32-18.57-0.47-43.92-0.47-76.04l-0.94-191.75c0-22.04,0.15-42.82,0.47-62.34c0.31-19.51,0.62-36.04,0.94-49.59
		c0.31-13.53,0.47-22.2,0.47-25.98h50.06c35.26,0,64.54,10.55,87.85,31.64c23.29,21.11,34.95,54,34.95,98.71
		c0,39.05-10.39,67.86-31.17,86.43c-20.78,18.58-49.75,27.87-86.9,27.87c-11.33,0-22.52-0.95-33.53-2.83
		c-11.03-1.89-23.47-5.03-37.31-9.45v51.01c10.7,1.89,22.04,3.63,34.01,5.2c11.96,1.58,25.18,2.36,39.67,2.36
		c37.15,0,70.84-7.08,101.07-21.25c30.23-14.17,54.32-34.15,72.26-59.98c17.95-25.81,26.92-56.35,26.92-91.63
		c0-51.63-17.33-91.15-51.95-118.55c-34.64-27.39-83.12-41.09-145.47-41.09h-201.2l-2.83,35.9l58.57,14.17
		c0.62,1.27,1.09,6.3,1.42,15.11c0.31,8.83,0.78,22.36,1.42,40.62c0.62,18.27,0.95,42.83,0.95,73.68l-0.95,191.75
		c0,32.12-0.16,57.62-0.47,76.51c-0.33,18.89-0.63,32.59-0.94,41.09c-0.33,8.5-1.11,14.02-2.36,16.53l-54.79,13.22l2.83,35.9
		H-347.85z"/>
</g>
<rect x="-1283.07" y="-673.87" style="fill:none;" width="1022" height="1028.97"/>
<text transform="matrix(1 0 0 1 -1232.9111 87.5781)" style="font-family:'CrimsonPro-Bold'; font-size:968px;">@</text>
<g>
	<defs>
		<path id="SVGID_3_" d="M240.56,495.31c0,0.74,0.02,1.46,0.02,2.21v149.82l59.17-34.41c11.67,20.56,33.72,34.44,59.03,34.44
			c74.19,0,110.13-35.68,159.23-35.68c53.17,0,110.27,35.68,180.22,35.68c74.59,0,135.07-60.47,135.07-135.04
			c0-74.59-60.47-135.07-135.07-135.07c-33.4,0-63.94,12.14-87.52,32.23c-16.15,12-55.2,37.75-93.31,37.75
			c-41.58,0-60.9-19.21-66.08-25.45c-0.38-0.47-1.51-1.89-1.51-1.89c-21.69-26.15-54.41-42.79-91.03-42.79
			C293.49,377.09,240.56,430,240.56,495.31"/>
	</defs>
	<clipPath id="SVGID_4_">
		<use xlink:href="#SVGID_3_"  style="overflow:visible;"/>
	</clipPath>
	
		<radialGradient id="SVGID_5_" cx="606.3104" cy="1341.8929" r="22.5222" gradientTransform="matrix(21.8732 0 0 -21.8732 -12979.5547 29864.4062)" gradientUnits="userSpaceOnUse">
		<stop  offset="0" style="stop-color:#FF0000"/>
		<stop  offset="0.2458" style="stop-color:#FF0000"/>
		<stop  offset="0.2873" style="stop-color:#FF101C"/>
		<stop  offset="0.3973" style="stop-color:#FF3960"/>
		<stop  offset="0.5017" style="stop-color:#FF5A99"/>
		<stop  offset="0.5973" style="stop-color:#FF75C5"/>
		<stop  offset="0.6824" style="stop-color:#FF87E5"/>
		<stop  offset="0.7538" style="stop-color:#FF93F8"/>
		<stop  offset="0.8029" style="stop-color:#FF97FF"/>
		<stop  offset="1" style="stop-color:#FF97FF"/>
	</radialGradient>
	<rect x="240.56" y="377.09" class="st1" width="592.74" height="270.27"/>
</g>
<g>
	<defs>
		<rect id="SVGID_6_" x="234.93" y="371.46" width="604" height="285.67"/>
	</defs>
	<clipPath id="SVGID_7_">
		<use xlink:href="#SVGID_6_"  style="overflow:visible;"/>
	</clipPath>
	<path class="st2" d="M698.25,377.23c-33.4,0-63.94,12.16-87.52,32.25c-16.17,12-55.22,37.72-93.31,37.72
		c-41.6,0-60.9-19.19-66.1-25.43c-0.38-0.5-1.49-1.89-1.49-1.89c-21.69-26.15-54.41-42.81-91.03-42.81
		c-65.29,0-118.24,52.95-118.24,118.24c0,0.72,0.02,1.46,0.05,2.18v149.84l59.17-34.41c11.64,20.54,33.72,34.41,59.03,34.41
		c74.19,0,110.11-35.65,159.23-35.65c53.17,0,110.27,35.65,180.22,35.65c74.59,0,135.07-60.45,135.07-135.04
		S772.84,377.23,698.25,377.23z"/>
</g>
</svg>
