<?xml version="1.0" encoding="utf-8"?>
<!-- Generator: Adobe Illustrator 23.1.1, SVG Export Plug-In . SVG Version: 6.00 Build 0)  -->
<svg version="1.1" id="Layer_1" xmlns="http://www.w3.org/2000/svg" xmlns:xlink="http://www.w3.org/1999/xlink" x="0px" y="0px"
	 viewBox="0 0 557 323" style="enable-background:new 0 0 557 323;" xml:space="preserve">
<style type="text/css">
	.st0{clip-path:url(#SVGID_2_);fill:#FFFFFF;stroke:#231F20;stroke-width:2;stroke-miterlimit:10;}
	.st1{clip-path:url(#SVGID_4_);fill:url(#SVGID_5_);}
	.st2{clip-path:url(#SVGID_7_);fill:none;stroke:#231F20;stroke-width:1.5;stroke-miterlimit:10;}
</style>
<g>
	<defs>
		<rect id="SVGID_1_" x="6.7" y="7.97" width="543.6" height="315.06"/>
	</defs>
	<clipPath id="SVGID_2_">
		<use xlink:href="#SVGID_1_"  style="overflow:visible;"/>
	</clipPath>
	<ellipse class="st0" cx="278.5" cy="233.17" rx="262.3" ry="76.36"/>
</g>
<g>
	<defs>
		<path id="SVGID_3_" d="M287.95,232.83c-8.03,0.88-5.83,18.7-5.2,23.29c0.95,0.42,1.9,0.81,2.86,1.17
			c6.08-3.75,11.28-11.47,9.05-18.75c-0.94-3.08-2.65-5.76-5.98-5.76C288.44,232.79,288.2,232.8,287.95,232.83 M232.1,227.42
			c-3.99,4.45-4.06,12.22-1.85,19.13c4.94-0.11,10.31-1.09,11.66-5.6c0.75-2.5,0.36-10.28-1.02-12.62c-1.35-2.3-2.71-3.71-4.34-3.71
			C235.29,224.62,233.85,225.48,232.1,227.42 M335.92,221.99c-4.03,16.95-3.99,38.66,19.68,35.23c1.9-0.27,4.03-0.85,6.29-1.69
			c0.11-0.12,0.22-0.25,0.33-0.38c-3.29-11.45-9.04-33.4-23.61-33.4C337.75,221.75,336.85,221.83,335.92,221.99 M378.99,224.57
			c0.24,6.7,2.39,11.83,6.43,15.39c9.39-9.84,13.36-21.82-0.23-30.31C379.96,213.01,377.9,217.98,378.99,224.57 M196.66,214.35
			c-1.07,3.62-2.1,7.51-2.5,11.41c1.58,0.51,3.16,1.04,4.73,1.61c4.83,0.05,5.17-1.32,7.25-6.6c2.6-6.61-0.35-13.54-3.93-13.54
			C200.28,207.24,198.18,209.24,196.66,214.35 M124.76,208.48c0.7-1.02,1.13-2.11,1.14-3.25
			C124.61,206.13,124.44,207.19,124.76,208.48 M424.28,216.08c-2.41,9.56,4.09,12.38,11.58,12.85c2.6-8.3,2.19-19.09-3.95-23.89
			C427.92,207.63,425.38,211.31,424.28,216.08 M159.96,213.12c2.17,3.92,6.14,6.17,10.33,7.52c0.67-1.82,0.98-4.03,0.92-6.68
			c-0.13-6.68-2.94-14.36-9.95-16.54C157.02,200.61,157.66,208.96,159.96,213.12 M465.82,195.21c-3.56,4.29-3.75,8.7-0.57,13.23
			c3.65,0.44,7.2,0.49,10.58,0.04c0.62-5.49-0.24-11.92-1.19-16.53c-0.94-0.34-1.84-0.51-2.7-0.51
			C469.6,191.44,467.56,192.7,465.82,195.21 M491.74,180.11c3.1,0.84,6.04,0.39,8.57-0.91c0.38-5.74-0.71-11.29-4.81-13.9
			C490.04,167.45,491.63,175.84,491.74,180.11 M508.15,162.67c-0.37-1.74-1.09-3.43-2.23-4.99
			C507.33,160.24,505.99,162.46,508.15,162.67 M67.65,196.35c0.01,11.21-0.93,22.22,1.84,33.17c1.03,4.07,2.27,6.85,5.47,10.05
			c3.02,3.01,6.15,2.68,9.29,4.86c1.43,0.75,2.47,1.83,3.13,3.26c0.98,0.55,2.97,0.42,4.19,0.92c4.02,1.66,6.66,5.35,10.18,7.62
			c8.41,5.42,19.26,7.17,28.72,10.64c7.8,2.86,15.04,5.27,23.24,6.55c7.95,1.24,15.56,2.72,22.63,6.7
			c11.39,6.4,24,15.09,36.89,17.56c9.96,1.91,19.98,1.9,30.03,1.88c4.79-0.01,9.58-0.01,14.36,0.19c11.92,0.5,23.66,1.33,35.42,3.39
			c9.96,1.75,19.85,4.67,29.92,5.76c20.34,2.2,41.52-1.8,61.61-4.31c10.91-1.36,21.71-3.08,32.58-4.75
			c19.73-3.04,36.3-17.7,49.83-31.61c8.17-8.4,17.3-14.73,28.74-17.75c3.48-0.92,8.66-1.78,11.1-4.95
			c2.53-3.28,1.07-10.25,1.58-14.64c1.85-16.02,0.6-31.97,2.9-47.98c1.05-7.34,1.45-14.84,1.65-22.36
			c-1.06,1.05-2.32,1.88-3.22,2.03c-0.67,0.11-1.19,0.14-1.59,0.1c1.38,6.51-2.2,13.64-7.84,16.53c-0.39,5.93-2.34,12.05-4.14,15.33
			c-4.8,8.72-12.01,12.85-20.33,13.95c-0.23,2.07-0.68,4.01-1.4,5.67c-6.43,9.39-15.6,14.14-27.51,14.26
			c-3.26,0.4-7.29,0.76-11.06,0.52c-0.82,2.61-1.93,4.97-3.25,6.82c-9.58,10.1-21.3,13.27-35.14,9.53
			c-5.04-0.92-9.05-2.7-12.03-5.32c-6.57,6.89-15.81,12.72-23.53,15.57c-7.04,7.76-16.16,9.71-27.36,5.87
			c-8.2-0.34-16.4-0.68-24.59-1.03c-8.5,0.86-16.61-0.16-24.33-3.07c-0.86,0.53-1.74,0.98-2.63,1.34
			c-10.51,1.68-21.08,2.22-31.73,1.63c-3.9-0.24-7.8-0.48-11.69-0.72c-4.05-2.12-7.47-7.26-9.31-13.01
			c-2.75,0.06-5.37-0.15-7.08-0.18c-1.48-0.02-3.05,0.01-4.67,0.04c-9.18,0.17-19.69,0.34-23.22-9.34
			c-1.32-3.63-1.52-7.48-1.12-11.31c-3.39-1.08-6.82-2.01-10.29-2.8c-2.46-0.29-4.92-0.58-7.38-0.88c-1.99-0.32-4.12-0.77-6.19-1.44
			c-1.67,4.51-5.61,6.64-12.11,7.11c-12.31,0.9-26.77-3.32-31.95-15.58c-0.59-1.41-1.21-2.63-1.48-3.71
			c-2.3,3.35-7.54,5.9-10.63,6.8c-8.35,2.44-17.7,2.55-24.93-2.44c-6.67-4.61-17.79-15.24-15.96-24.97
			c0.99-5.28,8.27-5.07,8.26-10.52c4.32-1.16,8.39,3.07,11.8,5.18c0.49-3.75,0-6.19-1.14-8c-9.74-4.14-18.15-9.6-24.53-18.32
			C67.61,169.59,67.64,182.97,67.65,196.35 M513.88,130.71c-0.17,2.3-0.29,4.62-0.39,6.94c-1.36,1.78-2.03,3.54-1.36,4.54
			c0.42-0.23,0.83-0.5,1.22-0.8c-0.19,6.36-0.23,12.77-0.4,19.15c1.12-1.12,2.01-2.49,1.95-3.54c0.74,0.23,1.77,0.17,2.92,0.08
			c7.02-0.55,8.61-8.26,9.2-14.03c1.21-11.84-3.97-12.4-8.6-9.75c0.88-3.71,0.25-7.64-2.82-10.2c-0.32-0.27-0.77-0.54-1.3-0.79
			C514.23,125.07,514.09,127.86,513.88,130.71 M506.9,123.84c0.4,0.1,0.81,0.2,1.21,0.3l0.42-2.6
			C507.61,121.88,506.97,122.59,506.9,123.84 M508.53,121.54c1.62-0.6,4.1-0.04,5.8,0.77c0.34-10.35-0.09-20.21-1.01-30.71
			L508.53,121.54z M298.12,8.8c-11.19,0.36-22.43,0.96-33.62,1.42c-19.56,0.81-38.77,4.69-58.33,5.13
			c-20.02,0.45-38.76,3.62-58.05,8.73c-19,5.03-39.52,11.13-57.06,20.23c-4.78,2.48-8.74,6.46-13.9,8.08
			c-5.7,1.79-7.55,2.24-12.5,5.32c-11.92,7.4-12.68,11.93-14.73,25.32c-1.97,12.81,1.16,24.2,4.02,36.8
			c2.44,10.77,5.33,22.74,11.03,32.33c0.84,1.42,1.74,2.77,2.67,4.04c0-2.87,0.01-5.74,0.02-8.6c0-0.52,0-1.04,0-1.55
			c0.11,0.39,0.21,0.77,0.31,1.14c2,7.27,5.82,14.7,12.14,19.18c5.04,3.57,9.82,4.64,12.06,8.16c2.42,1.03,4.91,1.98,7.48,2.87
			c15.78,5.51,30.23,7.96,46.87,9.63c31.2,3.14,62.71,5.74,93.98,8.12c45.22,3.45,89.57-3.4,133.88-11.6
			c25.86-4.79,51.96-6.91,76.99-15.19c8.21-2.72,19.49-5.17,26.34-10.85c3.41-2.65,5.63-6.07,6.66-10.26
			c2.39-3.76,5.08-7.3,8.06-10.62c9.75-13.1,15.13-26.34,15.75-42.56c0.46-11.98,2.71-24.72,1.36-36.81
			c0.93,1.11,1.72,2.27,2.21,3.54c2.64,6.87,0.32,17.93,1.05,25.25c0.19,1.88,0.36,3.73,0.53,5.57l5.67-35.43
			c-1.2-1.87-2.34-1.67-3.89-2.7c-2.23-1.47-4.59-2.83-7.02-4.11c-0.52-2.42-1.32-7.69-3.87-8.54c-3.3-1.1-2.9,3.62-2.73,5.11
			c0,0.05,0.01,0.09,0.02,0.13c-1.74-0.84-3.47-1.65-5.17-2.46c-15.31-7.33-28.85-14.38-45.38-18.29
			c-13.82-3.26-26.9-9.04-41.07-10.3c-7.26-0.65-14.44-1.45-21.66-2.38c-14.66-1.88-29.2-0.78-43.92-1.55
			c-13.79-0.72-27.3-2.37-41.08-2.37C301.51,8.72,299.82,8.75,298.12,8.8"/>
	</defs>
	<clipPath id="SVGID_4_">
		<use xlink:href="#SVGID_3_"  style="overflow:visible;"/>
	</clipPath>
	
		<radialGradient id="SVGID_5_" cx="-21.5099" cy="462.1016" r="1" gradientTransform="matrix(0 272.5522 272.5522 0 -125652.9219 5900.0439)" gradientUnits="userSpaceOnUse">
		<stop  offset="0" style="stop-color:#FFFFFF"/>
		<stop  offset="0.686" style="stop-color:#FFFFFF"/>
		<stop  offset="0.7253" style="stop-color:#FFFFFC"/>
		<stop  offset="0.7556" style="stop-color:#FFFFF2"/>
		<stop  offset="0.7828" style="stop-color:#FFFFE2"/>
		<stop  offset="0.8083" style="stop-color:#FFFFCB"/>
		<stop  offset="0.8325" style="stop-color:#FFFFAD"/>
		<stop  offset="0.8557" style="stop-color:#FFFF88"/>
		<stop  offset="0.8783" style="stop-color:#FFFF5C"/>
		<stop  offset="0.8997" style="stop-color:#FFFF2B"/>
		<stop  offset="0.916" style="stop-color:#FFFF00"/>
		<stop  offset="1" style="stop-color:#FFFF00"/>
	</radialGradient>
	<rect x="47.95" y="8.72" class="st1" width="480.29" height="302.37"/>
</g>
<g>
	<defs>
		<rect id="SVGID_6_" x="6.7" y="7.97" width="543.6" height="315.06"/>
	</defs>
	<clipPath id="SVGID_7_">
		<use xlink:href="#SVGID_6_"  style="overflow:visible;"/>
	</clipPath>
	<path class="st2" d="M518.99,56.17c-1.2-1.87-2.34-1.67-3.89-2.69c-5.79-3.83-12.54-6.88-18.78-9.87
		c-15.31-7.33-28.85-14.38-45.38-18.29c-13.82-3.26-26.9-9.04-41.07-10.3c-7.25-0.65-14.44-1.45-21.66-2.38
		c-14.66-1.88-29.21-0.78-43.92-1.55c-15.48-0.81-30.61-2.79-46.16-2.29c-11.19,0.36-22.43,0.96-33.62,1.42
		c-19.56,0.8-38.77,4.69-58.33,5.13c-20.02,0.44-38.76,3.61-58.05,8.72c-19,5.03-39.52,11.13-57.06,20.23
		c-4.78,2.48-8.74,6.46-13.9,8.08c-5.7,1.79-7.55,2.24-12.5,5.31c-11.92,7.4-12.68,11.93-14.73,25.32
		c-1.96,12.81,1.16,24.2,4.02,36.8c2.44,10.77,5.33,22.74,11.03,32.33c8.05,13.55,20.25,20.2,34.68,25.24
		c15.79,5.51,30.23,7.96,46.87,9.63c31.2,3.14,62.72,5.74,93.98,8.12c45.22,3.44,89.57-3.4,133.88-11.61
		c25.86-4.79,51.96-6.91,76.99-15.19c8.21-2.72,19.49-5.17,26.34-10.85c3.41-2.65,5.63-6.07,6.66-10.26
		c2.4-3.76,5.08-7.3,8.06-10.62c9.75-13.1,15.13-26.34,15.75-42.56c0.55-14.42,3.7-29.93,0.04-44.11c-0.52-2.01-1.22-8.2-4.01-9.13
		c-3.3-1.1-2.9,3.62-2.73,5.11c0.69,6.07,8.2,9.46,10.27,14.85c2.63,6.87,0.32,17.93,1.05,25.25c1.55,15.49,2.2,29.28,1.09,44.67
		c-1.25,17.25-0.11,35.13-2.56,52.2c-2.3,16.01-1.05,31.96-2.9,47.98c-0.51,4.39,0.94,11.36-1.58,14.64
		c-2.43,3.16-7.61,4.03-11.1,4.94c-11.44,3.02-20.58,9.35-28.74,17.75c-13.53,13.92-30.1,28.57-49.83,31.61
		c-10.86,1.67-21.67,3.39-32.58,4.75c-20.09,2.51-41.27,6.51-61.61,4.31c-10.07-1.09-19.96-4.01-29.92-5.76
		c-11.76-2.06-23.5-2.89-35.42-3.39c-14.84-0.62-29.69,0.75-44.39-2.07c-12.89-2.47-25.49-11.16-36.89-17.56
		c-7.07-3.97-14.68-5.46-22.63-6.7c-8.2-1.28-15.44-3.69-23.24-6.55c-9.46-3.47-20.3-5.22-28.72-10.64
		c-3.52-2.27-6.16-5.95-10.18-7.62c-1.23-0.5-3.22-0.37-4.2-0.92c-0.66-1.43-1.7-2.51-3.13-3.26c-3.14-2.18-6.27-1.85-9.29-4.86
		c-3.21-3.19-4.45-5.97-5.47-10.05c-2.76-10.95-1.83-21.96-1.84-33.17c-0.01-16.25-0.06-32.5,0-48.75
		c0.02-6.57-0.02-13.01-1.36-19.4c-0.49-2.34-1.83-5.64-1.65-8.06c-1.41,1.52-0.77,0.08-0.89,3.28c-0.26,7.08,2.34,16.99,4.21,23.77
		c2,7.27,5.82,14.7,12.14,19.18c7.62,5.4,14.63,5.07,13.2,16.15c-3.41-2.11-7.48-6.34-11.8-5.18c0.02,5.45-7.26,5.25-8.26,10.52
		c-1.83,9.73,9.28,20.36,15.96,24.97c7.23,4.99,16.57,4.88,24.93,2.44c4.03-1.17,11.7-5.14,11.77-10.05
		c-2.37,1.65-0.97,3.87,0.34,6.96c5.18,12.26,19.65,16.48,31.95,15.58c9.12-0.67,13.21-4.59,13.03-13.79
		c-0.13-6.69-2.93-14.36-9.95-16.54c-4.25,3.18-3.61,11.54-1.31,15.7c3.24,5.85,10.5,7.98,16.52,8.96c2.46,0.29,4.92,0.58,7.38,0.88
		c5.1,1.16,10.11,2.62,15.02,4.41c4.83,0.05,5.17-1.32,7.25-6.6c4-10.17-5.13-21.07-9.47-6.42c-2.13,7.18-4.06,15.39-1.38,22.72
		c4.15,11.37,17.95,9.14,27.89,9.3c4.81,0.08,16.64,1.59,18.75-5.42c0.75-2.5,0.36-10.27-1.02-12.61c-2.4-4.08-4.8-5.37-8.8-0.91
		c-7.31,8.15-1.46,27.46,7.46,32.13c3.9,0.24,7.8,0.48,11.7,0.72c10.64,0.58,21.22,0.04,31.73-1.64
		c7.08-2.89,14.23-11.78,11.68-20.09c-1.01-3.29-2.9-6.14-6.71-5.72c-8.03,0.88-5.83,18.7-5.2,23.29c8.57,3.8,17.63,5.22,27.19,4.25
		c8.2,0.34,16.4,0.69,24.6,1.03c11.38,3.91,20.61,1.83,27.69-6.24c-3.48-12.13-9.73-36.06-26.31-33.16
		c-4.03,16.95-3.99,38.66,19.68,35.23c17.66-2.56,55.48-31.39,29.59-47.57c-5.23,3.36-7.29,8.33-6.2,14.92
		c0.42,11.63,6.58,18.54,18.46,20.72c13.85,3.75,25.56,0.57,35.14-9.53c5.54-7.74,7.38-24.41-0.7-30.71
		c-3.98,2.59-6.52,6.27-7.62,11.04c-3.63,14.39,12.91,13.51,22.64,12.33c11.91-0.12,21.08-4.88,27.51-14.26
		c2.65-6.05,1.52-15.84,0.21-22.2c-3.5-1.26-6.44-0.17-8.82,3.26c-3.56,4.29-3.75,8.7-0.57,13.23c12.65,1.53,24.17-1.65,30.91-13.91
		c3.54-6.44,7.67-23.92-0.67-29.22c-5.46,2.15-3.86,10.54-3.75,14.81c11.85,3.2,21.46-12.44,14.18-22.43
		c1.66,3.02-0.53,5.59,3.82,4.88c2.41-0.39,7.47-5.71,3.99-6.96c0.29,1.71,1.98,1.64,4.11,1.47c7.02-0.55,8.61-8.26,9.2-14.03
		c2.25-22.07-17.66-4.96-14.9-0.86c5.99-3.28,9.63-13.95,3.48-19.08c-1.96-1.63-8.48-3.41-8.72,0.73c0.4,0.1,0.81,0.2,1.21,0.3"/>
</g>
</svg>
