<?xml version="1.0" encoding="utf-8"?>
<!-- Generator: Adobe Illustrator 23.1.1, SVG Export Plug-In . SVG Version: 6.00 Build 0)  -->
<svg version="1.1" id="Layer_1" xmlns="http://www.w3.org/2000/svg" xmlns:xlink="http://www.w3.org/1999/xlink" x="0px" y="0px"
	 viewBox="0 0 530 378" style="enable-background:new 0 0 530 378;" xml:space="preserve">
<style type="text/css">
	.st0{clip-path:url(#SVGID_2_);fill:url(#SVGID_3_);}
	.st1{clip-path:url(#SVGID_5_);fill:none;stroke:#231F20;stroke-width:2;stroke-miterlimit:10;}
</style>
<g>
	<defs>
		<path id="SVGID_1_" d="M221.69,17.2c-4.59-2.87-10.02-4.54-15.83-4.54c-12.31,0-22.89,7.45-27.47,18.08
			c-4.83-3.34-10.68-5.3-17-5.3c-4.88,0-9.49,1.18-13.56,3.25c-5.47-6.07-13.4-9.89-22.22-9.89c-8.37,0-15.93,3.44-21.36,8.99
			c-1.37-0.19-2.77-0.3-4.19-0.3c-10.6,0-19.9,5.52-25.21,13.83c-0.45-0.02-0.91-0.03-1.37-0.03c-14.52,0-26.62,10.35-29.33,24.07
			C27.8,65.52,14.58,78.83,14.58,95.24c0,5.48,1.48,10.61,4.06,15.03c-6.42,5.48-10.5,13.63-10.5,22.74c0,2.94,0.43,5.78,1.22,8.47
			c-4.46,5.22-7.15,11.99-7.15,19.39c0,9.23,4.19,17.49,10.77,22.97c-0.65,2.46-1,5.03-1,7.69c0,7.94,3.11,15.16,8.16,20.51v55.48
			c-0.01,0.43-0.04,0.86-0.04,1.29c0,59.06,110.68,106.93,247.21,106.93s247.22-47.88,247.22-106.93c0-0.21-0.02-0.42-0.02-0.63
			v-61.63c6.57-5.48,10.75-13.73,10.75-22.96c0-8.44-3.51-16.06-9.14-21.5c2.4-4.3,3.77-9.25,3.77-14.53c0-4.28-0.9-8.34-2.52-12.02
			c6.24-5.48,10.19-13.51,10.19-22.47c0-8.31-3.39-15.82-8.86-21.24c0.44-2.05,0.68-4.17,0.68-6.36c0-16.51-13.38-29.9-29.9-29.9
			c-0.16,0-0.33,0.01-0.49,0.01c-4.69-5.37-11.27-9.04-18.7-9.98c-2.63-13.82-14.77-24.27-29.36-24.27c-4.26,0-8.3,0.9-11.97,2.5
			c-5.04-9.39-14.95-15.79-26.36-15.79c-9.92,0-18.71,4.84-24.15,12.29c-4.34-2.45-9.35-3.86-14.69-3.86c-5.14,0-9.97,1.3-14.2,3.58
			c-5.22-8.72-14.76-14.56-25.67-14.56c-9.71,0-18.34,4.64-23.8,11.81c-4.33-2.45-9.34-3.85-14.67-3.85
			c-4.37,0-8.51,0.94-12.25,2.63c-5.27-8.5-14.68-14.17-25.42-14.17C236.57,1.93,226.81,8.09,221.69,17.2"/>
	</defs>
	<clipPath id="SVGID_2_">
		<use xlink:href="#SVGID_1_"  style="overflow:visible;"/>
	</clipPath>
	
		<radialGradient id="SVGID_3_" cx="-0.1771" cy="442.0033" r="1" gradientTransform="matrix(0 368.3739 368.3739 0 -162551.1094 114.5215)" gradientUnits="userSpaceOnUse">
		<stop  offset="0" style="stop-color:#FFFFFF"/>
		<stop  offset="0.2491" style="stop-color:#FFFFFF"/>
		<stop  offset="0.3762" style="stop-color:#FFFFFC"/>
		<stop  offset="0.4528" style="stop-color:#FFFFF4"/>
		<stop  offset="0.5159" style="stop-color:#FFFFE6"/>
		<stop  offset="0.5718" style="stop-color:#FFFFD1"/>
		<stop  offset="0.6229" style="stop-color:#FFFFB7"/>
		<stop  offset="0.6705" style="stop-color:#FFFF97"/>
		<stop  offset="0.7154" style="stop-color:#FFFF70"/>
		<stop  offset="0.7581" style="stop-color:#FFFF43"/>
		<stop  offset="0.7978" style="stop-color:#FFFF12"/>
		<stop  offset="0.8111" style="stop-color:#FFFF00"/>
		<stop  offset="1" style="stop-color:#FFFF00"/>
	</radialGradient>
	<rect x="2.21" y="1.93" class="st0" width="525.35" height="373.83"/>
</g>
<g>
	<defs>
		<rect id="SVGID_4_" x="1.21" y="0.93" width="527.35" height="375.83"/>
	</defs>
	<clipPath id="SVGID_5_">
		<use xlink:href="#SVGID_4_"  style="overflow:visible;"/>
	</clipPath>
	<path class="st1" d="M516.12,162.11c2.4-4.3,3.77-9.25,3.77-14.53c0-4.28-0.9-8.34-2.52-12.02c6.24-5.48,10.19-13.51,10.19-22.47
		c0-8.31-3.39-15.82-8.86-21.24c0.44-2.05,0.68-4.17,0.68-6.36c0-16.51-13.39-29.9-29.9-29.9c-0.16,0-0.32,0.01-0.49,0.01
		c-4.69-5.37-11.27-9.04-18.7-9.98c-2.63-13.82-14.77-24.27-29.36-24.27c-4.26,0-8.3,0.9-11.97,2.5
		c-5.04-9.4-14.95-15.79-26.36-15.79c-9.93,0-18.72,4.84-24.15,12.29c-4.34-2.45-9.35-3.86-14.69-3.86c-5.14,0-9.97,1.3-14.2,3.58
		c-5.22-8.72-14.76-14.56-25.67-14.56c-9.71,0-18.34,4.64-23.8,11.81c-4.33-2.45-9.34-3.85-14.67-3.85c-4.37,0-8.51,0.94-12.25,2.63
		c-5.27-8.5-14.68-14.17-25.42-14.17c-11.2,0-20.95,6.16-26.07,15.27c-4.59-2.87-10.02-4.54-15.83-4.54
		c-12.31,0-22.89,7.45-27.47,18.08c-4.83-3.34-10.68-5.3-16.99-5.3c-4.88,0-9.49,1.18-13.56,3.25c-5.47-6.08-13.4-9.9-22.22-9.9
		c-8.37,0-15.93,3.44-21.36,8.99c-1.37-0.19-2.77-0.3-4.19-0.3c-10.6,0-19.9,5.52-25.21,13.83c-0.45-0.02-0.91-0.04-1.36-0.04
		c-14.52,0-26.62,10.35-29.33,24.07C27.8,65.52,14.58,78.83,14.58,95.24c0,5.48,1.48,10.61,4.06,15.03
		c-6.42,5.48-10.5,13.63-10.5,22.74c0,2.94,0.43,5.78,1.23,8.47c-4.46,5.22-7.16,11.99-7.16,19.39c0,9.23,4.19,17.49,10.77,22.97
		c-0.65,2.45-1,5.03-1,7.69c0,7.94,3.11,15.16,8.16,20.51v55.48c-0.01,0.43-0.04,0.86-0.04,1.29
		c0,59.06,110.68,106.93,247.22,106.93c136.53,0,247.22-47.88,247.22-106.93c0-0.21-0.02-0.42-0.02-0.63v-61.63
		c6.57-5.48,10.75-13.73,10.75-22.96C525.26,175.16,521.75,167.54,516.12,162.11z"/>
</g>
</svg>
