<?xml version="1.0" encoding="utf-8"?>
<!-- Generator: Adobe Illustrator 23.1.1, SVG Export Plug-In . SVG Version: 6.00 Build 0)  -->
<svg version="1.1" id="Layer_1" xmlns="http://www.w3.org/2000/svg" xmlns:xlink="http://www.w3.org/1999/xlink" x="0px" y="0px"
	 viewBox="0 0 601.25 463.02" style="enable-background:new 0 0 601.25 463.02;" xml:space="preserve">
<style type="text/css">
	.st0{clip-path:url(#SVGID_3_);fill:url(#SVGID_4_);stroke:#000000;stroke-width:5;stroke-linecap:round;stroke-miterlimit:10;}
	.st1{fill:none;stroke:#000000;stroke-width:5;stroke-linecap:round;stroke-miterlimit:10;}
</style>
<g>
	<g>
		<g>
			<g>
				<g>
					<defs>
						<path id="SVGID_2_" d="M393.1,20.06c-7.34-4.77-16.08-7.59-25.49-7.59c-9.19,0-17.71,2.68-24.94,7.25
							c-7.99-6.37-18.12-10.19-29.11-10.19c-17.66,0-33.02,9.78-40.98,24.18c-8.45-8.26-19.99-13.37-32.73-13.37
							c-25.85,0-46.81,20.95-46.81,46.8c0,2.9,0.3,5.73,0.8,8.48c-11.88,1.18-22.41,6.84-29.98,15.23
							c-6.62-3.61-14.23-5.66-22.3-5.66c-25.64,0-46.44,20.64-46.77,46.2c-6.3-2.44-13.21-3.59-20.4-3.06
							c-25.79,1.96-45.1,24.45-43.14,50.22c0.05,0.79,0.2,1.56,0.3,2.33c-5.55,2.28-10.74,5.67-15.23,10.16
							c-18.29,18.28-18.29,47.91,0,66.2c5.57,5.57,12.19,9.41,19.22,11.59v177.99c0,7.46,6.13,13.57,13.58,13.57l519.81-112.23
							c6.84-1.48,13.56-6.11,13.56-13.57V215.25c9.8-8.58,16.02-21.15,16.02-35.2c0-11.89-4.48-22.73-11.8-31
							c6.52-8.03,10.42-18.26,10.42-29.43c0-9.68-2.94-18.69-7.99-26.16c5.99-7.86,9.57-17.63,9.57-28.28
							c0-25.84-20.95-46.8-46.8-46.8c-13.13,0-24.97,5.42-33.48,14.12c-8.03-6.5-18.25-10.41-29.38-10.41
							c-6.76,0-13.16,1.46-18.96,4.04C462,12.1,446.89,2.66,429.55,2.66C414.81,2.65,401.68,9.44,393.1,20.06"/>
					</defs>
					<clipPath id="SVGID_3_">
						<use xlink:href="#SVGID_2_"  style="overflow:visible;"/>
					</clipPath>
					
						<linearGradient id="SVGID_4_" gradientUnits="userSpaceOnUse" x1="568.5709" y1="1347.3102" x2="581.9807" y2="1347.3102" gradientTransform="matrix(0 -27.0255 -27.0255 0 36710.0703 15768.5938)">
						<stop  offset="0" style="stop-color:#FFFF00"/>
						<stop  offset="0.1655" style="stop-color:#FFFF00"/>
						<stop  offset="0.1763" style="stop-color:#FFFF07"/>
						<stop  offset="0.3433" style="stop-color:#FFFF70"/>
						<stop  offset="0.4775" style="stop-color:#FFFFBD"/>
						<stop  offset="0.5723" style="stop-color:#FFFFED"/>
						<stop  offset="0.6194" style="stop-color:#FFFFFF"/>
						<stop  offset="1" style="stop-color:#FFFFFF"/>
					</linearGradient>
					<rect x="-2" y="2.65" class="st0" width="600.68" height="457.75"/>
				</g>
				<g>
					<path id="SVGID_1_" class="st1" d="M393.1,20.06c-7.34-4.77-16.08-7.59-25.49-7.59c-9.19,0-17.71,2.68-24.94,7.25
						c-7.99-6.37-18.12-10.19-29.11-10.19c-17.66,0-33.02,9.78-40.98,24.18c-8.45-8.26-19.99-13.37-32.73-13.37
						c-25.85,0-46.81,20.95-46.81,46.8c0,2.9,0.3,5.73,0.8,8.48c-11.88,1.18-22.41,6.84-29.98,15.23
						c-6.62-3.61-14.23-5.66-22.3-5.66c-25.64,0-46.44,20.64-46.77,46.2c-6.3-2.44-13.21-3.59-20.4-3.06
						c-25.79,1.96-45.1,24.45-43.14,50.22c0.05,0.79,0.2,1.56,0.3,2.33c-5.55,2.28-10.74,5.67-15.23,10.16
						c-18.29,18.28-18.29,47.91,0,66.2c5.57,5.57,12.19,9.41,19.22,11.59v177.99c0,7.46,6.13,13.57,13.58,13.57l519.81-112.23
						c6.84-1.48,13.56-6.11,13.56-13.57V215.25c9.8-8.58,16.02-21.15,16.02-35.2c0-11.89-4.48-22.73-11.8-31
						c6.52-8.03,10.42-18.26,10.42-29.43c0-9.68-2.94-18.69-7.99-26.16c5.99-7.86,9.57-17.63,9.57-28.28
						c0-25.84-20.95-46.8-46.8-46.8c-13.13,0-24.97,5.42-33.48,14.12c-8.03-6.5-18.25-10.41-29.38-10.41
						c-6.76,0-13.16,1.46-18.96,4.04C462,12.1,446.89,2.66,429.55,2.66C414.81,2.65,401.68,9.44,393.1,20.06"/>
				</g>
			</g>
		</g>
	</g>
</g>
</svg>
