<svg width="88" height="14" viewBox="0 0 88 14" fill="none" xmlns="http://www.w3.org/2000/svg">
<path fill-rule="evenodd" clip-rule="evenodd" d="M8.93405 12.9028C9.60005 12.7098 10.1831 12.4908 10.6851 12.2478L11.2871 9.54083L10.2981 9.43283L9.35305 11.4528C9.00905 11.6538 8.64705 11.8038 8.26805 11.9038C7.88805 12.0038 7.47605 12.0538 7.03305 12.0538C6.15905 12.0538 5.36005 11.8398 4.63705 11.4098C3.91405 10.9798 3.34105 10.3428 2.91805 9.49783C2.49605 8.65283 2.28505 7.62183 2.28505 6.40383C2.28505 5.47283 2.44605 4.62083 2.76805 3.84683C3.09005 3.07383 3.59105 2.45483 4.27205 1.98883C4.95205 1.52383 5.83005 1.29083 6.90405 1.29083C7.31905 1.29083 7.74905 1.33683 8.19305 1.42983C8.63705 1.52383 8.99505 1.66283 9.26705 1.84883L9.91205 3.88983L10.8781 3.80383L10.7281 0.860828C10.2121 0.645828 9.62505 0.481828 8.96605 0.366828C8.30705 0.251828 7.68405 0.194828 7.09705 0.194828C5.98005 0.194828 4.98405 0.366828 4.11105 0.710828C3.23705 1.05383 2.49605 1.53083 1.88705 2.13883C1.27805 2.74783 0.816053 3.44983 0.501053 4.24483C0.186053 5.03983 0.0290527 5.88783 0.0290527 6.79083C0.0290527 8.19483 0.337053 9.37183 0.953053 10.3248C1.56805 11.2778 2.38805 11.9938 3.41305 12.4728C4.43605 12.9528 5.57205 13.1928 6.81805 13.1928C7.56205 13.1928 8.26805 13.0958 8.93405 12.9028V12.9028ZM17.4311 12.9998L17.4961 12.1828L16.2281 11.8608C16.2141 11.7178 16.1961 11.5208 16.1741 11.2698C16.1531 11.0198 16.1381 10.6868 16.1311 10.2708C16.1241 9.85583 16.1211 9.33983 16.1211 8.72383V4.36283V2.81583V1.93483C16.1211 1.73483 16.1241 1.59083 16.1311 1.50583C16.1381 1.41983 16.1491 1.36283 16.1631 1.33383H17.4101C18.2121 1.33383 18.8281 1.53083 19.2571 1.92383C19.6871 2.31883 19.9021 2.89483 19.9021 3.65383C19.9021 4.44183 19.6551 5.05783 19.1611 5.50183C18.6661 5.94583 17.9751 6.16783 17.0871 6.16783H15.8631V7.13383H17.2381C18.1261 7.13383 18.9171 6.97683 19.6121 6.66183C20.3061 6.34683 20.8471 5.91283 21.2341 5.36183C21.6211 4.81083 21.8141 4.18383 21.8141 3.48183C21.8141 2.46483 21.4591 1.69583 20.7501 1.17283C20.0411 0.649828 19.0141 0.387828 17.6671 0.387828H12.9621L12.8981 1.20483L14.2301 1.50583C14.2441 1.56283 14.2581 1.71683 14.2731 1.96683C14.2871 2.21783 14.2981 2.56883 14.3051 3.01983C14.3121 3.47083 14.3161 4.02683 14.3161 4.68483V8.72383C14.3161 9.05383 14.3121 9.38683 14.3051 9.72283C14.2981 10.0598 14.2941 10.3718 14.2941 10.6578C14.2941 10.9448 14.2911 11.1918 14.2841 11.3988C14.2761 11.6068 14.2731 11.7608 14.2731 11.8608L12.9621 12.1828L13.0051 12.9998H17.4311ZM23.6721 13.1928C23.8371 13.1788 23.9911 13.1568 24.1341 13.1288L24.1561 12.3768C23.7831 12.3048 23.4391 12.1828 23.1241 12.0108C22.8091 11.8398 22.4911 11.5778 22.1681 11.2268C21.8461 10.8758 21.4841 10.4068 21.0831 9.81983L18.7631 6.40383L17.1521 6.76883L18.6131 9.43283C19.1571 10.3638 19.6551 11.1088 20.1061 11.6678C20.5571 12.2258 21.0261 12.6238 21.5131 12.8598C22.0001 13.0958 22.5581 13.2148 23.1891 13.2148C23.3461 13.2148 23.5071 13.2068 23.6721 13.1928V13.1928ZM29.6991 12.9998L29.7421 12.1828L28.4311 11.8818C28.4021 11.8248 28.3771 11.6778 28.3561 11.4418C28.3341 11.2058 28.3201 10.8658 28.3131 10.4218C28.3061 9.97783 28.3021 9.41183 28.3021 8.72383V4.68483C28.3021 3.96883 28.3061 3.38883 28.3131 2.94483C28.3201 2.50083 28.3341 2.16083 28.3561 1.92383C28.3771 1.68783 28.4021 1.54883 28.4311 1.50583L29.7421 1.20483L29.6991 0.387828H25.1221L25.0801 1.20483L26.3901 1.50583C26.4191 1.54883 26.4361 1.70283 26.4441 1.96683C26.4511 2.23283 26.4581 2.58983 26.4651 3.04183C26.4721 3.49283 26.4761 4.04083 26.4761 4.68483V8.72383C26.4761 9.35483 26.4721 9.89183 26.4651 10.3358C26.4581 10.7798 26.4511 11.1308 26.4441 11.3878C26.4361 11.6458 26.4191 11.8108 26.3901 11.8818L25.0801 12.1828L25.1221 12.9998H29.6991ZM31.8901 1.20483L33.2011 1.50583C33.2011 1.74883 33.2041 2.13183 33.2111 2.65483C33.2181 3.17783 33.2151 3.75383 33.2011 4.38383L33.1361 8.63783C33.1361 9.25383 33.1291 9.78783 33.1151 10.2388C33.1001 10.6898 33.0901 11.0518 33.0821 11.3238C33.0751 11.5958 33.0641 11.7818 33.0501 11.8818L31.5891 12.1828L31.6541 12.9998H35.8651L35.9291 12.1828L34.4681 11.8818C34.4541 11.7538 34.4431 11.4208 34.4361 10.8828C34.4291 10.3458 34.4251 9.48383 34.4251 8.29483L34.4041 0.989828H33.8451L39.1731 13.0638H39.9251L45.1241 1.01083H44.5661L44.6091 8.63783C44.6231 9.35483 44.6301 9.91983 44.6301 10.3358V11.3018C44.6301 11.5318 44.6231 11.7318 44.6091 11.9038L43.2981 12.1828L43.3631 12.9998H47.9171L47.9601 12.1828L46.6501 11.9038C46.6351 11.7468 46.6211 11.5278 46.6071 11.2488C46.5921 10.9688 46.5781 10.5898 46.5641 10.1098C46.5491 9.62983 46.5351 9.03183 46.5211 8.31583L46.4351 4.38383C46.4211 3.75383 46.4101 3.16283 46.4031 2.61183C46.3951 2.06083 46.3991 1.68483 46.4131 1.48383L47.7461 1.20483L47.6811 0.387828H44.2011L39.7751 10.6788H40.1621L35.6501 0.387828H31.9331L31.8901 1.20483ZM56.2211 12.7308C56.9161 12.4228 57.4641 12.0008 57.8651 11.4638C58.2651 10.9258 58.4661 10.3138 58.4661 9.62683C58.4661 8.98183 58.3121 8.44183 58.0041 8.00483C57.6961 7.56783 57.3021 7.19883 56.8231 6.89783C56.3431 6.59683 55.8341 6.32883 55.2971 6.09183C54.7601 5.85583 54.2521 5.60883 53.7721 5.35083C53.2921 5.09283 52.8981 4.78883 52.5901 4.43783C52.2821 4.08683 52.1281 3.65383 52.1281 3.13783C52.1281 2.56583 52.3471 2.09983 52.7841 1.74183C53.2201 1.38383 53.8041 1.20483 54.5351 1.20483C55.2511 1.20483 55.8381 1.34783 56.2961 1.63383L56.8981 3.43883L57.8221 3.35283L57.6501 0.667828C57.4061 0.567828 57.1341 0.477828 56.8331 0.398828C56.5331 0.320828 56.2071 0.262828 55.8561 0.226828C55.5051 0.191828 55.1431 0.173828 54.7711 0.173828C53.8831 0.173828 53.0951 0.320828 52.4081 0.613828C51.7201 0.907828 51.1791 1.32283 50.7861 1.85983C50.3911 2.39683 50.1951 3.00883 50.1951 3.69683C50.1951 4.36983 50.3481 4.93183 50.6571 5.38283C50.9651 5.83483 51.3551 6.21383 51.8281 6.52183C52.3001 6.82983 52.8051 7.10183 53.3421 7.33883C53.8791 7.57483 54.3881 7.81883 54.8681 8.06883C55.3471 8.31983 55.7381 8.61383 56.0381 8.94983C56.3391 9.28683 56.4901 9.70483 56.4901 10.2068C56.4901 10.7938 56.2751 11.2588 55.8451 11.6028C55.4151 11.9468 54.8491 12.1188 54.1481 12.1188C53.6891 12.1188 53.2491 12.0578 52.8271 11.9358C52.4041 11.8148 52.0211 11.6388 51.6771 11.4098L51.0761 9.49783L50.1521 9.58383L50.2591 12.3548C50.6891 12.5988 51.2331 12.7988 51.8921 12.9568C52.5511 13.1138 53.1951 13.1928 53.8261 13.1928C54.7281 13.1928 55.5261 13.0388 56.2211 12.7308V12.7308ZM69.1331 12.7098C69.8711 12.3868 70.5261 11.9288 71.0991 11.3348C71.6721 10.7398 72.1231 10.0418 72.4531 9.23983C72.7821 8.43783 72.9471 7.55683 72.9471 6.59683C72.9471 5.33683 72.6851 4.22683 72.1631 3.26683C71.6401 2.30783 70.9201 1.55583 70.0031 1.01083C69.0871 0.466828 68.0271 0.194828 66.8241 0.194828C65.5921 0.194828 64.4851 0.477828 63.5041 1.04383C62.5231 1.60983 61.7571 2.38583 61.2051 3.37483C60.6541 4.36283 60.3781 5.48783 60.3781 6.74783C60.3781 8.00783 60.6501 9.12483 61.1951 10.0988C61.7391 11.0728 62.4951 11.8318 63.4611 12.3768C64.4281 12.9208 65.5351 13.1928 66.7811 13.1928C67.6111 13.1928 68.3951 13.0318 69.1331 12.7098V12.7098ZM64.7181 11.3018C64.0591 10.8158 63.5441 10.1458 63.1711 9.29383C62.7991 8.44183 62.6131 7.45683 62.6131 6.33983C62.6131 4.77883 62.9671 3.54283 63.6761 2.63283C64.3851 1.72383 65.3481 1.26883 66.5661 1.26883C67.4111 1.26883 68.1451 1.51583 68.7681 2.00983C69.3911 2.50483 69.8821 3.18883 70.2401 4.06183C70.5981 4.93583 70.7771 5.95283 70.7771 7.11283C70.7771 8.11583 70.6231 8.98583 70.3151 9.72283C70.0071 10.4608 69.5701 11.0308 69.0041 11.4308C68.4381 11.8318 67.7621 12.0328 66.9741 12.0328C66.1291 12.0328 65.3771 11.7888 64.7181 11.3018V11.3018ZM85.2571 9.92683L78.0381 0.387828H75.0951L75.0311 1.20483L76.3411 1.50583C76.3701 1.59083 76.3911 1.74883 76.4061 1.97783C76.4201 2.20683 76.4341 2.52983 76.4491 2.94483C76.4631 3.36083 76.4701 3.88983 76.4701 4.53483V8.20883C76.4701 9.06783 76.4631 9.75883 76.4491 10.2818C76.4341 10.8048 76.4201 11.1878 76.4061 11.4308C76.3911 11.6748 76.3701 11.8248 76.3411 11.8818L75.0311 12.1828L75.0951 12.9998H79.2201L79.2851 12.1828L77.8241 11.8818C77.8091 11.8248 77.7911 11.6708 77.7701 11.4208C77.7481 11.1698 77.7301 10.7868 77.7161 10.2708C77.7021 9.75583 77.6951 9.06783 77.6951 8.20883V2.45083H77.2221L85.1281 13.0858H86.0951C86.0811 12.5838 86.0741 12.0968 86.0741 11.6248V10.2278V5.11483C86.0741 4.28383 86.0811 3.61083 86.0951 3.09483C86.1091 2.57983 86.1271 2.19683 86.1491 1.94583C86.1701 1.69583 86.1811 1.54883 86.1811 1.50583L87.5131 1.20483L87.4491 0.387828H83.3671L83.3021 1.20483L84.7631 1.50583C84.7771 1.54883 84.7951 1.69583 84.8171 1.94583C84.8381 2.19683 84.8521 2.57583 84.8601 3.08483C84.8671 3.59283 84.8711 4.26983 84.8711 5.11483V9.92683H85.2571Z" fill="#231F20"/>
</svg>
