<svg width="456" height="28" viewBox="0 0 456 28" fill="none" xmlns="http://www.w3.org/2000/svg">
<path d="M0.837891 19L0.794922 18.334L2.12695 18.0332C2.14128 17.9043 2.14844 17.7754 2.14844 17.6465C2.16276 17.5033 2.16992 17.2812 2.16992 16.9805C2.18424 16.6797 2.19141 16.2428 2.19141 15.6699L2.21289 13.9512C2.22721 13.6361 2.22721 13.3066 2.21289 12.9629C2.19857 12.6048 2.17708 12.2754 2.14844 11.9746C2.11979 11.6738 2.09115 11.459 2.0625 11.3301L0.6875 11.0293V10.4277L3.11523 9.74023L3.37305 10.041L3.26562 11.2012L3.33008 11.2227C3.77409 10.6641 4.22526 10.2702 4.68359 10.041C5.15625 9.81185 5.63607 9.69727 6.12305 9.69727C6.61003 9.69727 7.10417 9.84766 7.60547 10.1484C8.10677 10.4349 8.50065 10.8789 8.78711 11.4805C9.27409 10.8503 9.78255 10.3991 10.3125 10.127C10.8424 9.84049 11.401 9.69727 11.9883 9.69727C12.5326 9.69727 13.041 9.83333 13.5137 10.1055C13.9863 10.3633 14.3659 10.7572 14.6523 11.2871C14.9531 11.8027 15.1035 12.4473 15.1035 13.2207L15.082 15.7559C15.082 16.8874 15.1178 17.6465 15.1895 18.0332L16.5215 18.334L16.4785 19H12.6973L12.6543 18.334L13.9004 18.0332C13.9147 17.8757 13.929 17.668 13.9434 17.4102C13.972 17.1523 13.9863 16.6725 13.9863 15.9707L14.0078 13.3926C14.0078 12.7194 13.8861 12.1895 13.6426 11.8027C13.3991 11.4017 13.0983 11.1152 12.7402 10.9434C12.3965 10.7572 12.0599 10.6641 11.7305 10.6641C10.6849 10.6641 9.79688 11.194 9.06641 12.2539C9.15234 12.6263 9.19531 13.0273 9.19531 13.457V15.7559C9.19531 16.2858 9.20964 16.7585 9.23828 17.1738C9.26693 17.5749 9.29557 17.8613 9.32422 18.0332L10.6562 18.334L10.6133 19H6.875L6.83203 18.334L8.03516 18.0332C8.0638 17.8757 8.07812 17.668 8.07812 17.4102C8.09245 17.138 8.09961 16.6582 8.09961 15.9707V13.4355C8.09961 12.7767 7.98503 12.2467 7.75586 11.8457C7.54102 11.4303 7.26172 11.1296 6.91797 10.9434C6.57422 10.7572 6.21615 10.6641 5.84375 10.6641C5.35677 10.6641 4.89844 10.7858 4.46875 11.0293C4.03906 11.2585 3.65234 11.638 3.30859 12.168V15.4551C3.30859 16.1855 3.31576 16.7513 3.33008 17.1523C3.35872 17.5534 3.38021 17.847 3.39453 18.0332L4.68359 18.334L4.64062 19H0.837891Z" fill="#262626"/>
<path d="M53.7705 18.9191C54.7387 17.9191 54.4482 15.9191 54.3514 15.7191C54.061 14.7191 53.9641 13.6191 53.8673 12.6191C53.6737 10.7191 54.061 8.61915 54.8355 6.81915C55.1259 6.21915 55.1259 6.01911 55.8036 5.71911C56.8686 5.21911 58.6113 4.91916 59.8699 5.01916C61.1285 5.11916 62.2903 5.71913 63.452 5.91913C64.6138 6.11913 65.9692 6.21913 66.8406 6.91913C67.8087 7.61913 67.7119 8.91915 67.7119 9.81915C67.7119 10.4191 67.3246 11.0191 67.5183 11.6191C68.196 13.4191 72.7463 12.5191 74.2953 11.8191C75.7476 11.2191 76.6189 10.1191 77.4903 9.21911C78.4584 8.21911 78.652 7.31915 80.6852 7.31915C83.396 7.31915 86.01 7.01916 88.7208 7.01916C89.689 7.01916 90.7539 6.91916 91.7221 7.01916C92.7871 7.21916 94.1425 7.61913 95.1106 7.91913C96.6597 8.41913 98.1119 9.21915 98.7896 10.3191C99.5641 11.4191 99.3705 13.0191 99.3705 14.2191C99.3705 15.1191 99.8546 16.4191 98.4992 16.9191C97.6278 17.2191 96.6597 17.6191 95.7883 17.9191C95.6915 17.6191 95.8852 17.1191 95.5947 16.8191C95.1106 16.4191 93.5616 16.5192 92.8839 16.5192C91.3348 16.5192 89.9794 16.4191 88.4304 16.2191C87.3654 16.1191 86.9781 15.8191 86.1068 15.4191C85.2355 14.9191 84.1705 14.6191 83.2023 14.2191C81.8469 13.5191 81.3629 12.5191 80.5883 11.6191C80.0074 10.9191 79.5234 10.3192 79.4266 9.51916C79.3297 9.01916 79.6202 8.61911 80.0075 8.21911C80.2979 7.91911 80.4915 7.51916 81.0724 7.51916C80.0074 7.51916 78.8457 7.71916 78.4584 8.51916C78.0711 9.21916 78.652 10.1191 79.1361 10.8191C79.4266 11.2191 79.8138 11.4191 80.0075 11.8191C80.2979 12.3191 80.3947 12.6191 80.782 13.1191C81.1692 13.5191 81.5565 13.8191 82.1374 14.1191C83.0087 14.5191 83.7832 15.1192 84.6546 15.5192C84.945 15.6192 85.2355 15.7191 85.5259 15.7191C85.8164 15.8191 86.1068 15.9191 86.2036 16.1191C87.8495 17.0191 89.8826 17.7192 92.0125 18.0192C92.5934 18.1192 93.2711 18.2191 93.9488 18.2191C94.1425 18.2191 94.3361 18.1191 94.6266 18.1191C91.7221 20.2191 85.7196 19.5192 81.9438 19.5192C80.782 19.5192 79.3297 19.6192 78.168 19.5192C77.4902 19.4192 76.1348 19.3192 75.5539 19.0192C74.8762 18.7192 75.0699 18.1191 74.5858 17.7191C74.1985 17.4191 73.5208 17.2191 72.8431 17.1191C72.1654 17.0191 71.4877 17.1191 70.7132 16.9191C70.1323 16.8191 69.6482 16.6191 69.0673 16.4191C68.0024 16.1191 67.0342 16.1191 65.9692 16.1191C65.6788 16.1191 64.4202 16.0191 64.2266 16.1191C64.0329 16.2191 63.7425 16.7191 63.8393 16.9191C63.1616 17.1191 60.0635 18.6191 59.4826 18.9191" stroke="black" stroke-width="0.2587" stroke-miterlimit="10"/>
<path d="M62.7743 5.81909C62.2902 5.81909 61.7093 5.81909 61.2252 5.81909C60.9348 5.81909 60.6444 5.91906 60.4507 6.21906C60.2571 6.61906 60.2571 7.31909 60.1603 7.81909C60.0635 8.61909 60.5475 9.21907 60.3539 9.91907C60.2571 10.2191 60.2571 10.6191 60.5475 10.8191C60.7412 10.9191 61.0316 10.8191 61.0316 10.5191C61.0316 10.0191 60.5475 9.91907 60.2571 9.91907C60.2571 10.0191 60.2571 10.2191 60.2571 10.3191C60.2571 10.5191 60.4507 10.5191 60.5475 10.7191C60.6444 10.6191 60.6444 10.3191 60.4507 10.2191C60.3539 10.3191 60.2571 10.5191 60.3539 10.7191C60.5475 10.7191 60.7412 10.5191 60.838 10.3191C60.7412 10.4191 60.7412 10.6191 60.838 10.7191C60.9348 10.8191 61.0316 10.1191 60.838 10.1191C60.7412 10.1191 60.6444 10.3191 60.7412 10.2191C60.7412 10.3191 60.7412 10.2191 60.838 10.2191M80.5883 7.31909C83.2991 7.31909 85.9132 7.0191 88.624 7.0191C89.5921 7.0191 90.6571 6.9191 91.6253 7.0191C92.6902 7.2191 94.0456 7.61907 95.0138 7.91907C96.5628 8.41907 98.0151 9.21909 98.6928 10.3191C99.4673 11.4191 99.2737 13.0191 99.2737 14.2191C99.2737 15.1191 99.7577 16.4191 98.4023 16.9191C97.531 17.2191 96.466 17.6191 95.6915 17.9191C95.5947 17.6191 95.7883 17.1191 95.4979 16.8191C95.0138 16.4191 93.4647 16.5191 92.787 16.5191C91.238 16.5191 89.8826 16.4191 88.3335 16.2191C87.2686 16.1191 86.8813 15.8191 86.01 15.4191C85.1386 14.9191 84.0737 14.6191 83.1055 14.2191C81.7501 13.5191 81.266 12.5191 80.4915 11.6191C79.9106 10.9191 79.4265 10.3191 79.3297 9.5191C79.2329 9.0191 79.5233 8.61906 79.9106 8.21906C80.201 7.91906 80.3947 7.51907 80.9756 7.41907L80.5883 7.31909Z" stroke="black" stroke-width="0.2587" stroke-miterlimit="10"/>
</svg>
