<?xml version="1.0" encoding="utf-8"?>
<!-- Generator: Adobe Illustrator 23.1.1, SVG Export Plug-In . SVG Version: 6.00 Build 0)  -->
<svg version="1.1" id="Layer_1" xmlns="http://www.w3.org/2000/svg" xmlns:xlink="http://www.w3.org/1999/xlink" x="0px" y="0px"
	 viewBox="0 0 1024.97 1007.97" style="enable-background:new 0 0 1024.97 1007.97;" xml:space="preserve">
<style type="text/css">
	.st0{clip-path:url(#SVGID_2_);fill:#231F20;}
	.st1{clip-path:url(#SVGID_4_);fill:url(#SVGID_5_);}
	.st2{clip-path:url(#SVGID_7_);fill:none;stroke:#231F20;stroke-width:5;stroke-miterlimit:10;}
</style>
<g>
	<defs>
		<rect id="SVGID_1_" x="-569.83" y="221.69" width="401.46" height="554.48"/>
	</defs>
	<clipPath id="SVGID_2_">
		<use xlink:href="#SVGID_1_"  style="overflow:visible;"/>
	</clipPath>
	<path class="st0" d="M-347.85,776.17l2.83-37.78l-78.4-12.28c0-3.14-0.47-8.81-1.42-17c-0.95-8.18-1.58-21.56-1.89-40.15
		c-0.32-18.57-0.47-43.92-0.47-76.04l-0.94-191.75c0-22.04,0.15-42.82,0.47-62.34c0.31-19.51,0.62-36.04,0.94-49.59
		c0.31-13.53,0.47-22.2,0.47-25.98h50.06c35.26,0,64.54,10.55,87.85,31.64c23.29,21.11,34.95,54,34.95,98.71
		c0,39.05-10.39,67.86-31.17,86.43c-20.78,18.58-49.75,27.87-86.9,27.87c-11.33,0-22.52-0.95-33.53-2.83
		c-11.03-1.89-23.47-5.03-37.31-9.45v51.01c10.7,1.89,22.04,3.63,34.01,5.2c11.96,1.58,25.18,2.36,39.67,2.36
		c37.15,0,70.84-7.08,101.07-21.25c30.23-14.17,54.32-34.15,72.26-59.98c17.95-25.81,26.92-56.35,26.92-91.63
		c0-51.63-17.33-91.15-51.95-118.55c-34.64-27.39-83.12-41.09-145.47-41.09h-201.2l-2.83,35.9l58.57,14.17
		c0.62,1.27,1.09,6.3,1.42,15.11c0.31,8.83,0.78,22.36,1.42,40.62c0.62,18.27,0.95,42.83,0.95,73.68l-0.95,191.75
		c0,32.12-0.16,57.62-0.47,76.51c-0.33,18.89-0.63,32.59-0.94,41.09c-0.33,8.5-1.11,14.02-2.36,16.53l-54.79,13.22l2.83,35.9
		H-347.85z"/>
</g>
<rect x="-1283.07" y="-673.87" style="fill:none;" width="1022" height="1028.97"/>
<text transform="matrix(1 0 0 1 -1232.9111 87.5781)" style="font-family:'CrimsonPro-Bold'; font-size:968px;">@</text>
<g>
	<defs>
		<path id="SVGID_3_" d="M389.74,384.55c0,19.06,5.72,36.79,15.5,51.6l-139.55,0.02c-0.78-0.03-1.55-0.06-2.34-0.06
			c-10.41,0-20.17,2.74-28.63,7.54c-6.53-4.79-17.14-7.92-29.15-7.92c-19.86,0-35.96,8.51-35.96,19.02s16.1,19.02,35.96,19.02
			c1.12,0,2.23-0.04,3.33-0.09c-2.44,6.43-3.79,13.39-3.79,20.68c0,21.78,11.95,40.74,29.64,50.72v0.02l206.45,132.71
			c21.88,15.71,48.69,25,77.68,25c73.64,0,133.33-59.7,133.33-133.33c0-22.06-5.38-42.84-14.87-61.16
			c12.23,5.85,25.93,9.14,40.4,9.14c51.73,0,93.68-41.94,93.68-93.68s-41.95-93.68-93.68-93.68c-51.74,0-93.68,41.94-93.68,93.68
			c0,11.61,2.13,22.73,5.99,32.99c-10.03-6.34-20.96-11.38-32.55-14.89c12.28-15.85,19.61-35.72,19.61-57.32
			c0-51.74-41.94-93.69-93.68-93.69S389.74,332.81,389.74,384.55"/>
	</defs>
	<clipPath id="SVGID_4_">
		<use xlink:href="#SVGID_3_"  style="overflow:visible;"/>
	</clipPath>
	
		<radialGradient id="SVGID_5_" cx="566.2988" cy="1333.7831" r="7.8838" gradientTransform="matrix(11.9921 8.7769 8.7769 -11.9921 -18293.4316 11475.7559)" gradientUnits="userSpaceOnUse">
		<stop  offset="0" style="stop-color:#FF8DFF"/>
		<stop  offset="0.0657" style="stop-color:#FF8DFF"/>
		<stop  offset="0.2259" style="stop-color:#FC94FB"/>
		<stop  offset="0.4603" style="stop-color:#F3A8EF"/>
		<stop  offset="0.7391" style="stop-color:#E5C8DC"/>
		<stop  offset="0.8688" style="stop-color:#DDD9D2"/>
		<stop  offset="1" style="stop-color:#DDD9D2"/>
	</radialGradient>
	<polygon class="st1" points="379.53,4.04 967.76,434.56 561.5,989.63 -26.72,559.12 	"/>
</g>
<g>
	<defs>
		<rect id="SVGID_6_" x="165.67" y="286.93" width="609.7" height="419.82"/>
	</defs>
	<clipPath id="SVGID_7_">
		<use xlink:href="#SVGID_6_"  style="overflow:visible;"/>
	</clipPath>
	<path class="st2" d="M677.74,330.09c-51.74,0-93.68,41.94-93.68,93.68c0,11.61,2.13,22.73,5.99,32.99
		c-10.03-6.35-20.96-11.39-32.55-14.9c12.28-15.85,19.61-35.72,19.61-57.32c0-51.74-41.94-93.68-93.68-93.68
		s-93.68,41.94-93.68,93.68c0,19.07,5.72,36.8,15.5,51.6l-139.55,0.02c-0.77-0.02-1.55-0.06-2.33-0.06
		c-10.41,0-20.17,2.74-28.63,7.53c-6.53-4.79-17.14-7.92-29.15-7.92c-19.86,0-35.96,8.51-35.96,19.02c0,10.5,16.1,19.02,35.96,19.02
		c1.12,0,2.23-0.04,3.33-0.09c-2.44,6.43-3.79,13.39-3.79,20.68c0,21.77,11.95,40.74,29.64,50.72l-0.01,0.02l206.45,132.71
		c21.88,15.72,48.69,25,77.68,25c73.64,0,133.33-59.69,133.33-133.32c0-22.06-5.38-42.85-14.87-61.17
		c12.24,5.86,25.94,9.15,40.4,9.15c51.74,0,93.68-41.95,93.68-93.68C771.42,372.03,729.48,330.09,677.74,330.09z"/>
</g>
</svg>
