<?xml version="1.0" encoding="utf-8"?>
<!-- Generator: Adobe Illustrator 23.1.1, SVG Export Plug-In . SVG Version: 6.00 Build 0)  -->
<svg version="1.1" id="Layer_1" xmlns="http://www.w3.org/2000/svg" xmlns:xlink="http://www.w3.org/1999/xlink" x="0px" y="0px"
	 viewBox="0 0 168.46 158.46" style="enable-background:new 0 0 168.46 158.46;" xml:space="preserve">
<style type="text/css">
	.st0{clip-path:url(#SVGID_2_);fill:url(#SVGID_3_);}
	.st1{clip-path:url(#SVGID_5_);fill:none;stroke:#231F20;stroke-width:1.2;stroke-miterlimit:10;}
	.st2{clip-path:url(#SVGID_7_);fill:url(#SVGID_8_);}
	.st3{clip-path:url(#SVGID_10_);fill:none;stroke:#231F20;stroke-width:1.2;stroke-miterlimit:10;}
	.st4{clip-path:url(#SVGID_12_);fill:url(#SVGID_13_);}
	.st5{clip-path:url(#SVGID_15_);fill:none;stroke:#231F20;stroke-width:1.2;stroke-miterlimit:10;}
	.st6{clip-path:url(#SVGID_17_);fill:url(#SVGID_18_);}
	.st7{clip-path:url(#SVGID_20_);fill:none;stroke:#231F20;stroke-width:1.2;stroke-miterlimit:10;}
	.st8{clip-path:url(#SVGID_22_);fill:url(#SVGID_23_);}
	.st9{clip-path:url(#SVGID_25_);fill:none;stroke:#231F20;stroke-width:1.2;stroke-miterlimit:10;}
	.st10{clip-path:url(#SVGID_27_);fill:url(#SVGID_28_);}
	.st11{clip-path:url(#SVGID_30_);fill:none;stroke:#231F20;stroke-width:1.2;stroke-miterlimit:10;}
	.st12{clip-path:url(#SVGID_32_);fill:url(#SVGID_33_);}
	.st13{clip-path:url(#SVGID_35_);fill:none;stroke:#231F20;stroke-width:1.2;stroke-miterlimit:10;}
	.st14{clip-path:url(#SVGID_37_);fill:url(#SVGID_38_);}
	.st15{clip-path:url(#SVGID_40_);fill:none;stroke:#231F20;stroke-width:1.2;stroke-miterlimit:10;}
	.st16{clip-path:url(#SVGID_42_);fill:url(#SVGID_43_);}
	.st17{clip-path:url(#SVGID_45_);fill:none;stroke:#231F20;stroke-width:1.2;stroke-miterlimit:10;}
	.st18{clip-path:url(#SVGID_47_);fill:url(#SVGID_48_);}
	.st19{clip-path:url(#SVGID_50_);fill:none;stroke:#231F20;stroke-width:1.2;stroke-miterlimit:10;}
	.st20{clip-path:url(#SVGID_52_);fill:url(#SVGID_53_);}
	.st21{clip-path:url(#SVGID_55_);fill:none;stroke:#231F20;stroke-width:1.2;stroke-miterlimit:10;}
	.st22{clip-path:url(#SVGID_57_);fill:url(#SVGID_58_);}
	.st23{clip-path:url(#SVGID_60_);fill:none;stroke:#231F20;stroke-width:1.2;stroke-miterlimit:10;}
</style>
<g>
	<defs>
		<path id="SVGID_1_" d="M74.64,78.08c-0.36-0.08-0.74-0.11-1.12-0.13c-0.16,0.17-0.33,0.33-0.5,0.5c-2.48,2.31-5.15,4.16-7.61,6.9
			c-4.29,4.78-6.13,10.72-8.12,16.73c-3.52,10.62-2.73,20.71-2.79,31.96c-0.05,9.15,1.75,14.55,10.33,18.59
			c7.61,3.58,19.26,4.95,25.6-1.79c6.8-7.23,4.36-19.61,4.36-28.8c0-9.36,0.54-18.44-1.74-27.28c-0.95-3.67,0.42-7.57-0.38-11.21
			c-0.65-2.96-2.83-5.47-3.96-8.55c-0.19-0.15-0.39-0.28-0.58-0.38c-0.6-0.32-1.54-0.72-2.56-1.11L74.64,78.08z M85.18,3.59
			c-6.69,1.45-13.3,3.04-20.16,4.06c-8.59,1.27-17.27,0.28-25.77,2.64c-4.38,1.21-15.85,9.33-16.87,10.41
			c-5.98,6.33-9.85,11.54-12.93,19.91C8.03,44.46,3,61.35,3.02,65.91c0.03,8.31-1.81,12.68,6.04,15.47c4.24,1.5,7.43,2.09,11.86,2.3
			c4.14,0.19,6.4-1.08,9.83-1.74c7.95-1.53,15.53-2.76,23.68-2.73c3.78,0.02,7.87,0.45,11.61,0.03c2.28-0.26,5.05-1.34,7.47-1.27
			c2.77-2.9,2.97-5.87,7.75-5.58c1.03,0.06,2.76,0.58,4.29,1.15l2.51-1.05c0.11,0.9,0.33,1.73,0.63,2.53
			c1.54,1.18,3.2,3.68,4.35,4.11c1.14,0.42,2.37,0.27,3.6,0.13c0.89-0.11,1.78-0.21,2.62-0.11c2.32,0.3,4.34,1.44,6.37,1.8
			c4,0.71,7.57,1.42,11.61,2.86c0.95,0.34,3.1,0.12,4.09,0.38c2.25,0.59,3.81,1.62,7.04,1.73c7.31,0.26,18.22,1.93,24.66-1.57
			c3.4-1.85,8.34-5.83,10.03-9.14c2.18-4.27,1.79-13.6,1.2-18.4c-0.6-4.8-2.61-9.06-3.94-13.41c-1.29-4.21-21.55-27.14-23.1-26.8
			c-1.8-0.72-9.06-3.14-9.63-4.55c-7.21-2.33-14.71-2.8-22.11-4.99c-5.71-1.69-10.38-3.93-15.91-3.93
			C88.16,3.12,86.71,3.26,85.18,3.59"/>
	</defs>
	<clipPath id="SVGID_2_">
		<use xlink:href="#SVGID_1_"  style="overflow:visible;"/>
	</clipPath>
	
		<radialGradient id="SVGID_3_" cx="1.4194" cy="201.0074" r="1" gradientTransform="matrix(4.8448 -106.6916 -106.6916 -4.8448 21517.8027 1261.8833)" gradientUnits="userSpaceOnUse">
		<stop  offset="0" style="stop-color:#4AE8F2"/>
		<stop  offset="0.082" style="stop-color:#4AE8F2"/>
		<stop  offset="0.1656" style="stop-color:#6AC6BF"/>
		<stop  offset="0.2698" style="stop-color:#8DA085"/>
		<stop  offset="0.371" style="stop-color:#AA8156"/>
		<stop  offset="0.4663" style="stop-color:#C16830"/>
		<stop  offset="0.5546" style="stop-color:#D25616"/>
		<stop  offset="0.6331" style="stop-color:#DC4C06"/>
		<stop  offset="0.6938" style="stop-color:#DF4800"/>
		<stop  offset="0.7961" style="stop-color:#DD682B"/>
		<stop  offset="1" style="stop-color:#D7B089"/>
	</radialGradient>
	<polygon class="st0" points="-5.79,157.27 1.54,-4.32 172.24,3.44 164.9,165.02 	"/>
</g>
<g>
	<defs>
		<rect id="SVGID_4_" x="2.25" y="2.52" width="163.07" height="153.7"/>
	</defs>
	<clipPath id="SVGID_5_">
		<use xlink:href="#SVGID_4_"  style="overflow:visible;"/>
	</clipPath>
	<path class="st1" d="M88.07,72.49c0.52,4.33,3.77,7.35,4.59,11.08c0.8,3.64-0.57,7.53,0.38,11.21c2.28,8.83,1.74,17.92,1.74,27.27
		c0,9.19,2.44,21.57-4.36,28.8c-6.34,6.75-18,5.38-25.6,1.79c-8.58-4.04-10.37-9.44-10.33-18.59c0.06-11.25-0.73-21.35,2.79-31.96
		c1.99-6.01,3.83-11.95,8.12-16.73c2.46-2.74,5.13-4.59,7.61-6.9c3.27-3.04,3.2-6.38,8.25-6.07c1.73,0.1,5.37,1.47,6.86,2.26
		c1.68,0.89,3.63,4.01,4.92,4.49c1.97,0.73,4.21-0.24,6.22,0.02c2.32,0.3,4.34,1.44,6.37,1.8c4,0.71,7.56,1.42,11.61,2.86
		c0.95,0.34,3.1,0.11,4.09,0.37c2.25,0.59,3.81,1.62,7.04,1.73c7.31,0.26,18.22,1.93,24.66-1.57c3.4-1.85,8.33-5.83,10.03-9.14
		c2.19-4.28,1.79-13.6,1.2-18.4c-0.6-4.8-2.61-9.06-3.94-13.41c-1.29-4.21-21.55-27.13-23.1-26.8c-1.8-0.72-9.06-3.15-9.63-4.55
		c-7.21-2.33-14.71-2.8-22.11-4.99c-7.15-2.11-12.68-5.1-20.3-3.46c-6.69,1.45-13.3,3.04-20.16,4.06
		c-8.6,1.27-17.27,0.28-25.77,2.64c-4.38,1.22-15.85,9.33-16.87,10.41c-5.98,6.33-9.85,11.54-12.93,19.91
		C8.03,44.46,3,61.35,3.01,65.91c0.03,8.31-1.81,12.68,6.04,15.47c4.24,1.5,7.43,2.09,11.86,2.29c4.14,0.19,6.4-1.08,9.83-1.74
		c7.95-1.53,15.53-2.76,23.68-2.73c3.78,0.02,7.87,0.45,11.61,0.03c2.64-0.3,5.95-1.7,8.59-1.15"/>
</g>
<g>
	<defs>
		<path id="SVGID_6_" d="M18.06,42.55c0,0.92,1.51,1.67,3.37,1.67c1.86,0,3.37-0.75,3.37-1.67c0-0.92-1.51-1.67-3.37-1.67
			C19.57,40.88,18.06,41.63,18.06,42.55"/>
	</defs>
	<clipPath id="SVGID_7_">
		<use xlink:href="#SVGID_6_"  style="overflow:visible;"/>
	</clipPath>
	
		<radialGradient id="SVGID_8_" cx="1.4194" cy="201.0074" r="1" gradientTransform="matrix(4.8448 -106.6916 -106.6916 -4.8448 21517.8027 1261.8835)" gradientUnits="userSpaceOnUse">
		<stop  offset="0" style="stop-color:#4AE8F2"/>
		<stop  offset="0.082" style="stop-color:#4AE8F2"/>
		<stop  offset="0.1656" style="stop-color:#6AC6BF"/>
		<stop  offset="0.2698" style="stop-color:#8DA085"/>
		<stop  offset="0.371" style="stop-color:#AA8156"/>
		<stop  offset="0.4663" style="stop-color:#C16830"/>
		<stop  offset="0.5546" style="stop-color:#D25616"/>
		<stop  offset="0.6331" style="stop-color:#DC4C06"/>
		<stop  offset="0.6938" style="stop-color:#DF4800"/>
		<stop  offset="0.7961" style="stop-color:#DD682B"/>
		<stop  offset="1" style="stop-color:#D7B089"/>
	</radialGradient>
	<polygon class="st2" points="17.91,44.21 18.08,40.57 24.96,40.89 24.79,44.52 	"/>
</g>
<g>
	<defs>
		<rect id="SVGID_9_" x="2.25" y="2.52" width="163.07" height="153.7"/>
	</defs>
	<clipPath id="SVGID_10_">
		<use xlink:href="#SVGID_9_"  style="overflow:visible;"/>
	</clipPath>
	<ellipse class="st3" cx="21.44" cy="42.55" rx="3.37" ry="1.67"/>
</g>
<g>
	<defs>
		<path id="SVGID_11_" d="M115.87,60.54c0,0.92,1.51,1.67,3.37,1.67c1.86,0,3.37-0.75,3.37-1.67c0-0.92-1.51-1.67-3.37-1.67
			C117.38,58.87,115.87,59.61,115.87,60.54"/>
	</defs>
	<clipPath id="SVGID_12_">
		<use xlink:href="#SVGID_11_"  style="overflow:visible;"/>
	</clipPath>
	
		<radialGradient id="SVGID_13_" cx="1.4194" cy="201.0074" r="1" gradientTransform="matrix(4.8448 -106.6916 -106.6916 -4.8448 21517.8027 1261.8835)" gradientUnits="userSpaceOnUse">
		<stop  offset="0" style="stop-color:#4AE8F2"/>
		<stop  offset="0.082" style="stop-color:#4AE8F2"/>
		<stop  offset="0.1656" style="stop-color:#6AC6BF"/>
		<stop  offset="0.2698" style="stop-color:#8DA085"/>
		<stop  offset="0.371" style="stop-color:#AA8156"/>
		<stop  offset="0.4663" style="stop-color:#C16830"/>
		<stop  offset="0.5546" style="stop-color:#D25616"/>
		<stop  offset="0.6331" style="stop-color:#DC4C06"/>
		<stop  offset="0.6938" style="stop-color:#DF4800"/>
		<stop  offset="0.7961" style="stop-color:#DD682B"/>
		<stop  offset="1" style="stop-color:#D7B089"/>
	</radialGradient>
	<polygon class="st4" points="115.72,62.2 115.89,58.56 122.77,58.87 122.6,62.51 	"/>
</g>
<g>
	<defs>
		<rect id="SVGID_14_" x="2.25" y="2.52" width="163.07" height="153.7"/>
	</defs>
	<clipPath id="SVGID_15_">
		<use xlink:href="#SVGID_14_"  style="overflow:visible;"/>
	</clipPath>
	<ellipse class="st5" cx="119.24" cy="60.54" rx="3.37" ry="1.67"/>
</g>
<g>
	<defs>
		<path id="SVGID_16_" d="M90.11,19.43c0,0.92,1.51,1.67,3.37,1.67s3.37-0.75,3.37-1.67c0-0.92-1.51-1.67-3.37-1.67
			S90.11,18.51,90.11,19.43"/>
	</defs>
	<clipPath id="SVGID_17_">
		<use xlink:href="#SVGID_16_"  style="overflow:visible;"/>
	</clipPath>
	
		<radialGradient id="SVGID_18_" cx="1.4194" cy="201.0074" r="1" gradientTransform="matrix(4.8448 -106.6916 -106.6916 -4.8448 21517.8027 1261.8835)" gradientUnits="userSpaceOnUse">
		<stop  offset="0" style="stop-color:#4AE8F2"/>
		<stop  offset="0.082" style="stop-color:#4AE8F2"/>
		<stop  offset="0.1656" style="stop-color:#6AC6BF"/>
		<stop  offset="0.2698" style="stop-color:#8DA085"/>
		<stop  offset="0.371" style="stop-color:#AA8156"/>
		<stop  offset="0.4663" style="stop-color:#C16830"/>
		<stop  offset="0.5546" style="stop-color:#D25616"/>
		<stop  offset="0.6331" style="stop-color:#DC4C06"/>
		<stop  offset="0.6938" style="stop-color:#DF4800"/>
		<stop  offset="0.7961" style="stop-color:#DD682B"/>
		<stop  offset="1" style="stop-color:#D7B089"/>
	</radialGradient>
	<polygon class="st6" points="89.96,21.09 90.13,17.46 97,17.77 96.84,21.4 	"/>
</g>
<g>
	<defs>
		<rect id="SVGID_19_" x="2.25" y="2.52" width="163.07" height="153.7"/>
	</defs>
	<clipPath id="SVGID_20_">
		<use xlink:href="#SVGID_19_"  style="overflow:visible;"/>
	</clipPath>
	<ellipse class="st7" cx="93.48" cy="19.43" rx="3.37" ry="1.67"/>
</g>
<g>
	<defs>
		<path id="SVGID_21_" d="M140.1,45.37c0,1.28,1.51,2.32,3.37,2.32c1.86,0,3.37-1.04,3.37-2.32c0-1.28-1.51-2.32-3.37-2.32
			C141.61,43.05,140.1,44.09,140.1,45.37"/>
	</defs>
	<clipPath id="SVGID_22_">
		<use xlink:href="#SVGID_21_"  style="overflow:visible;"/>
	</clipPath>
	
		<radialGradient id="SVGID_23_" cx="1.4194" cy="201.0074" r="1" gradientTransform="matrix(4.8448 -106.6916 -106.6916 -4.8448 21517.8027 1261.8835)" gradientUnits="userSpaceOnUse">
		<stop  offset="0" style="stop-color:#4AE8F2"/>
		<stop  offset="0.082" style="stop-color:#4AE8F2"/>
		<stop  offset="0.1656" style="stop-color:#6AC6BF"/>
		<stop  offset="0.2698" style="stop-color:#8DA085"/>
		<stop  offset="0.371" style="stop-color:#AA8156"/>
		<stop  offset="0.4663" style="stop-color:#C16830"/>
		<stop  offset="0.5546" style="stop-color:#D25616"/>
		<stop  offset="0.6331" style="stop-color:#DC4C06"/>
		<stop  offset="0.6938" style="stop-color:#DF4800"/>
		<stop  offset="0.7961" style="stop-color:#DD682B"/>
		<stop  offset="1" style="stop-color:#D7B089"/>
	</radialGradient>
	<polygon class="st8" points="139.89,47.68 140.12,42.74 147.05,43.06 146.83,47.99 	"/>
</g>
<g>
	<defs>
		<rect id="SVGID_24_" x="2.25" y="2.52" width="163.07" height="153.7"/>
	</defs>
	<clipPath id="SVGID_25_">
		<use xlink:href="#SVGID_24_"  style="overflow:visible;"/>
	</clipPath>
	<ellipse class="st9" cx="143.47" cy="45.37" rx="3.37" ry="2.32"/>
</g>
<g>
	<defs>
		<path id="SVGID_26_" d="M52.2,20.1c0,0.55,1.51,0.99,3.37,0.99s3.37-0.45,3.37-0.99c0-0.55-1.51-1-3.37-1S52.2,19.55,52.2,20.1"/>
	</defs>
	<clipPath id="SVGID_27_">
		<use xlink:href="#SVGID_26_"  style="overflow:visible;"/>
	</clipPath>
	
		<radialGradient id="SVGID_28_" cx="1.4194" cy="201.0074" r="1" gradientTransform="matrix(4.8448 -106.6916 -106.6916 -4.8448 21517.8027 1261.8835)" gradientUnits="userSpaceOnUse">
		<stop  offset="0" style="stop-color:#4AE8F2"/>
		<stop  offset="0.082" style="stop-color:#4AE8F2"/>
		<stop  offset="0.1656" style="stop-color:#6AC6BF"/>
		<stop  offset="0.2698" style="stop-color:#8DA085"/>
		<stop  offset="0.371" style="stop-color:#AA8156"/>
		<stop  offset="0.4663" style="stop-color:#C16830"/>
		<stop  offset="0.5546" style="stop-color:#D25616"/>
		<stop  offset="0.6331" style="stop-color:#DC4C06"/>
		<stop  offset="0.6938" style="stop-color:#DF4800"/>
		<stop  offset="0.7961" style="stop-color:#DD682B"/>
		<stop  offset="1" style="stop-color:#D7B089"/>
	</radialGradient>
	<polygon class="st10" points="52.11,21.09 52.21,18.8 59.03,19.11 58.93,21.4 	"/>
</g>
<g>
	<defs>
		<rect id="SVGID_29_" x="2.25" y="2.52" width="163.07" height="153.7"/>
	</defs>
	<clipPath id="SVGID_30_">
		<use xlink:href="#SVGID_29_"  style="overflow:visible;"/>
	</clipPath>
	<path class="st11" d="M55.57,21.1c1.86,0,3.37-0.45,3.37-0.99c0-0.55-1.51-1-3.37-1c-1.86,0-3.37,0.45-3.37,1
		C52.2,20.65,53.71,21.1,55.57,21.1z"/>
</g>
<g>
	<defs>
		<path id="SVGID_31_" d="M78.27,50.85c0,0.55,1.51,1,3.37,1c1.86,0,3.37-0.45,3.37-1c0-0.55-1.51-1-3.37-1
			C79.78,49.86,78.27,50.3,78.27,50.85"/>
	</defs>
	<clipPath id="SVGID_32_">
		<use xlink:href="#SVGID_31_"  style="overflow:visible;"/>
	</clipPath>
	
		<radialGradient id="SVGID_33_" cx="1.4194" cy="201.0074" r="1" gradientTransform="matrix(4.8448 -106.6916 -106.6916 -4.8448 21517.8027 1261.8835)" gradientUnits="userSpaceOnUse">
		<stop  offset="0" style="stop-color:#4AE8F2"/>
		<stop  offset="0.082" style="stop-color:#4AE8F2"/>
		<stop  offset="0.1656" style="stop-color:#6AC6BF"/>
		<stop  offset="0.2698" style="stop-color:#8DA085"/>
		<stop  offset="0.371" style="stop-color:#AA8156"/>
		<stop  offset="0.4663" style="stop-color:#C16830"/>
		<stop  offset="0.5546" style="stop-color:#D25616"/>
		<stop  offset="0.6331" style="stop-color:#DC4C06"/>
		<stop  offset="0.6938" style="stop-color:#DF4800"/>
		<stop  offset="0.7961" style="stop-color:#DD682B"/>
		<stop  offset="1" style="stop-color:#D7B089"/>
	</radialGradient>
	<polygon class="st12" points="78.18,51.84 78.28,49.55 85.1,49.86 85,52.15 	"/>
</g>
<g>
	<defs>
		<rect id="SVGID_34_" x="2.25" y="2.52" width="163.07" height="153.7"/>
	</defs>
	<clipPath id="SVGID_35_">
		<use xlink:href="#SVGID_34_"  style="overflow:visible;"/>
	</clipPath>
	<path class="st13" d="M81.64,51.85c1.86,0,3.37-0.45,3.37-0.99c0-0.55-1.51-1-3.37-1c-1.86,0-3.37,0.45-3.37,1
		C78.27,51.4,79.78,51.85,81.64,51.85z"/>
</g>
<g>
	<defs>
		<path id="SVGID_36_" d="M44.46,41.05c0,0.55,1.51,1,3.37,1c1.86,0,3.37-0.44,3.37-1c0-0.55-1.51-0.99-3.37-0.99
			C45.97,40.06,44.46,40.5,44.46,41.05"/>
	</defs>
	<clipPath id="SVGID_37_">
		<use xlink:href="#SVGID_36_"  style="overflow:visible;"/>
	</clipPath>
	
		<radialGradient id="SVGID_38_" cx="1.4194" cy="201.0074" r="1" gradientTransform="matrix(4.8448 -106.6916 -106.6916 -4.8448 21517.8027 1261.8835)" gradientUnits="userSpaceOnUse">
		<stop  offset="0" style="stop-color:#4AE8F2"/>
		<stop  offset="0.082" style="stop-color:#4AE8F2"/>
		<stop  offset="0.1656" style="stop-color:#6AC6BF"/>
		<stop  offset="0.2698" style="stop-color:#8DA085"/>
		<stop  offset="0.371" style="stop-color:#AA8156"/>
		<stop  offset="0.4663" style="stop-color:#C16830"/>
		<stop  offset="0.5546" style="stop-color:#D25616"/>
		<stop  offset="0.6331" style="stop-color:#DC4C06"/>
		<stop  offset="0.6938" style="stop-color:#DF4800"/>
		<stop  offset="0.7961" style="stop-color:#DD682B"/>
		<stop  offset="1" style="stop-color:#D7B089"/>
	</radialGradient>
	<polygon class="st14" points="44.37,42.04 44.47,39.75 51.29,40.06 51.19,42.35 	"/>
</g>
<g>
	<defs>
		<rect id="SVGID_39_" x="2.25" y="2.52" width="163.07" height="153.7"/>
	</defs>
	<clipPath id="SVGID_40_">
		<use xlink:href="#SVGID_39_"  style="overflow:visible;"/>
	</clipPath>
	<path class="st15" d="M47.83,42.05c1.86,0,3.37-0.45,3.37-0.99c0-0.55-1.51-1-3.37-1c-1.86,0-3.37,0.45-3.37,1
		C44.46,41.6,45.97,42.05,47.83,42.05z"/>
</g>
<g>
	<defs>
		<path id="SVGID_41_" d="M141.23,72.39c0,0.55,1.51,1,3.37,1c1.86,0,3.37-0.45,3.37-1c0-0.55-1.51-1-3.37-1
			C142.74,71.39,141.23,71.84,141.23,72.39"/>
	</defs>
	<clipPath id="SVGID_42_">
		<use xlink:href="#SVGID_41_"  style="overflow:visible;"/>
	</clipPath>
	
		<radialGradient id="SVGID_43_" cx="1.4194" cy="201.0074" r="1" gradientTransform="matrix(4.8448 -106.6916 -106.6916 -4.8448 21517.8027 1261.8835)" gradientUnits="userSpaceOnUse">
		<stop  offset="0" style="stop-color:#4AE8F2"/>
		<stop  offset="0.082" style="stop-color:#4AE8F2"/>
		<stop  offset="0.1656" style="stop-color:#6AC6BF"/>
		<stop  offset="0.2698" style="stop-color:#8DA085"/>
		<stop  offset="0.371" style="stop-color:#AA8156"/>
		<stop  offset="0.4663" style="stop-color:#C16830"/>
		<stop  offset="0.5546" style="stop-color:#D25616"/>
		<stop  offset="0.6331" style="stop-color:#DC4C06"/>
		<stop  offset="0.6938" style="stop-color:#DF4800"/>
		<stop  offset="0.7961" style="stop-color:#DD682B"/>
		<stop  offset="1" style="stop-color:#D7B089"/>
	</radialGradient>
	<polygon class="st16" points="141.14,73.38 141.24,71.09 148.06,71.4 147.96,73.69 	"/>
</g>
<g>
	<defs>
		<rect id="SVGID_44_" x="2.25" y="2.52" width="163.07" height="153.7"/>
	</defs>
	<clipPath id="SVGID_45_">
		<use xlink:href="#SVGID_44_"  style="overflow:visible;"/>
	</clipPath>
	<path class="st17" d="M144.6,73.38c1.86,0,3.37-0.45,3.37-0.99c0-0.55-1.51-1-3.37-1c-1.86,0-3.37,0.45-3.37,1
		C141.23,72.94,142.74,73.38,144.6,73.38z"/>
</g>
<g>
	<defs>
		<path id="SVGID_46_" d="M37.42,62.1c0,0.59,1.51,1.07,3.37,1.07c1.86,0,3.37-0.48,3.37-1.07c0-0.59-1.51-1.07-3.37-1.07
			C38.93,61.04,37.42,61.51,37.42,62.1"/>
	</defs>
	<clipPath id="SVGID_47_">
		<use xlink:href="#SVGID_46_"  style="overflow:visible;"/>
	</clipPath>
	
		<radialGradient id="SVGID_48_" cx="1.4194" cy="201.0074" r="1" gradientTransform="matrix(4.8448 -106.6916 -106.6916 -4.8448 21517.8027 1261.8835)" gradientUnits="userSpaceOnUse">
		<stop  offset="0" style="stop-color:#4AE8F2"/>
		<stop  offset="0.082" style="stop-color:#4AE8F2"/>
		<stop  offset="0.1656" style="stop-color:#6AC6BF"/>
		<stop  offset="0.2698" style="stop-color:#8DA085"/>
		<stop  offset="0.371" style="stop-color:#AA8156"/>
		<stop  offset="0.4663" style="stop-color:#C16830"/>
		<stop  offset="0.5546" style="stop-color:#D25616"/>
		<stop  offset="0.6331" style="stop-color:#DC4C06"/>
		<stop  offset="0.6938" style="stop-color:#DF4800"/>
		<stop  offset="0.7961" style="stop-color:#DD682B"/>
		<stop  offset="1" style="stop-color:#D7B089"/>
	</radialGradient>
	<polygon class="st18" points="37.32,63.17 37.43,60.73 44.26,61.04 44.15,63.48 	"/>
</g>
<g>
	<defs>
		<rect id="SVGID_49_" x="2.25" y="2.52" width="163.07" height="153.7"/>
	</defs>
	<clipPath id="SVGID_50_">
		<use xlink:href="#SVGID_49_"  style="overflow:visible;"/>
	</clipPath>
	<path class="st19" d="M40.79,63.17c1.86,0,3.37-0.48,3.37-1.07c0-0.59-1.51-1.07-3.37-1.07c-1.86,0-3.37,0.48-3.37,1.07
		C37.42,62.69,38.93,63.17,40.79,63.17z"/>
</g>
<g>
	<defs>
		<path id="SVGID_51_" d="M98.98,38.65c0,0.58,1.51,1.06,3.37,1.06c1.86,0,3.37-0.47,3.37-1.06c0-0.58-1.51-1.06-3.37-1.06
			C100.49,37.59,98.98,38.07,98.98,38.65"/>
	</defs>
	<clipPath id="SVGID_52_">
		<use xlink:href="#SVGID_51_"  style="overflow:visible;"/>
	</clipPath>
	
		<radialGradient id="SVGID_53_" cx="1.4194" cy="201.0074" r="1" gradientTransform="matrix(4.8448 -106.6916 -106.6916 -4.8448 21517.8027 1261.8835)" gradientUnits="userSpaceOnUse">
		<stop  offset="0" style="stop-color:#4AE8F2"/>
		<stop  offset="0.082" style="stop-color:#4AE8F2"/>
		<stop  offset="0.1656" style="stop-color:#6AC6BF"/>
		<stop  offset="0.2698" style="stop-color:#8DA085"/>
		<stop  offset="0.371" style="stop-color:#AA8156"/>
		<stop  offset="0.4663" style="stop-color:#C16830"/>
		<stop  offset="0.5546" style="stop-color:#D25616"/>
		<stop  offset="0.6331" style="stop-color:#DC4C06"/>
		<stop  offset="0.6938" style="stop-color:#DF4800"/>
		<stop  offset="0.7961" style="stop-color:#DD682B"/>
		<stop  offset="1" style="stop-color:#D7B089"/>
	</radialGradient>
	<polygon class="st20" points="98.89,39.71 99,37.29 105.82,37.6 105.71,40.02 	"/>
</g>
<g>
	<defs>
		<rect id="SVGID_54_" x="2.25" y="2.52" width="163.07" height="153.7"/>
	</defs>
	<clipPath id="SVGID_55_">
		<use xlink:href="#SVGID_54_"  style="overflow:visible;"/>
	</clipPath>
	<path class="st21" d="M102.35,39.71c1.86,0,3.37-0.47,3.37-1.06c0-0.58-1.51-1.06-3.37-1.06c-1.86,0-3.37,0.47-3.37,1.06
		C98.98,39.24,100.49,39.71,102.35,39.71z"/>
</g>
<g>
	<defs>
		<path id="SVGID_56_" d="M124.91,24.83c0,0.59,1.51,1.06,3.37,1.06c1.86,0,3.37-0.47,3.37-1.06c0-0.58-1.51-1.06-3.37-1.06
			C126.42,23.77,124.91,24.25,124.91,24.83"/>
	</defs>
	<clipPath id="SVGID_57_">
		<use xlink:href="#SVGID_56_"  style="overflow:visible;"/>
	</clipPath>
	
		<radialGradient id="SVGID_58_" cx="1.4194" cy="201.0074" r="1" gradientTransform="matrix(4.8448 -106.6916 -106.6916 -4.8448 21517.8027 1261.8835)" gradientUnits="userSpaceOnUse">
		<stop  offset="0" style="stop-color:#4AE8F2"/>
		<stop  offset="0.082" style="stop-color:#4AE8F2"/>
		<stop  offset="0.1656" style="stop-color:#6AC6BF"/>
		<stop  offset="0.2698" style="stop-color:#8DA085"/>
		<stop  offset="0.371" style="stop-color:#AA8156"/>
		<stop  offset="0.4663" style="stop-color:#C16830"/>
		<stop  offset="0.5546" style="stop-color:#D25616"/>
		<stop  offset="0.6331" style="stop-color:#DC4C06"/>
		<stop  offset="0.6938" style="stop-color:#DF4800"/>
		<stop  offset="0.7961" style="stop-color:#DD682B"/>
		<stop  offset="1" style="stop-color:#D7B089"/>
	</radialGradient>
	<polygon class="st22" points="124.82,25.89 124.93,23.47 131.75,23.78 131.64,26.2 	"/>
</g>
<g>
	<defs>
		<rect id="SVGID_59_" x="2.25" y="2.52" width="163.07" height="153.7"/>
	</defs>
	<clipPath id="SVGID_60_">
		<use xlink:href="#SVGID_59_"  style="overflow:visible;"/>
	</clipPath>
	<path class="st23" d="M128.28,25.89c1.86,0,3.37-0.47,3.37-1.06c0-0.58-1.51-1.06-3.37-1.06c-1.86,0-3.37,0.47-3.37,1.06
		C124.91,25.42,126.42,25.89,128.28,25.89z"/>
</g>
</svg>
