<svg width="527" height="169" viewBox="0 0 527 169" fill="none" xmlns="http://www.w3.org/2000/svg">
<g clip-path="url(#clip0)">
<path d="M263.05 167.47C407.914 167.47 525.35 130.148 525.35 84.11C525.35 38.0715 407.914 0.75 263.05 0.75C118.186 0.75 0.75 38.0715 0.75 84.11C0.75 130.148 118.186 167.47 263.05 167.47Z" stroke="#231F20" stroke-width="1.5" stroke-miterlimit="10"/>
<path d="M369.99 87.46H356.81V96.12H369.99V87.46Z" fill="url(#paint0_radial)"/>
<path d="M362.67 87.4801C360.39 87.3301 356.91 88.64 356.87 91.49C356.81 95.43 366.44 96.13 369.36 94.89C370.04 90.01 366.25 88.19 361.88 89.34C361.78 89.86 362.05 90.07 362.67 89.99" stroke="#231F20" stroke-miterlimit="10" stroke-linejoin="bevel"/>
<path d="M281.14 91.8H270.35V100.7H281.14V91.8Z" fill="url(#paint1_radial)"/>
<path d="M273.02 94.03C273.02 95.96 272.87 97.96 273.15 99.85C275.81 100.71 281.14 98.16 278.27 95.03C276.9 93.54 272.22 92.84 270.35 91.8C270.63 92.29 270.95 92.75 271.32 93.18" stroke="#231F20" stroke-miterlimit="10" stroke-linejoin="bevel"/>
<path d="M195.07 63.8401H187.67V68.8201H195.07V63.8401Z" fill="url(#paint2_radial)"/>
<path d="M191.82 63.8401C188.52 66.5701 187.67 67.4601 192.47 68.8201C192.98 67.6401 194.19 67.1601 195.08 66.3901C194.2 65.4601 193.05 65.4201 191.82 65.1101" stroke="#231F20" stroke-miterlimit="10" stroke-linejoin="bevel"/>
<path d="M162.06 88.04L156.88 82.68L162.26 77.48L167.44 82.84L162.06 88.04Z" fill="url(#paint3_radial)"/>
<path d="M159.66 84.58C163.91 85.06 165.14 85.05 162.79 80.65C161.58 81.11 160.4 80.57 159.22 80.46C159.17 81.74 159.93 82.59 160.57 83.69" stroke="#231F20" stroke-miterlimit="10" stroke-linejoin="bevel"/>
<path d="M112.04 87.46H101.79V96.75H112.04V87.46Z" fill="url(#paint4_radial)"/>
<path d="M106.46 88.3701C101.79 91.3501 106.02 96.7501 110.54 95.7901C111.31 93.6801 112.13 86.7001 108.14 87.5301" stroke="#231F20" stroke-miterlimit="10" stroke-linejoin="bevel"/>
<path d="M199.99 92.1599H185.98V101.89H199.99V92.1599Z" fill="url(#paint5_radial)"/>
<path d="M191.32 92.1599C188.75 92.9799 188.7 96.6799 185.98 98.1099C187.72 98.2399 189.28 97.3099 190.24 95.8999C191.73 96.8499 194.01 101.9 196.47 100.66C200 98.8799 195.65 93.4199 193 93.3099C192.92 92.9299 192.84 92.5499 192.76 92.1599" stroke="#231F20" stroke-miterlimit="10" stroke-linejoin="bevel"/>
<path d="M425.04 63.1499H403.48V73.3799H425.04V63.1499Z" fill="url(#paint6_radial)"/>
<path d="M420.73 68.9401C420.29 65.0401 417.3 65.2001 414.25 64.5101C412.87 64.2001 411.07 63.0601 409.72 63.1501C407.78 63.2801 405.11 65.5701 403.48 66.5701C403.72 73.3801 421.08 70.3801 425.04 70.3801" stroke="#231F20" stroke-miterlimit="10" stroke-linejoin="bevel"/>
<path d="M286.29 54.3201H268.45V65.7001H286.29V54.3201Z" fill="url(#paint7_radial)"/>
<path d="M268.95 59.33C269.73 58.31 271.46 57.4 272.51 56.24C273.47 55.18 274.94 53.89 276.69 54.46C277.17 54.53 277.45 54.81 277.54 55.29C278.78 55.83 278.93 55.95 280.34 55.94C282.31 55.92 284.29 55.64 286.29 55.84C286.12 59.85 284.14 65.69 281.2 65.42C279.79 65.29 278.58 64.48 277.23 64.2C275.38 63.81 273.9 64.2 272.06 64.33C272.53 62.38 270.37 59.89 268.44 60.34" stroke="#231F20" stroke-miterlimit="10" stroke-linejoin="bevel"/>
</g>
<defs>
<radialGradient id="paint0_radial" cx="0" cy="0" r="1" gradientUnits="userSpaceOnUse" gradientTransform="translate(363.177 91.465) scale(6.787)">
<stop stop-color="#FFE300"/>
<stop offset="0.00113636" stop-color="#FFE300"/>
<stop offset="0.377" stop-color="white"/>
<stop offset="0.4511" stop-color="#FFFCDB"/>
<stop offset="0.6517" stop-color="#FFF57E"/>
<stop offset="0.8147" stop-color="#FFF03A"/>
<stop offset="0.9317" stop-color="#FFEC10"/>
<stop offset="0.9915" stop-color="#FFEB00"/>
<stop offset="1" stop-color="#FFEB00"/>
</radialGradient>
<radialGradient id="paint1_radial" cx="0" cy="0" r="1" gradientUnits="userSpaceOnUse" gradientTransform="translate(274.72 95.9291) scale(4.8416)">
<stop stop-color="#FFE300"/>
<stop offset="0.00113636" stop-color="#FFE300"/>
<stop offset="0.377" stop-color="white"/>
<stop offset="0.4511" stop-color="#FFFCDB"/>
<stop offset="0.6517" stop-color="#FFF57E"/>
<stop offset="0.8147" stop-color="#FFF03A"/>
<stop offset="0.9317" stop-color="#FFEC10"/>
<stop offset="0.9915" stop-color="#FFEB00"/>
<stop offset="1" stop-color="#FFEB00"/>
</radialGradient>
<radialGradient id="paint2_radial" cx="0" cy="0" r="1" gradientUnits="userSpaceOnUse" gradientTransform="translate(192.07 66.4055) scale(3.4158)">
<stop stop-color="#FFE300"/>
<stop offset="0.00113636" stop-color="#FFE300"/>
<stop offset="0.377" stop-color="white"/>
<stop offset="0.4511" stop-color="#FFFCDB"/>
<stop offset="0.6517" stop-color="#FFF57E"/>
<stop offset="0.8147" stop-color="#FFF03A"/>
<stop offset="0.9317" stop-color="#FFEC10"/>
<stop offset="0.9915" stop-color="#FFEB00"/>
<stop offset="1" stop-color="#FFEB00"/>
</radialGradient>
<radialGradient id="paint3_radial" cx="0" cy="0" r="1" gradientUnits="userSpaceOnUse" gradientTransform="translate(161.262 82.5568) rotate(-134) scale(3.41577)">
<stop stop-color="#FFE300"/>
<stop offset="0.00113636" stop-color="#FFE300"/>
<stop offset="0.377" stop-color="white"/>
<stop offset="0.4511" stop-color="#FFFCDB"/>
<stop offset="0.6517" stop-color="#FFF57E"/>
<stop offset="0.8147" stop-color="#FFF03A"/>
<stop offset="0.9317" stop-color="#FFEC10"/>
<stop offset="0.9915" stop-color="#FFEB00"/>
<stop offset="1" stop-color="#FFEB00"/>
</radialGradient>
<radialGradient id="paint4_radial" cx="0" cy="0" r="1" gradientUnits="userSpaceOnUse" gradientTransform="translate(107.87 91.7104) scale(4.7189 5.7437)">
<stop stop-color="#FFE300"/>
<stop offset="0.00113636" stop-color="#FFE300"/>
<stop offset="0.377" stop-color="white"/>
<stop offset="0.4511" stop-color="#FFFCDB"/>
<stop offset="0.6517" stop-color="#FFF57E"/>
<stop offset="0.8147" stop-color="#FFF03A"/>
<stop offset="0.9317" stop-color="#FFEC10"/>
<stop offset="0.9915" stop-color="#FFEB00"/>
<stop offset="1" stop-color="#FFEB00"/>
</radialGradient>
<radialGradient id="paint5_radial" cx="0" cy="0" r="1" gradientUnits="userSpaceOnUse" gradientTransform="translate(192.034 96.5189) scale(6.2707)">
<stop stop-color="#FFE300"/>
<stop offset="0.00113636" stop-color="#FFE300"/>
<stop offset="0.377" stop-color="white"/>
<stop offset="0.4511" stop-color="#FFFCDB"/>
<stop offset="0.6517" stop-color="#FFF57E"/>
<stop offset="0.8147" stop-color="#FFF03A"/>
<stop offset="0.9317" stop-color="#FFEC10"/>
<stop offset="0.9915" stop-color="#FFEB00"/>
<stop offset="1" stop-color="#FFEB00"/>
</radialGradient>
<radialGradient id="paint6_radial" cx="0" cy="0" r="1" gradientUnits="userSpaceOnUse" gradientTransform="translate(413.948 67.0681) scale(11.0321)">
<stop stop-color="#FFE300"/>
<stop offset="0.00113636" stop-color="#FFE300"/>
<stop offset="0.377" stop-color="white"/>
<stop offset="0.4511" stop-color="#FFFCDB"/>
<stop offset="0.6517" stop-color="#FFF57E"/>
<stop offset="0.8147" stop-color="#FFF03A"/>
<stop offset="0.9317" stop-color="#FFEC10"/>
<stop offset="0.9915" stop-color="#FFEB00"/>
<stop offset="1" stop-color="#FFEB00"/>
</radialGradient>
<radialGradient id="paint7_radial" cx="0" cy="0" r="1" gradientUnits="userSpaceOnUse" gradientTransform="translate(277.63 59.9014) scale(9.2268)">
<stop stop-color="#FFE300"/>
<stop offset="0.00113636" stop-color="#FFE300"/>
<stop offset="0.377" stop-color="white"/>
<stop offset="0.4511" stop-color="#FFFCDB"/>
<stop offset="0.6517" stop-color="#FFF57E"/>
<stop offset="0.8147" stop-color="#FFF03A"/>
<stop offset="0.9317" stop-color="#FFEC10"/>
<stop offset="0.9915" stop-color="#FFEB00"/>
<stop offset="1" stop-color="#FFEB00"/>
</radialGradient>
<clipPath id="clip0">
<rect width="526.1" height="168.22" fill="white"/>
</clipPath>
</defs>
</svg>
