<?xml version="1.0" encoding="utf-8"?>
<!-- Generator: Adobe Illustrator 23.1.1, SVG Export Plug-In . SVG Version: 6.00 Build 0)  -->
<svg version="1.1" id="Layer_1" xmlns="http://www.w3.org/2000/svg" xmlns:xlink="http://www.w3.org/1999/xlink" x="0px" y="0px"
	 viewBox="0 0 619.4 689.48" style="enable-background:new 0 0 619.4 689.48;" xml:space="preserve">
<style type="text/css">
	.st0{enable-background:new    ;}
</style>
<g class="st0">
	<path d="M619.27,62.62c0,23.96-8.98,46.79-26.94,68.54s-43.34,37.67-76.1,47.74c-32.78,10.09-70.59,10.09-113.44,0l62.39-15.12
		c37.18,23.32,66.64,54.99,88.39,95c21.74,40.03,32.61,85.88,32.61,137.54c0,48.54-8.98,91.08-26.94,127.62
		c-17.96,36.56-41.28,67.12-69.95,91.7c-28.68,24.58-59.72,43.01-93.11,55.3c-33.41,12.29-65.86,18.43-97.37,18.43
		c-57.99,0-109.51-11.96-154.56-35.92C99.18,629.5,63.9,596.57,38.37,554.65C12.85,512.75,0.09,464.7,0.09,410.49
		c0-56.72,12.91-107.13,38.76-151.25c25.83-44.1,61.76-78.77,107.77-103.98c46-25.2,99.26-37.81,159.76-37.81
		c28.36,0,53.72,2.53,76.1,7.56c22.36,5.05,40.8,7.56,55.3,7.56c22.05,0,39.38-6.93,51.99-20.8c12.6-13.85,19.22-31.51,19.85-52.94
		l1.89-56.72c18.91-2.51,36.54-2.67,52.94-0.47c16.38,2.22,29.62,7.89,39.7,17.02C614.22,27.81,619.27,42.46,619.27,62.62z
		 M306.37,618.46c28.36,0,52.3-7.56,71.84-22.69c19.53-15.12,34.34-37.34,44.43-66.64c10.07-29.3,15.12-65.7,15.12-109.18
		c0-48.52-6.31-90.75-18.91-126.67c-12.61-35.92-29.94-63.81-51.99-83.66c-22.07-19.85-48.21-29.78-78.46-29.78
		c-43.48,0-77.52,17.96-102.09,53.88s-36.87,85.71-36.87,149.36c0,46.65,6.76,87.6,20.32,122.89c13.54,35.3,31.98,62.86,55.3,82.71
		C248.38,608.54,275.48,618.46,306.37,618.46z"/>
</g>
</svg>
