<?xml version="1.0" encoding="utf-8"?>
<!-- Generator: Adobe Illustrator 23.1.1, SVG Export Plug-In . SVG Version: 6.00 Build 0)  -->
<svg version="1.1" id="Layer_1" xmlns="http://www.w3.org/2000/svg" xmlns:xlink="http://www.w3.org/1999/xlink" x="0px" y="0px"
	 viewBox="0 0 41 41" style="enable-background:new 0 0 41 41;" xml:space="preserve">
<style type="text/css">
	.st0{clip-path:url(#SVGID_2_);fill:url(#SVGID_3_);}
	.st1{clip-path:url(#SVGID_5_);fill:none;stroke:#231F20;stroke-width:0.75;stroke-miterlimit:10;}
</style>
<g>
	<defs>
		<path id="SVGID_1_" d="M15.16,24.14c0.17-0.12,0.31-0.23,0.42-0.33c0.11,0.2,0.24,0.39,0.38,0.57
			C15.71,24.27,15.44,24.19,15.16,24.14 M24.25,24.28c0.17-0.23,0.32-0.48,0.45-0.73c0.11,0.46,0.32,0.91,0.61,1.34
			C24.96,24.63,24.6,24.42,24.25,24.28 M15.15,22.88c0.04,0.11,0.08,0.21,0.12,0.32c-0.34,0-0.81,0.06-1.39,0.18
			C14.36,23.24,14.78,23.07,15.15,22.88 M13.93,18.4c0.6,0.09,1.18,0.13,1.7,0.13c-0.12,0.19-0.22,0.4-0.31,0.6
			C14.92,18.86,14.46,18.62,13.93,18.4 M17.08,8.79c0,3.35,1.04,6.19,2.5,7.26c-0.25,0.02-0.5,0.07-0.74,0.12
			c-0.29-1.8-2.82-4.14-6.37-5.7C8.21,8.6,4.11,8.56,3.3,10.39c-0.81,1.83,2,4.83,6.26,6.71c0.34,0.15,0.69,0.29,1.03,0.42
			c-0.46-0.07-0.93-0.12-1.41-0.15c-4.25-0.29-7.79,0.92-7.91,2.72c-0.12,1.79,3.22,3.48,7.46,3.77c1.49,0.1,2.89,0.02,4.09-0.21
			c-0.93,0.25-2.01,0.59-3.15,1.02C6.46,25.85,4,27.22,4.18,27.7c0.16,0.43,2.37,0.02,5.12-0.92c-1.89,2.24-2.27,5.06-0.8,6.54
			c1.6,1.6,4.76,1.02,7.06-1.28c2.03-2.03,2.71-4.72,1.76-6.43c0.52,0.32,1.1,0.56,1.72,0.68c-0.61,1.28-1.02,3.66-1.02,6.39
			c0,4.08,0.92,7.39,2.05,7.39s2.04-3.31,2.04-7.39c0-0.06,0-0.12,0-0.19c0.05,0.09,0.09,0.18,0.14,0.28
			c1.96,3.78,5.05,6.06,6.9,5.1c1.85-0.96,1.76-4.8-0.21-8.58c-0.54-1.03-1.16-1.95-1.82-2.73c1.21,0.78,2.77,1.34,4.51,1.54
			c4.17,0.47,7.8-1.3,8.1-3.96c0.3-2.66-2.84-5.2-7.01-5.67c-3.29-0.37-6.24,0.65-7.49,2.4c-0.04-0.61-0.18-1.18-0.41-1.71
			c1.61,0.37,4.42-0.58,7.11-2.54c3.44-2.51,5.36-5.72,4.31-7.17c-1.06-1.45-4.7-0.59-8.14,1.92c-2.68,1.95-4.44,4.33-4.59,5.97
			c-0.52-0.46-1.13-0.83-1.81-1.05c1.67-0.8,2.91-3.85,2.91-7.5c0-4.26-1.69-7.71-3.77-7.71C18.77,1.08,17.08,4.53,17.08,8.79"/>
	</defs>
	<clipPath id="SVGID_2_">
		<use xlink:href="#SVGID_1_"  style="overflow:visible;"/>
	</clipPath>
	
		<radialGradient id="SVGID_3_" cx="-216.2831" cy="283.7037" r="1" gradientTransform="matrix(19.5349 0 0 -19.7837 4245.5791 5633.2959)" gradientUnits="userSpaceOnUse">
		<stop  offset="0" style="stop-color:#FFBFF1"/>
		<stop  offset="0.2987" style="stop-color:#FFBFF1"/>
		<stop  offset="0.3207" style="stop-color:#FFC3F2"/>
		<stop  offset="0.4812" style="stop-color:#FFDDF8"/>
		<stop  offset="0.6459" style="stop-color:#FFF0FC"/>
		<stop  offset="0.8161" style="stop-color:#FFFBFE"/>
		<stop  offset="1" style="stop-color:#FFFFFF"/>
	</radialGradient>
	<rect x="1.14" y="1.08" class="st0" width="38.9" height="39"/>
</g>
<g>
	<defs>
		<rect id="SVGID_4_" x="0.89" y="0.71" width="39.25" height="39.75"/>
	</defs>
	<clipPath id="SVGID_5_">
		<use xlink:href="#SVGID_4_"  style="overflow:visible;"/>
	</clipPath>
	<path class="st1" d="M24.26,24.28c0.17-0.23,0.32-0.48,0.45-0.73c0.11,0.46,0.32,0.91,0.61,1.34
		C24.96,24.63,24.6,24.42,24.26,24.28z M15.16,24.14c0.17-0.12,0.31-0.23,0.42-0.33c0.11,0.2,0.24,0.39,0.38,0.57
		C15.71,24.27,15.44,24.19,15.16,24.14z M15.15,22.88c0.04,0.11,0.08,0.21,0.12,0.32c-0.34,0-0.81,0.06-1.39,0.18
		C14.36,23.24,14.78,23.07,15.15,22.88z M15.63,18.52c-0.12,0.19-0.22,0.4-0.31,0.6c-0.39-0.26-0.86-0.51-1.39-0.73
		C14.53,18.49,15.1,18.53,15.63,18.52z M32.73,18.48c-3.29-0.37-6.24,0.65-7.49,2.4c-0.04-0.61-0.18-1.18-0.41-1.71
		c1.61,0.37,4.42-0.58,7.11-2.54c3.44-2.51,5.37-5.72,4.31-7.17c-1.06-1.45-4.7-0.59-8.14,1.92c-2.68,1.95-4.44,4.33-4.59,5.97
		c-0.52-0.46-1.13-0.83-1.81-1.05c1.67-0.8,2.91-3.85,2.91-7.5c0-4.26-1.69-7.71-3.77-7.71s-3.77,3.45-3.77,7.71
		c0,3.35,1.04,6.19,2.5,7.26c-0.25,0.02-0.5,0.07-0.74,0.12c-0.29-1.8-2.82-4.14-6.36-5.7C8.21,8.6,4.11,8.56,3.3,10.39
		c-0.81,1.83,2,4.83,6.26,6.71c0.34,0.15,0.69,0.29,1.03,0.42c-0.46-0.07-0.93-0.12-1.41-0.15c-4.25-0.29-7.79,0.93-7.91,2.72
		c-0.12,1.79,3.22,3.48,7.47,3.77c1.49,0.1,2.89,0.02,4.09-0.21c-0.93,0.25-2.01,0.59-3.14,1.02C6.46,25.85,4,27.22,4.18,27.7
		c0.16,0.43,2.37,0.03,5.12-0.92c-1.89,2.24-2.27,5.06-0.8,6.53c1.6,1.6,4.76,1.02,7.06-1.28c2.03-2.03,2.71-4.72,1.76-6.43
		c0.52,0.32,1.1,0.56,1.72,0.68c-0.61,1.28-1.02,3.66-1.02,6.39c0,4.08,0.92,7.39,2.05,7.39s2.04-3.31,2.04-7.39
		c0-0.06,0-0.12,0-0.19c0.05,0.09,0.09,0.18,0.14,0.28c1.96,3.78,5.05,6.06,6.9,5.1c1.85-0.96,1.76-4.8-0.21-8.58
		c-0.54-1.03-1.16-1.95-1.82-2.73c1.21,0.78,2.77,1.34,4.51,1.53c4.17,0.47,7.8-1.3,8.1-3.96S36.91,18.95,32.73,18.48z"/>
</g>
</svg>
