<svg width="37" height="14" viewBox="0 0 37 14" fill="none" xmlns="http://www.w3.org/2000/svg">
<path fill-rule="evenodd" clip-rule="evenodd" d="M5.97014 12.9995L6.03414 12.1405L4.25114 11.8605C4.25114 11.7895 4.24114 11.6605 4.21914 11.4745C4.19814 11.2885 4.18314 10.9835 4.17614 10.5615C4.16914 10.1385 4.16514 9.56152 4.16514 8.83152L4.14414 4.47052C4.14414 3.96852 4.14714 3.49652 4.15514 3.05252C4.16214 2.60852 4.16914 2.23252 4.17614 1.92452C4.18314 1.61652 4.18714 1.41952 4.18714 1.33352H5.32514C6.12714 1.33352 6.79314 1.57352 7.32414 2.05352C7.85314 2.53352 8.11814 3.28152 8.11814 4.29852C8.11814 5.18652 7.88214 5.84152 7.40914 6.26452C6.93714 6.68652 6.27814 6.89752 5.43314 6.89752C5.17514 6.89752 4.92114 6.87652 4.67014 6.83352C4.41914 6.79052 4.13614 6.71852 3.82214 6.61852V7.77852C4.06514 7.82152 4.32314 7.86152 4.59514 7.89652C4.86714 7.93252 5.16814 7.95052 5.49714 7.95052C6.34214 7.95052 7.10914 7.78952 7.79614 7.46752C8.48414 7.14552 9.03214 6.69052 9.44014 6.10352C9.84814 5.51552 10.0521 4.82152 10.0521 4.01952C10.0521 2.84452 9.65814 1.94552 8.87014 1.32252C8.08314 0.699519 6.98014 0.388519 5.56214 0.388519H0.986143L0.921143 1.20452L2.25314 1.52652C2.26714 1.55552 2.27814 1.67052 2.28514 1.87052C2.29314 2.07152 2.30314 2.37952 2.31814 2.79452C2.33214 3.21052 2.33914 3.76852 2.33914 4.47052L2.31814 8.83152C2.31814 9.56152 2.31414 10.1425 2.30714 10.5715C2.30014 11.0015 2.29314 11.3125 2.28514 11.5065C2.27814 11.6995 2.26014 11.8255 2.23214 11.8825L0.986143 12.1835L1.05014 12.9995H5.97014ZM16.4971 12.9995L16.5621 12.1835L15.2941 11.8605C15.2801 11.7175 15.2621 11.5205 15.2411 11.2705C15.2191 11.0195 15.2051 10.6865 15.1981 10.2705C15.1901 9.85552 15.1871 9.34052 15.1871 8.72452V4.36252V2.81552V1.93552C15.1871 1.73452 15.1901 1.59152 15.1981 1.50552C15.2051 1.41952 15.2151 1.36252 15.2301 1.33352H16.4761C17.2781 1.33352 17.8941 1.53052 18.3241 1.92452C18.7531 2.31852 18.9681 2.89452 18.9681 3.65352C18.9681 4.44152 18.7211 5.05752 18.2271 5.50152C17.7331 5.94552 17.0421 6.16752 16.1541 6.16752H14.9291V7.13452H16.3041C17.1921 7.13452 17.9831 6.97652 18.6781 6.66152C19.3731 6.34652 19.9131 5.91352 20.3001 5.36152C20.6871 4.81052 20.8801 4.18352 20.8801 3.48152C20.8801 2.46552 20.5261 1.69552 19.8171 1.17252C19.1081 0.649519 18.0801 0.388519 16.7341 0.388519H12.0291L11.9641 1.20452L13.2961 1.50552C13.3101 1.56252 13.3251 1.71652 13.3391 1.96752C13.3531 2.21852 13.3641 2.56852 13.3711 3.02052C13.3781 3.47152 13.3821 4.02652 13.3821 4.68552V8.72452C13.3821 9.05352 13.3781 9.38652 13.3711 9.72352C13.3641 10.0595 13.3611 10.3715 13.3611 10.6575C13.3611 10.9445 13.3571 11.1915 13.3501 11.3985C13.3421 11.6065 13.3391 11.7605 13.3391 11.8605L12.0291 12.1835L12.0721 12.9995H16.4971ZM22.7391 13.1925C22.9031 13.1785 23.0571 13.1565 23.2001 13.1285L23.2221 12.3765C22.8491 12.3045 22.5061 12.1835 22.1911 12.0115C21.8761 11.8395 21.5571 11.5785 21.2351 11.2275C20.9121 10.8765 20.5511 10.4075 20.1501 9.81952L17.8291 6.40352L16.2181 6.76952L17.6791 9.43352C18.2231 10.3645 18.7211 11.1085 19.1721 11.6675C19.6231 12.2265 20.0921 12.6235 20.5791 12.8595C21.0661 13.0965 21.6251 13.2145 22.2551 13.2145C22.4131 13.2145 22.5741 13.2065 22.7391 13.1925V13.1925ZM32.7721 12.7095C33.5091 12.3875 34.1651 11.9285 34.7381 11.3345C35.3101 10.7405 35.7611 10.0425 36.0911 9.23952C36.4201 8.43752 36.5851 7.55652 36.5851 6.59752C36.5851 5.33652 36.3241 4.22652 35.8011 3.26752C35.2781 2.30752 34.5581 1.55552 33.6421 1.01152C32.7251 0.467519 31.6651 0.194519 30.4621 0.194519C29.2301 0.194519 28.1241 0.477519 27.1431 1.04352C26.1621 1.60952 25.3951 2.38652 24.8441 3.37452C24.2931 4.36252 24.0171 5.48752 24.0171 6.74752C24.0171 8.00852 24.2891 9.12552 24.8331 10.0995C25.3771 11.0735 26.1331 11.8325 27.1001 12.3765C28.0671 12.9205 29.1731 13.1925 30.4191 13.1925C31.2501 13.1925 32.0341 13.0315 32.7721 12.7095V12.7095ZM28.3571 11.3025C27.6981 10.8155 27.1821 10.1455 26.8101 9.29352C26.4371 8.44152 26.2511 7.45652 26.2511 6.33952C26.2511 4.77852 26.6061 3.54352 27.3151 2.63352C28.0241 1.72352 28.9871 1.26952 30.2041 1.26952C31.0491 1.26952 31.7831 1.51652 32.4071 2.01052C33.0301 2.50452 33.5201 3.18852 33.8781 4.06152C34.2361 4.93552 34.4151 5.95252 34.4151 7.11252C34.4151 8.11552 34.2611 8.98552 33.9531 9.72352C33.6451 10.4605 33.2091 11.0305 32.6431 11.4315C32.0771 11.8325 31.4001 12.0325 30.6131 12.0325C29.7671 12.0325 29.0151 11.7895 28.3571 11.3025V11.3025Z" fill="#231F20"/>
</svg>
