<?xml version="1.0" encoding="utf-8"?>
<!-- Generator: Adobe Illustrator 23.1.1, SVG Export Plug-In . SVG Version: 6.00 Build 0)  -->
<svg version="1.1" id="Layer_1" xmlns="http://www.w3.org/2000/svg" xmlns:xlink="http://www.w3.org/1999/xlink" x="0px" y="0px"
	 viewBox="0 0 1024.97 1007.97" style="enable-background:new 0 0 1024.97 1007.97;" xml:space="preserve">
<style type="text/css">
	.st0{clip-path:url(#SVGID_2_);fill:#231F20;}
	.st1{clip-path:url(#SVGID_4_);fill:url(#SVGID_5_);}
	.st2{clip-path:url(#SVGID_7_);fill:none;stroke:#231F20;stroke-width:5;stroke-miterlimit:10;}
</style>
<g>
	<defs>
		<rect id="SVGID_1_" x="-569.83" y="221.69" width="401.46" height="554.48"/>
	</defs>
	<clipPath id="SVGID_2_">
		<use xlink:href="#SVGID_1_"  style="overflow:visible;"/>
	</clipPath>
	<path class="st0" d="M-347.85,776.17l2.83-37.78l-78.4-12.28c0-3.14-0.47-8.81-1.42-17c-0.95-8.18-1.58-21.56-1.89-40.15
		c-0.32-18.57-0.47-43.92-0.47-76.04l-0.94-191.75c0-22.04,0.15-42.82,0.47-62.34c0.31-19.51,0.62-36.04,0.94-49.59
		c0.31-13.53,0.47-22.2,0.47-25.98h50.06c35.26,0,64.54,10.55,87.85,31.64c23.29,21.11,34.95,54,34.95,98.71
		c0,39.05-10.39,67.86-31.17,86.43c-20.78,18.58-49.75,27.87-86.9,27.87c-11.33,0-22.52-0.95-33.53-2.83
		c-11.03-1.89-23.47-5.03-37.31-9.45v51.01c10.7,1.89,22.04,3.63,34.01,5.2c11.96,1.58,25.18,2.36,39.67,2.36
		c37.15,0,70.84-7.08,101.07-21.25c30.23-14.17,54.32-34.15,72.26-59.98c17.95-25.81,26.92-56.35,26.92-91.63
		c0-51.63-17.33-91.15-51.95-118.55c-34.64-27.39-83.12-41.09-145.47-41.09h-201.2l-2.83,35.9l58.57,14.17
		c0.62,1.27,1.09,6.3,1.42,15.11c0.31,8.83,0.78,22.36,1.42,40.62c0.62,18.27,0.95,42.83,0.95,73.68l-0.95,191.75
		c0,32.12-0.16,57.62-0.47,76.51c-0.33,18.89-0.63,32.59-0.94,41.09c-0.33,8.5-1.11,14.02-2.36,16.53l-54.79,13.22l2.83,35.9
		H-347.85z"/>
</g>
<rect x="-1283.07" y="-673.87" style="fill:none;" width="1022" height="1028.97"/>
<text transform="matrix(1 0 0 1 -1232.9111 87.5781)" style="font-family:'CrimsonPro-Bold'; font-size:968px;">@</text>
<g>
	<defs>
		<path id="SVGID_3_" d="M604.41,322.56c-7.34-4.77-16.08-7.59-25.49-7.59c-9.19,0-17.71,2.68-24.94,7.25
			c-7.99-6.37-18.12-10.19-29.11-10.19c-17.66,0-33.02,9.78-40.98,24.18c-8.45-8.26-19.99-13.37-32.73-13.37
			c-25.85,0-46.81,20.95-46.81,46.8c0,2.9,0.3,5.73,0.8,8.48c-11.88,1.18-22.41,6.84-29.98,15.23c-6.62-3.61-14.23-5.66-22.3-5.66
			c-25.64,0-46.44,20.64-46.77,46.2c-6.3-2.44-13.21-3.59-20.4-3.06c-25.79,1.96-45.1,24.45-43.14,50.22
			c0.05,0.79,0.2,1.56,0.3,2.33c-5.55,2.28-10.74,5.67-15.23,10.16c-18.29,18.28-18.29,47.91,0,66.2
			c5.57,5.57,12.19,9.41,19.22,11.59v177.99c0,7.46,6.13,13.57,13.58,13.57l519.81-112.23c6.84-1.48,13.56-6.11,13.56-13.57V517.75
			c9.8-8.58,16.02-21.15,16.02-35.2c0-11.89-4.48-22.73-11.8-31c6.52-8.03,10.42-18.26,10.42-29.43c0-9.68-2.94-18.69-7.99-26.16
			c5.99-7.86,9.57-17.63,9.57-28.28c0-25.84-20.95-46.8-46.8-46.8c-13.13,0-24.97,5.42-33.48,14.12
			c-8.03-6.5-18.25-10.41-29.38-10.41c-6.76,0-13.16,1.46-18.96,4.04c-8.09-14.03-23.2-23.47-40.54-23.47
			C626.12,305.15,612.99,311.94,604.41,322.56"/>
	</defs>
	<clipPath id="SVGID_4_">
		<use xlink:href="#SVGID_3_"  style="overflow:visible;"/>
	</clipPath>
	
		<linearGradient id="SVGID_5_" gradientUnits="userSpaceOnUse" x1="643.9834" y1="1310.9167" x2="657.3933" y2="1310.9167" gradientTransform="matrix(0 -27.0255 -27.0255 0 35937.7695 18109.1562)">
		<stop  offset="0" style="stop-color:#FFFF00"/>
		<stop  offset="0.1655" style="stop-color:#FFFF00"/>
		<stop  offset="0.1763" style="stop-color:#FFFF07"/>
		<stop  offset="0.3433" style="stop-color:#FFFF70"/>
		<stop  offset="0.4775" style="stop-color:#FFFFBD"/>
		<stop  offset="0.5723" style="stop-color:#FFFFED"/>
		<stop  offset="0.6194" style="stop-color:#FFFFFF"/>
		<stop  offset="1" style="stop-color:#FFFFFF"/>
	</linearGradient>
	<rect x="209.31" y="305.15" class="st1" width="600.68" height="457.75"/>
</g>
<g>
	<defs>
		<rect id="SVGID_6_" x="208.86" y="300.11" width="606.17" height="467.82"/>
	</defs>
	<clipPath id="SVGID_7_">
		<use xlink:href="#SVGID_6_"  style="overflow:visible;"/>
	</clipPath>
	<path class="st2" d="M808.42,422.12c0-9.7-2.95-18.69-7.99-26.16c5.98-7.87,9.57-17.65,9.57-28.28c0-25.85-20.96-46.81-46.81-46.81
		c-13.13,0-24.97,5.42-33.47,14.12c-8.03-6.49-18.25-10.39-29.39-10.39c-6.76,0-13.16,1.46-18.96,4.04
		c-8.09-14.03-23.19-23.48-40.54-23.48c-14.71,0-27.83,6.8-36.41,17.42c-7.34-4.79-16.09-7.59-25.51-7.59
		c-9.19,0-17.71,2.68-24.94,7.24c-7.99-6.37-18.1-10.19-29.11-10.19c-17.65,0-33,9.78-40.98,24.19
		c-8.43-8.27-19.98-13.38-32.73-13.38c-25.85,0-46.81,20.96-46.81,46.8c0,2.9,0.31,5.73,0.8,8.48
		c-11.87,1.19-22.39,6.85-29.97,15.23c-6.64-3.59-14.23-5.65-22.3-5.65c-25.65,0-46.45,20.62-46.79,46.2
		c-6.3-2.45-13.21-3.61-20.4-3.06c-25.79,1.96-45.1,24.43-43.14,50.22c0.07,0.78,0.2,1.54,0.3,2.32
		c-5.54,2.29-10.73,5.67-15.23,10.18c-18.28,18.28-18.28,47.91,0,66.19c5.57,5.57,12.2,9.41,19.23,11.6v177.98
		c0,7.47,6.11,13.57,13.58,13.57l519.79-112.23c6.85-1.48,13.57-6.1,13.57-13.57V517.76c9.8-8.58,16.01-21.15,16.01-35.2
		c0-11.91-4.48-22.74-11.8-31C804.51,443.51,808.42,433.28,808.42,422.12z"/>
</g>
</svg>
