<?xml version="1.0" encoding="utf-8"?>
<!-- Generator: Adobe Illustrator 23.1.1, SVG Export Plug-In . SVG Version: 6.00 Build 0)  -->
<svg version="1.1" xmlns="http://www.w3.org/2000/svg" xmlns:xlink="http://www.w3.org/1999/xlink" x="0px" y="0px"
	 viewBox="0 0 30 792" style="enable-background:new 0 0 30 792;" xml:space="preserve">
<style type="text/css">
	.st0{fill:#FFFFFF;}
	.st1{clip-path:url(#SVGID_2_);fill:#231F20;}
</style>
<g id="Layer_1">
</g>
<g id="Layer_2">
	<rect x="0.03" class="st0" width="30" height="792"/>
	<g>
		<defs>
			<rect id="SVGID_1_" x="0.03" width="30" height="792"/>
		</defs>
		<clipPath id="SVGID_2_">
			<use xlink:href="#SVGID_1_"  style="overflow:visible;"/>
		</clipPath>
		<path class="st1" d="M12.37,300.44c0.25-0.32,0.6-0.58,1.05-0.76c0.45-0.18,0.96-0.27,1.55-0.27c0.78,0,1.4,0.17,1.87,0.51
			c0.46,0.34,0.69,0.79,0.69,1.35c0,0.6-0.28,1.09-0.84,1.46c-0.56,0.37-1.28,0.55-2.18,0.55c-0.49,0-0.92-0.07-1.3-0.22
			s-0.68-0.35-0.89-0.61c-0.21-0.26-0.32-0.57-0.32-0.92C12,301.13,12.12,300.76,12.37,300.44 M11.73,303.04
			c0.31,0.5,0.74,0.89,1.27,1.18c0.54,0.29,1.13,0.44,1.79,0.44c0.69,0,1.29-0.13,1.8-0.41c0.51-0.27,0.92-0.65,1.2-1.12
			c0.29-0.48,0.43-1.04,0.43-1.69c0-0.62-0.15-1.2-0.44-1.73c-0.29-0.53-0.7-0.94-1.22-1.25c-0.52-0.31-1.13-0.46-1.84-0.46
			c-0.68,0-1.28,0.14-1.8,0.42c-0.53,0.28-0.94,0.67-1.23,1.18c-0.29,0.51-0.44,1.1-0.44,1.77
			C11.26,301.99,11.42,302.54,11.73,303.04 M11.39,296.14l0.59,0.03l0.2-1.36c0.11-0.01,0.29-0.02,0.52-0.03
			c0.23-0.01,0.49-0.02,0.77-0.03c0.28-0.01,0.54-0.02,0.8-0.03l1.45-0.02c0.32,0.16,0.6,0.32,0.83,0.5
			c0.23,0.18,0.41,0.36,0.53,0.55l0.09-0.28c-0.15,0.16-0.26,0.32-0.34,0.49c-0.08,0.17-0.12,0.35-0.12,0.54
			c0,0.26,0.07,0.48,0.2,0.65c0.14,0.17,0.32,0.26,0.56,0.26c0.23,0,0.41-0.08,0.53-0.24c0.12-0.16,0.19-0.36,0.19-0.6
			c0-0.29-0.11-0.6-0.32-0.91c-0.21-0.32-0.62-0.63-1.23-0.95l0.02-0.05l1.31,0.06l0.22-0.22l-0.58-2.09H17.1l-0.22,1
			c-0.19,0.03-0.45,0.06-0.79,0.09c-0.34,0.03-0.68,0.04-1.02,0.04l-1.22-0.01c-0.33,0-0.62,0-0.85-0.01
			c-0.24-0.01-0.42-0.01-0.55-0.02c-0.13-0.01-0.22-0.02-0.27-0.03l-0.23-0.97l-0.56,0.05V296.14z M11.39,288.39l0.62,0.05l0.2-1.3
			c0.05,0,0.15-0.01,0.28-0.02c0.14-0.01,0.36-0.03,0.66-0.03c0.31-0.01,0.73-0.01,1.26-0.01l3.17-0.02c0.36,0,0.71,0,1.03,0.01
			s0.6,0.01,0.82,0.02c0.22,0,0.37,0.01,0.43,0.01v0.83c0,0.58-0.17,1.07-0.52,1.45c-0.35,0.39-0.89,0.58-1.63,0.58
			c-0.65,0-1.12-0.17-1.43-0.52c-0.31-0.34-0.46-0.82-0.46-1.44c0-0.19,0.02-0.37,0.05-0.55s0.08-0.39,0.16-0.62h-0.84
			c-0.03,0.18-0.06,0.37-0.09,0.56c-0.03,0.2-0.04,0.42-0.04,0.66c0,0.61,0.12,1.17,0.35,1.67c0.23,0.5,0.56,0.9,0.99,1.19
			c0.43,0.3,0.93,0.45,1.52,0.45c0.85,0,1.51-0.29,1.96-0.86c0.45-0.57,0.68-1.38,0.68-2.41v-3.33l-0.59-0.05l-0.24,0.97
			c-0.02,0.01-0.1,0.02-0.25,0.02c-0.15,0-0.37,0.01-0.67,0.02c-0.3,0.01-0.71,0.02-1.22,0.02l-3.17-0.02c-0.53,0-0.95,0-1.27-0.01
			c-0.31-0.01-0.54-0.01-0.68-0.02c-0.14-0.01-0.23-0.02-0.27-0.04l-0.22-0.91l-0.59,0.05V288.39z M11.39,276.08l0.56,0.05
			l0.23-0.97c0.11-0.02,0.32-0.04,0.61-0.05c0.29-0.02,0.68-0.02,1.17-0.02h2.34c0.31,0.22,0.55,0.47,0.72,0.77
			c0.17,0.29,0.25,0.61,0.25,0.95c0,0.25-0.06,0.49-0.18,0.73c-0.12,0.24-0.32,0.44-0.59,0.6c-0.28,0.16-0.65,0.24-1.12,0.24H13.7
			c-0.28,0-0.52,0-0.72-0.01c-0.2,0-0.36-0.01-0.48-0.02c-0.12-0.01-0.23-0.02-0.31-0.03l-0.23-0.91l-0.56,0.03v3.14l0.56,0.05
			l0.23-0.97c0.1-0.03,0.31-0.05,0.61-0.07c0.3-0.02,0.64-0.02,1.02-0.02h1.73c0.6,0,1.11-0.11,1.51-0.32
			c0.4-0.21,0.7-0.49,0.89-0.83c0.19-0.34,0.29-0.7,0.29-1.09c0-0.42-0.09-0.8-0.27-1.16c-0.18-0.35-0.46-0.71-0.86-1.08l0.02-0.05
			l0.83,0.08l0.25-0.27l-0.58-2.09H17.1l-0.22,1c-0.19,0.03-0.45,0.06-0.8,0.09c-0.34,0.02-0.69,0.04-1.03,0.04l-1.2-0.02
			c-0.35,0-0.64,0-0.86-0.02c-0.22-0.01-0.39-0.02-0.52-0.02c-0.12-0.01-0.22-0.01-0.3-0.02l-0.23-0.97l-0.56,0.03V276.08z
			 M12.37,267.53c0.25-0.32,0.6-0.57,1.05-0.76c0.45-0.18,0.96-0.27,1.55-0.27c0.78,0,1.4,0.17,1.87,0.51
			c0.46,0.34,0.69,0.79,0.69,1.35c0,0.6-0.28,1.09-0.84,1.46c-0.56,0.37-1.28,0.55-2.18,0.55c-0.49,0-0.92-0.07-1.3-0.22
			s-0.68-0.35-0.89-0.61c-0.21-0.26-0.32-0.57-0.32-0.92C12,268.22,12.12,267.85,12.37,267.53 M11.73,270.13
			c0.31,0.49,0.74,0.89,1.27,1.18c0.54,0.29,1.13,0.44,1.79,0.44c0.69,0,1.29-0.14,1.8-0.41c0.51-0.27,0.92-0.65,1.2-1.12
			c0.29-0.48,0.43-1.04,0.43-1.69c0-0.62-0.15-1.2-0.44-1.73c-0.29-0.53-0.7-0.94-1.22-1.25c-0.52-0.31-1.13-0.46-1.84-0.46
			c-0.68,0-1.28,0.14-1.8,0.42c-0.53,0.28-0.94,0.67-1.23,1.18s-0.44,1.1-0.44,1.77C11.26,269.08,11.42,269.64,11.73,270.13
			 M11.8,263.09c0.36,0.49,0.82,0.73,1.38,0.73c0.43,0,0.79-0.13,1.09-0.41c0.3-0.27,0.61-0.75,0.92-1.44
			c0.28-0.6,0.52-1.03,0.71-1.26c0.19-0.24,0.44-0.36,0.76-0.36c0.27,0,0.49,0.11,0.66,0.33c0.17,0.22,0.26,0.51,0.26,0.88
			c0,0.17-0.02,0.32-0.05,0.47c-0.04,0.15-0.09,0.27-0.15,0.38l-1.06,0.38v0.74l1.62-0.17c0.09-0.2,0.16-0.45,0.21-0.75
			c0.05-0.3,0.07-0.6,0.07-0.89c0-0.52-0.08-0.98-0.24-1.38c-0.16-0.4-0.39-0.71-0.67-0.93c-0.29-0.22-0.62-0.34-0.99-0.34
			c-0.46,0-0.84,0.15-1.14,0.45c-0.3,0.3-0.61,0.82-0.94,1.56c-0.24,0.57-0.46,0.96-0.66,1.16s-0.44,0.3-0.72,0.3
			c-0.29,0-0.52-0.11-0.69-0.34s-0.26-0.51-0.26-0.85c0-0.49,0.12-0.91,0.38-1.25l1.12-0.31v-0.76l-1.67,0.08
			c-0.15,0.27-0.26,0.6-0.35,0.98c-0.09,0.39-0.13,0.77-0.13,1.16C11.26,261.98,11.44,262.6,11.8,263.09 M11.39,257.73l0.56,0.03
			l0.23-0.97c0.11-0.02,0.32-0.04,0.62-0.06c0.3-0.02,0.63-0.02,1.01-0.02h1.77c0.56,0,1.04-0.11,1.44-0.31
			c0.4-0.21,0.7-0.49,0.91-0.84c0.21-0.35,0.31-0.75,0.31-1.19c0-0.46-0.12-0.89-0.35-1.31c-0.24-0.41-0.6-0.8-1.1-1.16l-0.58,0.3
			c0.36,0.24,0.64,0.51,0.81,0.81c0.18,0.3,0.26,0.63,0.26,0.99c0,0.24-0.06,0.48-0.19,0.71c-0.12,0.23-0.32,0.43-0.59,0.59
			c-0.27,0.16-0.63,0.23-1.09,0.23h-1.7c-0.28,0-0.52-0.01-0.72-0.01c-0.2-0.01-0.36-0.02-0.48-0.02c-0.12,0-0.23-0.01-0.31-0.02
			l-0.23-0.89l-0.56,0.05V257.73z M11.39,248.97l0.56,0.05l0.23-0.92c0.11-0.02,0.32-0.04,0.62-0.06c0.3-0.02,0.68-0.02,1.16-0.02
			h2.34c0.33,0.22,0.58,0.47,0.73,0.76c0.16,0.29,0.23,0.59,0.23,0.9c0,0.26-0.06,0.5-0.19,0.73s-0.32,0.41-0.59,0.56
			c-0.27,0.14-0.63,0.21-1.08,0.21l-1.72,0.01c-0.28,0-0.52,0-0.72-0.01c-0.2-0.01-0.36-0.01-0.48-0.02
			c-0.12-0.01-0.23-0.02-0.31-0.03l-0.23-0.86l-0.56,0.05v3.05l0.56,0.05l0.23-0.94c0.11-0.03,0.32-0.06,0.62-0.07
			c0.3-0.01,0.63-0.02,1.01-0.02l1.66-0.02c0.63,0,1.16-0.11,1.56-0.34c0.41-0.22,0.71-0.51,0.91-0.85c0.2-0.34,0.3-0.7,0.3-1.06
			c0-0.38-0.09-0.73-0.27-1.08c-0.18-0.34-0.47-0.68-0.88-1l0.02-0.05l0.84,0.08l0.25-0.26l-0.58-2.09H17.1l-0.22,1
			c-0.12,0.02-0.29,0.04-0.49,0.06c-0.2,0.02-0.42,0.04-0.65,0.05c-0.23,0.01-0.45,0.02-0.67,0.02l-1.22-0.02
			c-0.38,0-0.67-0.01-0.89-0.01c-0.22-0.01-0.39-0.02-0.5-0.02c-0.11-0.01-0.21-0.01-0.28-0.02l-0.23-0.97l-0.56,0.03V248.97z
			 M20.23,243.91c0.18,0.18,0.4,0.27,0.66,0.27c0.25,0,0.47-0.09,0.65-0.27c0.18-0.18,0.27-0.4,0.27-0.67s-0.09-0.5-0.27-0.69
			c-0.18-0.19-0.4-0.28-0.65-0.28c-0.26,0-0.48,0.09-0.66,0.28c-0.18,0.19-0.26,0.42-0.26,0.69S20.05,243.73,20.23,243.91
			 M11.39,244.92l0.58,0.03l0.22-1.05c0.08-0.02,0.28-0.04,0.59-0.05c0.31-0.02,0.71-0.02,1.19-0.02h1.97
			c0.42,0,0.78,0.01,1.09,0.02c0.31,0.01,0.63,0.04,0.95,0.07l0.22-0.24l-0.58-2.22H17.1l-0.22,1.05c-0.19,0.03-0.46,0.06-0.81,0.08
			c-0.35,0.02-0.75,0.03-1.19,0.03h-1.03c-0.41,0-0.72-0.01-0.95-0.02c-0.23-0.01-0.4-0.02-0.5-0.02c-0.1-0.01-0.18-0.01-0.22-0.02
			l-0.22-1.05l-0.58,0.03V244.92z M11.39,239.56l0.59,0.03l0.2-1.36c0.11-0.01,0.29-0.02,0.52-0.03c0.23-0.01,0.49-0.02,0.77-0.03
			c0.28-0.01,0.54-0.02,0.8-0.03l1.45-0.02c0.32,0.16,0.6,0.32,0.83,0.5c0.23,0.18,0.41,0.36,0.53,0.55l0.09-0.28
			c-0.15,0.16-0.26,0.32-0.34,0.49c-0.08,0.17-0.12,0.35-0.12,0.54c0,0.26,0.07,0.48,0.2,0.65c0.14,0.17,0.32,0.26,0.56,0.26
			c0.23,0,0.41-0.08,0.53-0.24c0.12-0.16,0.19-0.36,0.19-0.6c0-0.29-0.11-0.6-0.32-0.91c-0.21-0.32-0.62-0.63-1.23-0.94l0.02-0.05
			l1.31,0.06l0.22-0.22l-0.58-2.09H17.1l-0.22,1c-0.19,0.03-0.45,0.06-0.79,0.09c-0.34,0.03-0.68,0.04-1.02,0.04l-1.22-0.02
			c-0.33,0-0.62,0-0.85-0.01c-0.24-0.01-0.42-0.01-0.55-0.02c-0.13-0.01-0.22-0.02-0.27-0.03l-0.23-0.97l-0.56,0.05V239.56z
			 M11.46,233.29c0.14,0.48,0.3,0.91,0.48,1.27L13.9,235l0.08-0.72l-1.47-0.69c-0.15-0.25-0.26-0.51-0.33-0.79
			c-0.07-0.28-0.11-0.58-0.11-0.9c0-0.63,0.16-1.22,0.47-1.74c0.31-0.53,0.78-0.94,1.39-1.25c0.61-0.31,1.36-0.46,2.25-0.46
			c0.68,0,1.3,0.12,1.86,0.35c0.56,0.23,1.01,0.6,1.35,1.09c0.34,0.49,0.51,1.13,0.51,1.91c0,0.3-0.03,0.61-0.1,0.94
			c-0.07,0.32-0.17,0.58-0.31,0.78L18.01,234l0.06,0.7l2.14-0.11c0.16-0.38,0.28-0.8,0.36-1.28s0.12-0.93,0.12-1.36
			c0-0.81-0.12-1.54-0.38-2.17c-0.25-0.63-0.6-1.17-1.04-1.62c-0.44-0.44-0.95-0.78-1.53-1.01c-0.58-0.23-1.19-0.34-1.85-0.34
			c-1.02,0-1.88,0.22-2.57,0.67c-0.69,0.45-1.21,1.05-1.56,1.79c-0.35,0.74-0.52,1.57-0.52,2.48
			C11.25,232.29,11.32,232.81,11.46,233.29"/>
		<path class="st1" d="M11.8,727.09c0.36,0.49,0.82,0.73,1.38,0.73c0.43,0,0.79-0.13,1.09-0.41c0.3-0.27,0.61-0.75,0.92-1.44
			c0.28-0.6,0.52-1.03,0.71-1.26c0.19-0.24,0.45-0.36,0.76-0.36c0.27,0,0.49,0.11,0.66,0.33c0.17,0.22,0.26,0.51,0.26,0.88
			c0,0.17-0.02,0.32-0.06,0.47c-0.04,0.15-0.08,0.27-0.15,0.38l-1.06,0.38v0.74l1.62-0.17c0.09-0.2,0.16-0.45,0.21-0.75
			c0.05-0.3,0.07-0.6,0.07-0.89c0-0.52-0.08-0.98-0.24-1.38c-0.16-0.4-0.39-0.71-0.67-0.93c-0.29-0.23-0.62-0.34-0.99-0.34
			c-0.46,0-0.84,0.15-1.14,0.45c-0.3,0.3-0.61,0.82-0.94,1.56c-0.24,0.57-0.46,0.96-0.66,1.16s-0.44,0.3-0.72,0.3
			c-0.29,0-0.52-0.11-0.7-0.34c-0.17-0.22-0.26-0.51-0.26-0.85c0-0.49,0.12-0.91,0.38-1.25l1.12-0.31v-0.76l-1.67,0.08
			c-0.15,0.27-0.26,0.6-0.35,0.98c-0.09,0.39-0.13,0.77-0.13,1.16C11.26,725.98,11.44,726.6,11.8,727.09 M17.31,721.95h0.78v-2.92
			h-0.78V721.95z M12.75,722.14c-0.15-0.17-0.27-0.35-0.37-0.55s-0.15-0.43-0.15-0.66c0-0.43,0.13-0.76,0.39-0.99
			c0.26-0.24,0.66-0.35,1.2-0.35l3.84,0.02l1.8,0.03v-0.3l-1.83-2.01h-0.33v1.09l-3.73-0.05c-0.77,0-1.35,0.21-1.73,0.62
			c-0.39,0.41-0.58,0.93-0.58,1.55c0,0.38,0.1,0.74,0.29,1.08c0.19,0.34,0.46,0.61,0.81,0.81L12.75,722.14z M11.39,712.12l0.56,0.05
			l0.23-0.97c0.11-0.02,0.32-0.04,0.61-0.05c0.29-0.02,0.68-0.02,1.17-0.02h2.34c0.31,0.22,0.55,0.47,0.72,0.77
			c0.17,0.29,0.25,0.61,0.25,0.95c0,0.25-0.06,0.49-0.18,0.73c-0.12,0.24-0.32,0.44-0.59,0.6c-0.28,0.16-0.65,0.24-1.12,0.24H13.7
			c-0.28,0-0.52,0-0.72-0.01c-0.2-0.01-0.36-0.01-0.48-0.02c-0.12-0.01-0.23-0.02-0.31-0.03l-0.23-0.91l-0.56,0.03v3.14l0.56,0.05
			l0.23-0.97c0.1-0.03,0.31-0.05,0.61-0.07c0.3-0.02,0.64-0.02,1.02-0.02h1.73c0.6,0,1.11-0.11,1.51-0.32
			c0.4-0.21,0.7-0.49,0.89-0.83c0.19-0.34,0.29-0.7,0.29-1.09c0-0.42-0.09-0.8-0.27-1.16c-0.18-0.35-0.46-0.71-0.86-1.08l0.02-0.05
			l0.83,0.08l0.25-0.27l-0.58-2.09h-0.52l-0.22,1c-0.19,0.03-0.45,0.06-0.8,0.09c-0.34,0.02-0.69,0.04-1.03,0.04l-1.2-0.02
			c-0.35,0-0.64,0-0.86-0.02c-0.22-0.01-0.39-0.02-0.52-0.02s-0.22-0.01-0.3-0.02l-0.23-0.97l-0.56,0.03V712.12z M12.37,703.58
			c0.25-0.32,0.6-0.57,1.05-0.76c0.45-0.18,0.96-0.27,1.55-0.27c0.78,0,1.4,0.17,1.87,0.51c0.46,0.34,0.7,0.79,0.7,1.35
			c0,0.6-0.28,1.09-0.84,1.46c-0.56,0.37-1.28,0.55-2.18,0.55c-0.49,0-0.92-0.07-1.31-0.22c-0.38-0.15-0.68-0.35-0.89-0.61
			c-0.21-0.26-0.32-0.57-0.32-0.92C12,704.27,12.12,703.9,12.37,703.58 M11.73,706.18c0.31,0.49,0.74,0.89,1.27,1.18
			c0.54,0.29,1.13,0.44,1.79,0.44c0.69,0,1.29-0.14,1.8-0.41c0.52-0.27,0.92-0.65,1.2-1.12c0.29-0.48,0.43-1.04,0.43-1.69
			c0-0.62-0.15-1.2-0.44-1.73c-0.29-0.53-0.7-0.94-1.22-1.25c-0.52-0.31-1.14-0.46-1.84-0.46c-0.68,0-1.28,0.14-1.81,0.42
			c-0.53,0.28-0.93,0.67-1.23,1.18c-0.29,0.51-0.44,1.1-0.44,1.77C11.26,705.13,11.42,705.68,11.73,706.18 M14.46,699.45h3.09v-0.67
			l-1.06-0.2c-0.02-0.05-0.04-0.14-0.05-0.26c-0.01-0.12-0.02-0.28-0.02-0.49v-1.31c0-0.14,0-0.27,0.02-0.41
			c0.01-0.14,0.02-0.27,0.03-0.4h-0.86c0.01,0.18,0.02,0.33,0.02,0.45s0.01,0.24,0.01,0.36v1.31c0,0.18-0.01,0.33-0.02,0.46
			c-0.01,0.13-0.03,0.23-0.05,0.29l-1.12,0.2V699.45z M11.39,697.34l0.62,0.03l0.19-1.27c0.04-0.01,0.14-0.02,0.3-0.02
			c0.16-0.01,0.39-0.01,0.7-0.02c0.31-0.01,0.71-0.02,1.21-0.02l3.41-0.02h0.69h0.59c0.17,0,0.32,0,0.43,0.01
			c0.11,0,0.19,0.01,0.23,0.01c0.02,0.11,0.03,0.27,0.04,0.46c0,0.19,0.01,0.37,0.01,0.52v1.74c0,0.11,0,0.22-0.01,0.33
			c-0.01,0.1-0.02,0.19-0.04,0.25l-1.31,0.53l0.11,0.72l2.06-0.33c-0.01-0.21-0.02-0.4-0.04-0.59c-0.02-0.18-0.02-0.35-0.02-0.51
			v-0.47v-4.94l-0.59-0.05l-0.22,0.97c-0.03,0.01-0.13,0.02-0.29,0.02c-0.16,0.01-0.39,0.01-0.68,0.02
			c-0.29,0.01-0.65,0.01-1.06,0.01l-3.3-0.01c-0.47,0-0.86,0-1.18-0.01c-0.32-0.01-0.56-0.01-0.73-0.02c-0.17,0-0.27-0.01-0.31-0.02
			l-0.22-0.89l-0.59,0.03V697.34z M11.66,688.31c0.27,0.45,0.67,0.82,1.21,1.11l0.36-0.39c-0.33-0.27-0.57-0.55-0.71-0.84
			c-0.14-0.29-0.21-0.62-0.21-0.99c0-0.67,0.24-1.21,0.72-1.63c0.48-0.42,1.15-0.63,2-0.63h0.19c0.53,0,0.97,0.08,1.32,0.25
			c0.35,0.17,0.61,0.38,0.78,0.66c0.17,0.27,0.26,0.55,0.26,0.84c0,0.48-0.17,0.85-0.49,1.12c-0.33,0.26-0.79,0.4-1.38,0.4h-0.33
			l0.2,0.17v-3.77h-0.69v4.8h0.28c0.98,0,1.73-0.23,2.26-0.69c0.53-0.46,0.79-1.09,0.8-1.91c0.01-0.56-0.13-1.09-0.43-1.58
			c-0.3-0.49-0.72-0.89-1.26-1.19c-0.54-0.3-1.18-0.45-1.92-0.45c-0.69,0-1.28,0.14-1.79,0.42c-0.51,0.28-0.89,0.67-1.16,1.16
			c-0.27,0.49-0.41,1.04-0.41,1.64C11.26,687.36,11.39,687.86,11.66,688.31 M11.39,682.5l0.58,0.03l0.22-1.01
			c0.15-0.02,0.47-0.04,0.96-0.05c0.49-0.02,1.05-0.02,1.66-0.02l2.52,0.01c0.75,0,1.39,0,1.92,0.01c0.53,0.01,1.01,0.01,1.45,0.02
			c0.43,0.01,0.87,0.02,1.32,0.03l0.22-0.3l-0.64-2.24l-0.5,0.03l-0.16,1.16c-0.08,0-0.26,0-0.52,0.02
			c-0.27,0.01-0.59,0.02-0.96,0.02s-0.77,0.01-1.19,0.02c-0.42,0.01-0.82,0.01-1.2,0.01h-1.95c-0.57,0-1.06-0.01-1.45-0.01
			c-0.4-0.01-0.71-0.02-0.95-0.02c-0.23,0-0.41-0.02-0.52-0.04l-0.22-1.01l-0.58,0.03V682.5z M18.09,678.47L17.84,676l-0.62,0.61
			l-0.12,1.86H18.09z M14.47,673.71c0.35-0.29,0.79-0.43,1.34-0.43c0.54,0,0.98,0.14,1.3,0.41c0.33,0.27,0.49,0.62,0.49,1.05
			c0,0.45-0.17,0.81-0.52,1.09c-0.35,0.28-0.82,0.41-1.41,0.41c-0.52,0-0.94-0.12-1.25-0.38c-0.31-0.25-0.47-0.59-0.47-1.01
			C13.95,674.37,14.12,674,14.47,673.71 M13.65,676.16c0.22,0.42,0.51,0.75,0.88,1c0.37,0.24,0.78,0.37,1.24,0.37
			c0.47,0,0.89-0.12,1.26-0.37c0.37-0.25,0.66-0.58,0.87-0.99c0.21-0.42,0.31-0.89,0.31-1.42c0-0.53-0.11-1.01-0.34-1.44
			c-0.22-0.43-0.53-0.77-0.91-1.02s-0.83-0.38-1.33-0.38c-0.44,0-0.83,0.12-1.19,0.36c-0.35,0.24-0.63,0.58-0.83,1.01
			c-0.2,0.43-0.3,0.92-0.3,1.48C13.32,675.28,13.43,675.74,13.65,676.16 M8.16,676.44c0.23,0.53,0.53,0.95,0.91,1.26
			c0.39,0.31,0.82,0.47,1.3,0.47c0.54,0,0.96-0.19,1.25-0.56c0.29-0.38,0.47-0.92,0.55-1.64l0.2-2.02c0.03-0.24,0.1-0.42,0.2-0.55
			c0.1-0.13,0.22-0.2,0.37-0.2c0.1,0,0.21,0.05,0.32,0.14c0.11,0.09,0.23,0.24,0.37,0.44l0.31-0.2c-0.21-0.48-0.45-0.85-0.72-1.12
			s-0.55-0.41-0.83-0.41c-0.29,0-0.54,0.13-0.74,0.41s-0.31,0.59-0.31,0.97l-0.06,0.23l-0.14,1.67c-0.04,0.59-0.15,1.02-0.32,1.27
			s-0.44,0.38-0.79,0.38c-0.46,0-0.83-0.21-1.12-0.63c-0.29-0.42-0.44-0.97-0.44-1.63c0-0.59,0.11-1.06,0.34-1.39
			c0.23-0.33,0.55-0.5,0.97-0.5c0.3,0,0.58,0.09,0.84,0.28c0.26,0.19,0.49,0.45,0.7,0.8l0.12-0.59c-0.31-0.62-0.62-1.08-0.92-1.36
			c-0.3-0.28-0.63-0.42-0.98-0.42c-0.52,0-0.94,0.28-1.25,0.84c-0.31,0.56-0.47,1.32-0.47,2.28C7.82,675.31,7.94,675.91,8.16,676.44
			 M12.37,666.14c0.25-0.32,0.6-0.58,1.05-0.76s0.96-0.27,1.55-0.27c0.78,0,1.4,0.17,1.87,0.51c0.46,0.34,0.7,0.79,0.7,1.35
			c0,0.6-0.28,1.09-0.84,1.46c-0.56,0.37-1.28,0.55-2.18,0.55c-0.49,0-0.92-0.07-1.31-0.22c-0.38-0.15-0.68-0.35-0.89-0.61
			c-0.21-0.26-0.32-0.57-0.32-0.92C12,666.83,12.12,666.46,12.37,666.14 M11.73,668.74c0.31,0.49,0.74,0.89,1.27,1.18
			c0.54,0.29,1.13,0.44,1.79,0.44c0.69,0,1.29-0.14,1.8-0.41c0.52-0.27,0.92-0.65,1.2-1.12c0.29-0.48,0.43-1.04,0.43-1.69
			c0-0.62-0.15-1.2-0.44-1.73c-0.29-0.53-0.7-0.94-1.22-1.25c-0.52-0.31-1.14-0.46-1.84-0.46c-0.68,0-1.28,0.14-1.81,0.42
			c-0.53,0.28-0.93,0.67-1.23,1.18c-0.29,0.51-0.44,1.1-0.44,1.77C11.26,667.69,11.42,668.25,11.73,668.74 M12.37,658.2
			c0.25-0.32,0.6-0.57,1.05-0.76c0.45-0.18,0.96-0.27,1.55-0.27c0.78,0,1.4,0.17,1.87,0.51c0.46,0.34,0.7,0.79,0.7,1.35
			c0,0.6-0.28,1.09-0.84,1.46c-0.56,0.37-1.28,0.55-2.18,0.55c-0.49,0-0.92-0.07-1.31-0.22c-0.38-0.15-0.68-0.35-0.89-0.61
			c-0.21-0.26-0.32-0.57-0.32-0.92C12,658.89,12.12,658.53,12.37,658.2 M11.73,660.8c0.31,0.49,0.74,0.89,1.27,1.18
			c0.54,0.29,1.13,0.44,1.79,0.44c0.69,0,1.29-0.14,1.8-0.41c0.52-0.27,0.92-0.65,1.2-1.12c0.29-0.48,0.43-1.04,0.43-1.69
			c0-0.62-0.15-1.2-0.44-1.73c-0.29-0.53-0.7-0.94-1.22-1.25c-0.52-0.31-1.14-0.46-1.84-0.46c-0.68,0-1.28,0.14-1.81,0.42
			c-0.53,0.28-0.93,0.67-1.23,1.18c-0.29,0.51-0.44,1.1-0.44,1.77C11.26,659.75,11.42,660.31,11.73,660.8 M11.47,652.46
			c0.15,0.57,0.36,1.05,0.63,1.46c0.27-0.01,0.53-0.02,0.78-0.03c0.25-0.01,0.56-0.02,0.92-0.02h0.72h0.38l0.19,0.69l0.59-0.03
			v-3.05l-0.62-0.03l-0.17,1.06c-0.14,0.02-0.33,0.04-0.59,0.05c-0.26,0.01-0.56,0.01-0.91,0.01h-1.64l0.88,0.38
			c-0.21-0.28-0.35-0.6-0.44-0.96c-0.08-0.36-0.12-0.69-0.12-0.98c0-0.68,0.16-1.29,0.47-1.83c0.31-0.54,0.78-0.97,1.4-1.29
			c0.62-0.32,1.37-0.48,2.26-0.48c0.68,0,1.3,0.12,1.86,0.36c0.56,0.24,1.01,0.61,1.35,1.12c0.34,0.51,0.51,1.16,0.51,1.96
			c0,0.28-0.03,0.59-0.09,0.92c-0.06,0.33-0.17,0.6-0.31,0.8l-1.39,0.45l0.06,0.69l2.05-0.09c0.16-0.35,0.28-0.77,0.36-1.26
			c0.08-0.48,0.12-0.95,0.12-1.38c0-0.82-0.12-1.55-0.38-2.19c-0.25-0.64-0.6-1.18-1.05-1.62c-0.45-0.44-0.96-0.78-1.54-1.02
			c-0.58-0.23-1.2-0.35-1.85-0.35c-1.02,0-1.88,0.22-2.56,0.67c-0.69,0.45-1.21,1.05-1.55,1.82c-0.35,0.77-0.52,1.62-0.52,2.55
			C11.25,651.35,11.32,651.89,11.47,652.46"/>
	</g>
</g>
</svg>
