<?xml version="1.0" encoding="utf-8"?>
<!-- Generator: Adobe Illustrator 23.1.1, SVG Export Plug-In . SVG Version: 6.00 Build 0)  -->
<svg version="1.1" id="Layer_1" xmlns="http://www.w3.org/2000/svg" xmlns:xlink="http://www.w3.org/1999/xlink" x="0px" y="0px"
	 viewBox="0 0 46 540" style="enable-background:new 0 0 46 540;" xml:space="preserve">
<style type="text/css">
	.st0{fill:#FFFFFF;}
	.st1{fill:#231F20;}
</style>
<g>
	<rect x="-7.6" y="-4.4" class="st0" width="64" height="559"/>
</g>
<g>
	<g>
		<path class="st1" d="M20.9,158.1c0-0.6,0.1-1.2,0.4-1.7s0.6-0.9,1.1-1.2c0.5-0.3,1.1-0.5,1.8-0.5c0.5,0,0.9,0.1,1.3,0.2
			c0.4,0.2,0.8,0.4,1,0.7s0.5,0.7,0.7,1.1c0.2,0.4,0.3,0.9,0.3,1.5c0,0.3,0,0.6-0.1,0.9c-0.1,0.3-0.1,0.6-0.2,0.9l-1.5,0.1l0-0.5
			l1-0.3c0.1-0.1,0.2-0.3,0.2-0.5c0-0.2,0.1-0.4,0.1-0.6c0-0.5-0.1-1-0.4-1.3c-0.2-0.3-0.5-0.6-0.9-0.8s-0.8-0.2-1.3-0.2
			c-0.6,0-1.1,0.1-1.5,0.3c-0.4,0.2-0.7,0.5-1,0.9c-0.2,0.4-0.3,0.8-0.3,1.2c0,0.2,0,0.4,0.1,0.6c0,0.2,0.1,0.4,0.2,0.5l1,0.5l0,0.5
			l-1.4-0.3c-0.1-0.2-0.2-0.5-0.3-0.9S20.9,158.5,20.9,158.1z"/>
		<path class="st1" d="M21,161l0.4,0l0.2,0.7c0,0,0.1,0,0.2,0c0.1,0,0.2,0,0.4,0c0.2,0,0.4,0,0.6,0l0.8,0c0.2,0,0.5,0,0.7,0
			c0.2,0,0.4,0,0.5-0.1l0.1-0.7h0.4l0.4,1.4l-0.1,0.1l-0.9,0l0,0c0.4,0.2,0.7,0.4,0.8,0.6c0.1,0.2,0.2,0.4,0.2,0.6
			c0,0.2,0,0.3-0.1,0.4c-0.1,0.1-0.2,0.2-0.4,0.2c-0.2,0-0.3-0.1-0.4-0.2c-0.1-0.1-0.1-0.3-0.1-0.4c0-0.1,0-0.2,0.1-0.4
			s0.1-0.2,0.2-0.3l-0.1,0.2c-0.1-0.1-0.2-0.2-0.4-0.4c-0.2-0.1-0.4-0.2-0.6-0.3l-1,0c-0.2,0-0.4,0-0.5,0c-0.2,0-0.4,0-0.5,0
			c-0.2,0-0.3,0-0.4,0l-0.1,0.9l-0.4,0L21,161L21,161z"/>
		<path class="st1" d="M21,164.9l0.4,0l0.1,0.7c0,0,0.1,0,0.1,0c0.1,0,0.2,0,0.3,0c0.2,0,0.4,0,0.7,0h0.7c0.3,0,0.6,0,0.8,0
			c0.2,0,0.4,0,0.6-0.1l0.1-0.7h0.4l0.4,1.5l-0.1,0.2c-0.2,0-0.4,0-0.6-0.1s-0.5,0-0.8,0h-1.4c-0.3,0-0.6,0-0.8,0s-0.4,0-0.4,0
			l-0.1,0.7l-0.4,0L21,164.9L21,164.9z M26.9,166c0-0.2,0.1-0.3,0.2-0.5s0.3-0.2,0.5-0.2c0.2,0,0.3,0.1,0.5,0.2
			c0.1,0.1,0.2,0.3,0.2,0.5c0,0.2-0.1,0.3-0.2,0.5c-0.1,0.1-0.3,0.2-0.5,0.2s-0.3-0.1-0.5-0.2C27,166.4,26.9,166.2,26.9,166z"/>
		<path class="st1" d="M21,167.8l0.4,0l0.2,0.7c0,0,0.1,0,0.2,0c0.1,0,0.2,0,0.3,0c0.1,0,0.4,0,0.6,0l0.8,0c0.1,0,0.3,0,0.5,0
			s0.3,0,0.5,0c0.1,0,0.2,0,0.3,0l0.1-0.7h0.4l0.4,1.4l-0.2,0.2l-0.6-0.1l0,0c0.3,0.2,0.5,0.4,0.6,0.7s0.2,0.5,0.2,0.7
			c0,0.2-0.1,0.5-0.2,0.7c-0.1,0.2-0.3,0.4-0.6,0.6c-0.3,0.1-0.6,0.2-1.1,0.2l-1.1,0c-0.3,0-0.5,0-0.7,0s-0.4,0-0.4,0.1l-0.2,0.6
			l-0.4,0v-2.1l0.4,0l0.2,0.6c0.1,0,0.1,0,0.2,0c0.1,0,0.2,0,0.3,0c0.1,0,0.3,0,0.5,0l1.2,0c0.3,0,0.5-0.1,0.7-0.1
			c0.2-0.1,0.3-0.2,0.4-0.4s0.1-0.3,0.1-0.5c0-0.2,0-0.4-0.2-0.6s-0.3-0.4-0.5-0.5h-1.6c-0.3,0-0.6,0-0.8,0s-0.4,0-0.4,0l-0.2,0.6
			l-0.4,0V167.8z M21,173.9l0.4,0l0.2,0.6c0.1,0,0.1,0,0.2,0c0.1,0,0.2,0,0.3,0c0.1,0,0.3,0,0.5,0h1.2c0.3,0,0.6-0.1,0.8-0.2
			c0.2-0.1,0.3-0.2,0.4-0.4s0.1-0.3,0.1-0.5c0-0.2-0.1-0.5-0.2-0.7s-0.3-0.4-0.6-0.6l0.4-0.2c0.3,0.2,0.6,0.5,0.8,0.8
			s0.2,0.6,0.2,0.9c0,0.3-0.1,0.6-0.2,0.8c-0.1,0.2-0.4,0.4-0.6,0.6s-0.6,0.2-1,0.2h-1.2c-0.3,0-0.5,0-0.7,0s-0.4,0-0.4,0l-0.2,0.7
			L21,176V173.9z"/>
		<path class="st1" d="M21,178.4c0-0.3,0-0.5,0.1-0.8c0.1-0.3,0.1-0.5,0.2-0.7l1.1-0.1v0.5l-0.8,0.2c-0.2,0.2-0.3,0.5-0.3,0.9
			c0,0.2,0.1,0.4,0.2,0.6c0.1,0.1,0.3,0.2,0.5,0.2c0.2,0,0.4-0.1,0.5-0.2c0.1-0.1,0.3-0.4,0.5-0.8c0.2-0.5,0.4-0.9,0.6-1.1
			c0.2-0.2,0.5-0.3,0.8-0.3c0.3,0,0.5,0.1,0.7,0.2s0.4,0.4,0.5,0.6c0.1,0.3,0.2,0.6,0.2,0.9c0,0.2,0,0.4,0,0.6
			c0,0.2-0.1,0.4-0.1,0.5l-1.1,0.1v-0.5l0.7-0.3c0-0.1,0.1-0.2,0.1-0.3c0-0.1,0-0.2,0-0.3c0-0.2-0.1-0.4-0.2-0.6
			c-0.1-0.1-0.3-0.2-0.5-0.2c-0.2,0-0.4,0.1-0.5,0.2c-0.1,0.2-0.3,0.4-0.5,0.9c-0.2,0.5-0.4,0.8-0.6,1c-0.2,0.2-0.5,0.3-0.8,0.3
			c-0.4,0-0.7-0.2-1-0.5C21.1,179.4,21,178.9,21,178.4z"/>
		<path class="st1" d="M21,183.4c0-0.5,0.1-0.9,0.3-1.2c0.2-0.4,0.5-0.6,0.8-0.8s0.8-0.3,1.2-0.3c0.5,0,0.9,0.1,1.3,0.3
			s0.6,0.5,0.8,0.9s0.3,0.8,0.3,1.2c0,0.4-0.1,0.8-0.3,1.2c-0.2,0.3-0.5,0.6-0.8,0.8c-0.4,0.2-0.8,0.3-1.2,0.3
			c-0.5,0-0.9-0.1-1.2-0.3c-0.4-0.2-0.7-0.5-0.9-0.8C21,184.2,21,183.8,21,183.4z M21.5,183.5c0,0.2,0.1,0.4,0.2,0.6
			c0.1,0.2,0.4,0.3,0.6,0.4c0.3,0.1,0.6,0.1,0.9,0.1c0.6,0,1.1-0.1,1.5-0.4s0.6-0.6,0.6-1c0-0.4-0.2-0.7-0.5-0.9S24,182,23.5,182
			c-0.4,0-0.8,0.1-1.1,0.2c-0.3,0.1-0.5,0.3-0.7,0.5C21.5,183,21.5,183.2,21.5,183.5z"/>
		<path class="st1" d="M21,186.4l0.4,0l0.2,0.7c0,0,0.1,0,0.2,0c0.1,0,0.2,0,0.4,0c0.1,0,0.4,0,0.6,0l0.8,0c0.2,0,0.5,0,0.7,0
			s0.4,0,0.5-0.1l0.1-0.7h0.4l0.4,1.4l-0.2,0.2l-0.6-0.1l0,0c0.3,0.2,0.5,0.5,0.6,0.7s0.2,0.5,0.2,0.8c0,0.3-0.1,0.5-0.2,0.8
			c-0.1,0.2-0.3,0.4-0.6,0.6c-0.3,0.1-0.6,0.2-1,0.2h-1.2c-0.3,0-0.5,0-0.7,0c-0.2,0-0.4,0-0.4,0.1l-0.2,0.7l-0.4,0v-2.2l0.4,0
			l0.2,0.6c0.1,0,0.1,0,0.2,0c0.1,0,0.2,0,0.3,0c0.1,0,0.3,0,0.5,0h1.2c0.3,0,0.6-0.1,0.8-0.2s0.3-0.2,0.4-0.4
			c0.1-0.2,0.1-0.3,0.1-0.5c0-0.2-0.1-0.5-0.2-0.7c-0.1-0.2-0.3-0.4-0.5-0.5h-1.6c-0.3,0-0.6,0-0.8,0c-0.2,0-0.3,0-0.4,0l-0.2,0.7
			l-0.4,0L21,186.4L21,186.4z"/>
		<path class="st1" d="M21,194.6l0.4,0l0.1,0.6c0,0,0.1,0,0.2,0c0.1,0,0.2,0,0.5,0c0.2,0,0.5,0,0.9,0l2.2,0c0.4,0,0.6,0,0.8,0
			c0.2,0,0.4,0,0.5,0c0.1,0,0.2,0,0.2,0l0.2-0.7l0.4,0v2.3c0,0.7-0.2,1.3-0.5,1.6s-0.8,0.6-1.4,0.6c-0.4,0-0.8-0.1-1-0.3
			c-0.3-0.2-0.5-0.5-0.7-0.8s-0.2-0.7-0.2-1.1c0-0.2,0-0.3,0-0.4c0-0.1,0-0.3,0.1-0.4h0.6c0,0.2-0.1,0.3-0.1,0.4s0,0.2,0,0.4
			c0,0.4,0.1,0.8,0.3,1s0.5,0.4,1,0.4c0.5,0,0.9-0.1,1.1-0.4c0.2-0.3,0.4-0.6,0.4-1v-0.6c0,0-0.1,0-0.3,0c-0.1,0-0.3,0-0.6,0
			s-0.5,0-0.7,0l-2.2,0c-0.4,0-0.6,0-0.9,0c-0.2,0-0.4,0-0.5,0c-0.1,0-0.2,0-0.2,0l-0.1,0.9l-0.4,0L21,194.6L21,194.6z"/>
		<path class="st1" d="M21,199.9l0.4,0l0.2,0.7c0,0,0.1,0,0.2,0c0.1,0,0.2,0,0.4,0c0.2,0,0.4,0,0.6,0l0.8,0c0.2,0,0.5,0,0.7,0
			c0.2,0,0.4,0,0.5-0.1l0.1-0.7h0.4l0.4,1.4l-0.1,0.1l-0.9,0l0,0c0.4,0.2,0.7,0.4,0.8,0.6c0.1,0.2,0.2,0.4,0.2,0.6
			c0,0.2,0,0.3-0.1,0.4c-0.1,0.1-0.2,0.2-0.4,0.2c-0.2,0-0.3-0.1-0.4-0.2c-0.1-0.1-0.1-0.3-0.1-0.4c0-0.1,0-0.2,0.1-0.4
			s0.1-0.2,0.2-0.3l-0.1,0.2c-0.1-0.1-0.2-0.2-0.4-0.4c-0.2-0.1-0.4-0.2-0.6-0.3l-1,0c-0.2,0-0.4,0-0.5,0c-0.2,0-0.4,0-0.5,0
			c-0.2,0-0.3,0-0.4,0l-0.1,0.9l-0.4,0L21,199.9L21,199.9z"/>
		<path class="st1" d="M21,206c0-0.5,0.1-0.9,0.3-1.2c0.2-0.4,0.5-0.6,0.8-0.8s0.8-0.3,1.2-0.3c0.5,0,0.9,0.1,1.3,0.3
			s0.6,0.5,0.8,0.9s0.3,0.8,0.3,1.2c0,0.4-0.1,0.8-0.3,1.2c-0.2,0.3-0.5,0.6-0.8,0.8c-0.4,0.2-0.8,0.3-1.2,0.3
			c-0.5,0-0.9-0.1-1.2-0.3c-0.4-0.2-0.7-0.5-0.9-0.8C21,206.8,21,206.4,21,206z M21.5,206.1c0,0.2,0.1,0.4,0.2,0.6
			c0.1,0.2,0.4,0.3,0.6,0.4c0.3,0.1,0.6,0.1,0.9,0.1c0.6,0,1.1-0.1,1.5-0.4s0.6-0.6,0.6-1c0-0.4-0.2-0.7-0.5-0.9s-0.8-0.4-1.3-0.4
			c-0.4,0-0.8,0.1-1.1,0.2c-0.3,0.1-0.5,0.3-0.7,0.5C21.5,205.6,21.5,205.8,21.5,206.1z"/>
	</g>
	<g>
		<path class="st1" d="M20.9,443.2c0-0.6,0.1-1.2,0.4-1.8s0.6-0.9,1.1-1.2s1.1-0.5,1.8-0.5c0.5,0,0.9,0.1,1.3,0.2
			c0.4,0.2,0.8,0.4,1.1,0.7c0.3,0.3,0.5,0.7,0.7,1.1s0.3,0.9,0.3,1.5c0,0.3,0,0.6-0.1,1c-0.1,0.3-0.1,0.6-0.2,0.9l-1.4,0.1l0-0.5
			l1-0.3c0.1-0.1,0.2-0.3,0.2-0.5s0.1-0.4,0.1-0.6c0-0.5-0.1-1-0.4-1.4s-0.5-0.6-0.9-0.8s-0.8-0.2-1.3-0.2c-0.6,0-1.1,0.1-1.5,0.3
			c-0.4,0.2-0.8,0.5-1,0.9s-0.3,0.8-0.3,1.3c0,0.2,0,0.4,0.1,0.7s0.2,0.5,0.3,0.7l-0.6-0.3h1.1c0.2,0,0.4,0,0.6,0s0.3,0,0.4,0
			l0.1-0.7l0.4,0v2.1l-0.4,0l-0.1-0.5c0,0-0.1,0-0.3,0s-0.3,0-0.5,0c-0.2,0-0.5,0-0.6,0s-0.4,0-0.5,0c-0.2-0.3-0.3-0.6-0.4-1
			C21,443.9,20.9,443.5,20.9,443.2z"/>
		<path class="st1" d="M20.9,448.9c0-0.5,0.1-0.9,0.3-1.2c0.2-0.4,0.5-0.6,0.8-0.8s0.8-0.3,1.2-0.3c0.5,0,0.9,0.1,1.3,0.3
			c0.4,0.2,0.6,0.5,0.8,0.9s0.3,0.8,0.3,1.2c0,0.4-0.1,0.8-0.3,1.2c-0.2,0.3-0.5,0.6-0.8,0.8c-0.4,0.2-0.8,0.3-1.2,0.3
			c-0.5,0-0.9-0.1-1.2-0.3c-0.4-0.2-0.7-0.5-0.9-0.8C21,449.7,20.9,449.3,20.9,448.9z M21.4,449c0,0.2,0.1,0.5,0.2,0.6
			c0.1,0.2,0.4,0.3,0.6,0.4s0.6,0.1,0.9,0.1c0.6,0,1.1-0.1,1.5-0.4s0.6-0.6,0.6-1c0-0.4-0.2-0.7-0.5-0.9c-0.3-0.2-0.8-0.4-1.3-0.4
			c-0.4,0-0.8,0.1-1.1,0.2c-0.3,0.1-0.5,0.3-0.7,0.5S21.4,448.7,21.4,449z"/>
		<path class="st1" d="M20.9,454.4c0-0.5,0.1-0.9,0.3-1.2c0.2-0.4,0.5-0.6,0.8-0.8s0.8-0.3,1.2-0.3c0.5,0,0.9,0.1,1.3,0.3
			c0.4,0.2,0.6,0.5,0.8,0.9s0.3,0.8,0.3,1.2c0,0.4-0.1,0.8-0.3,1.2c-0.2,0.3-0.5,0.6-0.8,0.8c-0.4,0.2-0.8,0.3-1.2,0.3
			c-0.5,0-0.9-0.1-1.2-0.3c-0.4-0.2-0.7-0.5-0.9-0.8C21,455.2,20.9,454.8,20.9,454.4z M21.4,454.5c0,0.2,0.1,0.5,0.2,0.6
			c0.1,0.2,0.4,0.3,0.6,0.4s0.6,0.1,0.9,0.1c0.6,0,1.1-0.1,1.5-0.4s0.6-0.6,0.6-1c0-0.4-0.2-0.7-0.5-0.9c-0.3-0.2-0.8-0.4-1.3-0.4
			c-0.4,0-0.8,0.1-1.1,0.2c-0.3,0.1-0.5,0.3-0.7,0.5S21.4,454.2,21.4,454.5z"/>
		<path class="st1" d="M18.5,459.5c0-0.7,0.1-1.2,0.3-1.6s0.5-0.6,0.9-0.6c0.2,0,0.5,0.1,0.7,0.3s0.4,0.5,0.6,0.9l-0.1,0.4
			c-0.1-0.2-0.3-0.4-0.5-0.5s-0.4-0.2-0.6-0.2c-0.3,0-0.5,0.1-0.7,0.3s-0.2,0.5-0.2,1c0,0.5,0.1,0.8,0.3,1.1
			c0.2,0.3,0.5,0.4,0.8,0.4c0.2,0,0.4-0.1,0.5-0.3s0.2-0.5,0.2-0.9l0.1-1.1l0-0.2c0-0.3,0.1-0.5,0.2-0.7s0.3-0.3,0.5-0.3
			c0.2,0,0.4,0.1,0.6,0.3s0.4,0.4,0.5,0.8l-0.2,0.1c-0.1-0.1-0.2-0.2-0.2-0.3s-0.1-0.1-0.2-0.1c-0.1,0-0.2,0-0.2,0.1
			s-0.1,0.2-0.1,0.4l-0.1,1.4c0,0.5-0.2,0.9-0.4,1.1s-0.5,0.4-0.9,0.4c-0.3,0-0.6-0.1-0.9-0.3s-0.5-0.5-0.6-0.9
			C18.6,460.4,18.5,460,18.5,459.5z M22.3,459.6c0-0.4,0.1-0.7,0.2-1c0.1-0.3,0.3-0.5,0.6-0.7s0.5-0.2,0.8-0.2
			c0.3,0,0.6,0.1,0.9,0.3s0.5,0.4,0.6,0.7c0.1,0.3,0.2,0.6,0.2,1s-0.1,0.7-0.2,1s-0.3,0.5-0.6,0.7c-0.2,0.2-0.5,0.2-0.9,0.2
			s-0.6-0.1-0.9-0.2s-0.5-0.4-0.6-0.7C22.4,460.3,22.3,460,22.3,459.6z M22.8,459.7c0,0.3,0.1,0.5,0.3,0.7s0.5,0.3,0.9,0.3
			c0.4,0,0.7-0.1,1-0.3s0.4-0.4,0.4-0.8c0-0.3-0.1-0.5-0.3-0.7s-0.5-0.3-0.9-0.3s-0.7,0.1-0.9,0.3C22.9,459.1,22.8,459.4,22.8,459.7
			z M24.9,462.2l0.1-1.3l0.4-0.4l0.2,1.7H24.9z"/>
		<path class="st1" d="M21,462.7l0.4,0l0.1,0.7c0.1,0,0.2,0,0.4,0c0.2,0,0.4,0,0.6,0s0.6,0,1,0h1.3c0.3,0,0.5,0,0.8,0
			c0.3,0,0.6,0,0.8,0s0.5,0,0.7,0c0.2,0,0.3,0,0.4,0l0.1-0.8l0.3,0l0.4,1.5l-0.1,0.2c-0.3,0-0.6,0-0.9,0c-0.3,0-0.6,0-1,0
			c-0.4,0-0.8,0-1.3,0l-1.7,0c-0.4,0-0.8,0-1.1,0c-0.3,0-0.6,0-0.7,0l-0.1,0.7l-0.4,0L21,462.7L21,462.7z"/>
		<path class="st1" d="M20.9,467.9c0-0.4,0.1-0.8,0.3-1.1s0.5-0.6,0.8-0.8c0.4-0.2,0.8-0.3,1.2-0.3c0.5,0,1,0.1,1.3,0.3
			s0.7,0.5,0.9,0.8c0.2,0.3,0.3,0.7,0.3,1.1c0,0.6-0.2,1-0.5,1.3c-0.4,0.3-0.9,0.5-1.5,0.5h-0.2v-3.3h0.5v2.6l-0.1-0.1H24
			c0.4,0,0.7-0.1,1-0.3c0.2-0.2,0.3-0.4,0.3-0.8c0-0.2-0.1-0.4-0.2-0.6c-0.1-0.2-0.3-0.3-0.5-0.5c-0.2-0.1-0.5-0.2-0.9-0.2h-0.1
			c-0.6,0-1,0.1-1.4,0.4c-0.3,0.3-0.5,0.7-0.5,1.1c0,0.3,0,0.5,0.1,0.7c0.1,0.2,0.3,0.4,0.5,0.6l-0.2,0.3c-0.4-0.2-0.6-0.5-0.8-0.8
			C21,468.6,20.9,468.3,20.9,467.9z"/>
		<path class="st1" d="M21,472.7l0.4,0l0.1,0.6c0,0,0.1,0,0.2,0c0.1,0,0.3,0,0.5,0s0.5,0,0.8,0l2.3,0c0.3,0,0.5,0,0.7,0
			c0.2,0,0.4,0,0.5,0c0.1,0,0.2,0,0.2,0l0.1-0.7l0.4,0v3.4c0,0.1,0,0.2,0,0.3s0,0.2,0,0.4c0,0.1,0,0.3,0,0.4l-1.4,0.2l-0.1-0.5
			l0.9-0.4c0,0,0-0.1,0-0.2c0-0.1,0-0.1,0-0.2v-1.2c0-0.1,0-0.2,0-0.4c0-0.1,0-0.2,0-0.3c0,0-0.1,0-0.2,0s-0.2,0-0.3,0
			c-0.1,0-0.2,0-0.4,0c-0.1,0-0.3,0-0.5,0l-2.3,0c-0.3,0-0.6,0-0.8,0s-0.4,0-0.5,0c-0.1,0-0.2,0-0.2,0l-0.1,0.9l-0.4,0V472.7z
			 M23.1,476.1l0.8-0.1c0,0,0-0.1,0-0.2c0-0.1,0-0.2,0-0.3v-0.9c0-0.1,0-0.2,0-0.2s0-0.2,0-0.3h0.6c0,0.1,0,0.2,0,0.3
			c0,0.1,0,0.2,0,0.3v0.9c0,0.1,0,0.3,0,0.3s0,0.1,0,0.2l0.7,0.1v0.5h-2.1L23.1,476.1L23.1,476.1z"/>
		<path class="st1" d="M20.9,480.1c0-0.5,0.1-0.9,0.3-1.2c0.2-0.4,0.5-0.6,0.8-0.8s0.8-0.3,1.2-0.3c0.5,0,0.9,0.1,1.3,0.3
			c0.4,0.2,0.6,0.5,0.8,0.9s0.3,0.8,0.3,1.2c0,0.4-0.1,0.8-0.3,1.2c-0.2,0.3-0.5,0.6-0.8,0.8c-0.4,0.2-0.8,0.3-1.2,0.3
			c-0.5,0-0.9-0.1-1.2-0.3c-0.4-0.2-0.7-0.5-0.9-0.8C21,480.9,20.9,480.5,20.9,480.1z M21.4,480.2c0,0.2,0.1,0.5,0.2,0.6
			c0.1,0.2,0.4,0.3,0.6,0.4s0.6,0.1,0.9,0.1c0.6,0,1.1-0.1,1.5-0.4s0.6-0.6,0.6-1c0-0.4-0.2-0.7-0.5-0.9c-0.3-0.2-0.8-0.4-1.3-0.4
			c-0.4,0-0.8,0.1-1.1,0.2c-0.3,0.1-0.5,0.3-0.7,0.5S21.4,479.9,21.4,480.2z"/>
		<path class="st1" d="M21,483.1l0.4,0l0.2,0.7c0,0,0.1,0,0.2,0c0.1,0,0.2,0,0.4,0s0.4,0,0.6,0l0.8,0c0.2,0,0.5,0,0.7,0
			s0.4,0,0.5-0.1l0.1-0.7h0.4l0.4,1.4l-0.2,0.2l-0.6,0l0,0c0.3,0.2,0.5,0.5,0.6,0.7s0.2,0.5,0.2,0.8c0,0.3-0.1,0.5-0.2,0.8
			c-0.1,0.2-0.3,0.4-0.6,0.6c-0.3,0.1-0.6,0.2-1,0.2h-1.2c-0.3,0-0.5,0-0.7,0c-0.2,0-0.4,0-0.4,0l-0.2,0.7l-0.4,0v-2.2l0.4,0
			l0.2,0.6c0.1,0,0.1,0,0.2,0s0.2,0,0.3,0c0.1,0,0.3,0,0.5,0h1.2c0.3,0,0.6-0.1,0.8-0.2c0.2-0.1,0.3-0.2,0.4-0.4
			c0.1-0.2,0.1-0.3,0.1-0.5c0-0.2-0.1-0.5-0.2-0.7s-0.3-0.4-0.5-0.5h-1.6c-0.3,0-0.6,0-0.8,0c-0.2,0-0.3,0-0.4,0l-0.2,0.7l-0.4,0
			V483.1z"/>
		<path class="st1" d="M21.7,492.4c-0.2-0.1-0.4-0.3-0.5-0.6s-0.2-0.5-0.2-0.7c0-0.4,0.1-0.8,0.4-1.1c0.3-0.3,0.7-0.4,1.2-0.4l2.6,0
			v-0.8h0.2l1.3,1.4v0.2l-1.2,0l-2.6,0c-0.4,0-0.6,0.1-0.8,0.2s-0.3,0.4-0.3,0.7c0,0.2,0,0.3,0.1,0.5c0.1,0.1,0.1,0.3,0.2,0.4
			L21.7,492.4z M25.1,490.1h0.5v2h-0.5V490.1z"/>
		<path class="st1" d="M20.9,494.4c0-0.3,0-0.5,0.1-0.8s0.1-0.5,0.2-0.7l1.1,0v0.5l-0.8,0.2c-0.2,0.2-0.3,0.5-0.3,0.9
			c0,0.2,0.1,0.4,0.2,0.6s0.3,0.2,0.5,0.2c0.2,0,0.4-0.1,0.5-0.2s0.3-0.4,0.5-0.8c0.2-0.5,0.4-0.9,0.6-1.1s0.5-0.3,0.8-0.3
			c0.3,0,0.5,0.1,0.7,0.2c0.2,0.1,0.4,0.4,0.5,0.6c0.1,0.3,0.2,0.6,0.2,1c0,0.2,0,0.4,0,0.6c0,0.2-0.1,0.4-0.1,0.5l-1.1,0.1v-0.5
			l0.7-0.3c0-0.1,0.1-0.2,0.1-0.3c0-0.1,0-0.2,0-0.3c0-0.2-0.1-0.5-0.2-0.6s-0.3-0.2-0.5-0.2c-0.2,0-0.4,0.1-0.5,0.2
			c-0.1,0.2-0.3,0.5-0.5,0.9c-0.2,0.5-0.4,0.8-0.6,1s-0.5,0.3-0.8,0.3c-0.4,0-0.7-0.2-1-0.5C21,495.3,20.9,494.9,20.9,494.4z"/>
	</g>
</g>
</svg>
