<?xml version="1.0" encoding="utf-8"?>
<!-- Generator: Adobe Illustrator 23.1.1, SVG Export Plug-In . SVG Version: 6.00 Build 0)  -->
<svg version="1.1" id="Layer_2" xmlns="http://www.w3.org/2000/svg" xmlns:xlink="http://www.w3.org/1999/xlink" x="0px" y="0px"
	 viewBox="0 0 46 540" style="enable-background:new 0 0 46 540;" xml:space="preserve">
<style type="text/css">
	.st0{fill:#231F20;}
</style>
<g id="Layer_1">
	<g>
		<path class="st0" d="M20.94,158.13c0-0.62,0.12-1.19,0.36-1.7c0.24-0.51,0.6-0.92,1.07-1.23c0.48-0.31,1.06-0.46,1.77-0.46
			c0.45,0,0.88,0.08,1.27,0.24c0.4,0.16,0.75,0.39,1.05,0.69c0.3,0.3,0.54,0.67,0.71,1.11c0.17,0.44,0.26,0.93,0.26,1.49
			c0,0.29-0.03,0.6-0.09,0.93c-0.06,0.33-0.14,0.62-0.25,0.88l-1.47,0.08l-0.04-0.48l1.02-0.32c0.09-0.14,0.16-0.32,0.21-0.54
			c0.05-0.22,0.07-0.44,0.07-0.64c0-0.54-0.12-0.98-0.35-1.32c-0.23-0.34-0.54-0.59-0.93-0.75c-0.39-0.16-0.81-0.24-1.28-0.24
			c-0.61,0-1.12,0.11-1.55,0.32c-0.42,0.21-0.74,0.5-0.96,0.86c-0.21,0.36-0.32,0.76-0.32,1.2c0,0.22,0.02,0.43,0.08,0.62
			c0.05,0.19,0.12,0.37,0.23,0.54l1.01,0.47l-0.05,0.49l-1.35-0.3c-0.12-0.25-0.23-0.54-0.33-0.88S20.94,158.51,20.94,158.13z"/>
		<path class="st0" d="M21.03,161.02l0.39-0.03l0.16,0.67c0.04,0.01,0.1,0.01,0.19,0.02c0.09,0.01,0.21,0.01,0.38,0.02
			c0.16,0,0.36,0.01,0.59,0.01l0.84,0.01c0.24,0,0.47-0.01,0.7-0.03c0.23-0.02,0.41-0.04,0.54-0.06l0.15-0.69h0.35l0.4,1.44
			l-0.15,0.15l-0.9-0.04l-0.01,0.03c0.42,0.21,0.7,0.43,0.84,0.65c0.15,0.22,0.22,0.43,0.22,0.63c0,0.16-0.04,0.3-0.13,0.41
			c-0.09,0.11-0.21,0.17-0.36,0.17c-0.17,0-0.29-0.06-0.39-0.18c-0.09-0.12-0.14-0.27-0.14-0.45c0-0.13,0.03-0.25,0.09-0.37
			c0.06-0.12,0.14-0.23,0.24-0.34l-0.06,0.19c-0.09-0.13-0.21-0.25-0.37-0.38c-0.16-0.12-0.35-0.24-0.57-0.34l-1,0.01
			c-0.18,0.01-0.36,0.01-0.55,0.02c-0.19,0.01-0.37,0.01-0.53,0.02c-0.16,0.01-0.28,0.01-0.36,0.02l-0.14,0.93l-0.41-0.02V161.02z"
			/>
		<path class="st0" d="M21.03,164.87l0.4-0.02l0.15,0.72c0.03,0.01,0.08,0.01,0.15,0.02c0.07,0,0.19,0.01,0.34,0.02
			c0.16,0.01,0.38,0.01,0.66,0.01h0.71c0.3,0,0.57-0.01,0.82-0.02c0.24-0.01,0.43-0.03,0.56-0.05l0.15-0.72h0.35l0.4,1.53
			l-0.15,0.16c-0.22-0.02-0.44-0.04-0.65-0.05s-0.47-0.02-0.75-0.02h-1.35c-0.33,0-0.6,0.01-0.82,0.02s-0.35,0.02-0.41,0.04
			l-0.15,0.72l-0.4-0.02V164.87z M26.93,166.03c0-0.19,0.06-0.34,0.18-0.47c0.12-0.13,0.27-0.19,0.45-0.19
			c0.17,0,0.32,0.06,0.45,0.19c0.13,0.13,0.19,0.29,0.19,0.47c0,0.19-0.06,0.34-0.19,0.46c-0.12,0.12-0.27,0.18-0.45,0.18
			c-0.18,0-0.33-0.06-0.45-0.18C26.99,166.37,26.93,166.22,26.93,166.03z"/>
		<path class="st0" d="M21.03,167.8l0.39-0.02l0.16,0.67c0.05,0.01,0.11,0.01,0.19,0.02c0.08,0,0.19,0.01,0.34,0.02
			c0.15,0.01,0.35,0.01,0.61,0.01l0.84,0.01c0.15,0,0.3,0,0.46-0.01c0.16-0.01,0.31-0.02,0.45-0.03c0.14-0.01,0.25-0.03,0.34-0.04
			l0.15-0.69h0.35l0.4,1.44l-0.17,0.18l-0.58-0.05l-0.01,0.03c0.28,0.22,0.48,0.45,0.6,0.69c0.12,0.24,0.18,0.48,0.18,0.74
			c0,0.25-0.07,0.49-0.2,0.73c-0.14,0.24-0.34,0.43-0.62,0.59c-0.28,0.15-0.64,0.23-1.07,0.23l-1.14,0.01
			c-0.26,0-0.49,0.01-0.69,0.02s-0.35,0.03-0.42,0.05l-0.16,0.64l-0.39-0.03v-2.09l0.39-0.03l0.16,0.59
			c0.06,0.01,0.13,0.01,0.21,0.02c0.09,0.01,0.2,0.01,0.33,0.02c0.14,0,0.3,0.01,0.49,0.01l1.18-0.01c0.31,0,0.55-0.05,0.74-0.15
			c0.19-0.1,0.32-0.22,0.41-0.38c0.09-0.16,0.13-0.33,0.13-0.5c0-0.21-0.05-0.42-0.16-0.62c-0.11-0.2-0.28-0.37-0.5-0.52h-1.61
			c-0.33,0-0.6,0.01-0.8,0.02s-0.35,0.02-0.42,0.04L21.42,170l-0.39-0.03V167.8z M21.03,173.86l0.39-0.03l0.16,0.61
			c0.06,0.01,0.13,0.01,0.21,0.02c0.09,0,0.2,0.01,0.33,0.02c0.14,0.01,0.3,0.01,0.49,0.01h1.17c0.31,0,0.57-0.05,0.75-0.16
			c0.19-0.11,0.32-0.24,0.41-0.4s0.13-0.32,0.13-0.49c0-0.25-0.06-0.48-0.18-0.68c-0.12-0.2-0.31-0.39-0.56-0.55l0.4-0.2
			c0.34,0.25,0.6,0.52,0.76,0.8c0.16,0.28,0.24,0.58,0.24,0.9c0,0.3-0.07,0.57-0.21,0.82c-0.14,0.24-0.35,0.44-0.62,0.58
			c-0.27,0.14-0.6,0.21-0.99,0.21H22.7c-0.26,0-0.49,0.01-0.69,0.02s-0.35,0.02-0.42,0.04l-0.16,0.67L21.03,176V173.86z"/>
		<path class="st0" d="M20.95,178.4c0-0.27,0.03-0.53,0.09-0.79c0.06-0.27,0.14-0.49,0.24-0.68l1.15-0.05v0.53l-0.77,0.21
			c-0.17,0.24-0.26,0.52-0.26,0.86c0,0.24,0.06,0.43,0.18,0.59c0.12,0.15,0.28,0.23,0.48,0.23c0.19,0,0.36-0.07,0.49-0.2
			c0.14-0.14,0.29-0.4,0.45-0.79c0.22-0.51,0.44-0.87,0.64-1.07c0.21-0.21,0.47-0.31,0.78-0.31c0.26,0,0.48,0.08,0.68,0.23
			c0.2,0.15,0.35,0.37,0.46,0.64c0.11,0.27,0.17,0.59,0.17,0.95c0,0.2-0.02,0.4-0.05,0.61c-0.03,0.21-0.08,0.38-0.14,0.52
			l-1.12,0.12v-0.5l0.73-0.26c0.04-0.07,0.08-0.16,0.1-0.26c0.03-0.1,0.04-0.21,0.04-0.32c0-0.25-0.06-0.45-0.18-0.6
			c-0.12-0.15-0.27-0.23-0.46-0.23c-0.21,0-0.39,0.08-0.52,0.25c-0.13,0.16-0.29,0.45-0.49,0.87c-0.21,0.47-0.43,0.8-0.63,0.99
			c-0.21,0.19-0.46,0.28-0.75,0.28c-0.39,0-0.7-0.17-0.95-0.5C21.07,179.35,20.95,178.92,20.95,178.4z"/>
		<path class="st0" d="M20.95,183.38c0-0.47,0.1-0.87,0.3-1.22c0.2-0.35,0.48-0.62,0.84-0.81c0.36-0.19,0.77-0.29,1.24-0.29
			c0.49,0,0.91,0.11,1.27,0.32c0.36,0.21,0.64,0.5,0.84,0.86c0.2,0.36,0.3,0.76,0.3,1.19c0,0.44-0.1,0.83-0.29,1.16
			c-0.2,0.33-0.47,0.59-0.83,0.77c-0.35,0.19-0.77,0.28-1.24,0.28c-0.45,0-0.86-0.1-1.23-0.3c-0.37-0.2-0.66-0.47-0.88-0.81
			C21.05,184.18,20.95,183.8,20.95,183.38z M21.45,183.49c0,0.24,0.07,0.45,0.22,0.63c0.15,0.18,0.35,0.32,0.61,0.42
			c0.26,0.1,0.56,0.15,0.9,0.15c0.62,0,1.12-0.13,1.5-0.38c0.38-0.25,0.58-0.59,0.58-1c0-0.39-0.16-0.7-0.48-0.93
			c-0.32-0.23-0.75-0.35-1.28-0.35c-0.4,0-0.76,0.06-1.06,0.19c-0.31,0.12-0.55,0.3-0.72,0.52
			C21.54,182.96,21.45,183.21,21.45,183.49z"/>
		<path class="st0" d="M21.03,186.41l0.39-0.02l0.16,0.67c0.05,0.01,0.12,0.01,0.2,0.02c0.09,0,0.2,0.01,0.35,0.02
			c0.15,0.01,0.35,0.01,0.59,0.01l0.83,0.01c0.24,0,0.47-0.01,0.71-0.03c0.24-0.02,0.42-0.04,0.55-0.06l0.15-0.69h0.35l0.4,1.44
			l-0.17,0.18l-0.57-0.05l-0.01,0.03c0.27,0.25,0.47,0.5,0.59,0.74c0.12,0.24,0.18,0.51,0.18,0.79c0,0.26-0.07,0.51-0.2,0.75
			c-0.13,0.23-0.33,0.42-0.61,0.57c-0.28,0.15-0.62,0.22-1.04,0.22H22.7c-0.26,0-0.49,0.01-0.7,0.02c-0.21,0.01-0.35,0.03-0.42,0.05
			l-0.16,0.67l-0.39-0.03v-2.16l0.39-0.02l0.16,0.62c0.06,0.01,0.13,0.01,0.21,0.02c0.09,0.01,0.2,0.01,0.33,0.02
			c0.14,0,0.3,0.01,0.49,0.01h1.16c0.32,0,0.58-0.06,0.77-0.17c0.19-0.11,0.33-0.25,0.41-0.41c0.08-0.17,0.12-0.33,0.12-0.5
			c0-0.24-0.06-0.46-0.17-0.66c-0.12-0.2-0.28-0.38-0.49-0.53h-1.61c-0.34,0-0.61,0.01-0.81,0.02c-0.2,0.01-0.34,0.02-0.42,0.04
			l-0.16,0.67l-0.39-0.03V186.41z"/>
		<path class="st0" d="M21.03,194.61l0.41-0.03l0.15,0.62c0.03,0.01,0.09,0.02,0.19,0.03c0.1,0,0.25,0.01,0.47,0.01
			c0.21,0,0.5,0.01,0.87,0.01l2.18,0.01c0.35,0,0.63,0,0.84-0.01c0.21-0.01,0.36-0.01,0.46-0.02c0.1,0,0.16-0.01,0.17-0.02
			l0.16-0.67l0.41,0.03v2.29c0,0.71-0.16,1.26-0.47,1.65c-0.31,0.39-0.76,0.59-1.35,0.59c-0.4,0-0.75-0.1-1.04-0.31
			c-0.29-0.2-0.52-0.48-0.68-0.82s-0.24-0.73-0.24-1.15c0-0.17,0.01-0.32,0.03-0.45c0.02-0.14,0.04-0.27,0.06-0.39h0.58
			c-0.05,0.16-0.09,0.3-0.11,0.42c-0.02,0.12-0.03,0.25-0.03,0.38c0,0.42,0.11,0.75,0.32,0.99s0.54,0.35,0.98,0.35
			c0.51,0,0.88-0.13,1.12-0.4c0.24-0.27,0.36-0.6,0.36-1v-0.57c-0.04,0-0.14,0-0.3-0.01c-0.15,0-0.34-0.01-0.56-0.01
			c-0.22,0-0.46-0.01-0.71-0.01l-2.18,0.01c-0.37,0-0.65,0-0.86,0.01c-0.21,0-0.36,0.01-0.46,0.02c-0.09,0.01-0.16,0.02-0.19,0.02
			l-0.14,0.89l-0.43-0.03V194.61z"/>
		<path class="st0" d="M21.03,199.92l0.39-0.03l0.16,0.67c0.04,0.01,0.1,0.01,0.19,0.02c0.09,0.01,0.21,0.01,0.38,0.02
			c0.16,0,0.36,0.01,0.59,0.01l0.84,0.01c0.24,0,0.47-0.01,0.7-0.03c0.23-0.02,0.41-0.04,0.54-0.06l0.15-0.69h0.35l0.4,1.44
			l-0.15,0.15l-0.9-0.04l-0.01,0.03c0.42,0.21,0.7,0.43,0.84,0.65c0.15,0.22,0.22,0.43,0.22,0.63c0,0.16-0.04,0.3-0.13,0.41
			c-0.09,0.11-0.21,0.17-0.36,0.17c-0.17,0-0.29-0.06-0.39-0.18c-0.09-0.12-0.14-0.27-0.14-0.45c0-0.13,0.03-0.25,0.09-0.37
			c0.06-0.12,0.14-0.23,0.24-0.34l-0.06,0.19c-0.09-0.13-0.21-0.25-0.37-0.38c-0.16-0.12-0.35-0.24-0.57-0.34l-1,0.01
			c-0.18,0.01-0.36,0.01-0.55,0.02c-0.19,0.01-0.37,0.01-0.53,0.02c-0.16,0.01-0.28,0.01-0.36,0.02l-0.14,0.93l-0.41-0.02V199.92z"
			/>
		<path class="st0" d="M20.95,206c0-0.47,0.1-0.87,0.3-1.22c0.2-0.35,0.48-0.62,0.84-0.81c0.36-0.19,0.77-0.29,1.24-0.29
			c0.49,0,0.91,0.11,1.27,0.32c0.36,0.21,0.64,0.5,0.84,0.86c0.2,0.36,0.3,0.76,0.3,1.19c0,0.44-0.1,0.83-0.29,1.16
			c-0.2,0.33-0.47,0.59-0.83,0.77c-0.35,0.19-0.77,0.28-1.24,0.28c-0.45,0-0.86-0.1-1.23-0.3c-0.37-0.2-0.66-0.47-0.88-0.81
			C21.05,206.8,20.95,206.42,20.95,206z M21.45,206.1c0,0.24,0.07,0.45,0.22,0.63c0.15,0.18,0.35,0.32,0.61,0.42
			c0.26,0.1,0.56,0.15,0.9,0.15c0.62,0,1.12-0.13,1.5-0.38c0.38-0.25,0.58-0.59,0.58-1c0-0.39-0.16-0.7-0.48-0.93
			c-0.32-0.23-0.75-0.35-1.28-0.35c-0.4,0-0.76,0.06-1.06,0.19c-0.31,0.12-0.55,0.3-0.72,0.52
			C21.54,205.57,21.45,205.82,21.45,206.1z"/>
	</g>
	<g>
		<path class="st0" d="M20.9,443.19c0-0.64,0.12-1.23,0.36-1.76c0.24-0.53,0.6-0.94,1.07-1.25s1.06-0.46,1.76-0.46
			c0.45,0,0.88,0.08,1.27,0.24c0.4,0.16,0.75,0.39,1.06,0.7c0.31,0.3,0.55,0.68,0.72,1.12c0.17,0.44,0.26,0.94,0.26,1.51
			c0,0.3-0.03,0.62-0.09,0.95c-0.06,0.33-0.14,0.62-0.25,0.87l-1.41,0.06l-0.04-0.47l0.96-0.31c0.1-0.14,0.17-0.32,0.21-0.55
			s0.06-0.44,0.06-0.63c0-0.55-0.12-1-0.35-1.35c-0.23-0.35-0.54-0.6-0.93-0.77s-0.81-0.25-1.28-0.25c-0.61,0-1.13,0.11-1.55,0.33
			c-0.43,0.22-0.75,0.51-0.96,0.89s-0.32,0.79-0.32,1.26c0,0.2,0.03,0.42,0.09,0.67c0.06,0.25,0.16,0.47,0.3,0.66l-0.6-0.26h1.13
			c0.24,0,0.44,0,0.62-0.01s0.32-0.02,0.41-0.03l0.12-0.73l0.43,0.02v2.09l-0.41,0.02l-0.13-0.47c-0.04,0-0.12,0-0.26,0
			s-0.3,0-0.49,0c-0.25,0-0.46,0-0.63,0.01s-0.35,0.01-0.54,0.02c-0.19-0.28-0.33-0.61-0.44-1C20.95,443.91,20.9,443.54,20.9,443.19
			z"/>
		<path class="st0" d="M20.91,448.89c0-0.47,0.1-0.87,0.3-1.22c0.2-0.35,0.48-0.62,0.84-0.81c0.36-0.19,0.77-0.29,1.24-0.29
			c0.49,0,0.91,0.11,1.27,0.32c0.36,0.21,0.64,0.5,0.84,0.86c0.2,0.36,0.3,0.76,0.3,1.19c0,0.44-0.1,0.83-0.29,1.16
			c-0.2,0.33-0.47,0.59-0.83,0.77c-0.35,0.19-0.77,0.28-1.24,0.28c-0.45,0-0.86-0.1-1.23-0.3c-0.37-0.2-0.66-0.47-0.88-0.81
			C21.02,449.7,20.91,449.32,20.91,448.89z M21.42,449c0,0.24,0.07,0.46,0.22,0.63c0.15,0.18,0.35,0.32,0.61,0.42
			c0.26,0.1,0.56,0.15,0.9,0.15c0.62,0,1.12-0.13,1.5-0.38c0.38-0.25,0.58-0.59,0.58-1c0-0.39-0.16-0.7-0.48-0.93
			c-0.32-0.23-0.75-0.35-1.28-0.35c-0.4,0-0.76,0.06-1.06,0.19c-0.31,0.12-0.55,0.3-0.72,0.52S21.42,448.72,21.42,449z"/>
		<path class="st0" d="M20.91,454.35c0-0.47,0.1-0.87,0.3-1.22c0.2-0.35,0.48-0.62,0.84-0.81c0.36-0.19,0.77-0.29,1.24-0.29
			c0.49,0,0.91,0.11,1.27,0.32c0.36,0.21,0.64,0.5,0.84,0.86c0.2,0.36,0.3,0.76,0.3,1.19c0,0.44-0.1,0.83-0.29,1.16
			c-0.2,0.33-0.47,0.59-0.83,0.77c-0.35,0.19-0.77,0.28-1.24,0.28c-0.45,0-0.86-0.1-1.23-0.3c-0.37-0.2-0.66-0.47-0.88-0.81
			C21.02,455.16,20.91,454.77,20.91,454.35z M21.42,454.46c0,0.24,0.07,0.46,0.22,0.63c0.15,0.18,0.35,0.32,0.61,0.42
			c0.26,0.1,0.56,0.15,0.9,0.15c0.62,0,1.12-0.13,1.5-0.38c0.38-0.25,0.58-0.59,0.58-1c0-0.39-0.16-0.7-0.48-0.93
			c-0.32-0.23-0.75-0.35-1.28-0.35c-0.4,0-0.76,0.06-1.06,0.19c-0.31,0.12-0.55,0.3-0.72,0.52S21.42,454.18,21.42,454.46z"/>
		<path class="st0" d="M18.55,459.55c0-0.66,0.11-1.18,0.32-1.57s0.5-0.58,0.86-0.58c0.24,0,0.47,0.1,0.68,0.29s0.42,0.5,0.63,0.93
			l-0.09,0.41c-0.14-0.24-0.3-0.42-0.48-0.55s-0.37-0.19-0.58-0.19c-0.29,0-0.51,0.11-0.67,0.34s-0.24,0.55-0.24,0.96
			c0,0.46,0.1,0.83,0.3,1.12c0.2,0.29,0.46,0.44,0.77,0.44c0.24,0,0.42-0.09,0.54-0.26c0.12-0.17,0.19-0.46,0.22-0.87l0.1-1.15
			l0.04-0.16c0-0.26,0.07-0.48,0.21-0.67c0.14-0.19,0.31-0.28,0.51-0.28c0.19,0,0.38,0.09,0.57,0.28s0.35,0.44,0.49,0.77l-0.21,0.14
			c-0.09-0.14-0.18-0.24-0.25-0.3c-0.07-0.06-0.15-0.1-0.22-0.1c-0.1,0-0.18,0.04-0.25,0.13c-0.07,0.09-0.11,0.22-0.13,0.38
			l-0.14,1.39c-0.05,0.49-0.18,0.87-0.38,1.13s-0.49,0.39-0.86,0.39c-0.33,0-0.63-0.11-0.89-0.32s-0.47-0.5-0.63-0.87
			C18.62,460.42,18.55,460.01,18.55,459.55z M22.33,459.64c0-0.38,0.07-0.72,0.2-1.01c0.14-0.3,0.33-0.53,0.57-0.69
			s0.52-0.25,0.82-0.25c0.34,0,0.65,0.09,0.91,0.26s0.47,0.4,0.63,0.7c0.15,0.29,0.23,0.62,0.23,0.99s-0.07,0.69-0.21,0.98
			s-0.34,0.51-0.6,0.68c-0.25,0.17-0.54,0.25-0.86,0.25c-0.32,0-0.6-0.08-0.85-0.25c-0.25-0.17-0.46-0.4-0.61-0.69
			C22.4,460.31,22.33,459.99,22.33,459.64z M22.76,459.69c0,0.29,0.11,0.53,0.32,0.7s0.5,0.26,0.86,0.26c0.41,0,0.73-0.09,0.97-0.28
			c0.24-0.19,0.36-0.44,0.36-0.75c0-0.29-0.11-0.53-0.34-0.72c-0.23-0.19-0.53-0.28-0.9-0.28s-0.68,0.1-0.92,0.29
			C22.88,459.11,22.76,459.37,22.76,459.69z M24.92,462.18L25,460.9l0.43-0.42l0.17,1.7H24.92z"/>
		<path class="st0" d="M21,462.67l0.4-0.02l0.15,0.7c0.08,0.01,0.2,0.02,0.36,0.03c0.16,0,0.38,0.01,0.65,0.02s0.61,0.01,1,0.01
			h1.34c0.26,0,0.54,0,0.83-0.01c0.29,0,0.56-0.01,0.82-0.01c0.26,0,0.48-0.01,0.66-0.02c0.18-0.01,0.3-0.01,0.36-0.01l0.11-0.79
			l0.34-0.02l0.44,1.54l-0.15,0.2c-0.31-0.01-0.61-0.01-0.91-0.02c-0.3-0.01-0.63-0.01-0.99-0.02c-0.37,0-0.81-0.01-1.32-0.01
			l-1.73-0.01c-0.42,0-0.8,0-1.14,0.02c-0.34,0.01-0.56,0.02-0.66,0.04l-0.15,0.7l-0.4-0.02V462.67z"/>
		<path class="st0" d="M20.91,467.92c0-0.42,0.09-0.79,0.28-1.13s0.45-0.6,0.8-0.79c0.35-0.19,0.76-0.29,1.23-0.29
			c0.51,0,0.95,0.1,1.32,0.31s0.66,0.48,0.87,0.82c0.2,0.34,0.3,0.7,0.29,1.08c-0.01,0.56-0.19,1-0.55,1.31
			c-0.36,0.32-0.88,0.47-1.55,0.47H23.4v-3.3h0.47v2.59l-0.14-0.12h0.23c0.41,0,0.72-0.09,0.95-0.27c0.22-0.18,0.34-0.44,0.34-0.77
			c0-0.2-0.06-0.39-0.18-0.58c-0.12-0.19-0.3-0.34-0.54-0.45c-0.24-0.11-0.54-0.17-0.91-0.17H23.5c-0.59,0-1.05,0.14-1.38,0.44
			c-0.33,0.29-0.49,0.66-0.49,1.12c0,0.26,0.05,0.49,0.15,0.68c0.1,0.2,0.26,0.39,0.49,0.57l-0.25,0.27
			c-0.37-0.2-0.65-0.46-0.83-0.76C21,468.64,20.91,468.3,20.91,467.92z"/>
		<path class="st0" d="M21,472.73l0.41-0.02l0.15,0.61c0.03,0.01,0.1,0.01,0.21,0.02c0.11,0,0.28,0.01,0.5,0.01
			c0.22,0,0.49,0.01,0.81,0.01l2.27,0.01c0.29,0,0.53,0,0.73,0c0.2,0,0.36-0.01,0.47-0.01c0.11,0,0.18-0.01,0.2-0.02l0.15-0.67
			l0.41,0.03v3.39c0,0.11,0,0.21,0,0.32s0,0.22,0.02,0.35c0.01,0.13,0.02,0.26,0.03,0.4l-1.42,0.23l-0.08-0.49l0.9-0.37
			c0.01-0.04,0.02-0.1,0.03-0.17c0-0.07,0-0.15,0-0.23v-1.19c0-0.11,0-0.23,0-0.36c0-0.13-0.01-0.24-0.03-0.32
			c-0.03,0-0.08,0-0.16,0c-0.08,0-0.18-0.01-0.3-0.01c-0.12,0-0.25,0-0.41,0c-0.15,0-0.31,0-0.48,0l-2.34,0.01
			c-0.34,0-0.62,0-0.83,0.01c-0.21,0.01-0.37,0.01-0.48,0.02c-0.11,0-0.18,0.01-0.2,0.02l-0.13,0.87L21,475.16V472.73z
			 M23.11,476.15l0.77-0.14c0.01-0.04,0.03-0.11,0.03-0.2c0.01-0.09,0.01-0.2,0.01-0.32v-0.9c0-0.08,0-0.16,0-0.25
			c0-0.09-0.01-0.19-0.02-0.31h0.59c-0.01,0.09-0.01,0.18-0.02,0.27c-0.01,0.1-0.01,0.19-0.01,0.28v0.9c0,0.14,0,0.26,0.01,0.34
			c0.01,0.08,0.02,0.14,0.03,0.18l0.73,0.14v0.46h-2.13V476.15z"/>
		<path class="st0" d="M20.91,480.09c0-0.47,0.1-0.87,0.3-1.22c0.2-0.35,0.48-0.62,0.84-0.81c0.36-0.19,0.77-0.29,1.24-0.29
			c0.49,0,0.91,0.11,1.27,0.32c0.36,0.21,0.64,0.5,0.84,0.86c0.2,0.36,0.3,0.76,0.3,1.19c0,0.44-0.1,0.83-0.29,1.16
			c-0.2,0.33-0.47,0.59-0.83,0.77c-0.35,0.19-0.77,0.28-1.24,0.28c-0.45,0-0.86-0.1-1.23-0.3c-0.37-0.2-0.66-0.47-0.88-0.81
			C21.02,480.9,20.91,480.52,20.91,480.09z M21.42,480.2c0,0.24,0.07,0.46,0.22,0.63c0.15,0.18,0.35,0.32,0.61,0.42
			c0.26,0.1,0.56,0.15,0.9,0.15c0.62,0,1.12-0.13,1.5-0.38c0.38-0.25,0.58-0.59,0.58-1c0-0.39-0.16-0.7-0.48-0.93
			c-0.32-0.23-0.75-0.35-1.28-0.35c-0.4,0-0.76,0.06-1.06,0.19c-0.31,0.12-0.55,0.3-0.72,0.52S21.42,479.92,21.42,480.2z"/>
		<path class="st0" d="M21,483.12l0.39-0.02l0.16,0.67c0.05,0.01,0.12,0.01,0.2,0.02c0.09,0,0.2,0.01,0.35,0.02s0.35,0.01,0.59,0.01
			l0.83,0.01c0.24,0,0.47-0.01,0.71-0.03c0.24-0.02,0.42-0.04,0.55-0.06l0.15-0.69h0.35l0.4,1.44l-0.17,0.18l-0.57-0.05l-0.01,0.03
			c0.27,0.25,0.47,0.5,0.59,0.74s0.18,0.51,0.18,0.79c0,0.26-0.07,0.51-0.2,0.75c-0.13,0.23-0.34,0.42-0.61,0.57
			c-0.28,0.15-0.62,0.22-1.04,0.22h-1.19c-0.26,0-0.49,0-0.7,0.02c-0.21,0.01-0.35,0.03-0.42,0.05l-0.16,0.67L21,488.42v-2.16
			l0.39-0.02l0.16,0.62c0.06,0.01,0.13,0.01,0.21,0.02s0.2,0.01,0.33,0.02c0.14,0,0.3,0,0.49,0h1.16c0.32,0,0.58-0.06,0.77-0.17
			c0.19-0.11,0.33-0.25,0.41-0.41c0.08-0.17,0.12-0.33,0.12-0.5c0-0.24-0.06-0.46-0.17-0.66s-0.28-0.38-0.49-0.53h-1.61
			c-0.34,0-0.61,0.01-0.81,0.02c-0.2,0.01-0.34,0.02-0.42,0.04l-0.16,0.67L21,485.33V483.12z"/>
		<path class="st0" d="M21.66,492.41c-0.24-0.14-0.42-0.32-0.55-0.56c-0.13-0.24-0.2-0.48-0.2-0.74c0-0.43,0.13-0.79,0.4-1.07
			c0.26-0.28,0.66-0.42,1.19-0.42l2.57,0.03v-0.75h0.23l1.26,1.39v0.2l-1.24-0.02l-2.64-0.01c-0.37,0-0.65,0.08-0.83,0.24
			c-0.18,0.16-0.27,0.39-0.27,0.68c0,0.17,0.03,0.32,0.1,0.46c0.07,0.14,0.15,0.27,0.25,0.38L21.66,492.41z M25.07,490.07h0.54v2.01
			h-0.54V490.07z"/>
		<path class="st0" d="M20.91,494.35c0-0.26,0.03-0.53,0.09-0.79c0.06-0.26,0.14-0.49,0.24-0.68l1.15-0.05v0.53l-0.77,0.21
			c-0.17,0.24-0.26,0.52-0.26,0.86c0,0.24,0.06,0.43,0.18,0.58c0.12,0.15,0.28,0.23,0.48,0.23c0.19,0,0.36-0.07,0.49-0.2
			s0.29-0.4,0.45-0.79c0.22-0.51,0.44-0.87,0.64-1.07s0.47-0.31,0.78-0.31c0.26,0,0.49,0.08,0.68,0.23c0.2,0.15,0.35,0.37,0.46,0.64
			c0.11,0.27,0.17,0.59,0.17,0.95c0,0.2-0.02,0.4-0.05,0.61c-0.03,0.21-0.08,0.38-0.14,0.52l-1.12,0.12v-0.5l0.73-0.26
			c0.04-0.07,0.08-0.16,0.1-0.26c0.03-0.1,0.04-0.21,0.04-0.32c0-0.25-0.06-0.45-0.18-0.6c-0.12-0.15-0.27-0.23-0.46-0.23
			c-0.21,0-0.39,0.08-0.52,0.25c-0.13,0.17-0.29,0.46-0.49,0.87c-0.21,0.47-0.43,0.8-0.63,0.99s-0.46,0.28-0.75,0.28
			c-0.39,0-0.7-0.17-0.95-0.5C21.03,495.29,20.91,494.86,20.91,494.35z"/>
	</g>
</g>
</svg>
