<svg width="135" height="135" viewBox="0 0 135 135" fill="none" xmlns="http://www.w3.org/2000/svg">
<g clip-path="url(#clip0)" filter="url(#filter0_d)">
<path d="M88.5098 3.90003L91.4298 28.14L115.2 22.55L105.62 45.01L129 52.06L109.47 66.71L126.19 84.51L101.95 87.43L107.54 111.2L85.0798 101.62L78.0298 125L63.3798 105.47L45.5798 122.19L42.6598 97.95L18.8898 103.54L28.4698 81.08L5.08984 74.03L24.6198 59.38L7.89984 41.58L32.1398 38.66L26.5498 14.89L49.0098 24.47L56.0598 1.09003L70.7098 20.62L88.5098 3.90003Z" fill="url(#paint0_radial)" stroke="#E60000" stroke-miterlimit="10"/>
<path d="M42.58 46.44C41.23 46.44 40.05 46.21 39.06 45.76C38.07 45.31 37.31 44.65 36.78 43.81C36.25 42.97 36 41.96 36 40.8C36 39.77 36.19 38.87 36.56 38.09C36.93 37.31 37.45 36.67 38.1 36.16C38.75 35.65 39.51 35.26 40.37 35.01C41.23 34.76 42.14 34.63 43.11 34.63C43.75 34.63 44.37 34.7 44.98 34.84C45.59 34.98 46.08 35.14 46.45 35.34L46.59 38.52L45.18 38.6L44.4 36.41C44.15 36.31 43.91 36.23 43.68 36.19C43.45 36.15 43.2 36.12 42.94 36.12C42.34 36.12 41.81 36.27 41.35 36.58C40.89 36.89 40.53 37.34 40.27 37.96C40.01 38.58 39.88 39.33 39.88 40.25C39.88 41.19 40.03 42 40.33 42.7C40.63 43.4 41.03 43.94 41.53 44.32C42.03 44.7 42.59 44.9 43.2 44.9C43.56 44.9 43.9 44.85 44.21 44.76C44.52 44.67 44.78 44.53 45 44.35L45.64 42.51L47.2 42.67L46.63 45.38C46.23 45.68 45.65 45.93 44.91 46.14C44.17 46.35 43.39 46.44 42.58 46.44Z" fill="#E60000"/>
<path d="M47.8 46.27L47.74 45.22L49.01 44.91C49.02 44.71 49.04 44.41 49.06 44.01C49.08 43.61 49.1 43.19 49.11 42.76C49.12 42.33 49.13 41.99 49.13 41.74V39.24C49.13 38.81 49.13 38.4 49.12 38C49.11 37.6 49.11 37.22 49.1 36.85C49.09 36.48 49.08 36.13 49.07 35.8C49.06 35.47 49.04 35.16 49.01 34.87L47.56 34.67L47.52 33.67L51.84 32.6L52.48 32.99C52.44 33.52 52.41 34.04 52.4 34.54C52.39 35.04 52.38 35.61 52.38 36.25C52.38 36.89 52.37 37.68 52.36 38.63L52.34 41.31C52.34 42.31 52.35 43.12 52.36 43.74C52.37 44.36 52.39 44.75 52.42 44.9L53.69 45.21L53.63 46.26H47.8V46.27Z" fill="#E60000"/>
<path d="M54.0502 46.27L53.9902 45.22L55.2602 44.91C55.2702 44.84 55.2902 44.7 55.3002 44.48C55.3102 44.26 55.3302 44.01 55.3402 43.74C55.3502 43.47 55.3602 43.23 55.3602 43.02L55.3802 41.57C55.3802 41.21 55.3702 40.91 55.3502 40.67C55.3302 40.43 55.2902 40.12 55.2202 39.73L53.9302 39.46V38.44L57.9902 37.44L58.6702 37.79C58.6302 38.23 58.6002 38.68 58.5802 39.12C58.5602 39.56 58.5502 40.05 58.5502 40.58V43.08C58.5502 43.41 58.5602 43.76 58.5802 44.15C58.6002 44.54 58.6202 44.79 58.6302 44.89L59.9002 45.2L59.8402 46.25H54.0502V46.27ZM57.0002 36.27C56.3402 36.27 55.8302 36.08 55.4902 35.69C55.1502 35.3 54.9702 34.87 54.9702 34.39C54.9702 33.89 55.1402 33.46 55.4902 33.08C55.8402 32.7 56.3402 32.51 57.0002 32.51C57.6602 32.51 58.1602 32.7 58.4902 33.08C58.8202 33.46 58.9902 33.89 58.9902 34.39C58.9902 34.87 58.8202 35.31 58.4902 35.69C58.1602 36.07 57.6602 36.27 57.0002 36.27Z" fill="#E60000"/>
<path d="M65.3204 46.43C64.4504 46.43 63.6604 46.24 62.9704 45.86C62.2804 45.48 61.7204 44.97 61.3104 44.33C60.9004 43.69 60.6904 42.97 60.6904 42.17C60.6904 41.35 60.9104 40.58 61.3404 39.85C61.7704 39.12 62.3804 38.53 63.1604 38.08C63.9404 37.63 64.8304 37.41 65.8504 37.41C66.4204 37.41 66.9604 37.49 67.4604 37.65C67.9604 37.81 68.3704 38.04 68.6804 38.33C68.9904 38.62 69.1504 38.97 69.1504 39.37C69.1504 39.75 69.0304 40.03 68.7804 40.22C68.5304 40.41 68.2604 40.5 67.9604 40.5C67.6704 40.5 67.4204 40.45 67.2104 40.36C67.0004 40.27 66.7604 40.12 66.5004 39.91L64.8004 38.5L65.9904 38.73C65.6904 38.66 65.3904 38.72 65.1004 38.91C64.8104 39.1 64.5704 39.38 64.3804 39.78C64.1904 40.18 64.1004 40.68 64.1004 41.27C64.1004 42.22 64.3304 42.94 64.7904 43.42C65.2504 43.9 65.8204 44.14 66.5004 44.14C66.7904 44.14 67.1004 44.06 67.4504 43.92C67.8004 43.78 68.1504 43.49 68.5104 43.09L69.1704 43.71C68.8104 44.6 68.2604 45.27 67.5504 45.72C66.8304 46.2 66.0904 46.43 65.3204 46.43Z" fill="#E60000"/>
<path d="M69.71 46.27L69.65 45.25L70.76 44.9C70.79 44.65 70.81 44.32 70.82 43.91C70.83 43.5 70.85 43.08 70.86 42.64C70.87 42.2 70.88 41.83 70.88 41.52V39.23C70.88 38.77 70.88 38.34 70.87 37.94C70.86 37.54 70.86 37.15 70.85 36.78C70.84 36.41 70.83 36.06 70.82 35.74C70.81 35.42 70.79 35.12 70.78 34.85L69.33 34.65L69.29 33.65L73.57 32.58L74.21 32.97C74.18 33.3 74.16 33.62 74.14 33.94C74.12 34.26 74.11 34.62 74.1 35.02C74.09 35.42 74.09 35.92 74.08 36.51C74.07 37.1 74.07 37.84 74.07 38.73L74.05 42.89C74.05 43.1 74.05 43.34 74.05 43.61C74.05 43.88 74.05 44.14 74.06 44.37C74.07 44.6 74.08 44.77 74.09 44.88L75.3 45.23L75.24 46.25H69.71V46.27ZM81.22 46.27H77.24C77.08 46.04 76.92 45.8 76.76 45.57C76.6 45.34 76.42 45.1 76.22 44.87L74.27 42.55H73.84V41.65L74.33 41.57L77.24 38.82L75.95 38.61L76 37.56H80.63L80.69 38.6L79.4 38.83L76.35 41.23L76.6 40.23L79.65 43.96C79.95 44.32 80.17 44.6 80.32 44.78C80.47 44.96 80.58 45.08 80.66 45.13L81.28 45.27L81.22 46.27Z" fill="#E60000"/>
<path d="M92.6602 44.35C92.4902 45 92.1202 45.52 91.5602 45.9C91.0002 46.28 90.3402 46.48 89.6002 46.48C88.6202 46.48 87.8302 46.2 87.2102 45.65C86.5902 45.1 86.2802 44.27 86.2802 43.16L86.3402 38.98H84.9702V38.28L88.9002 35.35H89.5802L89.5402 38.44L89.5002 42.97C89.5002 43.43 89.6202 43.74 89.8702 43.93C90.1202 44.12 90.4502 44.2 90.8702 44.2C91.0702 44.2 91.2702 44.16 91.4902 44.08C91.7102 44 91.9102 43.89 92.0802 43.75L92.6602 44.35ZM88.6002 38.98V37.57H92.1502V38.98H88.6002Z" fill="#E60000"/>
<path d="M97.7804 46.43C96.8404 46.43 96.0104 46.24 95.2804 45.87C94.5504 45.5 93.9804 44.98 93.5604 44.32C93.1404 43.66 92.9404 42.9 92.9404 42.05C92.9404 41.03 93.1804 40.18 93.6504 39.49C94.1204 38.8 94.7404 38.28 95.5004 37.93C96.2604 37.58 97.0504 37.4 97.8804 37.4C98.7804 37.4 99.5804 37.59 100.27 37.97C100.96 38.35 101.51 38.87 101.9 39.52C102.29 40.17 102.49 40.94 102.49 41.8C102.49 42.67 102.28 43.46 101.86 44.15C101.44 44.84 100.87 45.4 100.16 45.81C99.4504 46.22 98.6504 46.43 97.7804 46.43ZM97.9904 44.96C98.2504 44.96 98.4604 44.87 98.6204 44.7C98.7804 44.53 98.9004 44.26 98.9804 43.9C99.0604 43.54 99.1004 43.1 99.1004 42.58C99.1004 41.45 98.9504 40.53 98.6604 39.83C98.3704 39.13 97.9804 38.78 97.5004 38.78C97.1404 38.78 96.8504 39 96.6504 39.45C96.4504 39.9 96.3504 40.52 96.3504 41.32C96.3504 42 96.4204 42.61 96.5604 43.17C96.7004 43.73 96.9004 44.16 97.1504 44.49C97.4004 44.82 97.6804 44.96 97.9904 44.96Z" fill="#E60000"/>
<path d="M35.7902 56.8H41.7502L41.8102 57.91L40.5402 58.26C40.5302 58.44 40.5102 58.7 40.4902 59.04C40.4702 59.38 40.4502 59.75 40.4402 60.15C40.4302 60.55 40.4202 60.95 40.4202 61.34V62.75C40.4202 63.48 40.5102 64.1 40.6802 64.63C40.8502 65.16 41.1402 65.55 41.5302 65.83C41.9202 66.11 42.4202 66.25 43.0302 66.25C43.6502 66.25 44.1602 66.12 44.5302 65.85C44.9002 65.58 45.1802 65.19 45.3602 64.68C45.5402 64.17 45.6202 63.54 45.6202 62.81V61.7C45.6202 61.24 45.6102 60.76 45.6002 60.24C45.5902 59.72 45.5702 59.28 45.5502 58.89C45.5302 58.5 45.5102 58.29 45.4802 58.26L44.1102 57.91L44.1702 56.8H48.8602L48.9202 57.91L47.6502 58.26C47.6202 58.3 47.6002 58.51 47.5702 58.89C47.5402 59.27 47.5202 59.72 47.5102 60.24C47.5002 60.76 47.4902 61.24 47.4902 61.7V63.28C47.4902 64.27 47.3002 65.16 46.9102 65.94C46.5202 66.72 45.9702 67.33 45.2302 67.78C44.4902 68.23 43.6002 68.44 42.5402 68.44C40.7802 68.44 39.4402 67.98 38.5102 67.06C37.5802 66.14 37.1102 64.84 37.1102 63.14V61.34C37.1102 60.9 37.1002 60.45 37.0902 59.99C37.0802 59.53 37.0602 59.14 37.0402 58.82C37.0202 58.5 37.0002 58.31 36.9702 58.25L35.7002 57.9L35.7902 56.8Z" fill="#E60000"/>
<path d="M49.6503 72.57L49.5903 71.55L50.8003 71.2C50.8003 71.08 50.8103 70.86 50.8203 70.53C50.8303 70.2 50.8503 69.81 50.8603 69.38C50.8703 68.95 50.8903 68.5 50.9003 68.06C50.9103 67.62 50.9203 67.24 50.9203 66.93L50.9603 63.63C50.9603 63.25 50.9503 62.94 50.9303 62.69C50.9103 62.44 50.8703 62.12 50.8003 61.73L49.5503 61.46V60.44L53.4803 59.44L54.1403 59.79L53.9803 61.1L54.0403 61.14C54.3103 60.62 54.6903 60.2 55.1803 59.88C55.6703 59.56 56.1703 59.4 56.6903 59.4C57.2603 59.4 57.8203 59.55 58.3603 59.85C58.9003 60.15 59.3503 60.6 59.7003 61.21C60.0503 61.82 60.2303 62.57 60.2303 63.49C60.2303 64.32 60.0303 65.11 59.6303 65.86C59.2303 66.61 58.6603 67.22 57.9003 67.7C57.1403 68.18 56.2303 68.41 55.1703 68.41C55.0103 68.41 54.8503 68.4 54.6703 68.37C54.4903 68.34 54.3003 68.3 54.0703 68.25V69.32C54.0703 69.71 54.0803 70.09 54.1003 70.47C54.1203 70.85 54.1403 71.09 54.1703 71.19L55.7703 71.54L55.7103 72.56H49.6503V72.57ZM55.1803 66.75C55.4903 66.75 55.7803 66.68 56.0303 66.54C56.2803 66.4 56.4903 66.14 56.6503 65.77C56.8103 65.4 56.8803 64.89 56.8603 64.24C56.8603 63.52 56.7703 62.98 56.6003 62.61C56.4303 62.24 56.2103 61.99 55.9603 61.85C55.7103 61.71 55.4603 61.64 55.2103 61.64C55.0103 61.64 54.8203 61.69 54.6103 61.8C54.4003 61.91 54.2403 62.03 54.0903 62.19V66.49C54.2603 66.57 54.4403 66.63 54.6303 66.69C54.8203 66.75 55.0003 66.75 55.1803 66.75Z" fill="#E60000"/>
<path d="M68.27 68.54L67.59 68.23L67.61 66.92L67.55 66.88C67.26 67.48 66.92 67.9 66.52 68.13C66.12 68.36 65.72 68.48 65.3 68.48C64.65 68.48 64.03 68.3 63.44 67.95C62.85 67.6 62.38 67.1 62.01 66.46C61.64 65.82 61.46 65.06 61.46 64.2C61.46 63.46 61.6 62.79 61.89 62.21C62.18 61.63 62.56 61.13 63.03 60.72C63.5 60.31 64.04 59.99 64.63 59.77C65.22 59.55 65.83 59.44 66.46 59.44C66.64 59.44 66.82 59.45 67.01 59.48C67.2 59.51 67.34 59.54 67.46 59.58C67.46 59.31 67.46 59.04 67.45 58.77C67.44 58.5 67.44 58.25 67.43 58.02C67.42 57.79 67.42 57.56 67.41 57.36C67.4 57.16 67.39 56.97 67.38 56.81L65.97 56.65L65.93 55.67L70.17 54.6L70.81 54.99C70.77 55.8 70.73 56.52 70.68 57.16C70.63 57.8 70.61 58.46 70.61 59.15L70.59 63.72C70.59 64.32 70.6 64.79 70.63 65.13C70.66 65.47 70.68 65.85 70.71 66.26L72.04 66.51V67.49L68.27 68.54ZM66.53 66.22C66.63 66.22 66.8 66.17 67.03 66.06C67.26 65.95 67.42 65.79 67.51 65.57V61.08C67.38 60.98 67.24 60.9 67.08 60.86C66.92 60.82 66.75 60.79 66.57 60.79C66.07 60.79 65.66 61.02 65.32 61.48C64.98 61.94 64.81 62.58 64.81 63.38C64.81 64.3 64.98 65.01 65.33 65.49C65.68 65.97 66.07 66.22 66.53 66.22Z" fill="#E60000"/>
<path d="M75.8103 68.43C75.1703 68.43 74.6303 68.29 74.1703 68.01C73.7103 67.73 73.3703 67.39 73.1303 66.99C72.8903 66.59 72.7803 66.23 72.7803 65.91C72.7803 65.4 72.9303 64.98 73.2203 64.65C73.5103 64.32 73.9603 64.07 74.5603 63.92L77.6803 63.08V62.59C77.6803 62.33 77.6003 62.08 77.4403 61.85C77.2803 61.62 77.0703 61.42 76.8103 61.26C76.5503 61.1 76.2803 61.03 76.0103 61.03C75.8703 61.03 75.7603 61.07 75.7003 61.16C75.6403 61.25 75.5903 61.38 75.5603 61.58L75.4203 63.03C74.6703 63.17 74.0503 63.15 73.5803 62.95C73.1103 62.75 72.8803 62.43 72.8803 61.97C72.8803 61.68 73.0303 61.39 73.3403 61.1C73.6503 60.81 74.0203 60.54 74.4603 60.3C74.9003 60.06 75.3403 59.86 75.7703 59.69C76.2003 59.52 76.5403 59.43 76.8103 59.41C78.0903 59.41 79.1003 59.68 79.8403 60.22C80.5803 60.76 80.9503 61.5 80.9303 62.44L80.8703 64.8C80.8703 65.24 80.8803 65.55 80.9103 65.74C80.9403 65.93 80.9803 66.08 81.0503 66.21L82.3603 66.44V67.42L80.8803 68.08C80.6303 68.2 80.3903 68.29 80.1603 68.34C79.9303 68.39 79.7003 68.43 79.4803 68.43C78.8903 68.43 78.4803 68.14 78.2303 67.57L77.8003 66.59L78.2903 66.71C77.9003 67.23 77.4903 67.65 77.0503 67.96C76.6103 68.27 76.1803 68.43 75.8103 68.43ZM77.1003 66.3C77.2003 66.3 77.3103 66.28 77.4203 66.25C77.5303 66.22 77.6303 66.17 77.7203 66.1V64.28L76.9403 64.32C76.6103 64.33 76.3803 64.42 76.2403 64.57C76.1003 64.72 76.0303 64.92 76.0303 65.16C76.0303 65.45 76.1403 65.71 76.3603 65.94C76.5803 66.17 76.8203 66.3 77.1003 66.3Z" fill="#E60000"/>
<path d="M89.9703 66.35C89.8003 67 89.4303 67.52 88.8703 67.9C88.3103 68.28 87.6503 68.48 86.9103 68.48C85.9303 68.48 85.1403 68.2 84.5203 67.65C83.9003 67.1 83.5903 66.27 83.5903 65.16L83.6503 60.98H82.2803V60.28L86.2103 57.35H86.8903L86.8503 60.44L86.8103 64.97C86.8103 65.43 86.9303 65.74 87.1803 65.93C87.4303 66.12 87.7603 66.2 88.1803 66.2C88.3803 66.2 88.5803 66.16 88.8003 66.08C89.0203 66 89.2203 65.89 89.3903 65.75L89.9703 66.35ZM85.9003 60.98V59.57H89.4503V60.98H85.9003Z" fill="#E60000"/>
<path d="M94.8102 68.43C93.9102 68.43 93.1203 68.23 92.4403 67.82C91.7603 67.41 91.2202 66.88 90.8402 66.21C90.4602 65.54 90.2603 64.81 90.2603 64.03C90.2603 63.13 90.4802 62.34 90.9202 61.65C91.3602 60.96 91.9403 60.41 92.6503 60.01C93.3603 59.61 94.1203 59.4 94.9303 59.4C96.1103 59.4 97.0503 59.75 97.7303 60.46C98.4103 61.17 98.7603 62.1 98.7603 63.24V63.79H93.1003V62.68H96.4403L96.0703 63.29V62.45C96.0703 61.92 95.9602 61.49 95.7402 61.16C95.5202 60.83 95.2003 60.67 94.7803 60.67C94.4903 60.67 94.2403 60.75 94.0303 60.9C93.8203 61.05 93.6503 61.3 93.5303 61.62C93.4103 61.94 93.3503 62.36 93.3503 62.87V63.38C93.3503 64.19 93.5803 64.86 94.0503 65.39C94.5203 65.92 95.1603 66.19 95.9603 66.19C96.4003 66.19 96.8103 66.11 97.1803 65.95C97.5503 65.79 97.9003 65.52 98.2203 65.16L98.8802 65.8C98.5202 66.65 97.9703 67.29 97.2503 67.74C96.5303 68.19 95.7202 68.43 94.8102 68.43Z" fill="#E60000"/>
<path d="M45.5103 86.17V84.02C45.5103 83.47 45.5103 82.93 45.5003 82.38C45.4903 81.83 45.4803 81.36 45.4603 80.97C45.4403 80.58 45.4103 80.35 45.3703 80.29L43.9803 79.92L44.0403 78.81H48.4903L48.5503 79.92L47.2803 80.29C47.2503 80.36 47.2303 80.58 47.2003 80.96C47.1703 81.34 47.1603 81.81 47.1503 82.36C47.1403 82.91 47.1403 83.46 47.1403 84.02V87.16C47.1403 87.88 47.1403 88.48 47.1303 88.97C47.1203 89.46 47.1203 89.93 47.1203 90.39H45.7303L37.4503 81.64H38.9003V84.69C38.9003 85.34 38.9003 85.96 38.9103 86.56C38.9203 87.16 38.9303 87.65 38.9603 88.05C38.9903 88.45 39.0203 88.7 39.0603 88.79L40.4503 89.16L40.3903 90.27H35.8403L35.7803 89.16L37.0503 88.79C37.0803 88.7 37.1003 88.44 37.1203 88.01C37.1403 87.58 37.1603 87.07 37.1703 86.47C37.1803 85.87 37.1903 85.28 37.1903 84.69V82.58C37.1903 82.42 37.1803 82.19 37.1603 81.87C37.1403 81.55 37.1203 81.24 37.1003 80.92C37.0803 80.6 37.0603 80.4 37.0503 80.3L35.7803 79.93L35.8403 78.82H39.2003L46.5803 86.18H45.5103V86.17Z" fill="#E60000"/>
<path d="M54.09 90.43C53.19 90.43 52.4 90.23 51.72 89.82C51.04 89.41 50.5 88.88 50.12 88.21C49.74 87.54 49.54 86.81 49.54 86.03C49.54 85.13 49.76 84.34 50.2 83.65C50.64 82.96 51.22 82.41 51.93 82.01C52.64 81.61 53.4 81.4 54.21 81.4C55.39 81.4 56.33 81.75 57.01 82.46C57.69 83.17 58.04 84.1 58.04 85.24V85.79H52.38V84.68H55.72L55.35 85.29V84.45C55.35 83.92 55.24 83.49 55.02 83.16C54.8 82.83 54.48 82.67 54.06 82.67C53.77 82.67 53.52 82.75 53.31 82.9C53.1 83.05 52.93 83.3 52.81 83.62C52.69 83.94 52.63 84.36 52.63 84.87V85.38C52.63 86.19 52.86 86.86 53.33 87.39C53.8 87.92 54.44 88.19 55.24 88.19C55.68 88.19 56.09 88.11 56.46 87.95C56.83 87.79 57.18 87.52 57.5 87.16L58.16 87.8C57.8 88.65 57.25 89.29 56.53 89.74C55.81 90.19 55 90.43 54.09 90.43Z" fill="#E60000"/>
<path d="M62.9401 90.35L59.2501 82.93L58.3301 82.58L58.4101 81.56H63.8001L63.8601 82.58L63.0001 82.93L64.8801 86.97L64.3501 86.95L66.3401 82.99L67.1601 84.36L63.9601 90.36H62.9401V90.35ZM69.4401 90.35L65.8301 82.93L64.9501 82.58L65.0101 81.56H70.5001L70.5601 82.58L69.5401 82.93L71.3401 86.97L70.8701 86.95L72.7301 82.93L71.7101 82.58L71.7701 81.56H75.2901L75.3501 82.58L74.4301 82.93L70.4701 90.35H69.4401Z" fill="#E60000"/>
<path d="M78.8701 90.43C78.2801 90.43 77.7101 90.36 77.1401 90.23C76.5701 90.1 76.1001 89.93 75.7001 89.72L75.6001 87.3H77.0601L77.4701 88.71C78.0001 88.98 78.5201 89.12 79.0101 89.12C79.3701 89.12 79.6401 89.06 79.8101 88.93C79.9801 88.8 80.0601 88.64 80.0601 88.43C80.0601 88.17 79.9501 87.95 79.7301 87.79C79.5101 87.63 79.0501 87.41 78.3601 87.17C77.4001 86.83 76.7201 86.44 76.3401 86C75.9601 85.56 75.7601 85.01 75.7601 84.36C75.7601 83.77 75.9401 83.26 76.3001 82.82C76.6601 82.38 77.1601 82.03 77.8001 81.78C78.4401 81.53 79.1801 81.41 80.0201 81.41C80.4801 81.41 80.9401 81.46 81.4001 81.55C81.8601 81.64 82.2401 81.75 82.5201 81.88L82.7701 84.3H81.3101L80.9001 82.89C80.7701 82.8 80.6101 82.73 80.4101 82.69C80.2101 82.65 80.0501 82.63 79.9001 82.63C79.5601 82.63 79.2801 82.7 79.0701 82.84C78.8601 82.98 78.7501 83.17 78.7501 83.44C78.7501 83.71 78.8901 83.93 79.1701 84.11C79.4501 84.29 79.9701 84.54 80.7201 84.82C81.5801 85.15 82.1901 85.52 82.5701 85.93C82.9501 86.34 83.1301 86.86 83.1301 87.47C83.1301 88.37 82.7401 89.08 81.9601 89.62C81.1801 90.16 80.1601 90.43 78.8701 90.43Z" fill="#E60000"/>
</g>
<defs>
<filter id="filter0_d" x="0" y="0" width="134.09" height="134.09" filterUnits="userSpaceOnUse" color-interpolation-filters="sRGB">
<feFlood flood-opacity="0" result="BackgroundImageFix"/>
<feColorMatrix in="SourceAlpha" type="matrix" values="0 0 0 0 0 0 0 0 0 0 0 0 0 0 0 0 0 0 127 0"/>
<feOffset dy="4"/>
<feGaussianBlur stdDeviation="2"/>
<feColorMatrix type="matrix" values="0 0 0 0 0 0 0 0 0 0 0 0 0 0 0 0 0 0 0.25 0"/>
<feBlend mode="normal" in2="BackgroundImageFix" result="effect1_dropShadow"/>
<feBlend mode="normal" in="SourceGraphic" in2="effect1_dropShadow" result="shape"/>
</filter>
<radialGradient id="paint0_radial" cx="0" cy="0" r="1" gradientUnits="userSpaceOnUse" gradientTransform="translate(67.0445 63.0447) scale(61.9538)">
<stop stop-color="#FFBFF1"/>
<stop offset="0.00010989" stop-color="#FFBFF1"/>
<stop offset="1" stop-color="#FFBFF1"/>
</radialGradient>
<clipPath id="clip0">
<rect width="126.09" height="126.09" fill="white" transform="translate(4)"/>
</clipPath>
</defs>
</svg>
