<svg width="136" height="105" viewBox="0 0 136 105" fill="none" xmlns="http://www.w3.org/2000/svg">
<mask id="mask0" mask-type="alpha" maskUnits="userSpaceOnUse" x="0" y="0" width="136" height="105">
<path fill-rule="evenodd" clip-rule="evenodd" d="M0.568848 5.57117L131.785 0.160189L135.859 98.9461L4.6425 104.357L0.568848 5.57117Z" fill="white"/>
</mask>
<g mask="url(#mask0)">
<path fill-rule="evenodd" clip-rule="evenodd" d="M133.822 49.5532C134.947 76.832 106.484 100.158 70.2503 101.652C34.0161 103.146 3.73009 82.243 2.60519 54.9642C1.48029 27.6854 29.9424 4.35987 66.1766 2.86567C102.411 1.37147 132.697 22.2744 133.822 49.5532Z" fill="#2E3091"/>
</g>
<path fill-rule="evenodd" clip-rule="evenodd" d="M130.061 49.7081C131.104 74.9966 104.259 96.639 70.1019 98.0476C35.9439 99.4561 7.40809 80.0974 6.36526 54.8089C5.32244 29.5204 32.1675 7.87796 66.3255 6.46938C100.482 5.06085 129.018 24.4195 130.061 49.7081Z" fill="#2E3091"/>
<path fill-rule="evenodd" clip-rule="evenodd" d="M130.061 49.7081C131.104 74.9966 104.259 96.639 70.1019 98.0476C35.9439 99.4561 7.40809 80.0974 6.36526 54.8089C5.32244 29.5204 32.1675 7.87796 66.3255 6.46938C100.482 5.06085 129.018 24.4195 130.061 49.7081Z" stroke="#FEFEFE"/>
<path fill-rule="evenodd" clip-rule="evenodd" d="M62.6068 49.972L62.7923 48.7913L60.3574 48.8917L58.7177 48.9593L56.8848 49.4343L56.7527 50.2134L62.6068 49.972ZM62.0358 42.9465C61.5019 43.2738 61.0073 43.7085 60.5533 44.2507C60.0983 44.7939 59.7131 45.4043 59.3967 46.0809C59.0804 46.7595 58.8671 47.4599 58.7568 48.1841L56.9723 59.5172C56.8508 60.382 56.7063 61.0525 56.5388 61.5288C56.3703 62.0051 56.1661 62.3448 55.9244 62.551C55.6826 62.7561 55.3899 62.8663 55.0462 62.8804C54.7964 62.8907 54.5287 62.8547 54.2441 62.7724C53.9595 62.6911 53.6959 62.5608 53.4543 62.3826C53.2743 62.5782 53.1386 62.783 53.0454 62.998C52.9531 63.213 52.911 63.4299 52.9201 63.6487C52.9323 63.9444 53.0467 64.1709 53.2643 64.3261C53.4818 64.4813 53.763 64.5517 54.1057 64.5376C54.6372 64.5157 55.1618 64.3489 55.6805 64.0393C56.1991 63.7277 56.6853 63.2853 57.139 62.7121C57.5918 62.1379 57.9856 61.4451 58.3195 60.6347C58.6533 59.8232 58.9017 58.9062 59.0627 57.8827L60.3212 49.7139L60.3803 48.8908L60.7274 46.4834C60.8499 45.6657 61.1025 45.0688 61.4863 44.6937C61.8692 44.3176 62.2794 44.1215 62.7171 44.1034C62.9509 44.0938 63.1984 44.1266 63.4598 44.2019C63.7211 44.2772 63.9645 44.4033 64.191 44.5821C64.3855 44.3709 64.529 44.1618 64.6225 43.9538C64.7151 43.7468 64.7577 43.5419 64.7493 43.3391C64.7364 43.0273 64.6287 42.7926 64.4271 42.6367C64.2255 42.4809 63.9523 42.4101 63.6086 42.4243C63.0941 42.4455 62.5698 42.6192 62.0358 42.9465ZM68.2359 58.208C68.8993 57.7903 69.4702 57.2424 69.9507 56.566C70.4312 55.8886 70.7984 55.1348 71.0544 54.3036C71.3093 53.4714 71.4189 52.6341 71.3842 51.7919C71.3533 51.0425 71.183 50.408 70.8724 49.8893C70.5608 49.3707 70.1542 48.9772 69.6507 48.7077C69.1472 48.4392 68.5987 48.3177 68.0052 48.3422C67.2399 48.3737 66.5297 48.6022 65.8756 49.0275C65.2206 49.4538 64.6529 50.0047 64.1723 50.6811C63.6918 51.3584 63.3284 52.108 63.0811 52.9319C62.8328 53.7549 62.7271 54.5879 62.7618 55.4312C62.7921 56.1656 62.9582 56.7953 63.2622 57.3222C63.5651 57.8492 63.9689 58.2469 64.4724 58.5154C64.9759 58.7838 65.5164 58.9067 66.0939 58.8829C66.8592 58.8513 67.5726 58.6267 68.2359 58.208ZM65.3051 57.1089C64.9501 56.6541 64.7542 55.9826 64.7175 55.0923C64.6886 54.3899 64.7345 53.7075 64.8563 53.0459C64.9772 52.3844 65.1635 51.7822 65.4154 51.2403C65.6663 50.6985 65.9736 50.2635 66.3354 49.9353C66.6973 49.6081 67.1114 49.4339 67.58 49.4146C68.0796 49.394 68.5076 49.6275 68.8639 50.1123C69.2202 50.599 69.4161 51.2705 69.4515 52.1298C69.4798 52.8162 69.4335 53.4907 69.3117 54.1523C69.1909 54.8138 69.0045 55.416 68.7536 55.9578C68.5018 56.5006 68.1913 56.9318 67.8211 57.2513C67.451 57.5718 67.0326 57.7412 66.564 57.7605C66.0795 57.7805 65.6602 57.5636 65.3051 57.1089ZM79.9333 49.7739C80.1394 49.8435 80.324 49.953 80.4863 50.1024C80.6658 49.8918 80.789 49.6756 80.8589 49.4535C80.9279 49.2325 80.9581 49.02 80.9498 48.8172C80.9369 48.5045 80.8328 48.2626 80.6386 48.0904C80.4433 47.9193 80.1819 47.84 79.8541 47.8535C79.4015 47.8722 78.994 48.0371 78.6315 48.3493C78.2691 48.6615 77.9136 49.1416 77.565 49.7895C77.2163 50.4364 76.8488 51.2813 76.4613 52.3211C76.0739 53.362 75.6376 54.627 75.1516 56.1163L75.2685 56.1115C75.7229 54.6075 76.0517 53.3819 76.2548 52.4347C76.458 51.4886 76.5873 50.7406 76.6437 50.1908C76.6991 49.6411 76.7217 49.2418 76.7114 48.992C76.6972 48.6483 76.6198 48.3973 76.4811 48.2388C76.3415 48.0805 76.1463 48.0064 75.8965 48.0167C75.5997 48.029 75.2691 48.1407 74.9024 48.351C74.5358 48.5613 74.1565 48.8541 73.7657 49.2306C73.3738 49.606 72.9939 50.0521 72.6238 50.5678L73.1933 51.2949C73.488 50.8454 73.7886 50.4647 74.0971 50.1547C74.4046 49.8458 74.7183 49.5896 75.0383 49.3893C75.0525 49.733 75.0221 50.2337 74.9483 50.8943C74.8734 51.5539 74.7561 52.3014 74.5953 53.1367C74.4337 53.9731 74.2504 54.8444 74.0456 55.7516C73.8409 56.6598 73.623 57.5405 73.3929 58.3937L75.2663 58.3165C75.3693 57.7808 75.5458 57.0589 75.7985 56.1487C76.0502 55.2395 76.368 54.3307 76.753 53.423C77.0234 52.7714 77.2955 52.1616 77.5693 51.5949C77.8423 51.0291 78.1327 50.5718 78.4395 50.2218C78.7454 49.8739 79.0622 49.6917 79.3899 49.6782C79.5458 49.6718 79.7273 49.7043 79.9333 49.7739Z" fill="#FEFEFE"/>
<path fill-rule="evenodd" clip-rule="evenodd" d="M25.836 59.5881L26.9188 60.9216C26.9 60.9754 26.8174 61.1079 26.6709 61.3171C26.5244 61.5264 26.2909 61.8573 25.9703 62.3119C25.6488 62.7665 25.1862 63.3941 24.5817 64.1937L21.8445 67.8135C20.6344 69.4137 20.1478 70.9871 20.3818 72.5358C20.6168 74.0844 21.5262 75.4581 23.1109 76.6569C23.9983 77.3269 24.9412 77.7424 25.9397 77.9034C26.9372 78.0644 27.9375 77.906 28.9377 77.4284C29.9388 76.9508 30.9007 76.1014 31.8251 74.8803L34.0346 71.9578C34.7047 71.0714 35.2364 70.3759 35.629 69.8723C36.0206 69.3688 36.3091 69.0096 36.4944 68.7957C36.6787 68.581 36.7885 68.4523 36.8207 68.408L38.399 69.0875L38.9603 68.2086L34.7289 65.0093L34.0364 65.7885L35.3166 67.271C35.279 67.3796 35.1441 67.6034 34.9119 67.9412C34.6786 68.2791 34.3799 68.7048 34.0147 69.2183C33.6505 69.7307 33.2202 70.3139 32.7257 70.9679L30.5988 73.7819C29.8728 74.7416 29.157 75.4167 28.4495 75.8082C27.743 76.1986 27.0535 76.3461 26.383 76.2507C25.7125 76.1552 25.058 75.866 24.4175 75.3819C23.7636 74.8875 23.2807 74.3169 22.9698 73.6701C22.6588 73.0234 22.5735 72.3133 22.7127 71.5389C22.8529 70.7645 23.2612 69.9139 23.9396 68.9872L26.4794 65.6277C27.084 64.8291 27.555 64.2132 27.8926 63.7829C28.2291 63.3517 28.4815 63.04 28.6507 62.8479C28.8189 62.6548 28.9248 62.5293 28.9694 62.4714L30.5685 63.1671L31.1297 62.2883L26.5067 58.7918L25.836 59.5881ZM41.2772 86.5558L41.7396 85.5609L39.7403 84.4293C39.7718 84.3439 39.8173 84.1859 39.8748 83.9543C39.9324 83.7228 40.0522 83.3535 40.2325 82.8467C40.4138 82.3408 40.6677 81.6527 40.9951 80.7825L42.9243 75.5776C43.1489 74.9798 43.3649 74.4184 43.5724 73.8924C43.78 73.3675 43.9568 72.9228 44.1039 72.5584C44.2501 72.1951 44.3425 71.9621 44.3813 71.8594L45.7375 72.3699C46.6932 72.7299 47.3788 73.3141 47.7955 74.1226C48.2112 74.9322 48.1918 75.9419 47.7353 77.1537C47.3376 78.212 46.7629 78.8862 46.0102 79.1775C45.2576 79.4687 44.378 79.425 43.3716 79.0471C43.0646 78.9316 42.7716 78.7916 42.4916 78.628C42.2126 78.4644 41.9077 78.2527 41.5776 77.9921L41.0571 79.3737C41.328 79.5347 41.6179 79.6969 41.9259 79.8614C42.234 80.0258 42.5837 80.1815 42.9771 80.3294C43.9836 80.7083 44.9687 80.8598 45.9314 80.7841C46.8951 80.7083 47.7516 80.4128 48.5009 79.8955C49.2503 79.3792 49.8044 78.6427 50.1644 77.6871C50.6902 76.2882 50.6237 75.0409 49.9651 73.9461C49.3053 72.8504 48.1317 71.985 46.4421 71.3501L40.991 69.2989L40.5485 70.2429L41.9911 71.2233C41.9948 71.2642 41.9566 71.4059 41.8755 71.6475C41.7934 71.89 41.6686 72.2615 41.5001 72.7629C41.3306 73.2643 41.089 73.9328 40.7741 74.7685L38.7941 79.9545C38.4667 80.8247 38.2028 81.5132 38.0016 82.0219C37.8004 82.5306 37.6525 82.899 37.5578 83.1261C37.462 83.3532 37.3848 83.4945 37.325 83.5501L35.7054 83.3496L35.4164 84.3514L41.2772 86.5558ZM51.8136 74.6726L53.4282 75.2385C53.4519 75.3506 53.4366 75.7806 53.3802 76.5256C53.324 77.2725 53.2356 78.1879 53.1133 79.2749L52.5413 84.3838C52.4315 85.3622 52.3202 86.2305 52.2083 86.9877C52.0955 87.746 52.0122 88.2039 51.9578 88.3632L50.2573 88.5575L50.1961 89.5969L57.0988 90.3701C58.8192 90.5624 60.3794 90.389 61.7793 89.8488C63.1782 89.3087 64.3184 88.464 65.1998 87.3147C66.0802 86.1665 66.6102 84.7955 66.7887 83.2008C67.0644 80.7373 66.4773 78.7318 65.0273 77.1843C63.5773 75.6367 61.421 74.7027 58.5593 74.3824L51.9834 73.6457L51.8136 74.6726ZM57.0802 75.5513C57.4451 75.5643 57.7914 75.589 58.1172 75.6256C59.2041 75.748 60.1419 76.0136 60.9304 76.4224C61.7189 76.8323 62.3641 77.3812 62.8649 78.0701C63.3657 78.7591 63.7095 79.5726 63.8984 80.5106C64.0862 81.4497 64.1148 82.5074 63.9832 83.6848C63.7659 85.6234 63.101 87.048 61.9907 87.9605C60.8793 88.8721 59.3634 89.2208 57.4439 89.0057C57.0095 88.9566 56.5631 88.8839 56.1067 88.7867C55.6493 88.6894 55.1351 88.5725 54.5639 88.4349C54.5734 88.1793 54.5872 87.8595 54.6025 87.4765C54.6177 87.0926 54.6479 86.661 54.6921 86.1797C54.7373 85.6985 54.7903 85.1858 54.8509 84.6429L55.4229 79.534C55.5224 78.6461 55.6048 77.9491 55.671 77.443C55.7372 76.9368 55.7901 76.5443 55.8306 76.2644C55.8711 75.9845 55.9016 75.754 55.9221 75.573C56.3283 75.5453 56.7143 75.5374 57.0802 75.5513ZM71.4162 90.8376L71.3753 89.7974L69.6795 89.5701L70.7478 85.3795L70.9722 84.5356L73.0865 76.5136L72.4929 76.9254L76.1449 84.057L76.5229 84.8741L78.5014 88.7549L76.8751 89.2894L77.0256 90.3191L82.5254 89.811L82.5114 88.7687L81.1147 88.514L73.7887 74.0046L72.2977 75.1039L67.9915 89.7258L66.6922 90.2297L66.8417 91.2595L71.4162 90.8376ZM72.1042 85.6529C72.6931 85.5895 73.2602 85.5321 73.8056 85.4816C74.3679 85.4294 74.9534 85.3802 75.563 85.3331C76.1715 85.286 76.7853 85.2436 77.4042 85.2041L77.2707 83.7614C76.9464 83.8098 76.4805 83.871 75.874 83.9451C75.2666 84.0192 74.5371 84.0963 73.6846 84.1745C72.8132 84.2555 72.077 84.3138 71.4761 84.3516C70.8761 84.3884 70.4017 84.414 70.056 84.4272L70.1886 85.871C70.8768 85.7896 71.5153 85.7162 72.1042 85.6529ZM89.4707 70.4304C89.258 70.5142 89.0524 70.6008 88.852 70.6911C88.6515 70.7805 88.4437 70.8631 88.2286 70.938C88.0135 71.0139 87.8123 71.0853 87.6229 71.1511L80.2444 73.7424C80.0382 73.8149 79.831 73.8875 79.6248 73.9601C79.4186 74.0326 79.2052 74.0985 78.9843 74.1556C78.7626 74.2148 78.543 74.2769 78.3255 74.3439C78.1071 74.411 77.9003 74.4696 77.7052 74.5186L78.6054 78.8973L79.821 78.644L79.8455 75.3311C79.989 75.2432 80.1399 75.1659 80.3003 75.0992C80.4608 75.0335 80.6095 74.9764 80.7476 74.9276L81.754 74.5749C81.9256 74.5137 82.1575 74.4331 82.4505 74.33C82.7425 74.2268 83.0033 74.146 83.233 74.0835C83.2985 74.2159 83.4207 74.5352 83.5988 75.0423C83.7768 75.5493 83.9843 76.1383 84.2191 76.8092C84.4549 77.48 84.6817 78.1253 84.8994 78.7448L86.122 82.2274C86.5029 83.3106 86.8242 84.2562 87.0885 85.061C87.352 85.8668 87.529 86.399 87.6198 86.6574L85.5611 87.7282L85.9753 88.742L92.5536 86.431L92.2687 85.3718L89.9678 85.833C89.8771 85.5745 89.6822 85.0491 89.3843 84.2547C89.0863 83.4613 88.7474 82.5225 88.3664 81.4392L87.1439 77.9567C86.9262 77.3371 86.6994 76.6919 86.4635 76.021C86.2287 75.3502 86.0252 74.76 85.856 74.2496C85.6869 73.7391 85.5774 73.4153 85.5297 73.2772C85.7637 73.1765 86.0277 73.0735 86.3198 72.9714C86.6128 72.8682 86.8446 72.7866 87.0163 72.7265L87.9456 72.3999C88.0828 72.3522 88.2438 72.3005 88.4276 72.2449C88.6106 72.1913 88.7773 72.1564 88.9268 72.1423L91.035 74.6766L92.1242 74.1492L90.0895 70.1697C89.889 70.259 89.6824 70.3456 89.4707 70.4304ZM109.763 72.5721L108.605 73.0562L108.879 76.0045C108.814 76.0712 108.726 76.1519 108.615 76.2486C108.505 76.3452 108.346 76.4688 108.14 76.6195C107.933 76.7701 107.663 76.9564 107.331 77.1812L105.132 78.6641C104.845 78.8581 104.583 79.0241 104.346 79.1609C104.11 79.2988 103.872 79.4367 103.636 79.5745C103.564 79.4694 103.445 79.3022 103.28 79.0718C103.114 78.8434 102.924 78.576 102.707 78.2717C102.49 77.9674 102.281 77.6637 102.076 77.3609L97.9483 71.2408C97.7032 70.8776 97.4619 70.5122 97.2256 70.1446C96.9882 69.7771 96.7786 69.4505 96.5977 69.1657C96.4168 68.8819 96.3066 68.7083 96.2651 68.6479C96.4562 68.4759 96.6595 68.3114 96.8733 68.1555C97.0871 68.0005 97.3381 67.826 97.6254 67.632L100.186 65.904C100.353 65.7921 100.514 65.6894 100.67 65.5949C100.826 65.5003 100.975 65.4271 101.116 65.3763L103.149 66.7757L104.062 65.9294L101.59 63.242C101.313 63.4515 101.05 63.6565 100.802 63.857C100.552 64.0584 100.306 64.2407 100.064 64.4038C99.8229 64.5669 99.596 64.7194 99.3847 64.8622L92.1078 69.7702L92.6206 70.6778L94.24 70.0466C94.2961 70.0973 94.4237 70.2532 94.6226 70.5152C94.8206 70.7773 95.0839 71.1437 95.4126 71.6146C95.7413 72.0854 96.1353 72.6607 96.5937 73.3404L99.4687 77.6025C99.9175 78.2676 100.295 78.8375 100.604 79.3102C100.913 79.7839 101.151 80.1624 101.319 80.4437C101.487 80.726 101.59 80.911 101.625 80.9966L100.435 82.2617L101.084 83.0767L108.859 77.8328C109.161 77.6282 109.488 77.4196 109.837 77.205C110.188 76.9904 110.597 76.7593 111.067 76.5088L109.763 72.5721ZM106.314 72.7874L103.347 68.3899L102.373 69.0476L103.155 70.7949C103.101 70.8762 102.985 70.9821 102.808 71.1114C102.632 71.2418 102.415 71.3929 102.158 71.5666L100.436 72.7286C100.239 72.8608 100.022 73.0029 99.7817 73.1529C99.5427 73.3039 99.2966 73.4531 99.0455 73.6006L99.8866 74.847C100.117 74.6693 100.345 74.4938 100.569 74.3204C100.794 74.148 101.003 73.9943 101.2 73.862L102.924 72.7C103.18 72.5263 103.404 72.387 103.596 72.279C103.788 72.172 103.931 72.108 104.027 72.087L105.338 73.4452L106.314 72.7874ZM119.708 67.0377C119.997 66.114 120.053 65.2359 119.876 64.4005C119.699 63.5661 119.282 62.8607 118.624 62.2833C118.008 61.7412 117.362 61.4346 116.685 61.3624C116.009 61.2902 115.325 61.3574 114.635 61.5631C113.944 61.7697 113.26 62.0301 112.583 62.3452C111.906 62.6604 111.243 62.939 110.593 63.181C109.943 63.4239 109.322 63.5446 108.727 63.5441C108.134 63.5446 107.589 63.3278 107.097 62.8947C106.549 62.4139 106.287 61.8142 106.311 61.0956C106.336 60.377 106.655 59.6682 107.269 58.9694C107.87 58.285 108.5 57.8437 109.159 57.6454L111.39 58.5862L112.084 57.6308L109.371 55.5398C109.071 55.6883 108.756 55.8734 108.429 56.0951C108.101 56.3168 107.773 56.5796 107.444 56.8854C107.114 57.1912 106.794 57.5217 106.481 57.8779C105.735 58.7273 105.214 59.6035 104.917 60.5076C104.621 61.4115 104.564 62.2776 104.747 63.1048C104.929 63.933 105.349 64.6352 106.007 65.2126C106.651 65.7786 107.318 66.1034 108.008 66.188C108.698 66.2717 109.389 66.2171 110.08 66.0245C110.771 65.8309 111.455 65.5765 112.133 65.2613C112.81 64.9461 113.47 64.6647 114.113 64.416C114.755 64.1683 115.363 64.0411 115.938 64.0365C116.513 64.0318 117.04 64.2392 117.519 64.6599C118.081 65.1541 118.345 65.7497 118.313 66.4496C118.281 67.1496 117.97 67.835 117.381 68.5058C116.996 68.944 116.568 69.314 116.097 69.6157C115.625 69.9184 115.135 70.1367 114.628 70.2727L112.294 69.242L111.6 70.1974L114.341 72.4224C114.935 72.2167 115.583 71.8647 116.287 71.3663C116.991 70.8689 117.608 70.319 118.138 69.7157C118.895 68.8527 119.418 67.9604 119.708 67.0377Z" fill="#FEFEFE"/>
<path fill-rule="evenodd" clip-rule="evenodd" d="M40.5003 36.7819C41.1163 36.0639 41.6195 35.3796 42.01 34.728L40.677 31.1889L39.4693 31.8032L39.8967 34.8141C39.6535 35.2996 39.3535 35.7413 38.9945 36.1384C38.6366 36.5365 38.2033 36.9007 37.6965 37.2318C36.6995 37.8835 35.628 38.2339 34.4821 38.2832C33.3351 38.3325 32.2058 38.0327 31.0931 37.383C29.9804 36.7333 28.9705 35.7141 28.0615 34.3243C27.3671 33.2621 26.9157 32.1687 26.7063 31.0454C26.4968 29.9221 26.6073 28.8406 27.0369 27.802C27.4655 26.7635 28.2932 25.8426 29.5193 25.0414C29.9939 24.7316 30.5194 24.4647 31.0955 24.2388C31.6718 24.0148 32.1848 23.9066 32.6345 23.9161L34.8926 25.7646L35.9318 24.9461L33.5639 21.6979C32.8151 21.8379 32.0227 22.0877 31.1849 22.4486C30.347 22.8094 29.5928 23.2088 28.9233 23.6468C27.6476 24.48 26.6394 25.4194 25.8988 26.4628C25.1582 27.5072 24.6669 28.6044 24.426 29.7523C24.1862 30.9021 24.1824 32.0472 24.4157 33.1896C24.6489 34.332 25.1021 35.4182 25.7751 36.4484C26.823 38.0505 28.053 39.1658 29.466 39.7931C30.8801 40.4214 32.3498 40.627 33.8772 40.4109C35.4036 40.1948 36.8783 39.6216 38.3012 38.6922C39.151 38.1367 39.8844 37.4999 40.5003 36.7819ZM57.139 26.4326L55.7922 26.5372L55.1742 29.7283C54.8862 29.8573 54.5959 29.9764 54.3031 30.0855C54.0094 30.1957 53.6481 30.3167 53.2181 30.4476L51.1168 31.0897C50.7432 31.2032 50.4198 31.2976 50.1465 31.3699C49.8724 31.4443 49.5995 31.5015 49.326 31.5438C49.2447 31.344 49.0848 30.8882 48.8472 30.1744C48.6086 29.4606 48.3406 28.618 48.0444 27.6473L46.4359 22.3791C46.1628 21.4826 45.9449 20.737 45.7843 20.1431C45.6227 19.5492 45.5048 19.0947 45.4298 18.7805C45.3539 18.4674 45.327 18.2763 45.3472 18.2085L47.5618 17.1343L47.1353 16.0389L40.5506 18.05L40.8194 19.1318L42.6567 19.03C42.7174 19.0936 42.8076 19.29 42.9293 19.6203C43.05 19.9516 43.1999 20.4068 43.3769 20.985C43.5529 21.5642 43.7703 22.2739 44.0262 23.115L45.6346 28.3823C45.8799 29.1858 46.089 29.8878 46.2619 30.4882C46.4348 31.0896 46.5621 31.5557 46.6439 31.8886C46.7247 32.2206 46.7696 32.4369 46.7797 32.5356L45.191 33.4498L45.5715 34.497L54.5383 31.7603C54.7993 31.6805 55.0901 31.5964 55.4107 31.5091C55.7314 31.4208 56.0582 31.3373 56.3911 31.2555C56.7231 31.1748 57.0258 31.1132 57.2993 31.0709L57.139 26.4326ZM66.2279 30.0762L66.167 28.9628L64.3465 28.7456C64.2994 28.6725 64.2443 28.4776 64.1802 28.1599C64.1171 27.8423 64.0481 27.3837 63.9743 26.7823C63.8995 26.1818 63.8128 25.4148 63.7123 24.4831L63.1252 19.0066C63.021 18.0351 62.9406 17.2488 62.8867 16.6455C62.8318 16.0422 62.8017 15.5791 62.7963 15.255C62.791 14.932 62.8041 14.7392 62.8375 14.6768L64.5703 14.0779L64.3938 12.9773L58.189 13.6425L58.2489 14.7559L60.0704 14.9731C60.1146 15.0273 60.1612 15.2336 60.21 15.5919C60.2578 15.9502 60.3198 16.434 60.395 17.0455C60.4703 17.6559 60.5549 18.398 60.649 19.2719L61.2361 24.7484C61.3284 25.6033 61.4015 26.3319 61.4564 26.9341C61.5103 27.5374 61.552 28.0141 61.5804 28.3652C61.6079 28.7154 61.6072 28.9416 61.5794 29.0429L59.8456 29.6418L60.0231 30.7424L66.2279 30.0762ZM81.2856 30.7043C82.2153 30.5329 83.037 30.3158 83.7498 30.0532L84.9338 26.4614L83.6072 26.1818L82.0505 28.7932C81.5574 29.0197 81.0453 29.1739 80.5173 29.2588C79.9884 29.3436 79.4224 29.355 78.8204 29.2947C77.6355 29.1764 76.5811 28.7765 75.6583 28.095C74.7344 27.4145 74.043 26.4721 73.585 25.267C73.126 24.0639 72.9801 22.6357 73.1451 20.9835C73.2712 19.7202 73.6057 18.5855 74.1478 17.5803C74.6898 16.5741 75.4546 15.8019 76.4412 15.2628C77.4268 14.7237 78.6487 14.5262 80.107 14.6723C80.6698 14.7291 81.2463 14.8505 81.8365 15.0373C82.4267 15.2242 82.8929 15.4622 83.2371 15.7512L83.8353 18.608L85.158 18.6225L85.3538 14.608C84.6834 14.2474 83.9082 13.944 83.0304 13.699C82.1515 13.454 81.3141 13.2914 80.5182 13.2121C79.0016 13.0604 77.6275 13.1581 76.3958 13.5062C75.1631 13.8543 74.0927 14.3998 73.1845 15.1429C72.2754 15.887 71.5534 16.7765 71.0186 17.8114C70.4828 18.8474 70.1541 19.9779 70.0315 21.202C69.8408 23.1074 70.0986 24.7472 70.8059 26.1232C71.5112 27.4993 72.5277 28.5824 73.8514 29.3725C75.176 30.1626 76.6841 30.6419 78.3744 30.8104C79.3845 30.9118 80.3559 30.8768 81.2856 30.7043ZM101.569 37.8177L102.005 36.7618L100.785 35.8773C100.711 35.6992 100.623 35.4777 100.521 35.2136C100.418 34.9496 100.308 34.6399 100.191 34.2844C100.072 33.93 99.9277 33.5266 99.7549 33.0744L96.9659 25.1706L96.5486 25.9494L105.625 22.4715L107.307 22.8495L107.701 21.7434L102.474 19.5849L101.995 20.5914L103.501 21.6263L95.5413 25.0892L93.9492 24.8756L93.5361 25.8775L94.6734 26.348L96.8699 32.77C96.9922 33.1383 97.0947 33.4653 97.1767 33.7532C97.2586 34.041 97.3217 34.3097 97.3671 34.56L95.6301 34.1602L95.2591 35.2114L101.569 37.8177ZM92.4703 34.0593L92.9767 33.0646L91.4817 32.0023C91.5152 31.8688 91.6566 31.4627 91.9058 30.7838C92.1541 30.105 92.5248 29.1689 93.0172 27.9776L95.1202 22.8867C95.4778 22.0202 95.7786 21.3042 96.0225 20.7397C96.2664 20.1751 96.4649 19.7446 96.6188 19.449C96.7728 19.1534 96.879 18.9859 96.9374 18.9465L98.7454 19.2492L99.1164 18.198L93.3494 15.8156L92.8429 16.8113L94.3654 17.8835C94.371 17.9714 94.3115 18.179 94.187 18.5074C94.0614 18.8359 93.8858 19.2865 93.6602 19.8593C93.4346 20.431 93.1539 21.1242 92.8181 21.9367L90.715 27.0267C90.2237 28.2179 89.8296 29.145 89.5365 29.8046C89.2425 30.4653 89.0512 30.8515 88.9627 30.9622L87.1547 30.6595L86.8112 31.7215L92.4703 34.0593Z" fill="#FEFEFE"/>
</svg>
