<svg width="78" height="724" viewBox="0 0 78 724" fill="none" xmlns="http://www.w3.org/2000/svg">
<path d="M0.796875 719.947L0.734375 719.4C1.73438 718.525 2.52604 717.759 3.10938 717.103C3.70312 716.436 4.125 715.827 4.375 715.275C4.63542 714.712 4.76562 714.16 4.76562 713.619C4.76562 713.035 4.60417 712.572 4.28125 712.228C3.96875 711.874 3.52604 711.697 2.95312 711.697C2.08854 711.697 1.39062 712.113 0.859375 712.947L0.421875 712.634C0.682292 711.999 1.06771 711.504 1.57812 711.15C2.09896 710.785 2.6875 710.603 3.34375 710.603C3.90625 710.603 4.40104 710.717 4.82812 710.947C5.25521 711.165 5.58854 711.478 5.82812 711.884C6.07812 712.29 6.20312 712.764 6.20312 713.306C6.20312 714.16 5.84896 715.066 5.14062 716.025C4.43229 716.983 3.38542 717.967 2 718.978L2.04688 718.744H5.32812C5.44271 718.744 5.54688 718.738 5.64062 718.728C5.74479 718.717 5.82812 718.702 5.89062 718.681L6.40625 717.384L7.04688 717.447L6.6875 719.978C6.53125 719.957 6.36458 719.941 6.1875 719.931C6.02083 719.931 5.84896 719.926 5.67188 719.915C5.49479 719.915 5.29688 719.915 5.07812 719.915H1.95312C1.75521 719.915 1.55729 719.915 1.35938 719.915C1.17188 719.926 0.984375 719.936 0.796875 719.947ZM12.2344 720.056C11.4948 720.056 10.8385 719.863 10.2656 719.478C9.70312 719.082 9.26562 718.535 8.95312 717.837C8.64062 717.129 8.48438 716.306 8.48438 715.369C8.48438 714.431 8.64583 713.608 8.96875 712.9C9.30208 712.191 9.75 711.634 10.3125 711.228C10.8854 710.811 11.5365 710.603 12.2656 710.603C12.9635 710.603 13.5781 710.801 14.1094 711.197C14.651 711.582 15.0729 712.124 15.375 712.822C15.6771 713.52 15.8281 714.332 15.8281 715.259C15.8281 716.155 15.6667 716.967 15.3438 717.697C15.0312 718.426 14.6042 719.004 14.0625 719.431C13.5208 719.848 12.9115 720.056 12.2344 720.056ZM12.3125 719.275C12.7292 719.275 13.0885 719.129 13.3906 718.837C13.6927 718.546 13.9271 718.129 14.0938 717.587C14.2708 717.035 14.3594 716.384 14.3594 715.634C14.3594 714.311 14.1562 713.27 13.75 712.509C13.3438 711.738 12.8073 711.353 12.1406 711.353C11.474 711.353 10.9479 711.676 10.5625 712.322C10.1875 712.967 10 713.884 10 715.072C10 715.915 10.0938 716.655 10.2812 717.29C10.4792 717.915 10.75 718.405 11.0938 718.759C11.4479 719.103 11.8542 719.275 12.3125 719.275ZM21.2812 720.056C20.5417 720.056 19.8854 719.863 19.3125 719.478C18.75 719.082 18.3125 718.535 18 717.837C17.6875 717.129 17.5312 716.306 17.5312 715.369C17.5312 714.431 17.6927 713.608 18.0156 712.9C18.349 712.191 18.7969 711.634 19.3594 711.228C19.9323 710.811 20.5833 710.603 21.3125 710.603C22.0104 710.603 22.625 710.801 23.1562 711.197C23.6979 711.582 24.1198 712.124 24.4219 712.822C24.724 713.52 24.875 714.332 24.875 715.259C24.875 716.155 24.7135 716.967 24.3906 717.697C24.0781 718.426 23.651 719.004 23.1094 719.431C22.5677 719.848 21.9583 720.056 21.2812 720.056ZM21.3594 719.275C21.776 719.275 22.1354 719.129 22.4375 718.837C22.7396 718.546 22.974 718.129 23.1406 717.587C23.3177 717.035 23.4062 716.384 23.4062 715.634C23.4062 714.311 23.2031 713.27 22.7969 712.509C22.3906 711.738 21.8542 711.353 21.1875 711.353C20.5208 711.353 19.9948 711.676 19.6094 712.322C19.2344 712.967 19.0469 713.884 19.0469 715.072C19.0469 715.915 19.1406 716.655 19.3281 717.29C19.526 717.915 19.7969 718.405 20.1406 718.759C20.4948 719.103 20.901 719.275 21.3594 719.275Z" fill="black"/>
<path d="M3.90625 678.697L3.9375 678.494C4.80208 678.525 5.47917 678.744 5.96875 679.15C6.46875 679.556 6.71875 680.108 6.71875 680.806C6.71875 681.327 6.55729 681.812 6.23438 682.26C5.91146 682.697 5.47396 683.051 4.92188 683.322C4.38021 683.582 3.77604 683.713 3.10938 683.713C2.67188 683.713 2.28646 683.666 1.95312 683.572C1.63021 683.468 1.375 683.327 1.1875 683.15C1 682.973 0.90625 682.77 0.90625 682.541C0.90625 682.374 0.963542 682.233 1.07812 682.119C1.19271 682.004 1.33333 681.947 1.5 681.947C1.67708 681.947 1.82292 681.973 1.9375 682.025C2.0625 682.077 2.22396 682.187 2.42188 682.353L3.39062 683.181L2.65625 682.963C3.17708 683.036 3.64062 683.004 4.04688 682.869C4.45312 682.733 4.77604 682.504 5.01562 682.181C5.25521 681.858 5.375 681.478 5.375 681.041C5.375 680.478 5.19271 680.036 4.82812 679.713C4.47396 679.379 3.98438 679.213 3.35938 679.213C3.21354 679.213 3.06771 679.218 2.92188 679.228C2.77604 679.239 2.625 679.254 2.46875 679.275L2.39062 678.572C3.17188 678.478 3.76042 678.275 4.15625 677.963C4.55208 677.64 4.75 677.218 4.75 676.697C4.75 676.26 4.60938 675.926 4.32812 675.697C4.04688 675.457 3.65625 675.338 3.15625 675.338C2.80208 675.338 2.45833 675.416 2.125 675.572C1.80208 675.728 1.52083 675.968 1.28125 676.291L0.84375 675.978C1.09375 675.447 1.46875 675.03 1.96875 674.728C2.46875 674.416 3.02604 674.26 3.64062 674.26C4.38021 674.26 4.97396 674.452 5.42188 674.838C5.86979 675.213 6.09375 675.697 6.09375 676.291C6.09375 676.843 5.89062 677.327 5.48438 677.744C5.08854 678.15 4.5625 678.468 3.90625 678.697ZM12.2031 683.713C11.4635 683.713 10.8073 683.52 10.2344 683.135C9.67188 682.739 9.23438 682.192 8.92188 681.494C8.60938 680.786 8.45312 679.963 8.45312 679.025C8.45312 678.088 8.61458 677.265 8.9375 676.556C9.27083 675.848 9.71875 675.291 10.2812 674.885C10.8542 674.468 11.5052 674.26 12.2344 674.26C12.9323 674.26 13.5469 674.457 14.0781 674.853C14.6198 675.239 15.0417 675.78 15.3438 676.478C15.6458 677.176 15.7969 677.989 15.7969 678.916C15.7969 679.812 15.6354 680.624 15.3125 681.353C15 682.082 14.5729 682.661 14.0312 683.088C13.4896 683.504 12.8802 683.713 12.2031 683.713ZM12.2812 682.931C12.6979 682.931 13.0573 682.786 13.3594 682.494C13.6615 682.202 13.8958 681.786 14.0625 681.244C14.2396 680.692 14.3281 680.041 14.3281 679.291C14.3281 677.968 14.125 676.926 13.7188 676.166C13.3125 675.395 12.776 675.01 12.1094 675.01C11.4427 675.01 10.9167 675.332 10.5312 675.978C10.1562 676.624 9.96875 677.541 9.96875 678.728C9.96875 679.572 10.0625 680.312 10.25 680.947C10.4479 681.572 10.7188 682.062 11.0625 682.416C11.4167 682.76 11.8229 682.931 12.2812 682.931ZM21.25 683.713C20.5104 683.713 19.8542 683.52 19.2812 683.135C18.7188 682.739 18.2812 682.192 17.9688 681.494C17.6562 680.786 17.5 679.963 17.5 679.025C17.5 678.088 17.6615 677.265 17.9844 676.556C18.3177 675.848 18.7656 675.291 19.3281 674.885C19.901 674.468 20.5521 674.26 21.2812 674.26C21.9792 674.26 22.5938 674.457 23.125 674.853C23.6667 675.239 24.0885 675.78 24.3906 676.478C24.6927 677.176 24.8438 677.989 24.8438 678.916C24.8438 679.812 24.6823 680.624 24.3594 681.353C24.0469 682.082 23.6198 682.661 23.0781 683.088C22.5365 683.504 21.9271 683.713 21.25 683.713ZM21.3281 682.931C21.7448 682.931 22.1042 682.786 22.4062 682.494C22.7083 682.202 22.9427 681.786 23.1094 681.244C23.2865 680.692 23.375 680.041 23.375 679.291C23.375 677.968 23.1719 676.926 22.7656 676.166C22.3594 675.395 21.8229 675.01 21.1562 675.01C20.4896 675.01 19.9635 675.332 19.5781 675.978C19.2031 676.624 19.0156 677.541 19.0156 678.728C19.0156 679.572 19.1094 680.312 19.2969 680.947C19.4948 681.572 19.7656 682.062 20.1094 682.416C20.4635 682.76 20.8698 682.931 21.3281 682.931Z" fill="black"/>
<path d="M6.03125 616.348C6.03125 616.962 6.03125 617.39 6.03125 617.629C6.04167 617.858 6.05208 618.025 6.0625 618.129L7.01562 618.348L6.96875 618.926H3.5625L3.51562 618.348L4.78125 618.129C4.79167 618.025 4.79688 617.858 4.79688 617.629C4.79688 617.39 4.79688 616.962 4.79688 616.348V611.129L5.10938 611.192L1.70312 615.676V615.348H7.42188V616.348H0.734375L0.625 615.817L5.46875 609.692H6.0625C6.05208 610.067 6.04167 610.447 6.03125 610.832C6.02083 611.218 6.01562 611.608 6.01562 612.004L6.03125 616.348ZM12.7812 619.067C12.0417 619.067 11.3854 618.874 10.8125 618.489C10.25 618.093 9.8125 617.546 9.5 616.848C9.1875 616.14 9.03125 615.317 9.03125 614.379C9.03125 613.442 9.19271 612.619 9.51562 611.91C9.84896 611.202 10.2969 610.645 10.8594 610.239C11.4323 609.822 12.0833 609.614 12.8125 609.614C13.5104 609.614 14.125 609.811 14.6562 610.207C15.1979 610.593 15.6198 611.134 15.9219 611.832C16.224 612.53 16.375 613.343 16.375 614.27C16.375 615.166 16.2135 615.978 15.8906 616.707C15.5781 617.436 15.151 618.015 14.6094 618.442C14.0677 618.858 13.4583 619.067 12.7812 619.067ZM12.8594 618.285C13.276 618.285 13.6354 618.14 13.9375 617.848C14.2396 617.556 14.474 617.14 14.6406 616.598C14.8177 616.046 14.9062 615.395 14.9062 614.645C14.9062 613.322 14.7031 612.28 14.2969 611.52C13.8906 610.749 13.3542 610.364 12.6875 610.364C12.0208 610.364 11.4948 610.686 11.1094 611.332C10.7344 611.978 10.5469 612.895 10.5469 614.082C10.5469 614.926 10.6406 615.666 10.8281 616.301C11.026 616.926 11.2969 617.416 11.6406 617.77C11.9948 618.114 12.401 618.285 12.8594 618.285ZM21.8281 619.067C21.0885 619.067 20.4323 618.874 19.8594 618.489C19.2969 618.093 18.8594 617.546 18.5469 616.848C18.2344 616.14 18.0781 615.317 18.0781 614.379C18.0781 613.442 18.2396 612.619 18.5625 611.91C18.8958 611.202 19.3438 610.645 19.9062 610.239C20.4792 609.822 21.1302 609.614 21.8594 609.614C22.5573 609.614 23.1719 609.811 23.7031 610.207C24.2448 610.593 24.6667 611.134 24.9688 611.832C25.2708 612.53 25.4219 613.343 25.4219 614.27C25.4219 615.166 25.2604 615.978 24.9375 616.707C24.625 617.436 24.1979 618.015 23.6562 618.442C23.1146 618.858 22.5052 619.067 21.8281 619.067ZM21.9062 618.285C22.3229 618.285 22.6823 618.14 22.9844 617.848C23.2865 617.556 23.5208 617.14 23.6875 616.598C23.8646 616.046 23.9531 615.395 23.9531 614.645C23.9531 613.322 23.75 612.28 23.3438 611.52C22.9375 610.749 22.401 610.364 21.7344 610.364C21.0677 610.364 20.5417 610.686 20.1562 611.332C19.7812 611.978 19.5938 612.895 19.5938 614.082C19.5938 614.926 19.6875 615.666 19.875 616.301C20.0729 616.926 20.3438 617.416 20.6875 617.77C21.0417 618.114 21.4479 618.285 21.9062 618.285Z" fill="black"/>
<path d="M2.92188 546.141C2.50521 546.141 2.13021 546.094 1.79688 546C1.47396 545.896 1.21875 545.755 1.03125 545.578C0.84375 545.401 0.75 545.198 0.75 544.969C0.75 544.792 0.807292 544.651 0.921875 544.547C1.03646 544.432 1.18229 544.375 1.35938 544.375C1.52604 544.375 1.66667 544.401 1.78125 544.453C1.89583 544.505 2.04688 544.615 2.23438 544.781L3.25 545.609L2.5 545.391C3.02083 545.474 3.48438 545.453 3.89062 545.328C4.29688 545.193 4.61979 544.974 4.85938 544.672C5.09896 544.37 5.21875 544.016 5.21875 543.609C5.21875 543.172 5.10938 542.818 4.89062 542.547C4.68229 542.266 4.3125 542.036 3.78125 541.859C3.25 541.682 2.50521 541.531 1.54688 541.406L2.09375 536.828H6.14062L6.01562 538.078H2.76562L2.45312 540.906L2.03125 540.297C3.63542 540.464 4.79167 540.792 5.5 541.281C6.21875 541.76 6.57812 542.422 6.57812 543.266C6.57812 543.786 6.41146 544.266 6.07812 544.703C5.74479 545.141 5.30208 545.49 4.75 545.75C4.20833 546.01 3.59896 546.141 2.92188 546.141ZM12.1562 546.141C11.4167 546.141 10.7604 545.948 10.1875 545.562C9.625 545.167 9.1875 544.62 8.875 543.922C8.5625 543.214 8.40625 542.391 8.40625 541.453C8.40625 540.516 8.56771 539.693 8.89062 538.984C9.22396 538.276 9.67188 537.719 10.2344 537.312C10.8073 536.896 11.4583 536.688 12.1875 536.688C12.8854 536.688 13.5 536.885 14.0312 537.281C14.5729 537.667 14.9948 538.208 15.2969 538.906C15.599 539.604 15.75 540.417 15.75 541.344C15.75 542.24 15.5885 543.052 15.2656 543.781C14.9531 544.51 14.526 545.089 13.9844 545.516C13.4427 545.932 12.8333 546.141 12.1562 546.141ZM12.2344 545.359C12.651 545.359 13.0104 545.214 13.3125 544.922C13.6146 544.63 13.849 544.214 14.0156 543.672C14.1927 543.12 14.2812 542.469 14.2812 541.719C14.2812 540.396 14.0781 539.354 13.6719 538.594C13.2656 537.823 12.7292 537.438 12.0625 537.438C11.3958 537.438 10.8698 537.76 10.4844 538.406C10.1094 539.052 9.92188 539.969 9.92188 541.156C9.92188 542 10.0156 542.74 10.2031 543.375C10.401 544 10.6719 544.49 11.0156 544.844C11.3698 545.188 11.776 545.359 12.2344 545.359ZM21.2031 546.141C20.4635 546.141 19.8073 545.948 19.2344 545.562C18.6719 545.167 18.2344 544.62 17.9219 543.922C17.6094 543.214 17.4531 542.391 17.4531 541.453C17.4531 540.516 17.6146 539.693 17.9375 538.984C18.2708 538.276 18.7188 537.719 19.2812 537.312C19.8542 536.896 20.5052 536.688 21.2344 536.688C21.9323 536.688 22.5469 536.885 23.0781 537.281C23.6198 537.667 24.0417 538.208 24.3438 538.906C24.6458 539.604 24.7969 540.417 24.7969 541.344C24.7969 542.24 24.6354 543.052 24.3125 543.781C24 544.51 23.5729 545.089 23.0312 545.516C22.4896 545.932 21.8802 546.141 21.2031 546.141ZM21.2812 545.359C21.6979 545.359 22.0573 545.214 22.3594 544.922C22.6615 544.63 22.8958 544.214 23.0625 543.672C23.2396 543.12 23.3281 542.469 23.3281 541.719C23.3281 540.396 23.125 539.354 22.7188 538.594C22.3125 537.823 21.776 537.438 21.1094 537.438C20.4427 537.438 19.9167 537.76 19.5312 538.406C19.1562 539.052 18.9688 539.969 18.9688 541.156C18.9688 542 19.0625 542.74 19.25 543.375C19.4479 544 19.7188 544.49 20.0625 544.844C20.4167 545.188 20.8229 545.359 21.2812 545.359Z" fill="black"/>
<path d="M2.20312 466.188C2.47396 465.688 2.82292 465.297 3.25 465.016C3.67708 464.734 4.13021 464.594 4.60938 464.594C5.10938 464.594 5.55729 464.708 5.95312 464.938C6.35938 465.156 6.67708 465.458 6.90625 465.844C7.14583 466.229 7.26562 466.672 7.26562 467.172C7.26562 467.714 7.125 468.208 6.84375 468.656C6.57292 469.104 6.20312 469.464 5.73438 469.734C5.27604 470.005 4.76562 470.141 4.20312 470.141C3.56771 470.141 3.01042 470 2.53125 469.719C2.05208 469.427 1.67708 469.021 1.40625 468.5C1.14583 467.979 1.01562 467.365 1.01562 466.656C1.01562 465.885 1.14062 465.161 1.39062 464.484C1.65104 463.807 2.02083 463.198 2.5 462.656C2.97917 462.115 3.55208 461.661 4.21875 461.297C4.89583 460.932 5.64583 460.682 6.46875 460.547L6.70312 461.25C5.77604 461.49 4.99479 461.849 4.35938 462.328C3.72396 462.807 3.24479 463.406 2.92188 464.125C2.60938 464.844 2.45312 465.682 2.45312 466.641C2.45312 467.193 2.52604 467.677 2.67188 468.094C2.82812 468.51 3.04167 468.833 3.3125 469.062C3.59375 469.292 3.92708 469.406 4.3125 469.406C4.77083 469.406 5.14062 469.234 5.42188 468.891C5.71354 468.547 5.85938 468.099 5.85938 467.547C5.85938 466.974 5.69792 466.51 5.375 466.156C5.0625 465.802 4.64583 465.625 4.125 465.625C3.86458 465.625 3.61979 465.672 3.39062 465.766C3.17188 465.849 2.96354 465.974 2.76562 466.141C2.57812 466.307 2.40625 466.51 2.25 466.75L2.20312 466.188ZM12.7344 470.141C11.9948 470.141 11.3385 469.948 10.7656 469.562C10.2031 469.167 9.76562 468.62 9.45312 467.922C9.14062 467.214 8.98438 466.391 8.98438 465.453C8.98438 464.516 9.14583 463.693 9.46875 462.984C9.80208 462.276 10.25 461.719 10.8125 461.312C11.3854 460.896 12.0365 460.688 12.7656 460.688C13.4635 460.688 14.0781 460.885 14.6094 461.281C15.151 461.667 15.5729 462.208 15.875 462.906C16.1771 463.604 16.3281 464.417 16.3281 465.344C16.3281 466.24 16.1667 467.052 15.8438 467.781C15.5312 468.51 15.1042 469.089 14.5625 469.516C14.0208 469.932 13.4115 470.141 12.7344 470.141ZM12.8125 469.359C13.2292 469.359 13.5885 469.214 13.8906 468.922C14.1927 468.63 14.4271 468.214 14.5938 467.672C14.7708 467.12 14.8594 466.469 14.8594 465.719C14.8594 464.396 14.6562 463.354 14.25 462.594C13.8438 461.823 13.3073 461.438 12.6406 461.438C11.974 461.438 11.4479 461.76 11.0625 462.406C10.6875 463.052 10.5 463.969 10.5 465.156C10.5 466 10.5938 466.74 10.7812 467.375C10.9792 468 11.25 468.49 11.5938 468.844C11.9479 469.188 12.3542 469.359 12.8125 469.359ZM21.7812 470.141C21.0417 470.141 20.3854 469.948 19.8125 469.562C19.25 469.167 18.8125 468.62 18.5 467.922C18.1875 467.214 18.0312 466.391 18.0312 465.453C18.0312 464.516 18.1927 463.693 18.5156 462.984C18.849 462.276 19.2969 461.719 19.8594 461.312C20.4323 460.896 21.0833 460.688 21.8125 460.688C22.5104 460.688 23.125 460.885 23.6562 461.281C24.1979 461.667 24.6198 462.208 24.9219 462.906C25.224 463.604 25.375 464.417 25.375 465.344C25.375 466.24 25.2135 467.052 24.8906 467.781C24.5781 468.51 24.151 469.089 23.6094 469.516C23.0677 469.932 22.4583 470.141 21.7812 470.141ZM21.8594 469.359C22.276 469.359 22.6354 469.214 22.9375 468.922C23.2396 468.63 23.474 468.214 23.6406 467.672C23.8177 467.12 23.9062 466.469 23.9062 465.719C23.9062 464.396 23.7031 463.354 23.2969 462.594C22.8906 461.823 22.3542 461.438 21.6875 461.438C21.0208 461.438 20.4948 461.76 20.1094 462.406C19.7344 463.052 19.5469 463.969 19.5469 465.156C19.5469 466 19.6406 466.74 19.8281 467.375C20.026 468 20.2969 468.49 20.6406 468.844C20.9948 469.188 21.401 469.359 21.8594 469.359Z" fill="black"/>
<path d="M3.5 299H2.28125V298.531L6.15625 290.547V291.094H2.1875C2.08333 291.094 1.97396 291.099 1.85938 291.109C1.75521 291.109 1.67188 291.12 1.60938 291.141L1.10938 292.406L0.5 292.328L0.875 289.766C1.05208 289.776 1.21875 289.786 1.375 289.797C1.54167 289.807 1.70833 289.818 1.875 289.828C2.05208 289.828 2.23958 289.828 2.4375 289.828H5.79688C5.98438 289.828 6.17708 289.828 6.375 289.828C6.57292 289.818 6.77083 289.812 6.96875 289.812L7.03125 290.359L3.5 299ZM11.75 299.141C11.0104 299.141 10.3542 298.948 9.78125 298.562C9.21875 298.167 8.78125 297.62 8.46875 296.922C8.15625 296.214 8 295.391 8 294.453C8 293.516 8.16146 292.693 8.48438 291.984C8.81771 291.276 9.26562 290.719 9.82812 290.312C10.401 289.896 11.0521 289.688 11.7812 289.688C12.4792 289.688 13.0938 289.885 13.625 290.281C14.1667 290.667 14.5885 291.208 14.8906 291.906C15.1927 292.604 15.3438 293.417 15.3438 294.344C15.3438 295.24 15.1823 296.052 14.8594 296.781C14.5469 297.51 14.1198 298.089 13.5781 298.516C13.0365 298.932 12.4271 299.141 11.75 299.141ZM11.8281 298.359C12.2448 298.359 12.6042 298.214 12.9062 297.922C13.2083 297.63 13.4427 297.214 13.6094 296.672C13.7865 296.12 13.875 295.469 13.875 294.719C13.875 293.396 13.6719 292.354 13.2656 291.594C12.8594 290.823 12.3229 290.438 11.6562 290.438C10.9896 290.438 10.4635 290.76 10.0781 291.406C9.70312 292.052 9.51562 292.969 9.51562 294.156C9.51562 295 9.60938 295.74 9.79688 296.375C9.99479 297 10.2656 297.49 10.6094 297.844C10.9635 298.188 11.3698 298.359 11.8281 298.359ZM20.7969 299.141C20.0573 299.141 19.401 298.948 18.8281 298.562C18.2656 298.167 17.8281 297.62 17.5156 296.922C17.2031 296.214 17.0469 295.391 17.0469 294.453C17.0469 293.516 17.2083 292.693 17.5312 291.984C17.8646 291.276 18.3125 290.719 18.875 290.312C19.4479 289.896 20.099 289.688 20.8281 289.688C21.526 289.688 22.1406 289.885 22.6719 290.281C23.2135 290.667 23.6354 291.208 23.9375 291.906C24.2396 292.604 24.3906 293.417 24.3906 294.344C24.3906 295.24 24.2292 296.052 23.9062 296.781C23.5938 297.51 23.1667 298.089 22.625 298.516C22.0833 298.932 21.474 299.141 20.7969 299.141ZM20.875 298.359C21.2917 298.359 21.651 298.214 21.9531 297.922C22.2552 297.63 22.4896 297.214 22.6562 296.672C22.8333 296.12 22.9219 295.469 22.9219 294.719C22.9219 293.396 22.7188 292.354 22.3125 291.594C21.9062 290.823 21.3698 290.438 20.7031 290.438C20.0365 290.438 19.5104 290.76 19.125 291.406C18.75 292.052 18.5625 292.969 18.5625 294.156C18.5625 295 18.6562 295.74 18.8438 296.375C19.0417 297 19.3125 297.49 19.6562 297.844C20.0104 298.188 20.4167 298.359 20.875 298.359Z" fill="black"/>
<path d="M5.95312 131.641C5.68229 132.13 5.33333 132.521 4.90625 132.812C4.47917 133.094 4.02083 133.234 3.53125 133.234C3.03125 133.234 2.57812 133.125 2.17188 132.906C1.77604 132.677 1.45833 132.37 1.21875 131.984C0.989583 131.589 0.875 131.146 0.875 130.656C0.875 130.135 1.00521 129.651 1.26562 129.203C1.53646 128.745 1.90625 128.38 2.375 128.109C2.84375 127.828 3.36979 127.688 3.95312 127.688C4.58854 127.688 5.14583 127.833 5.625 128.125C6.10417 128.406 6.47396 128.807 6.73438 129.328C7.00521 129.849 7.14062 130.464 7.14062 131.172C7.14062 131.932 7.01042 132.651 6.75 133.328C6.48958 133.995 6.11979 134.599 5.64062 135.141C5.17188 135.682 4.59896 136.135 3.92188 136.5C3.25521 136.854 2.51042 137.104 1.6875 137.25L1.4375 136.547C2.375 136.307 3.15625 135.948 3.78125 135.469C4.41667 134.99 4.89062 134.391 5.20312 133.672C5.52604 132.953 5.6875 132.125 5.6875 131.188C5.6875 130.625 5.60938 130.141 5.45312 129.734C5.30729 129.318 5.09375 128.995 4.8125 128.766C4.54167 128.536 4.21354 128.422 3.82812 128.422C3.38021 128.422 3.01042 128.594 2.71875 128.938C2.42708 129.281 2.28125 129.729 2.28125 130.281C2.28125 130.854 2.44271 131.318 2.76562 131.672C3.09896 132.026 3.52604 132.203 4.04688 132.203C4.29688 132.203 4.53646 132.161 4.76562 132.078C4.99479 131.984 5.20312 131.854 5.39062 131.688C5.58854 131.51 5.76562 131.307 5.92188 131.078L5.95312 131.641ZM12.7344 137.141C11.9948 137.141 11.3385 136.948 10.7656 136.562C10.2031 136.167 9.76562 135.62 9.45312 134.922C9.14062 134.214 8.98438 133.391 8.98438 132.453C8.98438 131.516 9.14583 130.693 9.46875 129.984C9.80208 129.276 10.25 128.719 10.8125 128.312C11.3854 127.896 12.0365 127.688 12.7656 127.688C13.4635 127.688 14.0781 127.885 14.6094 128.281C15.151 128.667 15.5729 129.208 15.875 129.906C16.1771 130.604 16.3281 131.417 16.3281 132.344C16.3281 133.24 16.1667 134.052 15.8438 134.781C15.5312 135.51 15.1042 136.089 14.5625 136.516C14.0208 136.932 13.4115 137.141 12.7344 137.141ZM12.8125 136.359C13.2292 136.359 13.5885 136.214 13.8906 135.922C14.1927 135.63 14.4271 135.214 14.5938 134.672C14.7708 134.12 14.8594 133.469 14.8594 132.719C14.8594 131.396 14.6562 130.354 14.25 129.594C13.8438 128.823 13.3073 128.438 12.6406 128.438C11.974 128.438 11.4479 128.76 11.0625 129.406C10.6875 130.052 10.5 130.969 10.5 132.156C10.5 133 10.5938 133.74 10.7812 134.375C10.9792 135 11.25 135.49 11.5938 135.844C11.9479 136.188 12.3542 136.359 12.8125 136.359ZM21.7812 137.141C21.0417 137.141 20.3854 136.948 19.8125 136.562C19.25 136.167 18.8125 135.62 18.5 134.922C18.1875 134.214 18.0312 133.391 18.0312 132.453C18.0312 131.516 18.1927 130.693 18.5156 129.984C18.849 129.276 19.2969 128.719 19.8594 128.312C20.4323 127.896 21.0833 127.688 21.8125 127.688C22.5104 127.688 23.125 127.885 23.6562 128.281C24.1979 128.667 24.6198 129.208 24.9219 129.906C25.224 130.604 25.375 131.417 25.375 132.344C25.375 133.24 25.2135 134.052 24.8906 134.781C24.5781 135.51 24.151 136.089 23.6094 136.516C23.0677 136.932 22.4583 137.141 21.7812 137.141ZM21.8594 136.359C22.276 136.359 22.6354 136.214 22.9375 135.922C23.2396 135.63 23.474 135.214 23.6406 134.672C23.8177 134.12 23.9062 133.469 23.9062 132.719C23.9062 131.396 23.7031 130.354 23.2969 129.594C22.8906 128.823 22.3542 128.438 21.6875 128.438C21.0208 128.438 20.4948 128.76 20.1094 129.406C19.7344 130.052 19.5469 130.969 19.5469 132.156C19.5469 133 19.6406 133.74 19.8281 134.375C20.026 135 20.2969 135.49 20.6406 135.844C20.9948 136.188 21.401 136.359 21.8594 136.359Z" fill="black"/>
<path d="M7.60938 9.125L4.82812 16.0469H4.15625L0.890625 7.64062L0.109375 7.42188L0.140625 6.82812H3.1875L3.23438 7.42188L2.4375 7.625L5 14.4531H4.67188L7.15625 7.875L7.60938 9.125ZM9.79688 16.0469L6.5625 7.64062L5.78125 7.42188L5.8125 6.82812H8.98438L9.03125 7.42188L8.07812 7.625L10.6094 14.4531H10.2969L12.7656 7.64062L11.6562 7.42188L11.7031 6.82812H14.5781L14.625 7.42188L13.8281 7.64062L10.4688 16.0469H9.79688ZM22.2969 16.0781C21.9948 16.0469 21.724 16.026 21.4844 16.0156C21.2552 16.0052 21.0365 16 20.8281 16H15.4688L15.4219 15.4062L16.3906 15.1875C16.401 15.1354 16.4115 15.0156 16.4219 14.8281C16.4323 14.6406 16.4375 14.3854 16.4375 14.0625C16.4479 13.7396 16.4531 13.349 16.4531 12.8906V9.95312C16.4531 9.48438 16.4479 9.08854 16.4375 8.76562C16.4375 8.43229 16.4323 8.17188 16.4219 7.98438C16.4115 7.79688 16.401 7.68229 16.3906 7.64062L15.4219 7.42188L15.4688 6.82812H20.4844C20.6302 6.82812 20.7865 6.82812 20.9531 6.82812C21.1198 6.82812 21.2917 6.82292 21.4688 6.8125C21.6562 6.79167 21.849 6.77604 22.0469 6.76562L22.3594 8.82812L21.6562 8.9375L21.1406 7.625C21.0573 7.60417 20.9635 7.59375 20.8594 7.59375C20.7552 7.58333 20.6458 7.57812 20.5312 7.57812H18.7656C18.5677 7.57812 18.3906 7.58333 18.2344 7.59375C18.0885 7.59375 17.9427 7.60417 17.7969 7.625C17.7969 7.66667 17.7917 7.78646 17.7812 7.98438C17.7812 8.17188 17.776 8.39062 17.7656 8.64062C17.7656 8.89062 17.7656 9.14062 17.7656 9.39062V13.6094C17.7656 13.8177 17.7656 14.0312 17.7656 14.25C17.776 14.4583 17.7812 14.6458 17.7812 14.8125C17.7917 14.9688 17.7969 15.0833 17.7969 15.1562C17.9531 15.1667 18.1094 15.1771 18.2656 15.1875C18.4219 15.1979 18.599 15.2031 18.7969 15.2031H20.3125C20.5417 15.2031 20.7292 15.2031 20.875 15.2031C21.0208 15.1927 21.1354 15.1823 21.2188 15.1719C21.3021 15.1615 21.3698 15.151 21.4219 15.1406L22.2344 13.6562L22.9375 13.7969L22.2969 16.0781ZM20.5625 12.7969L20.375 11.7344C20.3229 11.7135 20.2344 11.6979 20.1094 11.6875C19.9844 11.6771 19.8333 11.6719 19.6562 11.6719H18.4688C18.3333 11.6719 18.1823 11.6771 18.0156 11.6875C17.8594 11.6979 17.6979 11.7083 17.5312 11.7188V10.8594C17.6979 10.8698 17.8594 10.8802 18.0156 10.8906C18.1823 10.8906 18.3333 10.8906 18.4688 10.8906H19.6562C19.8333 10.8906 19.9844 10.8906 20.1094 10.8906C20.2344 10.8802 20.3229 10.8646 20.375 10.8438L20.5625 9.76562H21.2344V12.7969H20.5625ZM24.1562 16L24.125 15.4062L25.0781 15.1875C25.099 15.1354 25.1094 15.0156 25.1094 14.8281C25.1198 14.6406 25.125 14.3854 25.125 14.0625C25.1354 13.7396 25.1406 13.349 25.1406 12.8906V9.95312C25.1406 9.48438 25.1354 9.08854 25.125 8.76562C25.125 8.43229 25.1198 8.17188 25.1094 7.98438C25.1094 7.78646 25.099 7.67188 25.0781 7.64062L24.125 7.42188L24.1562 6.82812H27.4844L27.5156 7.42188L26.5625 7.64062C26.5417 7.67188 26.5208 7.77604 26.5 7.95312C26.4896 8.11979 26.4792 8.36458 26.4688 8.6875C26.4688 9.01042 26.4688 9.43229 26.4688 9.95312V12.8906C26.4688 13.3906 26.4688 13.8021 26.4688 14.125C26.4792 14.4479 26.4896 14.6979 26.5 14.875C26.5208 15.0417 26.5417 15.1458 26.5625 15.1875L27.5156 15.4062L27.4844 16H24.1562ZM34.0781 16.1406C33.1406 16.1406 32.2865 15.9688 31.5156 15.625C30.7552 15.2708 30.151 14.75 29.7031 14.0625C29.2552 13.375 29.0312 12.5208 29.0312 11.5C29.0312 10.8438 29.1458 10.2292 29.375 9.65625C29.6146 9.07292 29.9531 8.55729 30.3906 8.10938C30.8385 7.66146 31.3802 7.3125 32.0156 7.0625C32.6615 6.8125 33.3958 6.6875 34.2188 6.6875C34.6562 6.6875 35.1146 6.72917 35.5938 6.8125C36.0833 6.89583 36.5052 7.01562 36.8594 7.17188L36.9531 9.21875L36.2656 9.28125L35.8125 7.89062C35.6146 7.74479 35.349 7.64062 35.0156 7.57812C34.6823 7.51562 34.375 7.48438 34.0938 7.48438C33.2917 7.48438 32.6354 7.65625 32.125 8C31.625 8.33333 31.2552 8.78125 31.0156 9.34375C30.776 9.90625 30.6562 10.526 30.6562 11.2031C30.6562 12.0885 30.8125 12.8438 31.125 13.4688C31.4479 14.0833 31.8802 14.5469 32.4219 14.8594C32.9635 15.1719 33.5729 15.3281 34.25 15.3281C34.5417 15.3281 34.8646 15.2865 35.2188 15.2031C35.5833 15.1198 35.9062 14.974 36.1875 14.7656L35.8125 15.6406V14C35.8125 13.6562 35.8073 13.3542 35.7969 13.0938C35.7865 12.8333 35.7708 12.6354 35.75 12.5L34.6875 12.3281L34.7188 11.7031H37.7656L37.7969 12.2969L37.1094 12.4844C37.1094 12.5365 37.1094 12.6615 37.1094 12.8594C37.1094 13.0573 37.1094 13.2969 37.1094 13.5781C37.1094 13.9427 37.1146 14.25 37.125 14.5C37.1354 14.75 37.1458 15.0104 37.1562 15.2812C36.75 15.5521 36.2604 15.7656 35.6875 15.9219C35.125 16.0677 34.5885 16.1406 34.0781 16.1406ZM44.75 16L44.7188 15.4062L45.6719 15.1875C45.6927 15.1458 45.7083 15.0417 45.7188 14.875C45.7396 14.6979 45.75 14.4479 45.75 14.125C45.7604 13.8021 45.7656 13.3906 45.7656 12.8906V9.95312C45.7656 9.43229 45.7604 9.01042 45.75 8.6875C45.75 8.36458 45.7396 8.11979 45.7188 7.95312C45.7083 7.77604 45.6927 7.67188 45.6719 7.64062L44.7188 7.42188L44.75 6.82812H48.1094L48.1562 7.42188L47.1875 7.64062C47.1667 7.67188 47.151 7.77604 47.1406 7.95312C47.1302 8.11979 47.1198 8.36458 47.1094 8.6875C47.099 9.01042 47.0938 9.43229 47.0938 9.95312V12.8906C47.0938 13.3906 47.099 13.8021 47.1094 14.125C47.1198 14.4479 47.1302 14.6979 47.1406 14.875C47.151 15.0417 47.1667 15.1458 47.1875 15.1875L48.1562 15.4062L48.1094 16H44.75ZM39.125 16L39.0781 15.4062L40.0469 15.1875C40.0677 15.1354 40.0781 15.0156 40.0781 14.8281C40.0885 14.6406 40.0938 14.3854 40.0938 14.0625C40.1042 13.7396 40.1094 13.349 40.1094 12.8906V9.95312C40.1094 9.48438 40.1042 9.08854 40.0938 8.76562C40.0938 8.43229 40.0885 8.17188 40.0781 7.98438C40.0781 7.78646 40.0677 7.67188 40.0469 7.64062L39.0781 7.42188L39.125 6.82812H42.4531L42.4844 7.42188L41.5312 7.64062C41.5104 7.67188 41.4896 7.77604 41.4688 7.95312C41.4583 8.11979 41.4479 8.36458 41.4375 8.6875C41.4375 9.01042 41.4375 9.43229 41.4375 9.95312V12.8906C41.4375 13.3906 41.4375 13.8021 41.4375 14.125C41.4479 14.4479 41.4583 14.6979 41.4688 14.875C41.4896 15.0417 41.5104 15.1458 41.5312 15.1875L42.4844 15.4062L42.4531 16H39.125ZM41.25 11.75V10.8281C41.4479 10.8385 41.75 10.849 42.1562 10.8594C42.5625 10.8698 43.0521 10.875 43.625 10.875C44.1979 10.875 44.6771 10.8698 45.0625 10.8594C45.4583 10.849 45.75 10.8385 45.9375 10.8281V11.75C45.7083 11.7188 45.4115 11.7031 45.0469 11.7031C44.6823 11.6927 44.2083 11.6875 43.625 11.6875C43.0208 11.6875 42.5312 11.6927 42.1562 11.7031C41.7812 11.7031 41.4792 11.7188 41.25 11.75ZM56.9531 6.76562L57.2969 9.29688L56.6094 9.375L55.9531 7.60938C55.8698 7.58854 55.7708 7.57812 55.6562 7.57812C55.5521 7.56771 55.4583 7.5625 55.375 7.5625H54.8125C54.7083 7.5625 54.5677 7.5625 54.3906 7.5625C54.2135 7.5625 54.0521 7.56771 53.9062 7.57812C53.9062 7.66146 53.901 7.85938 53.8906 8.17188C53.8906 8.47396 53.8906 8.82812 53.8906 9.23438C53.8906 9.64062 53.8906 10.0312 53.8906 10.4062V12.5156C53.8906 13.1719 53.8958 13.7448 53.9062 14.2344C53.9167 14.7135 53.9219 15.0312 53.9219 15.1875L55.25 15.375L55.2031 16H51.2188L51.1875 15.375L52.5 15.1875C52.5 15.0312 52.5052 14.7135 52.5156 14.2344C52.526 13.7448 52.5312 13.1719 52.5312 12.5156V10.4062C52.5312 10.0312 52.5312 9.64062 52.5312 9.23438C52.5312 8.82812 52.5312 8.47396 52.5312 8.17188C52.5312 7.85938 52.526 7.66146 52.5156 7.57812C52.3802 7.56771 52.224 7.5625 52.0469 7.5625C51.8698 7.5625 51.7292 7.5625 51.625 7.5625H51.0156C50.9323 7.5625 50.8385 7.56771 50.7344 7.57812C50.6406 7.57812 50.5469 7.58854 50.4531 7.60938L49.8125 9.39062L49.1094 9.29688L49.4531 6.76562C49.5677 6.77604 49.6875 6.78646 49.8125 6.79688C49.9479 6.79688 50.0781 6.80208 50.2031 6.8125C50.3385 6.82292 50.4688 6.82812 50.5938 6.82812C50.7188 6.82812 50.8438 6.82812 50.9688 6.82812H55.4375C55.5521 6.82812 55.6719 6.82812 55.7969 6.82812C55.9323 6.82812 56.0625 6.82292 56.1875 6.8125C56.3125 6.80208 56.4375 6.79688 56.5625 6.79688C56.6979 6.78646 56.8281 6.77604 56.9531 6.76562Z" fill="black"/>
</svg>
